ISO-10303-21;
HEADER;
FILE_DESCRIPTION (( 'STEP AP214' ),
    '1' );
FILE_NAME ('CAPC1608X95N EIA 0603(1).STEP',
    '2018-11-16T14:14:21',
    ( '' ),
    ( '' ),
    'SwSTEP 2.0',
    'SolidWorks 2018',
    '' );
FILE_SCHEMA (( 'AUTOMOTIVE_DESIGN' ));
ENDSEC;

DATA;
#1 = ADVANCED_FACE ( 'NONE', ( #642 ), #198, .T. ) ;
#2 = PRESENTATION_STYLE_ASSIGNMENT (( #452 ) ) ;
#3 = LINE ( 'NONE', #932, #946 ) ;
#4 = EDGE_CURVE ( 'NONE', #28, #1006, #750, .T. ) ;
#5 = CIRCLE ( 'NONE', #594, 0.05000000000000002359 ) ;
#6 = CIRCLE ( 'NONE', #242, 0.05000000000000002359 ) ;
#7 = AXIS2_PLACEMENT_3D ( 'NONE', #473, #370, #277 ) ;
#8 = LINE ( 'NONE', #572, #774 ) ;
#9 = MECHANICAL_DESIGN_GEOMETRIC_PRESENTATION_REPRESENTATION (  '', ( #577 ), #102 ) ;
#10 = DIRECTION ( 'NONE',  ( 1.000000000000000000, 0.0000000000000000000, 0.0000000000000000000 ) ) ;
#11 = ORIENTED_EDGE ( 'NONE', *, *, #719, .F. ) ;
#12 = ORIENTED_EDGE ( 'NONE', *, *, #527, .F. ) ;
#13 = CARTESIAN_POINT ( 'NONE',  ( 0.7500000000000000000, 0.9000000000000000222, 0.3499999999999999778 ) ) ;
#14 = CARTESIAN_POINT ( 'NONE',  ( -0.8000000000000000444, 0.9000000000000000222, 0.4000000000000000222 ) ) ;
#15 = ORIENTED_EDGE ( 'NONE', *, *, #1144, .F. ) ;
#16 = EDGE_CURVE ( 'NONE', #1065, #930, #394, .T. ) ;
#17 = COLOUR_RGB ( '',0.7921568627450980005, 0.8196078431372548767, 0.9333333333333333481 ) ;
#18 = CARTESIAN_POINT ( 'NONE',  ( 0.8000000000000000444, 0.05000000000000000278, 0.3499999999999999778 ) ) ;
#19 = VECTOR ( 'NONE', #521, 1000.000000000000000 ) ;
#20 = LINE ( 'NONE', #14, #35 ) ;
#21 = EDGE_CURVE ( 'NONE', #1121, #1050, #609, .T. ) ;
#22 = DIRECTION ( 'NONE',  ( 0.0000000000000000000, 0.0000000000000000000, -1.000000000000000000 ) ) ;
#23 = VECTOR ( 'NONE', #559, 1000.000000000000000 ) ;
#24 = VERTEX_POINT ( 'NONE', #856 ) ;
#25 = DIRECTION ( 'NONE',  ( -1.000000000000000000, 0.0000000000000000000, 0.0000000000000000000 ) ) ;
#26 = ORIENTED_EDGE ( 'NONE', *, *, #1169, .T. ) ;
#27 = FILL_AREA_STYLE_COLOUR ( '', #910 ) ;
#28 = VERTEX_POINT ( 'NONE', #865 ) ;
#29 = ORIENTED_EDGE ( 'NONE', *, *, #64, .T. ) ;
#30 = CARTESIAN_POINT ( 'NONE',  ( -0.7500000000000000000, 0.9000000000000000222, -0.3499999999999999778 ) ) ;
#31 = ORIENTED_EDGE ( 'NONE', *, *, #79, .T. ) ;
#32 = DIRECTION ( 'NONE',  ( -1.000000000000000000, 0.0000000000000000000, 0.0000000000000000000 ) ) ;
#33 = CYLINDRICAL_SURFACE ( 'NONE', #1092, 0.05000000000000002359 ) ;
#34 = DIRECTION ( 'NONE',  ( -1.000000000000000000, 0.0000000000000000000, 0.0000000000000000000 ) ) ;
#35 = VECTOR ( 'NONE', #761, 1000.000000000000000 ) ;
#36 = CARTESIAN_POINT ( 'NONE',  ( -0.7500000000000000000, 0.9000000000000000222, -0.4000000000000000222 ) ) ;
#37 = CIRCLE ( 'NONE', #1122, 0.05000000000000002359 ) ;
#38 = CIRCLE ( 'NONE', #1013, 0.05000000000000002359 ) ;
#39 = FACE_OUTER_BOUND ( 'NONE', #343, .T. ) ;
#40 = PRESENTATION_LAYER_ASSIGNMENT (  '', '', ( #202 ) ) ;
#41 = DIRECTION ( 'NONE',  ( 0.0000000000000000000, 0.0000000000000000000, 1.000000000000000000 ) ) ;
#42 = DIRECTION ( 'NONE',  ( 0.0000000000000000000, 0.0000000000000000000, 1.000000000000000000 ) ) ;
#43 = DIRECTION ( 'NONE',  ( -1.000000000000000000, 0.0000000000000000000, 0.0000000000000000000 ) ) ;
#44 = VERTEX_POINT ( 'NONE', #1120 ) ;
#45 = AXIS2_PLACEMENT_3D ( 'NONE', #792, #245, #333 ) ;
#46 = DIRECTION ( 'NONE',  ( 1.000000000000000000, 0.0000000000000000000, 0.0000000000000000000 ) ) ;
#47 = VERTEX_POINT ( 'NONE', #1130 ) ;
#48 = CARTESIAN_POINT ( 'NONE',  ( -0.5000000000000000000, 0.9000000000000000222, 0.3499999999999999778 ) ) ;
#49 = ADVANCED_FACE ( 'NONE', ( #729 ), #266, .T. ) ;
#50 = DIRECTION ( 'NONE',  ( 0.0000000000000000000, -1.000000000000000000, 0.0000000000000000000 ) ) ;
#51 = LINE ( 'NONE', #247, #404 ) ;
#52 = CARTESIAN_POINT ( 'NONE',  ( -0.8000000000000000444, 0.9000000000000000222, -0.3499999999999999778 ) ) ;
#53 = STYLED_ITEM ( 'NONE', ( #866 ), #958 ) ;
#54 = FACE_OUTER_BOUND ( 'NONE', #905, .T. ) ;
#55 = DIRECTION ( 'NONE',  ( 1.000000000000000000, 0.0000000000000000000, 0.0000000000000000000 ) ) ;
#56 = AXIS2_PLACEMENT_3D ( 'NONE', #986, #540, #1162 ) ;
#57 =( NAMED_UNIT ( * ) SI_UNIT ( $, .STERADIAN. ) SOLID_ANGLE_UNIT ( ) );
#58 = ORIENTED_EDGE ( 'NONE', *, *, #92, .F. ) ;
#59 = ORIENTED_EDGE ( 'NONE', *, *, #330, .F. ) ;
#60 = ORIENTED_EDGE ( 'NONE', *, *, #396, .T. ) ;
#61 = CARTESIAN_POINT ( 'NONE',  ( -0.5000000000000000000, 0.0000000000000000000, -0.4000000000000000222 ) ) ;
#62 = CARTESIAN_POINT ( 'NONE',  ( -0.7500000000000000000, 0.05000000000000000278, 0.3499999999999999778 ) ) ;
#63 = DIRECTION ( 'NONE',  ( 0.0000000000000000000, 0.0000000000000000000, -1.000000000000000000 ) ) ;
#64 = EDGE_CURVE ( 'NONE', #779, #28, #8, .T. ) ;
#65 = CARTESIAN_POINT ( 'NONE',  ( 0.8000000000000000444, 0.9499999999999999556, 0.4000000000000000222 ) ) ;
#66 = COLOUR_RGB ( '',0.4705882352941176405, 0.2470588235294117752, 0.01568627450980392135 ) ;
#67 = CARTESIAN_POINT ( 'NONE',  ( -0.5000000000000000000, 0.0000000000000000000, -0.3499999999999999778 ) ) ;
#68 = LINE ( 'NONE', #742, #1042 ) ;
#69 = DIRECTION ( 'NONE',  ( 0.0000000000000000000, 1.000000000000000000, 0.0000000000000000000 ) ) ;
#70 = CIRCLE ( 'NONE', #431, 0.05000000000000002359 ) ;
#71 = DIRECTION ( 'NONE',  ( 1.000000000000000000, 2.168404344971010446E-15, 0.0000000000000000000 ) ) ;
#72 = DIRECTION ( 'NONE',  ( 0.0000000000000000000, 0.0000000000000000000, 1.000000000000000000 ) ) ;
#73 = EDGE_CURVE ( 'NONE', #860, #942, #913, .T. ) ;
#74 = AXIS2_PLACEMENT_3D ( 'NONE', #806, #351, #631 ) ;
#75 = ORIENTED_EDGE ( 'NONE', *, *, #385, .F. ) ;
#76 = CARTESIAN_POINT ( 'NONE',  ( 0.5000000000000000000, 0.0000000000000000000, -0.4000000000000000222 ) ) ;
#77 =( GEOMETRIC_REPRESENTATION_CONTEXT ( 3 ) GLOBAL_UNCERTAINTY_ASSIGNED_CONTEXT ( ( #193 ) ) GLOBAL_UNIT_ASSIGNED_CONTEXT ( ( #134, #1138, #783 ) ) REPRESENTATION_CONTEXT ( 'NONE', 'WORKASPACE' ) );
#78 = DIRECTION ( 'NONE',  ( 0.0000000000000000000, -1.000000000000000000, 0.0000000000000000000 ) ) ;
#79 = EDGE_CURVE ( 'NONE', #24, #1006, #85, .T. ) ;
#80 = FACE_OUTER_BOUND ( 'NONE', #744, .T. ) ;
#81 =( NAMED_UNIT ( * ) SI_UNIT ( $, .STERADIAN. ) SOLID_ANGLE_UNIT ( ) );
#82 = CARTESIAN_POINT ( 'NONE',  ( -0.7500000000000000000, 0.9000000000000000222, 0.3499999999999999778 ) ) ;
#83 = SPHERICAL_SURFACE ( 'NONE', #993, 0.05000000000000000278 ) ;
#84 = UNCERTAINTY_MEASURE_WITH_UNIT (LENGTH_MEASURE( 1.000000000000000082E-05 ), #139, 'distance_accuracy_value', 'NONE');
#85 = CIRCLE ( 'NONE', #1118, 0.05000000000000002359 ) ;
#86 =( GEOMETRIC_REPRESENTATION_CONTEXT ( 3 ) GLOBAL_UNCERTAINTY_ASSIGNED_CONTEXT ( ( #971 ) ) GLOBAL_UNIT_ASSIGNED_CONTEXT ( ( #153, #798, #249 ) ) REPRESENTATION_CONTEXT ( 'NONE', 'WORKASPACE' ) );
#87 = ADVANCED_FACE ( 'NONE', ( #39 ), #363, .T. ) ;
#88 = APPLICATION_CONTEXT ( 'automotive_design' ) ;
#89 = CARTESIAN_POINT ( 'NONE',  ( 0.7500000000000000000, 0.05000000000000000278, -0.3499999999999999778 ) ) ;
#90 = EDGE_LOOP ( 'NONE', ( #686, #810, #320, #739 ) ) ;
#91 = ORIENTED_EDGE ( 'NONE', *, *, #440, .F. ) ;
#92 = EDGE_CURVE ( 'NONE', #1065, #133, #893, .T. ) ;
#93 = ORIENTED_EDGE ( 'NONE', *, *, #152, .T. ) ;
#94 = LINE ( 'NONE', #61, #1054 ) ;
#95 = CARTESIAN_POINT ( 'NONE',  ( -0.7500000000000000000, 0.05000000000000000278, -0.3499999999999999778 ) ) ;
#96 = VECTOR ( 'NONE', #987, 1000.000000000000000 ) ;
#97 = CIRCLE ( 'NONE', #219, 0.05000000000000002359 ) ;
#98 = STYLED_ITEM ( 'NONE', ( #1115 ), #561 ) ;
#99 = ADVANCED_FACE ( 'NONE', ( #114 ), #749, .T. ) ;
#100 = DIRECTION ( 'NONE',  ( 1.000000000000000000, 0.0000000000000000000, 0.0000000000000000000 ) ) ;
#101 = FACE_OUTER_BOUND ( 'NONE', #644, .T. ) ;
#102 =( GEOMETRIC_REPRESENTATION_CONTEXT ( 3 ) GLOBAL_UNCERTAINTY_ASSIGNED_CONTEXT ( ( #208 ) ) GLOBAL_UNIT_ASSIGNED_CONTEXT ( ( #295, #586, #679 ) ) REPRESENTATION_CONTEXT ( 'NONE', 'WORKASPACE' ) );
#103 = DIRECTION ( 'NONE',  ( 1.000000000000000000, 0.0000000000000000000, 0.0000000000000000000 ) ) ;
#104 = SURFACE_SIDE_STYLE ('',( #938 ) ) ;
#105 = ORIENTED_EDGE ( 'NONE', *, *, #460, .F. ) ;
#106 = ORIENTED_EDGE ( 'NONE', *, *, #636, .F. ) ;
#107 = CARTESIAN_POINT ( 'NONE',  ( -0.8000000000000000444, 0.05000000000000000278, 0.3499999999999999778 ) ) ;
#108 = DIRECTION ( 'NONE',  ( 1.000000000000000000, 0.0000000000000000000, 0.0000000000000000000 ) ) ;
#109 = LINE ( 'NONE', #259, #981 ) ;
#110 = EDGE_CURVE ( 'NONE', #306, #715, #592, .T. ) ;
#111 = CARTESIAN_POINT ( 'NONE',  ( -0.7500000000000000000, 0.05000000000000000278, -0.3499999999999999778 ) ) ;
#112 = FACE_OUTER_BOUND ( 'NONE', #471, .T. ) ;
#113 = AXIS2_PLACEMENT_3D ( 'NONE', #983, #1159, #990 ) ;
#114 = FACE_OUTER_BOUND ( 'NONE', #973, .T. ) ;
#115 =( LENGTH_UNIT ( ) NAMED_UNIT ( * ) SI_UNIT ( .MILLI., .METRE. ) );
#116 = STYLED_ITEM ( 'NONE', ( #1113 ), #992 ) ;
#117 = ORIENTED_EDGE ( 'NONE', *, *, #845, .T. ) ;
#118 = CARTESIAN_POINT ( 'NONE',  ( 0.8000000000000000444, 0.9000000000000000222, -0.3499999999999999778 ) ) ;
#119 = DIRECTION ( 'NONE',  ( -1.000000000000000000, 0.0000000000000000000, 0.0000000000000000000 ) ) ;
#120 = AXIS2_PLACEMENT_3D ( 'NONE', #847, #405, #213 ) ;
#121 = SURFACE_STYLE_USAGE ( .BOTH. , #478 ) ;
#122 = FACE_OUTER_BOUND ( 'NONE', #457, .T. ) ;
#123 = LINE ( 'NONE', #827, #1000 ) ;
#124 = CARTESIAN_POINT ( 'NONE',  ( 0.5000000000000000000, 0.9000000000000000222, 0.3499999999999999778 ) ) ;
#125 = FACE_OUTER_BOUND ( 'NONE', #513, .T. ) ;
#126 = ORIENTED_EDGE ( 'NONE', *, *, #425, .F. ) ;
#127 = DIRECTION ( 'NONE',  ( 0.0000000000000000000, 0.0000000000000000000, -1.000000000000000000 ) ) ;
#128 = EDGE_LOOP ( 'NONE', ( #399, #526, #646, #191 ) ) ;
#129 = DIRECTION ( 'NONE',  ( 0.0000000000000000000, 0.0000000000000000000, -1.000000000000000000 ) ) ;
#130 = EDGE_LOOP ( 'NONE', ( #214, #235, #944, #368 ) ) ;
#131 = DIRECTION ( 'NONE',  ( 0.0000000000000000000, 0.0000000000000000000, -1.000000000000000000 ) ) ;
#132 = EDGE_CURVE ( 'NONE', #960, #192, #1134, .T. ) ;
#133 = VERTEX_POINT ( 'NONE', #1074 ) ;
#134 =( LENGTH_UNIT ( ) NAMED_UNIT ( * ) SI_UNIT ( .MILLI., .METRE. ) );
#135 = DIRECTION ( 'NONE',  ( -1.000000000000000000, 0.0000000000000000000, 0.0000000000000000000 ) ) ;
#136 = AXIS2_PLACEMENT_3D ( 'NONE', #30, #874, #216 ) ;
#137 = UNCERTAINTY_MEASURE_WITH_UNIT (LENGTH_MEASURE( 1.000000000000000082E-05 ), #711, 'distance_accuracy_value', 'NONE');
#138 = DIRECTION ( 'NONE',  ( 0.0000000000000000000, 0.0000000000000000000, -1.000000000000000000 ) ) ;
#139 =( LENGTH_UNIT ( ) NAMED_UNIT ( * ) SI_UNIT ( .MILLI., .METRE. ) );
#140 = CIRCLE ( 'NONE', #120, 0.05000000000000002359 ) ;
#141 = EDGE_CURVE ( 'NONE', #809, #918, #512, .T. ) ;
#142 = DIRECTION ( 'NONE',  ( 0.0000000000000000000, -1.000000000000000000, 0.0000000000000000000 ) ) ;
#143 = DIRECTION ( 'NONE',  ( 0.0000000000000000000, 0.0000000000000000000, 1.000000000000000000 ) ) ;
#144 = EDGE_LOOP ( 'NONE', ( #215, #1157, #355, #988 ) ) ;
#145 = CARTESIAN_POINT ( 'NONE',  ( 0.5000000000000000000, 0.05000000000000000278, 0.3499999999999999778 ) ) ;
#146 = ADVANCED_FACE ( 'NONE', ( #641 ), #1151, .F. ) ;
#147 = PRODUCT_DEFINITION_FORMATION_WITH_SPECIFIED_SOURCE ( 'ANY', '', #778, .NOT_KNOWN. ) ;
#148 = EDGE_LOOP ( 'NONE', ( #797, #541, #1016, #410 ) ) ;
#149 = ORIENTED_EDGE ( 'NONE', *, *, #503, .F. ) ;
#150 = ORIENTED_EDGE ( 'NONE', *, *, #890, .F. ) ;
#151 = CARTESIAN_POINT ( 'NONE',  ( 0.8000000000000000444, 0.05000000000000000278, -0.4000000000000000222 ) ) ;
#152 = EDGE_CURVE ( 'NONE', #44, #812, #1075, .T. ) ;
#153 =( LENGTH_UNIT ( ) NAMED_UNIT ( * ) SI_UNIT ( .MILLI., .METRE. ) );
#154 = FACE_OUTER_BOUND ( 'NONE', #875, .T. ) ;
#155 = DIRECTION ( 'NONE',  ( -1.000000000000000000, 0.0000000000000000000, 0.0000000000000000000 ) ) ;
#156 = CARTESIAN_POINT ( 'NONE',  ( -0.8000000000000000444, 0.05000000000000000278, -0.3499999999999999778 ) ) ;
#157 = SPHERICAL_SURFACE ( 'NONE', #371, 0.05000000000000000278 ) ;
#158 = SURFACE_SIDE_STYLE ('',( #826 ) ) ;
#159 = ORIENTED_EDGE ( 'NONE', *, *, #1001, .T. ) ;
#160 = CARTESIAN_POINT ( 'NONE',  ( -0.7500000000000000000, 0.9000000000000000222, 0.3499999999999999778 ) ) ;
#161 = DIRECTION ( 'NONE',  ( 0.0000000000000000000, 0.0000000000000000000, -1.000000000000000000 ) ) ;
#162 = ORIENTED_EDGE ( 'NONE', *, *, #402, .T. ) ;
#163 = AXIS2_PLACEMENT_3D ( 'NONE', #978, #885, #337 ) ;
#164 = VERTEX_POINT ( 'NONE', #800 ) ;
#165 = DIRECTION ( 'NONE',  ( 0.0000000000000000000, 0.0000000000000000000, -1.000000000000000000 ) ) ;
#166 = DIRECTION ( 'NONE',  ( 0.0000000000000000000, -1.000000000000000000, 0.0000000000000000000 ) ) ;
#167 = ORIENTED_EDGE ( 'NONE', *, *, #520, .T. ) ;
#168 = ADVANCED_FACE ( 'NONE', ( #494 ), #1139, .F. ) ;
#169 = CARTESIAN_POINT ( 'NONE',  ( 0.5000000000000000000, 0.05000000000000000278, 0.4000000000000000222 ) ) ;
#170 = DIRECTION ( 'NONE',  ( 1.000000000000000000, 0.0000000000000000000, 0.0000000000000000000 ) ) ;
#171 = LINE ( 'NONE', #226, #565 ) ;
#172 = ADVANCED_FACE ( 'NONE', ( #772 ), #450, .T. ) ;
#173 = EDGE_CURVE ( 'NONE', #779, #896, #1011, .T. ) ;
#174 = ORIENTED_EDGE ( 'NONE', *, *, #867, .F. ) ;
#175 = APPLICATION_PROTOCOL_DEFINITION ( 'draft international standard', 'automotive_design', 1998, #545 ) ;
#176 = EDGE_LOOP ( 'NONE', ( #336, #917, #857, #558 ) ) ;
#177 = ADVANCED_FACE ( 'NONE', ( #212 ), #1060, .T. ) ;
#178 = AXIS2_PLACEMENT_3D ( 'NONE', #1106, #843, #108 ) ;
#179 = FACE_OUTER_BOUND ( 'NONE', #90, .T. ) ;
#180 = AXIS2_PLACEMENT_3D ( 'NONE', #1030, #1099, #570 ) ;
#181 = CIRCLE ( 'NONE', #1031, 0.05000000000000002359 ) ;
#182 = ADVANCED_FACE ( 'NONE', ( #737 ), #717, .F. ) ;
#183 = DIRECTION ( 'NONE',  ( 0.0000000000000000000, 0.0000000000000000000, -1.000000000000000000 ) ) ;
#184 = CIRCLE ( 'NONE', #802, 0.05000000000000002359 ) ;
#185 = VECTOR ( 'NONE', #804, 1000.000000000000000 ) ;
#186 = CARTESIAN_POINT ( 'NONE',  ( -0.8000000000000000444, 0.05000000000000000278, -0.4000000000000000222 ) ) ;
#187 = ORIENTED_EDGE ( 'NONE', *, *, #967, .F. ) ;
#188 = VERTEX_POINT ( 'NONE', #359 ) ;
#189 = EDGE_CURVE ( 'NONE', #1006, #1140, #1149, .T. ) ;
#190 = EDGE_LOOP ( 'NONE', ( #615, #468, #919 ) ) ;
#191 = ORIENTED_EDGE ( 'NONE', *, *, #582, .T. ) ;
#192 = VERTEX_POINT ( 'NONE', #998 ) ;
#193 = UNCERTAINTY_MEASURE_WITH_UNIT (LENGTH_MEASURE( 1.000000000000000082E-05 ), #134, 'distance_accuracy_value', 'NONE');
#194 =( NAMED_UNIT ( * ) PLANE_ANGLE_UNIT ( ) SI_UNIT ( $, .RADIAN. ) );
#195 = EDGE_CURVE ( 'NONE', #164, #24, #854, .T. ) ;
#196 = VECTOR ( 'NONE', #734, 1000.000000000000000 ) ;
#197 = CARTESIAN_POINT ( 'NONE',  ( -0.7500000000000000000, 0.9499999999999999556, 0.3499999999999999778 ) ) ;
#198 = CYLINDRICAL_SURFACE ( 'NONE', #601, 0.05000000000000002359 ) ;
#199 = DIRECTION ( 'NONE',  ( 0.0000000000000000000, 0.0000000000000000000, 1.000000000000000000 ) ) ;
#200 = VERTEX_POINT ( 'NONE', #270 ) ;
#201 = DIRECTION ( 'NONE',  ( -1.000000000000000000, 0.0000000000000000000, 0.0000000000000000000 ) ) ;
#202 = STYLED_ITEM ( 'NONE', ( #1165 ), #1 ) ;
#203 = ORIENTED_EDGE ( 'NONE', *, *, #1144, .T. ) ;
#204 = ORIENTED_EDGE ( 'NONE', *, *, #903, .F. ) ;
#205 = CARTESIAN_POINT ( 'NONE',  ( -0.8000000000000000444, 0.0000000000000000000, 0.3499999999999999778 ) ) ;
#206 = PLANE ( 'NONE',  #178 ) ;
#207 = FACE_OUTER_BOUND ( 'NONE', #239, .T. ) ;
#208 = UNCERTAINTY_MEASURE_WITH_UNIT (LENGTH_MEASURE( 1.000000000000000082E-05 ), #295, 'distance_accuracy_value', 'NONE');
#209 = CARTESIAN_POINT ( 'NONE',  ( 0.7500000000000000000, 0.05000000000000000278, 0.4000000000000000222 ) ) ;
#210 = COLOUR_RGB ( '',0.4705882352941176405, 0.2470588235294117752, 0.01568627450980392135 ) ;
#211 = EDGE_CURVE ( 'NONE', #1153, #809, #6, .T. ) ;
#212 = FACE_OUTER_BOUND ( 'NONE', #955, .T. ) ;
#213 = DIRECTION ( 'NONE',  ( 1.000000000000000000, 0.0000000000000000000, 0.0000000000000000000 ) ) ;
#214 = ORIENTED_EDGE ( 'NONE', *, *, #152, .F. ) ;
#215 = ORIENTED_EDGE ( 'NONE', *, *, #1110, .F. ) ;
#216 = DIRECTION ( 'NONE',  ( -2.168404344971007685E-15, 0.0000000000000000000, 1.000000000000000000 ) ) ;
#217 = ORIENTED_EDGE ( 'NONE', *, *, #189, .T. ) ;
#218 = ORIENTED_EDGE ( 'NONE', *, *, #813, .T. ) ;
#219 = AXIS2_PLACEMENT_3D ( 'NONE', #945, #690, #1044 ) ;
#220 = ORIENTED_EDGE ( 'NONE', *, *, #813, .F. ) ;
#221 = DIRECTION ( 'NONE',  ( 1.000000000000000000, 0.0000000000000000000, 0.0000000000000000000 ) ) ;
#222 = MECHANICAL_DESIGN_GEOMETRIC_PRESENTATION_REPRESENTATION (  '', ( #53 ), #1132 ) ;
#223 = CARTESIAN_POINT ( 'NONE',  ( -0.7500000000000000000, 0.05000000000000000278, -0.4000000000000000222 ) ) ;
#224 = FACE_OUTER_BOUND ( 'NONE', #176, .T. ) ;
#225 = FACE_OUTER_BOUND ( 'NONE', #1062, .T. ) ;
#226 = CARTESIAN_POINT ( 'NONE',  ( -0.8000000000000000444, 0.05000000000000000278, -0.4000000000000000222 ) ) ;
#227 = EDGE_CURVE ( 'NONE', #188, #715, #248, .T. ) ;
#228 = SURFACE_SIDE_STYLE ('',( #1093 ) ) ;
#229 = CYLINDRICAL_SURFACE ( 'NONE', #56, 0.05000000000000002359 ) ;
#230 = PRESENTATION_STYLE_ASSIGNMENT (( #698 ) ) ;
#231 = PLANE ( 'NONE',  #374 ) ;
#232 = ADVANCED_FACE ( 'NONE', ( #407 ), #157, .T. ) ;
#233 = CARTESIAN_POINT ( 'NONE',  ( 0.7500000000000000000, 0.9000000000000000222, -0.3499999999999999778 ) ) ;
#234 = CARTESIAN_POINT ( 'NONE',  ( -0.8000000000000000444, 0.9499999999999999556, 0.4000000000000000222 ) ) ;
#235 = ORIENTED_EDGE ( 'NONE', *, *, #1071, .T. ) ;
#236 = EDGE_LOOP ( 'NONE', ( #383, #1142, #1107, #218 ) ) ;
#237 = DIRECTION ( 'NONE',  ( 0.0000000000000000000, 0.0000000000000000000, -1.000000000000000000 ) ) ;
#238 = EDGE_CURVE ( 'NONE', #251, #280, #1175, .T. ) ;
#239 = EDGE_LOOP ( 'NONE', ( #831, #573, #906, #409 ) ) ;
#240 = DIRECTION ( 'NONE',  ( 0.0000000000000000000, 0.0000000000000000000, -1.000000000000000000 ) ) ;
#241 = DIRECTION ( 'NONE',  ( 0.0000000000000000000, -1.000000000000000000, 0.0000000000000000000 ) ) ;
#242 = AXIS2_PLACEMENT_3D ( 'NONE', #643, #818, #732 ) ;
#243 = DIRECTION ( 'NONE',  ( 1.000000000000000000, 2.168404344971010446E-15, 0.0000000000000000000 ) ) ;
#244 = MECHANICAL_DESIGN_GEOMETRIC_PRESENTATION_REPRESENTATION (  '', ( #884 ), #1058 ) ;
#245 = DIRECTION ( 'NONE',  ( 0.0000000000000000000, -1.000000000000000000, 0.0000000000000000000 ) ) ;
#246 = DIRECTION ( 'NONE',  ( 0.0000000000000000000, 0.0000000000000000000, -1.000000000000000000 ) ) ;
#247 = CARTESIAN_POINT ( 'NONE',  ( -0.7500000000000000000, 0.9499999999999999556, -0.4000000000000000222 ) ) ;
#248 = CIRCLE ( 'NONE', #113, 0.05000000000000002359 ) ;
#249 =( NAMED_UNIT ( * ) SI_UNIT ( $, .STERADIAN. ) SOLID_ANGLE_UNIT ( ) );
#250 = SURFACE_STYLE_USAGE ( .BOTH. , #869 ) ;
#251 = VERTEX_POINT ( 'NONE', #538 ) ;
#252 = CARTESIAN_POINT ( 'NONE',  ( 0.5000000000000000000, 0.0000000000000000000, 0.3499999999999999778 ) ) ;
#253 = ORIENTED_EDGE ( 'NONE', *, *, #92, .T. ) ;
#254 = DIRECTION ( 'NONE',  ( 1.000000000000000000, 0.0000000000000000000, 0.0000000000000000000 ) ) ;
#255 = ORIENTED_EDGE ( 'NONE', *, *, #921, .F. ) ;
#256 = CARTESIAN_POINT ( 'NONE',  ( -0.5000000000000000000, 0.9499999999999999556, -0.4000000000000000222 ) ) ;
#257 =( NAMED_UNIT ( * ) PLANE_ANGLE_UNIT ( ) SI_UNIT ( $, .RADIAN. ) );
#258 = EDGE_CURVE ( 'NONE', #251, #514, #1026, .T. ) ;
#259 = CARTESIAN_POINT ( 'NONE',  ( 0.8000000000000000444, 0.9499999999999999556, -0.3499999999999999778 ) ) ;
#260 = CYLINDRICAL_SURFACE ( 'NONE', #605, 0.05000000000000002359 ) ;
#261 = FACE_OUTER_BOUND ( 'NONE', #900, .T. ) ;
#262 = DIRECTION ( 'NONE',  ( 0.0000000000000000000, 0.0000000000000000000, -1.000000000000000000 ) ) ;
#263 = DIRECTION ( 'NONE',  ( 0.0000000000000000000, 0.0000000000000000000, 1.000000000000000000 ) ) ;
#264 = VECTOR ( 'NONE', #961, 1000.000000000000000 ) ;
#265 = EDGE_CURVE ( 'NONE', #571, #397, #937, .T. ) ;
#266 = CYLINDRICAL_SURFACE ( 'NONE', #645, 0.05000000000000002359 ) ;
#267 = DIRECTION ( 'NONE',  ( 0.0000000000000000000, 0.0000000000000000000, -1.000000000000000000 ) ) ;
#268 = VERTEX_POINT ( 'NONE', #67 ) ;
#269 =( LENGTH_UNIT ( ) NAMED_UNIT ( * ) SI_UNIT ( .MILLI., .METRE. ) );
#270 = CARTESIAN_POINT ( 'NONE',  ( -0.7500000000000000000, 0.0000000000000000000, -0.3499999999999999778 ) ) ;
#271 = ORIENTED_EDGE ( 'NONE', *, *, #1012, .T. ) ;
#272 = AXIS2_PLACEMENT_3D ( 'NONE', #1020, #483, #591 ) ;
#273 = ADVANCED_FACE ( 'NONE', ( #101 ), #912, .T. ) ;
#274 =( NAMED_UNIT ( * ) PLANE_ANGLE_UNIT ( ) SI_UNIT ( $, .RADIAN. ) );
#275 = LINE ( 'NONE', #532, #19 ) ;
#276 = FACE_OUTER_BOUND ( 'NONE', #883, .T. ) ;
#277 = DIRECTION ( 'NONE',  ( 0.0000000000000000000, 0.0000000000000000000, 1.000000000000000000 ) ) ;
#278 = EDGE_CURVE ( 'NONE', #251, #133, #1163, .T. ) ;
#279 = ORIENTED_EDGE ( 'NONE', *, *, #770, .F. ) ;
#280 = VERTEX_POINT ( 'NONE', #724 ) ;
#281 = DIRECTION ( 'NONE',  ( -1.000000000000000000, 0.0000000000000000000, 0.0000000000000000000 ) ) ;
#282 = ADVANCED_FACE ( 'NONE', ( #1094 ), #229, .T. ) ;
#283 = ORIENTED_EDGE ( 'NONE', *, *, #211, .T. ) ;
#284 = DIRECTION ( 'NONE',  ( 0.0000000000000000000, 0.0000000000000000000, -1.000000000000000000 ) ) ;
#285 = AXIS2_PLACEMENT_3D ( 'NONE', #1053, #1117, #507 ) ;
#286 = CARTESIAN_POINT ( 'NONE',  ( 0.7500000000000000000, 0.9000000000000000222, 0.3499999999999999778 ) ) ;
#287 = AXIS2_PLACEMENT_3D ( 'NONE', #414, #41, #1047 ) ;
#288 = LINE ( 'NONE', #859, #477 ) ;
#289 = PRESENTATION_STYLE_ASSIGNMENT (( #250 ) ) ;
#290 = CARTESIAN_POINT ( 'NONE',  ( 0.7500000000000000000, 0.05000000000000000278, -0.3499999999999999778 ) ) ;
#291 = ORIENTED_EDGE ( 'NONE', *, *, #211, .F. ) ;
#292 = ORIENTED_EDGE ( 'NONE', *, *, #782, .T. ) ;
#293 = EDGE_CURVE ( 'NONE', #44, #1003, #791, .T. ) ;
#294 = EDGE_LOOP ( 'NONE', ( #1033, #793, #1029, #794 ) ) ;
#295 =( LENGTH_UNIT ( ) NAMED_UNIT ( * ) SI_UNIT ( .MILLI., .METRE. ) );
#296 = ORIENTED_EDGE ( 'NONE', *, *, #173, .T. ) ;
#297 = DIRECTION ( 'NONE',  ( 1.000000000000000000, 0.0000000000000000000, 0.0000000000000000000 ) ) ;
#298 = VECTOR ( 'NONE', #436, 1000.000000000000000 ) ;
#299 = EDGE_CURVE ( 'NONE', #1140, #860, #466, .T. ) ;
#300 = COLOUR_RGB ( '',0.7529411764705882248, 0.7529411764705882248, 0.7529411764705882248 ) ;
#301 = AXIS2_PLACEMENT_3D ( 'NONE', #704, #241, #877 ) ;
#302 = CYLINDRICAL_SURFACE ( 'NONE', #180, 0.05000000000000002359 ) ;
#303 = FILL_AREA_STYLE ('',( #1109 ) ) ;
#304 = EDGE_LOOP ( 'NONE', ( #203, #878, #292, #458 ) ) ;
#305 = CARTESIAN_POINT ( 'NONE',  ( -0.5000000000000000000, 0.05000000000000000278, -0.3499999999999999778 ) ) ;
#306 = VERTEX_POINT ( 'NONE', #1091 ) ;
#307 = AXIS2_PLACEMENT_3D ( 'NONE', #943, #420, #329 ) ;
#308 = ORIENTED_EDGE ( 'NONE', *, *, #840, .T. ) ;
#309 = ORIENTED_EDGE ( 'NONE', *, *, #293, .F. ) ;
#310 = CARTESIAN_POINT ( 'NONE',  ( -0.7500000000000000000, 0.9499999999999999556, -0.3499999999999999778 ) ) ;
#311 = CIRCLE ( 'NONE', #475, 0.05000000000000002359 ) ;
#312 = STYLED_ITEM ( 'NONE', ( #289 ), #99 ) ;
#313 = DIRECTION ( 'NONE',  ( 0.0000000000000000000, 0.0000000000000000000, -1.000000000000000000 ) ) ;
#314 = FACE_OUTER_BOUND ( 'NONE', #1123, .T. ) ;
#315 = VECTOR ( 'NONE', #1170, 1000.000000000000000 ) ;
#316 = DIRECTION ( 'NONE',  ( 1.000000000000000000, 0.0000000000000000000, 0.0000000000000000000 ) ) ;
#317 = VECTOR ( 'NONE', #533, 1000.000000000000000 ) ;
#318 = DIRECTION ( 'NONE',  ( 0.0000000000000000000, 0.0000000000000000000, 1.000000000000000000 ) ) ;
#319 = SURFACE_STYLE_USAGE ( .BOTH. , #104 ) ;
#320 = ORIENTED_EDGE ( 'NONE', *, *, #1128, .T. ) ;
#321 = EDGE_CURVE ( 'NONE', #200, #833, #184, .T. ) ;
#322 = EDGE_LOOP ( 'NONE', ( #683, #585, #75 ) ) ;
#323 = AXIS2_PLACEMENT_3D ( 'NONE', #453, #267, #1166 ) ;
#324 = PLANE ( 'NONE',  #894 ) ;
#325 = PRESENTATION_LAYER_ASSIGNMENT (  '', '', ( #577 ) ) ;
#326 = CARTESIAN_POINT ( 'NONE',  ( -0.7500000000000000000, 0.05000000000000000278, 0.3499999999999999778 ) ) ;
#327 = DIRECTION ( 'NONE',  ( 0.0000000000000000000, -1.000000000000000000, 0.0000000000000000000 ) ) ;
#328 = VECTOR ( 'NONE', #254, 1000.000000000000000 ) ;
#329 = DIRECTION ( 'NONE',  ( 0.0000000000000000000, 0.0000000000000000000, -1.000000000000000000 ) ) ;
#330 = EDGE_CURVE ( 'NONE', #354, #280, #434, .T. ) ;
#331 = CARTESIAN_POINT ( 'NONE',  ( 0.8000000000000000444, 0.05000000000000000278, 0.4000000000000000222 ) ) ;
#332 = CARTESIAN_POINT ( 'NONE',  ( -0.7500000000000000000, 0.9499999999999999556, -0.3499999999999999778 ) ) ;
#333 = DIRECTION ( 'NONE',  ( 0.0000000000000000000, 0.0000000000000000000, -1.000000000000000000 ) ) ;
#334 =( NAMED_UNIT ( * ) PLANE_ANGLE_UNIT ( ) SI_UNIT ( $, .RADIAN. ) );
#335 = ADVANCED_FACE ( 'NONE', ( #125 ), #567, .T. ) ;
#336 = ORIENTED_EDGE ( 'NONE', *, *, #227, .F. ) ;
#337 = DIRECTION ( 'NONE',  ( -1.000000000000000000, 0.0000000000000000000, 0.0000000000000000000 ) ) ;
#338 = EDGE_CURVE ( 'NONE', #268, #896, #624, .T. ) ;
#339 = ORIENTED_EDGE ( 'NONE', *, *, #770, .T. ) ;
#340 = UNCERTAINTY_MEASURE_WITH_UNIT (LENGTH_MEASURE( 1.000000000000000082E-05 ), #1032, 'distance_accuracy_value', 'NONE');
#341 = DIRECTION ( 'NONE',  ( 0.0000000000000000000, 1.000000000000000000, 0.0000000000000000000 ) ) ;
#342 =( NAMED_UNIT ( * ) SI_UNIT ( $, .STERADIAN. ) SOLID_ANGLE_UNIT ( ) );
#343 = EDGE_LOOP ( 'NONE', ( #977, #542, #187 ) ) ;
#344 = PRODUCT_DEFINITION_SHAPE ( 'NONE', 'NONE',  #549 ) ;
#345 = FACE_OUTER_BOUND ( 'NONE', #236, .T. ) ;
#346 = DIRECTION ( 'NONE',  ( 0.0000000000000000000, -1.000000000000000000, 0.0000000000000000000 ) ) ;
#347 = CARTESIAN_POINT ( 'NONE',  ( 0.5000000000000000000, 0.9499999999999999556, -0.4000000000000000222 ) ) ;
#348 = VECTOR ( 'NONE', #951, 1000.000000000000000 ) ;
#349 =( NAMED_UNIT ( * ) SI_UNIT ( $, .STERADIAN. ) SOLID_ANGLE_UNIT ( ) );
#350 = VECTOR ( 'NONE', #899, 1000.000000000000000 ) ;
#351 = DIRECTION ( 'NONE',  ( 0.0000000000000000000, -1.000000000000000000, 0.0000000000000000000 ) ) ;
#352 = AXIS2_PLACEMENT_3D ( 'NONE', #326, #500, #1051 ) ;
#353 = DIRECTION ( 'NONE',  ( -1.000000000000000000, 0.0000000000000000000, 0.0000000000000000000 ) ) ;
#354 = VERTEX_POINT ( 'NONE', #384 ) ;
#355 = ORIENTED_EDGE ( 'NONE', *, *, #489, .F. ) ;
#356 = EDGE_LOOP ( 'NONE', ( #991, #1167, #162, #1168 ) ) ;
#357 = CARTESIAN_POINT ( 'NONE',  ( 0.5000000000000000000, 0.0000000000000000000, -0.3499999999999999778 ) ) ;
#358 = EDGE_CURVE ( 'NONE', #397, #858, #70, .T. ) ;
#359 = CARTESIAN_POINT ( 'NONE',  ( 0.7500000000000000000, 0.9000000000000000222, 0.4000000000000000222 ) ) ;
#360 = LINE ( 'NONE', #968, #298 ) ;
#361 = DIRECTION ( 'NONE',  ( 0.0000000000000000000, 0.0000000000000000000, -1.000000000000000000 ) ) ;
#362 = EDGE_CURVE ( 'NONE', #823, #1002, #807, .T. ) ;
#363 = SPHERICAL_SURFACE ( 'NONE', #1179, 0.05000000000000000278 ) ;
#364 = AXIS2_PLACEMENT_3D ( 'NONE', #89, #284, #1009 ) ;
#365 = DIRECTION ( 'NONE',  ( 1.000000000000000000, 0.0000000000000000000, 0.0000000000000000000 ) ) ;
#366 = ORIENTED_EDGE ( 'NONE', *, *, #299, .F. ) ;
#367 = PRESENTATION_LAYER_ASSIGNMENT (  '', '', ( #116 ) ) ;
#368 = ORIENTED_EDGE ( 'NONE', *, *, #629, .T. ) ;
#369 = FILL_AREA_STYLE ('',( #1077 ) ) ;
#370 = DIRECTION ( 'NONE',  ( 0.0000000000000000000, -1.000000000000000000, 0.0000000000000000000 ) ) ;
#371 = AXIS2_PLACEMENT_3D ( 'NONE', #82, #361, #441 ) ;
#372 = VECTOR ( 'NONE', #166, 1000.000000000000000 ) ;
#373 = DIRECTION ( 'NONE',  ( 1.000000000000000000, 0.0000000000000000000, 0.0000000000000000000 ) ) ;
#374 = AXIS2_PLACEMENT_3D ( 'NONE', #499, #1127, #416 ) ;
#375 = VECTOR ( 'NONE', #656, 1000.000000000000000 ) ;
#376 = COLOUR_RGB ( '',0.4705882352941176405, 0.2470588235294117752, 0.01568627450980392135 ) ;
#377 =( GEOMETRIC_REPRESENTATION_CONTEXT ( 3 ) GLOBAL_UNCERTAINTY_ASSIGNED_CONTEXT ( ( #84 ) ) GLOBAL_UNIT_ASSIGNED_CONTEXT ( ( #139, #334, #342 ) ) REPRESENTATION_CONTEXT ( 'NONE', 'WORKASPACE' ) );
#378 = ORIENTED_EDGE ( 'NONE', *, *, #489, .T. ) ;
#379 = CARTESIAN_POINT ( 'NONE',  ( -0.8000000000000000444, 0.9499999999999999556, 0.3499999999999999778 ) ) ;
#380 = ORIENTED_EDGE ( 'NONE', *, *, #16, .F. ) ;
#381 = AXIS2_PLACEMENT_3D ( 'NONE', #613, #1171, #365 ) ;
#382 = ORIENTED_EDGE ( 'NONE', *, *, #582, .F. ) ;
#383 = ORIENTED_EDGE ( 'NONE', *, *, #828, .T. ) ;
#384 = CARTESIAN_POINT ( 'NONE',  ( 0.7500000000000000000, 0.05000000000000000278, -0.4000000000000000222 ) ) ;
#385 = EDGE_CURVE ( 'NONE', #960, #715, #38, .T. ) ;
#386 = CARTESIAN_POINT ( 'NONE',  ( 0.5000000000000000000, 0.9000000000000000222, 0.4000000000000000222 ) ) ;
#387 = AXIS2_PLACEMENT_3D ( 'NONE', #209, #939, #1103 ) ;
#388 = PRESENTATION_STYLE_ASSIGNMENT (( #419 ) ) ;
#389 = FILL_AREA_STYLE_COLOUR ( '', #950 ) ;
#390 = LINE ( 'NONE', #429, #1010 ) ;
#391 = CIRCLE ( 'NONE', #928, 0.05000000000000002359 ) ;
#392 = VECTOR ( 'NONE', #1027, 1000.000000000000000 ) ;
#393 = COLOUR_RGB ( '',0.4705882352941176405, 0.2470588235294117752, 0.01568627450980392135 ) ;
#394 = CIRCLE ( 'NONE', #819, 0.05000000000000002359 ) ;
#395 = DIRECTION ( 'NONE',  ( 0.0000000000000000000, 0.0000000000000000000, 1.000000000000000000 ) ) ;
#396 = EDGE_CURVE ( 'NONE', #24, #515, #68, .T. ) ;
#397 = VERTEX_POINT ( 'NONE', #920 ) ;
#398 =( NAMED_UNIT ( * ) PLANE_ANGLE_UNIT ( ) SI_UNIT ( $, .RADIAN. ) );
#399 = ORIENTED_EDGE ( 'NONE', *, *, #1071, .F. ) ;
#400 = EDGE_LOOP ( 'NONE', ( #714, #597, #929, #684 ) ) ;
#401 = VECTOR ( 'NONE', #1055, 1000.000000000000000 ) ;
#402 = EDGE_CURVE ( 'NONE', #397, #188, #123, .T. ) ;
#403 = DIRECTION ( 'NONE',  ( 1.000000000000000000, 0.0000000000000000000, 0.0000000000000000000 ) ) ;
#404 = VECTOR ( 'NONE', #1076, 1000.000000000000000 ) ;
#405 = DIRECTION ( 'NONE',  ( 0.0000000000000000000, 0.0000000000000000000, -1.000000000000000000 ) ) ;
#406 = FILL_AREA_STYLE ('',( #27 ) ) ;
#407 = FACE_OUTER_BOUND ( 'NONE', #190, .T. ) ;
#408 = CARTESIAN_POINT ( 'NONE',  ( -0.7500000000000000000, 0.05000000000000000278, -0.3499999999999999778 ) ) ;
#409 = ORIENTED_EDGE ( 'NONE', *, *, #1128, .F. ) ;
#410 = ORIENTED_EDGE ( 'NONE', *, *, #926, .F. ) ;
#411 = DIRECTION ( 'NONE',  ( 0.0000000000000000000, 0.0000000000000000000, -1.000000000000000000 ) ) ;
#412 = MECHANICAL_DESIGN_GEOMETRIC_PRESENTATION_REPRESENTATION (  '', ( #116 ), #77 ) ;
#413 = ORIENTED_EDGE ( 'NONE', *, *, #79, .F. ) ;
#414 = CARTESIAN_POINT ( 'NONE',  ( -0.8000000000000000444, 0.9499999999999999556, -0.4000000000000000222 ) ) ;
#415 = DIRECTION ( 'NONE',  ( 1.000000000000000000, 0.0000000000000000000, 0.0000000000000000000 ) ) ;
#416 = DIRECTION ( 'NONE',  ( 0.0000000000000000000, 1.000000000000000000, 0.0000000000000000000 ) ) ;
#417 = LINE ( 'NONE', #851, #886 ) ;
#418 = EDGE_CURVE ( 'NONE', #514, #306, #1104, .T. ) ;
#419 = SURFACE_STYLE_USAGE ( .BOTH. , #777 ) ;
#420 = DIRECTION ( 'NONE',  ( 1.000000000000000000, 0.0000000000000000000, 0.0000000000000000000 ) ) ;
#421 = CARTESIAN_POINT ( 'NONE',  ( -0.7500000000000000000, 0.9499999999999999556, -0.4000000000000000222 ) ) ;
#422 = ADVANCED_FACE ( 'NONE', ( #276 ), #970, .T. ) ;
#423 = PLANE ( 'NONE',  #814 ) ;
#424 = ORIENTED_EDGE ( 'NONE', *, *, #21, .F. ) ;
#425 = EDGE_CURVE ( 'NONE', #1121, #1003, #870, .T. ) ;
#426 = DIRECTION ( 'NONE',  ( -1.000000000000000000, 0.0000000000000000000, 0.0000000000000000000 ) ) ;
#427 = ORIENTED_EDGE ( 'NONE', *, *, #362, .F. ) ;
#428 = DIRECTION ( 'NONE',  ( -1.000000000000000000, 0.0000000000000000000, 0.0000000000000000000 ) ) ;
#429 = CARTESIAN_POINT ( 'NONE',  ( 0.8000000000000000444, 0.05000000000000000278, 0.4000000000000000222 ) ) ;
#430 = SURFACE_STYLE_USAGE ( .BOTH. , #158 ) ;
#431 = AXIS2_PLACEMENT_3D ( 'NONE', #916, #1004, #467 ) ;
#432 = CARTESIAN_POINT ( 'NONE',  ( -0.5000000000000000000, 0.05000000000000000278, -0.4000000000000000222 ) ) ;
#433 = DIRECTION ( 'NONE',  ( 1.000000000000000000, 0.0000000000000000000, 0.0000000000000000000 ) ) ;
#434 = LINE ( 'NONE', #186, #375 ) ;
#435 = DIRECTION ( 'NONE',  ( 0.0000000000000000000, 0.0000000000000000000, 1.000000000000000000 ) ) ;
#436 = DIRECTION ( 'NONE',  ( 0.0000000000000000000, -1.000000000000000000, 0.0000000000000000000 ) ) ;
#437 = DIRECTION ( 'NONE',  ( 0.0000000000000000000, 0.0000000000000000000, -1.000000000000000000 ) ) ;
#438 = ORIENTED_EDGE ( 'NONE', *, *, #64, .F. ) ;
#439 = DIRECTION ( 'NONE',  ( 1.000000000000000000, 0.0000000000000000000, 0.0000000000000000000 ) ) ;
#440 = EDGE_CURVE ( 'NONE', #1006, #200, #667, .T. ) ;
#441 = DIRECTION ( 'NONE',  ( 1.000000000000000000, 0.0000000000000000000, 0.0000000000000000000 ) ) ;
#442 = ORIENTED_EDGE ( 'NONE', *, *, #629, .F. ) ;
#443 = DIRECTION ( 'NONE',  ( 1.000000000000000000, 0.0000000000000000000, 0.0000000000000000000 ) ) ;
#444 = SHAPE_DEFINITION_REPRESENTATION ( #344, #1061 ) ;
#445 = PRODUCT_CONTEXT ( 'NONE', #88, 'mechanical' ) ;
#446 = VECTOR ( 'NONE', #403, 1000.000000000000000 ) ;
#447 = DIRECTION ( 'NONE',  ( 0.0000000000000000000, -1.000000000000000000, 0.0000000000000000000 ) ) ;
#448 = VECTOR ( 'NONE', #63, 1000.000000000000000 ) ;
#449 = CARTESIAN_POINT ( 'NONE',  ( -0.8000000000000000444, 0.9000000000000000222, 0.3499999999999999778 ) ) ;
#450 = CYLINDRICAL_SURFACE ( 'NONE', #301, 0.05000000000000002359 ) ;
#451 = MECHANICAL_DESIGN_GEOMETRIC_PRESENTATION_REPRESENTATION (  '', ( #98 ), #853 ) ;
#452 = SURFACE_STYLE_USAGE ( .BOTH. , #456 ) ;
#453 = CARTESIAN_POINT ( 'NONE',  ( -0.7500000000000000000, 0.05000000000000000278, 0.3499999999999999778 ) ) ;
#454 = AXIS2_PLACEMENT_3D ( 'NONE', #111, #10, #1021 ) ;
#455 = ORIENTED_EDGE ( 'NONE', *, *, #903, .T. ) ;
#456 = SURFACE_SIDE_STYLE ('',( #721 ) ) ;
#457 = EDGE_LOOP ( 'NONE', ( #547, #914, #105 ) ) ;
#458 = ORIENTED_EDGE ( 'NONE', *, *, #1105, .T. ) ;
#459 = ORIENTED_EDGE ( 'NONE', *, *, #418, .F. ) ;
#460 = EDGE_CURVE ( 'NONE', #571, #858, #140, .T. ) ;
#461 = DIRECTION ( 'NONE',  ( 0.0000000000000000000, 0.0000000000000000000, -1.000000000000000000 ) ) ;
#462 = ADVANCED_FACE ( 'NONE', ( #112 ), #493, .T. ) ;
#463 = CIRCLE ( 'NONE', #1097, 0.05000000000000002359 ) ;
#464 = FACE_OUTER_BOUND ( 'NONE', #484, .T. ) ;
#465 = EDGE_CURVE ( 'NONE', #1003, #251, #1086, .T. ) ;
#466 = LINE ( 'NONE', #379, #680 ) ;
#467 = DIRECTION ( 'NONE',  ( 0.0000000000000000000, 0.0000000000000000000, -1.000000000000000000 ) ) ;
#468 = ORIENTED_EDGE ( 'NONE', *, *, #1089, .T. ) ;
#469 = ORIENTED_EDGE ( 'NONE', *, *, #258, .F. ) ;
#470 = DIRECTION ( 'NONE',  ( 0.0000000000000000000, 0.0000000000000000000, 1.000000000000000000 ) ) ;
#471 = EDGE_LOOP ( 'NONE', ( #1177, #1045, #427, #220 ) ) ;
#472 = ADVANCED_FACE ( 'NONE', ( #639 ), #580, .T. ) ;
#473 = CARTESIAN_POINT ( 'NONE',  ( 0.7500000000000000000, 0.9000000000000000222, -0.3499999999999999778 ) ) ;
#474 = SURFACE_STYLE_FILL_AREA ( #303 ) ;
#475 = AXIS2_PLACEMENT_3D ( 'NONE', #1043, #50, #129 ) ;
#476 = VECTOR ( 'NONE', #966, 1000.000000000000000 ) ;
#477 = VECTOR ( 'NONE', #1049, 1000.000000000000000 ) ;
#478 = SURFACE_SIDE_STYLE ('',( #474 ) ) ;
#479 = SURFACE_STYLE_FILL_AREA ( #622 ) ;
#480 = MECHANICAL_DESIGN_GEOMETRIC_PRESENTATION_REPRESENTATION (  '', ( #312 ), #377 ) ;
#481 = EDGE_LOOP ( 'NONE', ( #424, #962, #150, #1098 ) ) ;
#482 = FILL_AREA_STYLE ('',( #389 ) ) ;
#483 = DIRECTION ( 'NONE',  ( 0.0000000000000000000, 0.0000000000000000000, -1.000000000000000000 ) ) ;
#484 = EDGE_LOOP ( 'NONE', ( #204, #438, #649, #633 ) ) ;
#485 = CARTESIAN_POINT ( 'NONE',  ( -0.5000000000000000000, 0.05000000000000000278, 0.3499999999999999778 ) ) ;
#486 =( GEOMETRIC_REPRESENTATION_CONTEXT ( 3 ) GLOBAL_UNCERTAINTY_ASSIGNED_CONTEXT ( ( #604 ) ) GLOBAL_UNIT_ASSIGNED_CONTEXT ( ( #269, #274, #81 ) ) REPRESENTATION_CONTEXT ( 'NONE', 'WORKASPACE' ) );
#487 = ORIENTED_EDGE ( 'NONE', *, *, #189, .F. ) ;
#488 = SURFACE_SIDE_STYLE ('',( #758 ) ) ;
#489 = EDGE_CURVE ( 'NONE', #858, #779, #788, .T. ) ;
#490 = CARTESIAN_POINT ( 'NONE',  ( -0.8000000000000000444, 0.9000000000000000222, -0.4000000000000000222 ) ) ;
#491 = AXIS2_PLACEMENT_3D ( 'NONE', #927, #578, #119 ) ;
#492 = CARTESIAN_POINT ( 'NONE',  ( 0.7500000000000000000, 0.9499999999999999556, 0.3499999999999999778 ) ) ;
#493 = CYLINDRICAL_SURFACE ( 'NONE', #387, 0.05000000000000002359 ) ;
#494 = FACE_OUTER_BOUND ( 'NONE', #356, .T. ) ;
#495 = CARTESIAN_POINT ( 'NONE',  ( -0.8000000000000000444, 0.05000000000000000278, 0.3499999999999999778 ) ) ;
#496 = ORIENTED_EDGE ( 'NONE', *, *, #132, .T. ) ;
#497 = AXIS2_PLACEMENT_3D ( 'NONE', #763, #1040, #127 ) ;
#498 = ORIENTED_EDGE ( 'NONE', *, *, #4, .F. ) ;
#499 = CARTESIAN_POINT ( 'NONE',  ( -0.8000000000000000444, 0.9499999999999999556, 0.4000000000000000222 ) ) ;
#500 = DIRECTION ( 'NONE',  ( 0.0000000000000000000, -1.000000000000000000, 0.0000000000000000000 ) ) ;
#501 = ORIENTED_EDGE ( 'NONE', *, *, #1007, .F. ) ;
#502 = LINE ( 'NONE', #537, #372 ) ;
#503 = EDGE_CURVE ( 'NONE', #1121, #268, #391, .T. ) ;
#504 = DIRECTION ( 'NONE',  ( 1.000000000000000000, 0.0000000000000000000, 2.168404344971010446E-15 ) ) ;
#505 = CYLINDRICAL_SURFACE ( 'NONE', #491, 0.05000000000000002359 ) ;
#506 = LINE ( 'NONE', #685, #348 ) ;
#507 = DIRECTION ( 'NONE',  ( 1.000000000000000000, 0.0000000000000000000, 0.0000000000000000000 ) ) ;
#508 = FACE_OUTER_BOUND ( 'NONE', #781, .T. ) ;
#509 = MECHANICAL_DESIGN_GEOMETRIC_PRESENTATION_REPRESENTATION (  '', ( #670 ), #486 ) ;
#510 = CARTESIAN_POINT ( 'NONE',  ( 0.8000000000000000444, 0.9499999999999999556, -0.3499999999999999778 ) ) ;
#511 = FILL_AREA_STYLE_COLOUR ( '', #835 ) ;
#512 = CIRCLE ( 'NONE', #706, 0.05000000000000002359 ) ;
#513 = EDGE_LOOP ( 'NONE', ( #824, #618, #442, #26 ) ) ;
#514 = VERTEX_POINT ( 'NONE', #678 ) ;
#515 = VERTEX_POINT ( 'NONE', #1035 ) ;
#516 = DIRECTION ( 'NONE',  ( 0.0000000000000000000, -1.000000000000000000, 0.0000000000000000000 ) ) ;
#517 =( LENGTH_UNIT ( ) NAMED_UNIT ( * ) SI_UNIT ( .MILLI., .METRE. ) );
#518 = DIRECTION ( 'NONE',  ( 0.0000000000000000000, 0.0000000000000000000, -1.000000000000000000 ) ) ;
#519 = FACE_OUTER_BOUND ( 'NONE', #743, .T. ) ;
#520 = EDGE_CURVE ( 'NONE', #1002, #858, #726, .T. ) ;
#521 = DIRECTION ( 'NONE',  ( -1.000000000000000000, 0.0000000000000000000, 0.0000000000000000000 ) ) ;
#522 = SURFACE_STYLE_FILL_AREA ( #669 ) ;
#523 = CARTESIAN_POINT ( 'NONE',  ( 0.8000000000000000444, 0.9499999999999999556, -0.3499999999999999778 ) ) ;
#524 = FILL_AREA_STYLE_COLOUR ( '', #393 ) ;
#525 = DIRECTION ( 'NONE',  ( 1.000000000000000000, 0.0000000000000000000, 0.0000000000000000000 ) ) ;
#526 = ORIENTED_EDGE ( 'NONE', *, *, #293, .T. ) ;
#527 = EDGE_CURVE ( 'NONE', #192, #133, #665, .T. ) ;
#528 = DIRECTION ( 'NONE',  ( 0.0000000000000000000, 0.0000000000000000000, -1.000000000000000000 ) ) ;
#529 = ORIENTED_EDGE ( 'NONE', *, *, #385, .T. ) ;
#530 =( NAMED_UNIT ( * ) PLANE_ANGLE_UNIT ( ) SI_UNIT ( $, .RADIAN. ) );
#531 = CARTESIAN_POINT ( 'NONE',  ( 0.8000000000000000444, 0.05000000000000000278, -0.3499999999999999778 ) ) ;
#532 = CARTESIAN_POINT ( 'NONE',  ( -0.8000000000000000444, 0.9000000000000000222, 0.4000000000000000222 ) ) ;
#533 = DIRECTION ( 'NONE',  ( -2.710505431213760099E-16, 0.0000000000000000000, -1.000000000000000000 ) ) ;
#534 = LINE ( 'NONE', #881, #994 ) ;
#535 = FACE_OUTER_BOUND ( 'NONE', #1126, .T. ) ;
#536 = AXIS2_PLACEMENT_3D ( 'NONE', #1173, #373, #183 ) ;
#537 = CARTESIAN_POINT ( 'NONE',  ( -0.8000000000000000444, 0.9499999999999999556, -0.3499999999999999778 ) ) ;
#538 = CARTESIAN_POINT ( 'NONE',  ( 0.5000000000000000000, 0.9000000000000000222, -0.4000000000000000222 ) ) ;
#539 = AXIS2_PLACEMENT_3D ( 'NONE', #634, #1164, #443 ) ;
#540 = DIRECTION ( 'NONE',  ( 1.000000000000000000, 0.0000000000000000000, 0.0000000000000000000 ) ) ;
#541 = ORIENTED_EDGE ( 'NONE', *, *, #1022, .F. ) ;
#542 = ORIENTED_EDGE ( 'NONE', *, *, #1028, .T. ) ;
#543 = DIRECTION ( 'NONE',  ( 0.0000000000000000000, 0.0000000000000000000, 1.000000000000000000 ) ) ;
#544 =( GEOMETRIC_REPRESENTATION_CONTEXT ( 3 ) GLOBAL_UNCERTAINTY_ASSIGNED_CONTEXT ( ( #632 ) ) GLOBAL_UNIT_ASSIGNED_CONTEXT ( ( #689, #194, #948 ) ) REPRESENTATION_CONTEXT ( 'NONE', 'WORKASPACE' ) );
#545 = APPLICATION_CONTEXT ( 'automotive_design' ) ;
#546 = CARTESIAN_POINT ( 'NONE',  ( -0.8000000000000000444, 0.05000000000000000278, 0.3499999999999999778 ) ) ;
#547 = ORIENTED_EDGE ( 'NONE', *, *, #265, .T. ) ;
#548 = ADVANCED_FACE ( 'NONE', ( #708 ), #302, .T. ) ;
#549 = PRODUCT_DEFINITION ( 'UNKNOWN', '', #147, #635 ) ;
#550 = CARTESIAN_POINT ( 'NONE',  ( -0.8000000000000000444, 0.9499999999999999556, 0.4000000000000000222 ) ) ;
#551 = CIRCLE ( 'NONE', #163, 0.05000000000000002359 ) ;
#552 = EDGE_CURVE ( 'NONE', #896, #280, #5, .T. ) ;
#553 = VECTOR ( 'NONE', #25, 1000.000000000000000 ) ;
#554 = ADVANCED_FACE ( 'NONE', ( #999 ), #83, .T. ) ;
#555 = DIRECTION ( 'NONE',  ( 0.0000000000000000000, 0.0000000000000000000, -1.000000000000000000 ) ) ;
#556 = ORIENTED_EDGE ( 'NONE', *, *, #465, .F. ) ;
#557 = STYLED_ITEM ( 'NONE', ( #388 ), #1008 ) ;
#558 = ORIENTED_EDGE ( 'NONE', *, *, #790, .F. ) ;
#559 = DIRECTION ( 'NONE',  ( 1.000000000000000000, 0.0000000000000000000, 0.0000000000000000000 ) ) ;
#560 = EDGE_LOOP ( 'NONE', ( #740, #1079, #255, #11 ) ) ;
#561 = ADVANCED_FACE ( 'NONE', ( #54 ), #1023, .F. ) ;
#562 = AXIS2_PLACEMENT_3D ( 'NONE', #550, #161, #78 ) ;
#563 = DIRECTION ( 'NONE',  ( -1.000000000000000000, 0.0000000000000000000, 0.0000000000000000000 ) ) ;
#564 = CYLINDRICAL_SURFACE ( 'NONE', #775, 0.05000000000000002359 ) ;
#565 = VECTOR ( 'NONE', #34, 1000.000000000000000 ) ;
#566 = STYLED_ITEM ( 'NONE', ( #230 ), #146 ) ;
#567 = CYLINDRICAL_SURFACE ( 'NONE', #536, 0.05000000000000002359 ) ;
#568 = DIRECTION ( 'NONE',  ( 0.0000000000000000000, 1.000000000000000000, 0.0000000000000000000 ) ) ;
#569 = ORIENTED_EDGE ( 'NONE', *, *, #132, .F. ) ;
#570 = DIRECTION ( 'NONE',  ( -1.000000000000000000, 0.0000000000000000000, 0.0000000000000000000 ) ) ;
#571 = VERTEX_POINT ( 'NONE', #18 ) ;
#572 = CARTESIAN_POINT ( 'NONE',  ( -0.8000000000000000444, 0.0000000000000000000, 0.3499999999999999778 ) ) ;
#573 = ORIENTED_EDGE ( 'NONE', *, *, #828, .F. ) ;
#574 = AXIS2_PLACEMENT_3D ( 'NONE', #710, #607, #882 ) ;
#575 = DIRECTION ( 'NONE',  ( 1.000000000000000000, 0.0000000000000000000, 0.0000000000000000000 ) ) ;
#576 = LINE ( 'NONE', #331, #328 ) ;
#577 = STYLED_ITEM ( 'NONE', ( #735 ), #965 ) ;
#578 = DIRECTION ( 'NONE',  ( 0.0000000000000000000, 0.0000000000000000000, -1.000000000000000000 ) ) ;
#579 = LINE ( 'NONE', #1070, #476 ) ;
#580 = CYLINDRICAL_SURFACE ( 'NONE', #1080, 0.05000000000000002359 ) ;
#581 = DIRECTION ( 'NONE',  ( -1.000000000000000000, 0.0000000000000000000, 0.0000000000000000000 ) ) ;
#582 = EDGE_CURVE ( 'NONE', #1153, #918, #888, .T. ) ;
#583 = CARTESIAN_POINT ( 'NONE',  ( 0.7500000000000000000, 0.0000000000000000000, 0.4000000000000000222 ) ) ;
#584 = DIRECTION ( 'NONE',  ( -1.000000000000000000, 0.0000000000000000000, 0.0000000000000000000 ) ) ;
#585 = ORIENTED_EDGE ( 'NONE', *, *, #227, .T. ) ;
#586 =( NAMED_UNIT ( * ) PLANE_ANGLE_UNIT ( ) SI_UNIT ( $, .RADIAN. ) );
#587 = SPHERICAL_SURFACE ( 'NONE', #855, 0.05000000000000000278 ) ;
#588 = FACE_OUTER_BOUND ( 'NONE', #612, .T. ) ;
#589 = FILL_AREA_STYLE ('',( #697 ) ) ;
#590 = SPHERICAL_SURFACE ( 'NONE', #285, 0.05000000000000000278 ) ;
#591 = DIRECTION ( 'NONE',  ( 1.000000000000000000, 0.0000000000000000000, 0.0000000000000000000 ) ) ;
#592 = LINE ( 'NONE', #787, #668 ) ;
#593 = CARTESIAN_POINT ( 'NONE',  ( 0.7500000000000000000, 0.05000000000000000278, -0.3499999999999999778 ) ) ;
#594 = AXIS2_PLACEMENT_3D ( 'NONE', #662, #575, #199 ) ;
#595 = ORIENTED_EDGE ( 'NONE', *, *, #110, .F. ) ;
#596 = CARTESIAN_POINT ( 'NONE',  ( 0.8000000000000000444, 0.9499999999999999556, -0.4000000000000000222 ) ) ;
#597 = ORIENTED_EDGE ( 'NONE', *, *, #425, .T. ) ;
#598 = CARTESIAN_POINT ( 'NONE',  ( -0.7500000000000000000, 0.0000000000000000000, 0.3499999999999999778 ) ) ;
#599 = DIRECTION ( 'NONE',  ( -1.000000000000000000, 0.0000000000000000000, 0.0000000000000000000 ) ) ;
#600 = ORIENTED_EDGE ( 'NONE', *, *, #712, .F. ) ;
#601 = AXIS2_PLACEMENT_3D ( 'NONE', #834, #1100, #837 ) ;
#602 = DIRECTION ( 'NONE',  ( 0.0000000000000000000, 0.0000000000000000000, 1.000000000000000000 ) ) ;
#603 = ADVANCED_FACE ( 'NONE', ( #771 ), #817, .T. ) ;
#604 = UNCERTAINTY_MEASURE_WITH_UNIT (LENGTH_MEASURE( 1.000000000000000082E-05 ), #269, 'distance_accuracy_value', 'NONE');
#605 = AXIS2_PLACEMENT_3D ( 'NONE', #891, #346, #528 ) ;
#606 = DIRECTION ( 'NONE',  ( 0.0000000000000000000, 0.0000000000000000000, -1.000000000000000000 ) ) ;
#607 = DIRECTION ( 'NONE',  ( 0.0000000000000000000, 0.0000000000000000000, -1.000000000000000000 ) ) ;
#608 = VECTOR ( 'NONE', #135, 1000.000000000000000 ) ;
#609 = LINE ( 'NONE', #767, #608 ) ;
#610 = DIRECTION ( 'NONE',  ( 0.0000000000000000000, -1.000000000000000000, 0.0000000000000000000 ) ) ;
#611 = ADVANCED_FACE ( 'NONE', ( #924 ), #694, .T. ) ;
#612 = EDGE_LOOP ( 'NONE', ( #1180, #1014, #671, #29 ) ) ;
#613 = CARTESIAN_POINT ( 'NONE',  ( 0.0000000000000000000, 0.0000000000000000000, 0.0000000000000000000 ) ) ;
#614 = DIRECTION ( 'NONE',  ( 0.0000000000000000000, 0.0000000000000000000, -1.000000000000000000 ) ) ;
#615 = ORIENTED_EDGE ( 'NONE', *, *, #73, .F. ) ;
#616 = CARTESIAN_POINT ( 'NONE',  ( -0.8000000000000000444, 0.05000000000000000278, -0.3499999999999999778 ) ) ;
#617 = PRESENTATION_LAYER_ASSIGNMENT (  '', '', ( #557 ) ) ;
#618 = ORIENTED_EDGE ( 'NONE', *, *, #636, .T. ) ;
#619 = DIRECTION ( 'NONE',  ( 1.000000000000000000, 0.0000000000000000000, 0.0000000000000000000 ) ) ;
#620 = FILL_AREA_STYLE ('',( #720 ) ) ;
#621 = LINE ( 'NONE', #510, #1111 ) ;
#622 = FILL_AREA_STYLE ('',( #524 ) ) ;
#623 = DIRECTION ( 'NONE',  ( 1.000000000000000000, 0.0000000000000000000, 0.0000000000000000000 ) ) ;
#624 = LINE ( 'NONE', #832, #23 ) ;
#625 = DIRECTION ( 'NONE',  ( 0.0000000000000000000, 1.000000000000000000, 0.0000000000000000000 ) ) ;
#626 = DIRECTION ( 'NONE',  ( -1.000000000000000000, 0.0000000000000000000, 0.0000000000000000000 ) ) ;
#627 = SURFACE_STYLE_FILL_AREA ( #1069 ) ;
#628 = ORIENTED_EDGE ( 'NONE', *, *, #338, .F. ) ;
#629 = EDGE_CURVE ( 'NONE', #942, #812, #288, .T. ) ;
#630 = ORIENTED_EDGE ( 'NONE', *, *, #552, .F. ) ;
#631 = DIRECTION ( 'NONE',  ( 0.0000000000000000000, 0.0000000000000000000, -1.000000000000000000 ) ) ;
#632 = UNCERTAINTY_MEASURE_WITH_UNIT (LENGTH_MEASURE( 1.000000000000000082E-05 ), #689, 'distance_accuracy_value', 'NONE');
#633 = ORIENTED_EDGE ( 'NONE', *, *, #782, .F. ) ;
#634 = CARTESIAN_POINT ( 'NONE',  ( -0.8000000000000000444, 0.9499999999999999556, -0.4000000000000000222 ) ) ;
#635 = PRODUCT_DEFINITION_CONTEXT ( 'detailed design', #545, 'design' ) ;
#636 = EDGE_CURVE ( 'NONE', #47, #812, #902, .T. ) ;
#637 = ADVANCED_FACE ( 'NONE', ( #508 ), #1039, .T. ) ;
#638 = DIRECTION ( 'NONE',  ( -2.710505431213760099E-16, 0.0000000000000000000, -1.000000000000000000 ) ) ;
#639 = FACE_OUTER_BOUND ( 'NONE', #128, .T. ) ;
#640 = AXIS2_PLACEMENT_3D ( 'NONE', #766, #142, #240 ) ;
#641 = FACE_OUTER_BOUND ( 'NONE', #304, .T. ) ;
#642 = FACE_OUTER_BOUND ( 'NONE', #776, .T. ) ;
#643 = CARTESIAN_POINT ( 'NONE',  ( -0.7500000000000000000, 0.9000000000000000222, -0.3499999999999999778 ) ) ;
#644 = EDGE_LOOP ( 'NONE', ( #498, #455, #979, #31 ) ) ;
#645 = AXIS2_PLACEMENT_3D ( 'NONE', #107, #599, #42 ) ;
#646 = ORIENTED_EDGE ( 'NONE', *, *, #935, .F. ) ;
#647 = UNCERTAINTY_MEASURE_WITH_UNIT (LENGTH_MEASURE( 1.000000000000000082E-05 ), #115, 'distance_accuracy_value', 'NONE');
#648 = AXIS2_PLACEMENT_3D ( 'NONE', #784, #262, #789 ) ;
#649 = ORIENTED_EDGE ( 'NONE', *, *, #808, .F. ) ;
#650 = ADVANCED_FACE ( 'NONE', ( #1102 ), #423, .F. ) ;
#651 = DIRECTION ( 'NONE',  ( 1.000000000000000000, 0.0000000000000000000, 0.0000000000000000000 ) ) ;
#652 = FACE_OUTER_BOUND ( 'NONE', #400, .T. ) ;
#653 = PRESENTATION_STYLE_ASSIGNMENT (( #430 ) ) ;
#654 = PRESENTATION_LAYER_ASSIGNMENT (  '', '', ( #884 ) ) ;
#655 = ORIENTED_EDGE ( 'NONE', *, *, #1028, .F. ) ;
#656 = DIRECTION ( 'NONE',  ( -1.000000000000000000, 0.0000000000000000000, 0.0000000000000000000 ) ) ;
#657 = ORIENTED_EDGE ( 'NONE', *, *, #278, .T. ) ;
#658 = AXIS2_PLACEMENT_3D ( 'NONE', #546, #626, #72 ) ;
#659 = UNCERTAINTY_MEASURE_WITH_UNIT (LENGTH_MEASURE( 1.000000000000000082E-05 ), #517, 'distance_accuracy_value', 'NONE');
#660 = DIRECTION ( 'NONE',  ( 0.0000000000000000000, 0.0000000000000000000, -1.000000000000000000 ) ) ;
#661 = FILL_AREA_STYLE ('',( #511 ) ) ;
#662 = CARTESIAN_POINT ( 'NONE',  ( 0.5000000000000000000, 0.05000000000000000278, -0.3499999999999999778 ) ) ;
#663 = CARTESIAN_POINT ( 'NONE',  ( -0.8000000000000000444, 0.0000000000000000000, 0.3499999999999999778 ) ) ;
#664 = DIRECTION ( 'NONE',  ( 0.0000000000000000000, 0.0000000000000000000, -1.000000000000000000 ) ) ;
#665 = LINE ( 'NONE', #672, #553 ) ;
#666 = PRESENTATION_LAYER_ASSIGNMENT (  '', '', ( #312 ) ) ;
#667 = LINE ( 'NONE', #1019, #392 ) ;
#668 = VECTOR ( 'NONE', #602, 1000.000000000000000 ) ;
#669 = FILL_AREA_STYLE ('',( #1108 ) ) ;
#670 = STYLED_ITEM ( 'NONE', ( #2 ), #1061 ) ;
#671 = ORIENTED_EDGE ( 'NONE', *, *, #173, .F. ) ;
#672 = CARTESIAN_POINT ( 'NONE',  ( 0.8000000000000000444, 0.9499999999999999556, -0.3499999999999999778 ) ) ;
#673 = CLOSED_SHELL ( 'NONE', ( #650, #728, #335, #282, #182, #168, #273, #49, #1176, #177, #472, #786, #611, #637, #872, #996, #1141, #958, #722, #146, #561, #992, #172, #232, #733, #1008, #1066, #741, #908, #965, #904, #554, #603, #87, #709, #548, #1, #99, #462, #1052, #422, #1145 ) ) ;
#674 =( NAMED_UNIT ( * ) SI_UNIT ( $, .STERADIAN. ) SOLID_ANGLE_UNIT ( ) );
#675 = MECHANICAL_DESIGN_GEOMETRIC_PRESENTATION_REPRESENTATION (  '', ( #557 ), #736 ) ;
#676 = DIRECTION ( 'NONE',  ( 1.000000000000000000, 0.0000000000000000000, 0.0000000000000000000 ) ) ;
#677 = CIRCLE ( 'NONE', #454, 0.05000000000000002359 ) ;
#678 = CARTESIAN_POINT ( 'NONE',  ( 0.7500000000000000000, 0.9000000000000000222, -0.4000000000000000222 ) ) ;
#679 =( NAMED_UNIT ( * ) SI_UNIT ( $, .STERADIAN. ) SOLID_ANGLE_UNIT ( ) );
#680 = VECTOR ( 'NONE', #825, 1000.000000000000000 ) ;
#681 = DIRECTION ( 'NONE',  ( 0.0000000000000000000, -1.000000000000000000, 0.0000000000000000000 ) ) ;
#682 = CARTESIAN_POINT ( 'NONE',  ( 0.8000000000000000444, 0.9000000000000000222, 0.3499999999999999778 ) ) ;
#683 = ORIENTED_EDGE ( 'NONE', *, *, #719, .T. ) ;
#684 = ORIENTED_EDGE ( 'NONE', *, *, #238, .T. ) ;
#685 = CARTESIAN_POINT ( 'NONE',  ( 0.8000000000000000444, 0.0000000000000000000, -0.3499999999999999778 ) ) ;
#686 = ORIENTED_EDGE ( 'NONE', *, *, #238, .F. ) ;
#687 = MECHANICAL_DESIGN_GEOMETRIC_PRESENTATION_REPRESENTATION (  '', ( #566 ), #747 ) ;
#688 = DIRECTION ( 'NONE',  ( 0.0000000000000000000, 0.0000000000000000000, -1.000000000000000000 ) ) ;
#689 =( LENGTH_UNIT ( ) NAMED_UNIT ( * ) SI_UNIT ( .MILLI., .METRE. ) );
#690 = DIRECTION ( 'NONE',  ( 1.000000000000000000, 0.0000000000000000000, 0.0000000000000000000 ) ) ;
#691 = LINE ( 'NONE', #1017, #446 ) ;
#692 = CARTESIAN_POINT ( 'NONE',  ( -0.5000000000000000000, 0.9000000000000000222, -0.4000000000000000222 ) ) ;
#693 = LINE ( 'NONE', #151, #448 ) ;
#694 = CYLINDRICAL_SURFACE ( 'NONE', #307, 0.05000000000000002359 ) ;
#695 = EDGE_CURVE ( 'NONE', #280, #1121, #171, .T. ) ;
#696 = UNCERTAINTY_MEASURE_WITH_UNIT (LENGTH_MEASURE( 1.000000000000000082E-05 ), #1064, 'distance_accuracy_value', 'NONE');
#697 = FILL_AREA_STYLE_COLOUR ( '', #909 ) ;
#698 = SURFACE_STYLE_USAGE ( .BOTH. , #1147 ) ;
#699 = EDGE_LOOP ( 'NONE', ( #106, #15, #380, #873 ) ) ;
#700 = DIRECTION ( 'NONE',  ( 0.0000000000000000000, 0.0000000000000000000, -1.000000000000000000 ) ) ;
#701 = ORIENTED_EDGE ( 'NONE', *, *, #890, .T. ) ;
#702 = DIRECTION ( 'NONE',  ( 1.000000000000000000, 0.0000000000000000000, 0.0000000000000000000 ) ) ;
#703 = ORIENTED_EDGE ( 'NONE', *, *, #695, .F. ) ;
#704 = CARTESIAN_POINT ( 'NONE',  ( -0.7500000000000000000, 0.9499999999999999556, 0.3499999999999999778 ) ) ;
#705 = CARTESIAN_POINT ( 'NONE',  ( 0.8000000000000000444, 0.9499999999999999556, 0.3499999999999999778 ) ) ;
#706 = AXIS2_PLACEMENT_3D ( 'NONE', #963, #437, #428 ) ;
#707 = DIRECTION ( 'NONE',  ( 0.0000000000000000000, 0.0000000000000000000, 1.000000000000000000 ) ) ;
#708 = FACE_OUTER_BOUND ( 'NONE', #1018, .T. ) ;
#709 = ADVANCED_FACE ( 'NONE', ( #122 ), #590, .T. ) ;
#710 = CARTESIAN_POINT ( 'NONE',  ( -0.8000000000000000444, 0.9499999999999999556, 0.4000000000000000222 ) ) ;
#711 =( LENGTH_UNIT ( ) NAMED_UNIT ( * ) SI_UNIT ( .MILLI., .METRE. ) );
#712 = EDGE_CURVE ( 'NONE', #896, #1002, #506, .T. ) ;
#713 = ORIENTED_EDGE ( 'NONE', *, *, #1089, .F. ) ;
#714 = ORIENTED_EDGE ( 'NONE', *, *, #695, .T. ) ;
#715 = VERTEX_POINT ( 'NONE', #780 ) ;
#716 = CARTESIAN_POINT ( 'NONE',  ( -0.7500000000000000000, 0.9000000000000000222, -0.4000000000000000222 ) ) ;
#717 = PLANE ( 'NONE',  #562 ) ;
#718 = ORIENTED_EDGE ( 'NONE', *, *, #440, .T. ) ;
#719 = EDGE_CURVE ( 'NONE', #960, #188, #97, .T. ) ;
#720 = FILL_AREA_STYLE_COLOUR ( '', #300 ) ;
#721 = SURFACE_STYLE_FILL_AREA ( #369 ) ;
#722 = ADVANCED_FACE ( 'NONE', ( #768 ), #231, .F. ) ;
#723 = PRESENTATION_LAYER_ASSIGNMENT (  '', '', ( #98 ) ) ;
#724 = CARTESIAN_POINT ( 'NONE',  ( 0.5000000000000000000, 0.05000000000000000278, -0.4000000000000000222 ) ) ;
#725 = CYLINDRICAL_SURFACE ( 'NONE', #822, 0.05000000000000002359 ) ;
#726 = LINE ( 'NONE', #583, #1025 ) ;
#727 = CARTESIAN_POINT ( 'NONE',  ( 0.5000000000000000000, 0.9000000000000000222, -0.3499999999999999778 ) ) ;
#728 = ADVANCED_FACE ( 'NONE', ( #80 ), #324, .F. ) ;
#729 = FACE_OUTER_BOUND ( 'NONE', #144, .T. ) ;
#730 = EDGE_CURVE ( 'NONE', #1065, #960, #995, .T. ) ;
#731 = ORIENTED_EDGE ( 'NONE', *, *, #195, .T. ) ;
#732 = DIRECTION ( 'NONE',  ( 0.0000000000000000000, 0.0000000000000000000, 1.000000000000000000 ) ) ;
#733 = ADVANCED_FACE ( 'NONE', ( #314 ), #841, .T. ) ;
#734 = DIRECTION ( 'NONE',  ( 1.000000000000000000, 0.0000000000000000000, 0.0000000000000000000 ) ) ;
#735 = PRESENTATION_STYLE_ASSIGNMENT (( #757 ) ) ;
#736 =( GEOMETRIC_REPRESENTATION_CONTEXT ( 3 ) GLOBAL_UNCERTAINTY_ASSIGNED_CONTEXT ( ( #659 ) ) GLOBAL_UNIT_ASSIGNED_CONTEXT ( ( #517, #1124, #941 ) ) REPRESENTATION_CONTEXT ( 'NONE', 'WORKASPACE' ) );
#737 = FACE_OUTER_BOUND ( 'NONE', #1067, .T. ) ;
#738 = DIRECTION ( 'NONE',  ( 0.0000000000000000000, 1.000000000000000000, 0.0000000000000000000 ) ) ;
#739 = ORIENTED_EDGE ( 'NONE', *, *, #330, .T. ) ;
#740 = ORIENTED_EDGE ( 'NONE', *, *, #730, .F. ) ;
#741 = ADVANCED_FACE ( 'NONE', ( #1024 ), #725, .T. ) ;
#742 = CARTESIAN_POINT ( 'NONE',  ( 0.8000000000000000444, 0.05000000000000000278, 0.4000000000000000222 ) ) ;
#743 = EDGE_LOOP ( 'NONE', ( #701, #1125, #762, #718 ) ) ;
#744 = EDGE_LOOP ( 'NONE', ( #58, #801, #496, #907 ) ) ;
#745 = LINE ( 'NONE', #1073, #933 ) ;
#746 = LINE ( 'NONE', #1068, #1038 ) ;
#747 =( GEOMETRIC_REPRESENTATION_CONTEXT ( 3 ) GLOBAL_UNCERTAINTY_ASSIGNED_CONTEXT ( ( #696 ) ) GLOBAL_UNIT_ASSIGNED_CONTEXT ( ( #1064, #530, #57 ) ) REPRESENTATION_CONTEXT ( 'NONE', 'WORKASPACE' ) );
#748 = CARTESIAN_POINT ( 'NONE',  ( -0.5000000000000000000, 0.9499999999999999556, -0.4000000000000000222 ) ) ;
#749 = CYLINDRICAL_SURFACE ( 'NONE', #1085, 0.05000000000000002359 ) ;
#750 = LINE ( 'NONE', #663, #1135 ) ;
#751 = ORIENTED_EDGE ( 'NONE', *, *, #1001, .F. ) ;
#752 = EDGE_LOOP ( 'NONE', ( #713, #366, #501, #879 ) ) ;
#753 = EDGE_CURVE ( 'NONE', #47, #515, #579, .T. ) ;
#754 =( NAMED_UNIT ( * ) PLANE_ANGLE_UNIT ( ) SI_UNIT ( $, .RADIAN. ) );
#755 = AXIS2_PLACEMENT_3D ( 'NONE', #290, #821, #651 ) ;
#756 = DIRECTION ( 'NONE',  ( 0.0000000000000000000, 0.0000000000000000000, -1.000000000000000000 ) ) ;
#757 = SURFACE_STYLE_USAGE ( .BOTH. , #1114 ) ;
#758 = SURFACE_STYLE_FILL_AREA ( #482 ) ;
#759 = PRESENTATION_LAYER_ASSIGNMENT (  '', '', ( #566 ) ) ;
#760 = AXIS2_PLACEMENT_3D ( 'NONE', #901, #243, #1152 ) ;
#761 = DIRECTION ( 'NONE',  ( -1.000000000000000000, 0.0000000000000000000, 0.0000000000000000000 ) ) ;
#762 = ORIENTED_EDGE ( 'NONE', *, *, #4, .T. ) ;
#763 = CARTESIAN_POINT ( 'NONE',  ( 0.8000000000000000444, 0.9499999999999999556, -0.4000000000000000222 ) ) ;
#764 = CIRCLE ( 'NONE', #796, 0.05000000000000002359 ) ;
#765 = PRODUCT_RELATED_PRODUCT_CATEGORY ( 'part', '', ( #778 ) ) ;
#766 = CARTESIAN_POINT ( 'NONE',  ( 0.8000000000000000444, 0.0000000000000000000, -0.4000000000000000222 ) ) ;
#767 = CARTESIAN_POINT ( 'NONE',  ( -0.8000000000000000444, 0.05000000000000000278, -0.4000000000000000222 ) ) ;
#768 = FACE_OUTER_BOUND ( 'NONE', #294, .T. ) ;
#769 = CARTESIAN_POINT ( 'NONE',  ( -0.7500000000000000000, 0.9000000000000000222, -0.3499999999999999778 ) ) ;
#770 = EDGE_CURVE ( 'NONE', #514, #192, #852, .T. ) ;
#771 = FACE_OUTER_BOUND ( 'NONE', #898, .T. ) ;
#772 = FACE_OUTER_BOUND ( 'NONE', #752, .T. ) ;
#773 = AXIS2_PLACEMENT_3D ( 'NONE', #769, #237, #221 ) ;
#774 = VECTOR ( 'NONE', #954, 1000.000000000000000 ) ;
#775 = AXIS2_PLACEMENT_3D ( 'NONE', #492, #934, #849 ) ;
#776 = EDGE_LOOP ( 'NONE', ( #309, #751, #799, #556 ) ) ;
#777 = SURFACE_SIDE_STYLE ('',( #1172 ) ) ;
#778 = PRODUCT ( 'CAPC1608X95N EIA 0603(1)', 'CAPC1608X95N EIA 0603(1)', '', ( #445 ) ) ;
#779 = VERTEX_POINT ( 'NONE', #252 ) ;
#780 = CARTESIAN_POINT ( 'NONE',  ( 0.8000000000000000444, 0.9000000000000000222, 0.3499999999999999778 ) ) ;
#781 = EDGE_LOOP ( 'NONE', ( #600, #957, #59, #1048 ) ) ;
#782 = EDGE_CURVE ( 'NONE', #515, #862, #390, .T. ) ;
#783 =( NAMED_UNIT ( * ) SI_UNIT ( $, .STERADIAN. ) SOLID_ANGLE_UNIT ( ) );
#784 = CARTESIAN_POINT ( 'NONE',  ( -0.7500000000000000000, 0.05000000000000000278, 0.3499999999999999778 ) ) ;
#785 = FACE_OUTER_BOUND ( 'NONE', #699, .T. ) ;
#786 = ADVANCED_FACE ( 'NONE', ( #225 ), #1131, .T. ) ;
#787 = CARTESIAN_POINT ( 'NONE',  ( 0.8000000000000000444, 0.9000000000000000222, 0.4000000000000000222 ) ) ;
#788 = LINE ( 'NONE', #205, #1084 ) ;
#789 = DIRECTION ( 'NONE',  ( 1.000000000000000000, 0.0000000000000000000, 0.0000000000000000000 ) ) ;
#790 = EDGE_CURVE ( 'NONE', #715, #571, #1161, .T. ) ;
#791 = CIRCLE ( 'NONE', #949, 0.05000000000000002359 ) ;
#792 = CARTESIAN_POINT ( 'NONE',  ( 0.8000000000000000444, 0.0000000000000000000, -0.4000000000000000222 ) ) ;
#793 = ORIENTED_EDGE ( 'NONE', *, *, #926, .T. ) ;
#794 = ORIENTED_EDGE ( 'NONE', *, *, #867, .T. ) ;
#795 = DIRECTION ( 'NONE',  ( 0.0000000000000000000, -1.000000000000000000, 0.0000000000000000000 ) ) ;
#796 = AXIS2_PLACEMENT_3D ( 'NONE', #1119, #504, #868 ) ;
#797 = ORIENTED_EDGE ( 'NONE', *, *, #73, .T. ) ;
#798 =( NAMED_UNIT ( * ) PLANE_ANGLE_UNIT ( ) SI_UNIT ( $, .RADIAN. ) );
#799 = ORIENTED_EDGE ( 'NONE', *, *, #278, .F. ) ;
#800 = CARTESIAN_POINT ( 'NONE',  ( -0.7500000000000000000, 0.9000000000000000222, 0.4000000000000000222 ) ) ;
#801 = ORIENTED_EDGE ( 'NONE', *, *, #730, .T. ) ;
#802 = AXIS2_PLACEMENT_3D ( 'NONE', #95, #555, #281 ) ;
#803 = CARTESIAN_POINT ( 'NONE',  ( -0.8000000000000000444, 0.05000000000000000278, 0.3499999999999999778 ) ) ;
#804 = DIRECTION ( 'NONE',  ( 0.0000000000000000000, 0.0000000000000000000, -1.000000000000000000 ) ) ;
#805 = CIRCLE ( 'NONE', #931, 0.05000000000000002359 ) ;
#806 = CARTESIAN_POINT ( 'NONE',  ( 0.7500000000000000000, 0.05000000000000000278, 0.3499999999999999778 ) ) ;
#807 = CIRCLE ( 'NONE', #364, 0.05000000000000002359 ) ;
#808 = EDGE_CURVE ( 'NONE', #862, #779, #37, .T. ) ;
#809 = VERTEX_POINT ( 'NONE', #52 ) ;
#810 = ORIENTED_EDGE ( 'NONE', *, *, #258, .T. ) ;
#811 = CARTESIAN_POINT ( 'NONE',  ( 0.8000000000000000444, 0.0000000000000000000, -0.3499999999999999778 ) ) ;
#812 = VERTEX_POINT ( 'NONE', #889 ) ;
#813 = EDGE_CURVE ( 'NONE', #571, #823, #693, .T. ) ;
#814 = AXIS2_PLACEMENT_3D ( 'NONE', #596, #681, #411 ) ;
#815 = CYLINDRICAL_SURFACE ( 'NONE', #1041, 0.05000000000000002359 ) ;
#816 = CARTESIAN_POINT ( 'NONE',  ( -0.7500000000000000000, 0.9499999999999999556, 0.4000000000000000222 ) ) ;
#817 = SPHERICAL_SURFACE ( 'NONE', #773, 0.05000000000000000278 ) ;
#818 = DIRECTION ( 'NONE',  ( 0.0000000000000000000, 1.000000000000000000, 0.0000000000000000000 ) ) ;
#819 = AXIS2_PLACEMENT_3D ( 'NONE', #124, #415, #1015 ) ;
#820 = ORIENTED_EDGE ( 'NONE', *, *, #362, .T. ) ;
#821 = DIRECTION ( 'NONE',  ( 0.0000000000000000000, 0.0000000000000000000, -1.000000000000000000 ) ) ;
#822 = AXIS2_PLACEMENT_3D ( 'NONE', #332, #795, #165 ) ;
#823 = VERTEX_POINT ( 'NONE', #531 ) ;
#824 = ORIENTED_EDGE ( 'NONE', *, *, #1078, .F. ) ;
#825 = DIRECTION ( 'NONE',  ( 0.0000000000000000000, 1.000000000000000000, 0.0000000000000000000 ) ) ;
#826 = SURFACE_STYLE_FILL_AREA ( #620 ) ;
#827 = CARTESIAN_POINT ( 'NONE',  ( 0.7500000000000000000, 0.9499999999999999556, 0.4000000000000000222 ) ) ;
#828 = EDGE_CURVE ( 'NONE', #823, #306, #1072, .T. ) ;
#829 = ORIENTED_EDGE ( 'NONE', *, *, #21, .T. ) ;
#830 = MANIFOLD_SOLID_BREP ( 'NONE', #673 ) ;
#831 = ORIENTED_EDGE ( 'NONE', *, *, #418, .T. ) ;
#832 = CARTESIAN_POINT ( 'NONE',  ( 0.8000000000000000444, 0.0000000000000000000, -0.3499999999999999778 ) ) ;
#833 = VERTEX_POINT ( 'NONE', #616 ) ;
#834 = CARTESIAN_POINT ( 'NONE',  ( 0.8000000000000000444, 0.9000000000000000222, -0.3499999999999999778 ) ) ;
#835 = COLOUR_RGB ( '',0.4705882352941176405, 0.2470588235294117752, 0.01568627450980392135 ) ;
#836 = DIRECTION ( 'NONE',  ( -1.000000000000000000, 0.0000000000000000000, 0.0000000000000000000 ) ) ;
#837 = DIRECTION ( 'NONE',  ( 0.0000000000000000000, 0.0000000000000000000, 1.000000000000000000 ) ) ;
#838 = CIRCLE ( 'NONE', #352, 0.05000000000000002359 ) ;
#839 = CARTESIAN_POINT ( 'NONE',  ( 0.7500000000000000000, 0.9499999999999999556, 0.3499999999999999778 ) ) ;
#840 = EDGE_CURVE ( 'NONE', #192, #306, #551, .T. ) ;
#841 = SPHERICAL_SURFACE ( 'NONE', #648, 0.05000000000000000278 ) ;
#842 = DIRECTION ( 'NONE',  ( 0.0000000000000000000, 0.0000000000000000000, -1.000000000000000000 ) ) ;
#843 = DIRECTION ( 'NONE',  ( 0.0000000000000000000, 0.0000000000000000000, 1.000000000000000000 ) ) ;
#844 = SURFACE_STYLE_USAGE ( .BOTH. , #488 ) ;
#845 = EDGE_CURVE ( 'NONE', #1050, #1153, #51, .T. ) ;
#846 = ORIENTED_EDGE ( 'NONE', *, *, #753, .F. ) ;
#847 = CARTESIAN_POINT ( 'NONE',  ( 0.7500000000000000000, 0.05000000000000000278, 0.3499999999999999778 ) ) ;
#848 = AXIS2_PLACEMENT_3D ( 'NONE', #160, #625, #263 ) ;
#849 = DIRECTION ( 'NONE',  ( 0.0000000000000000000, 0.0000000000000000000, -1.000000000000000000 ) ) ;
#850 = DIRECTION ( 'NONE',  ( 1.000000000000000000, 0.0000000000000000000, 0.0000000000000000000 ) ) ;
#851 = CARTESIAN_POINT ( 'NONE',  ( -0.8000000000000000444, 0.9000000000000000222, 0.4000000000000000222 ) ) ;
#852 = CIRCLE ( 'NONE', #760, 0.05000000000000002359 ) ;
#853 =( GEOMETRIC_REPRESENTATION_CONTEXT ( 3 ) GLOBAL_UNCERTAINTY_ASSIGNED_CONTEXT ( ( #647 ) ) GLOBAL_UNIT_ASSIGNED_CONTEXT ( ( #115, #398, #674 ) ) REPRESENTATION_CONTEXT ( 'NONE', 'WORKASPACE' ) );
#854 = LINE ( 'NONE', #816, #315 ) ;
#855 = AXIS2_PLACEMENT_3D ( 'NONE', #233, #606, #702 ) ;
#856 = CARTESIAN_POINT ( 'NONE',  ( -0.7500000000000000000, 0.05000000000000000278, 0.4000000000000000222 ) ) ;
#857 = ORIENTED_EDGE ( 'NONE', *, *, #265, .F. ) ;
#858 = VERTEX_POINT ( 'NONE', #1081 ) ;
#859 = CARTESIAN_POINT ( 'NONE',  ( 0.8000000000000000444, 0.9499999999999999556, 0.3499999999999999778 ) ) ;
#860 = VERTEX_POINT ( 'NONE', #449 ) ;
#861 = PLANE ( 'NONE',  #287 ) ;
#862 = VERTEX_POINT ( 'NONE', #169 ) ;
#863 = CARTESIAN_POINT ( 'NONE',  ( -0.8000000000000000444, 0.05000000000000000278, -0.3499999999999999778 ) ) ;
#864 = PRESENTATION_LAYER_ASSIGNMENT (  '', '', ( #670 ) ) ;
#865 = CARTESIAN_POINT ( 'NONE',  ( -0.5000000000000000000, 0.0000000000000000000, 0.3499999999999999778 ) ) ;
#866 = PRESENTATION_STYLE_ASSIGNMENT (( #121 ) ) ;
#867 = EDGE_CURVE ( 'NONE', #833, #1140, #746, .T. ) ;
#868 = DIRECTION ( 'NONE',  ( 2.168404344971007685E-15, 0.0000000000000000000, -1.000000000000000000 ) ) ;
#869 = SURFACE_SIDE_STYLE ('',( #479 ) ) ;
#870 = LINE ( 'NONE', #748, #1116 ) ;
#871 = AXIS2_PLACEMENT_3D ( 'NONE', #969, #447, #461 ) ;
#872 = ADVANCED_FACE ( 'NONE', ( #535 ), #1160, .F. ) ;
#873 = ORIENTED_EDGE ( 'NONE', *, *, #940, .F. ) ;
#874 = DIRECTION ( 'NONE',  ( 1.000000000000000000, 0.0000000000000000000, 2.168404344971010446E-15 ) ) ;
#875 = EDGE_LOOP ( 'NONE', ( #339, #308, #459 ) ) ;
#876 = DIRECTION ( 'NONE',  ( -1.000000000000000000, 0.0000000000000000000, 0.0000000000000000000 ) ) ;
#877 = DIRECTION ( 'NONE',  ( 0.0000000000000000000, 0.0000000000000000000, -1.000000000000000000 ) ) ;
#878 = ORIENTED_EDGE ( 'NONE', *, *, #753, .T. ) ;
#879 = ORIENTED_EDGE ( 'NONE', *, *, #195, .F. ) ;
#880 = AXIS2_PLACEMENT_3D ( 'NONE', #234, #246, #327 ) ;
#881 = CARTESIAN_POINT ( 'NONE',  ( -0.8000000000000000444, 0.9000000000000000222, 0.4000000000000000222 ) ) ;
#882 = DIRECTION ( 'NONE',  ( 0.0000000000000000000, -1.000000000000000000, 0.0000000000000000000 ) ) ;
#883 = EDGE_LOOP ( 'NONE', ( #820, #271, #1090 ) ) ;
#884 = STYLED_ITEM ( 'NONE', ( #653 ), #830 ) ;
#885 = DIRECTION ( 'NONE',  ( 0.0000000000000000000, 0.0000000000000000000, -1.000000000000000000 ) ) ;
#886 = VECTOR ( 'NONE', #22, 1000.000000000000000 ) ;
#887 = DIRECTION ( 'NONE',  ( 1.000000000000000000, 0.0000000000000000000, 0.0000000000000000000 ) ) ;
#888 = CIRCLE ( 'NONE', #136, 0.05000000000000002359 ) ;
#889 = CARTESIAN_POINT ( 'NONE',  ( -0.5000000000000000000, 0.9499999999999999556, 0.3499999999999999778 ) ) ;
#890 = EDGE_CURVE ( 'NONE', #200, #268, #1174, .T. ) ;
#891 = CARTESIAN_POINT ( 'NONE',  ( 0.7500000000000000000, 0.9499999999999999556, -0.3499999999999999778 ) ) ;
#892 = FILL_AREA_STYLE_COLOUR ( '', #376 ) ;
#893 = LINE ( 'NONE', #347, #317 ) ;
#894 = AXIS2_PLACEMENT_3D ( 'NONE', #956, #516, #700 ) ;
#895 = ORIENTED_EDGE ( 'NONE', *, *, #840, .F. ) ;
#896 = VERTEX_POINT ( 'NONE', #357 ) ;
#897 = DIRECTION ( 'NONE',  ( 0.0000000000000000000, 0.0000000000000000000, 1.000000000000000000 ) ) ;
#898 = EDGE_LOOP ( 'NONE', ( #283, #976, #382 ) ) ;
#899 = DIRECTION ( 'NONE',  ( 0.0000000000000000000, -1.000000000000000000, 0.0000000000000000000 ) ) ;
#900 = EDGE_LOOP ( 'NONE', ( #217, #174, #1136, #91 ) ) ;
#901 = CARTESIAN_POINT ( 'NONE',  ( 0.7500000000000000000, 0.9000000000000000222, -0.3499999999999999778 ) ) ;
#902 = CIRCLE ( 'NONE', #1154, 0.05000000000000002359 ) ;
#903 = EDGE_CURVE ( 'NONE', #28, #515, #805, .T. ) ;
#904 = ADVANCED_FACE ( 'NONE', ( #224 ), #564, .T. ) ;
#905 = EDGE_LOOP ( 'NONE', ( #159, #93, #1155, #253 ) ) ;
#906 = ORIENTED_EDGE ( 'NONE', *, *, #985, .T. ) ;
#907 = ORIENTED_EDGE ( 'NONE', *, *, #527, .T. ) ;
#908 = ADVANCED_FACE ( 'NONE', ( #261 ), #505, .T. ) ;
#909 = COLOUR_RGB ( '',0.4705882352941176405, 0.2470588235294117752, 0.01568627450980392135 ) ;
#910 = COLOUR_RGB ( '',0.4705882352941176405, 0.2470588235294117752, 0.01568627450980392135 ) ;
#911 = AXIS2_PLACEMENT_3D ( 'NONE', #495, #1101, #395 ) ;
#912 = CYLINDRICAL_SURFACE ( 'NONE', #658, 0.05000000000000002359 ) ;
#913 = CIRCLE ( 'NONE', #272, 0.05000000000000002359 ) ;
#914 = ORIENTED_EDGE ( 'NONE', *, *, #358, .T. ) ;
#915 = ORIENTED_EDGE ( 'NONE', *, *, #712, .T. ) ;
#916 = CARTESIAN_POINT ( 'NONE',  ( 0.7500000000000000000, 0.05000000000000000278, 0.3499999999999999778 ) ) ;
#917 = ORIENTED_EDGE ( 'NONE', *, *, #402, .F. ) ;
#918 = VERTEX_POINT ( 'NONE', #310 ) ;
#919 = ORIENTED_EDGE ( 'NONE', *, *, #1169, .F. ) ;
#920 = CARTESIAN_POINT ( 'NONE',  ( 0.7500000000000000000, 0.05000000000000000278, 0.4000000000000000222 ) ) ;
#921 = EDGE_CURVE ( 'NONE', #188, #930, #20, .T. ) ;
#922 = CARTESIAN_POINT ( 'NONE',  ( -0.5000000000000000000, 0.9000000000000000222, -0.3499999999999999778 ) ) ;
#923 = VECTOR ( 'NONE', #610, 1000.000000000000000 ) ;
#924 = FACE_OUTER_BOUND ( 'NONE', #481, .T. ) ;
#925 = DIRECTION ( 'NONE',  ( 0.0000000000000000000, 0.0000000000000000000, 1.000000000000000000 ) ) ;
#926 = EDGE_CURVE ( 'NONE', #860, #809, #417, .T. ) ;
#927 = CARTESIAN_POINT ( 'NONE',  ( -0.7500000000000000000, 0.05000000000000000278, 0.4000000000000000222 ) ) ;
#928 = AXIS2_PLACEMENT_3D ( 'NONE', #305, #581, #756 ) ;
#929 = ORIENTED_EDGE ( 'NONE', *, *, #465, .T. ) ;
#930 = VERTEX_POINT ( 'NONE', #386 ) ;
#931 = AXIS2_PLACEMENT_3D ( 'NONE', #485, #201, #664 ) ;
#932 = CARTESIAN_POINT ( 'NONE',  ( 0.8000000000000000444, 0.9499999999999999556, 0.3499999999999999778 ) ) ;
#933 = VECTOR ( 'NONE', #341, 1000.000000000000000 ) ;
#934 = DIRECTION ( 'NONE',  ( 0.0000000000000000000, -1.000000000000000000, 0.0000000000000000000 ) ) ;
#935 = EDGE_CURVE ( 'NONE', #1153, #1003, #691, .T. ) ;
#936 =( NAMED_UNIT ( * ) SI_UNIT ( $, .STERADIAN. ) SOLID_ANGLE_UNIT ( ) );
#937 = CIRCLE ( 'NONE', #74, 0.05000000000000002359 ) ;
#938 = SURFACE_STYLE_FILL_AREA ( #661 ) ;
#939 = DIRECTION ( 'NONE',  ( 0.0000000000000000000, 0.0000000000000000000, 1.000000000000000000 ) ) ;
#940 = EDGE_CURVE ( 'NONE', #812, #1065, #3, .T. ) ;
#941 =( NAMED_UNIT ( * ) SI_UNIT ( $, .STERADIAN. ) SOLID_ANGLE_UNIT ( ) );
#942 = VERTEX_POINT ( 'NONE', #197 ) ;
#943 = CARTESIAN_POINT ( 'NONE',  ( -0.8000000000000000444, 0.05000000000000000278, -0.3499999999999999778 ) ) ;
#944 = ORIENTED_EDGE ( 'NONE', *, *, #1022, .T. ) ;
#945 = CARTESIAN_POINT ( 'NONE',  ( 0.7500000000000000000, 0.9000000000000000222, 0.3499999999999999778 ) ) ;
#946 = VECTOR ( 'NONE', #676, 1000.000000000000000 ) ;
#947 = CARTESIAN_POINT ( 'NONE',  ( 0.5000000000000000000, 0.9499999999999999556, 0.3499999999999999778 ) ) ;
#948 =( NAMED_UNIT ( * ) SI_UNIT ( $, .STERADIAN. ) SOLID_ANGLE_UNIT ( ) );
#949 = AXIS2_PLACEMENT_3D ( 'NONE', #922, #563, #1182 ) ;
#950 = COLOUR_RGB ( '',0.4705882352941176405, 0.2470588235294117752, 0.01568627450980392135 ) ;
#951 = DIRECTION ( 'NONE',  ( 1.000000000000000000, 0.0000000000000000000, 0.0000000000000000000 ) ) ;
#952 = PRESENTATION_LAYER_ASSIGNMENT (  '', '', ( #53 ) ) ;
#953 = SURFACE_STYLE_USAGE ( .BOTH. , #228 ) ;
#954 = DIRECTION ( 'NONE',  ( -1.000000000000000000, 0.0000000000000000000, 0.0000000000000000000 ) ) ;
#955 = EDGE_LOOP ( 'NONE', ( #378, #296, #915, #167 ) ) ;
#956 = CARTESIAN_POINT ( 'NONE',  ( 0.8000000000000000444, 0.9499999999999999556, -0.4000000000000000222 ) ) ;
#957 = ORIENTED_EDGE ( 'NONE', *, *, #552, .T. ) ;
#958 = ADVANCED_FACE ( 'NONE', ( #652 ), #206, .F. ) ;
#959 = CARTESIAN_POINT ( 'NONE',  ( 0.7500000000000000000, 0.0000000000000000000, -0.3499999999999999778 ) ) ;
#960 = VERTEX_POINT ( 'NONE', #839 ) ;
#961 = DIRECTION ( 'NONE',  ( 0.0000000000000000000, 0.0000000000000000000, 1.000000000000000000 ) ) ;
#962 = ORIENTED_EDGE ( 'NONE', *, *, #503, .T. ) ;
#963 = CARTESIAN_POINT ( 'NONE',  ( -0.7500000000000000000, 0.9000000000000000222, -0.3499999999999999778 ) ) ;
#964 = LINE ( 'NONE', #421, #401 ) ;
#965 = ADVANCED_FACE ( 'NONE', ( #464 ), #1146, .T. ) ;
#966 = DIRECTION ( 'NONE',  ( 0.0000000000000000000, -1.000000000000000000, 0.0000000000000000000 ) ) ;
#967 = EDGE_CURVE ( 'NONE', #200, #1050, #677, .T. ) ;
#968 = CARTESIAN_POINT ( 'NONE',  ( 0.7500000000000000000, 0.9499999999999999556, -0.4000000000000000222 ) ) ;
#969 = CARTESIAN_POINT ( 'NONE',  ( 0.8000000000000000444, 0.0000000000000000000, -0.4000000000000000222 ) ) ;
#970 = SPHERICAL_SURFACE ( 'NONE', #755, 0.05000000000000000278 ) ;
#971 = UNCERTAINTY_MEASURE_WITH_UNIT (LENGTH_MEASURE( 1.000000000000000082E-05 ), #153, 'distance_accuracy_value', 'NONE');
#972 = VECTOR ( 'NONE', #638, 1000.000000000000000 ) ;
#973 = EDGE_LOOP ( 'NONE', ( #149, #703, #630, #628 ) ) ;
#974 = DIRECTION ( 'NONE',  ( -1.000000000000000000, 0.0000000000000000000, 0.0000000000000000000 ) ) ;
#975 = CARTESIAN_POINT ( 'NONE',  ( 0.7500000000000000000, 0.9499999999999999556, -0.4000000000000000222 ) ) ;
#976 = ORIENTED_EDGE ( 'NONE', *, *, #141, .T. ) ;
#977 = ORIENTED_EDGE ( 'NONE', *, *, #321, .T. ) ;
#978 = CARTESIAN_POINT ( 'NONE',  ( 0.7500000000000000000, 0.9000000000000000222, -0.3499999999999999778 ) ) ;
#979 = ORIENTED_EDGE ( 'NONE', *, *, #396, .F. ) ;
#980 = DIRECTION ( 'NONE',  ( 0.0000000000000000000, 0.0000000000000000000, 1.000000000000000000 ) ) ;
#981 = VECTOR ( 'NONE', #155, 1000.000000000000000 ) ;
#982 = PLANE ( 'NONE',  #45 ) ;
#983 = CARTESIAN_POINT ( 'NONE',  ( 0.7500000000000000000, 0.9000000000000000222, 0.3499999999999999778 ) ) ;
#984 = VECTOR ( 'NONE', #69, 1000.000000000000000 ) ;
#985 = EDGE_CURVE ( 'NONE', #823, #354, #181, .T. ) ;
#986 = CARTESIAN_POINT ( 'NONE',  ( 0.8000000000000000444, 0.9000000000000000222, 0.3499999999999999778 ) ) ;
#987 = DIRECTION ( 'NONE',  ( 1.000000000000000000, 0.0000000000000000000, 0.0000000000000000000 ) ) ;
#988 = ORIENTED_EDGE ( 'NONE', *, *, #358, .F. ) ;
#989 = ORIENTED_EDGE ( 'NONE', *, *, #845, .F. ) ;
#990 = DIRECTION ( 'NONE',  ( 0.0000000000000000000, 0.0000000000000000000, 1.000000000000000000 ) ) ;
#991 = ORIENTED_EDGE ( 'NONE', *, *, #1105, .F. ) ;
#992 = ADVANCED_FACE ( 'NONE', ( #588 ), #1133, .T. ) ;
#993 = AXIS2_PLACEMENT_3D ( 'NONE', #13, #842, #297 ) ;
#994 = VECTOR ( 'NONE', #974, 1000.000000000000000 ) ;
#995 = LINE ( 'NONE', #705, #1056 ) ;
#996 = ADVANCED_FACE ( 'NONE', ( #179 ), #861, .F. ) ;
#997 = APPLICATION_PROTOCOL_DEFINITION ( 'draft international standard', 'automotive_design', 1998, #88 ) ;
#998 = CARTESIAN_POINT ( 'NONE',  ( 0.7500000000000000000, 0.9499999999999999556, -0.3499999999999999778 ) ) ;
#999 = FACE_OUTER_BOUND ( 'NONE', #322, .T. ) ;
#1000 = VECTOR ( 'NONE', #568, 1000.000000000000000 ) ;
#1001 = EDGE_CURVE ( 'NONE', #133, #44, #621, .T. ) ;
#1002 = VERTEX_POINT ( 'NONE', #959 ) ;
#1003 = VERTEX_POINT ( 'NONE', #692 ) ;
#1004 = DIRECTION ( 'NONE',  ( 1.000000000000000000, 0.0000000000000000000, 0.0000000000000000000 ) ) ;
#1005 = EDGE_LOOP ( 'NONE', ( #655, #1088, #291, #989 ) ) ;
#1006 = VERTEX_POINT ( 'NONE', #598 ) ;
#1007 = EDGE_CURVE ( 'NONE', #24, #1140, #838, .T. ) ;
#1008 = ADVANCED_FACE ( 'NONE', ( #785 ), #33, .T. ) ;
#1009 = DIRECTION ( 'NONE',  ( -1.000000000000000000, 0.0000000000000000000, 0.0000000000000000000 ) ) ;
#1010 = VECTOR ( 'NONE', #623, 1000.000000000000000 ) ;
#1011 = LINE ( 'NONE', #76, #972 ) ;
#1012 = EDGE_CURVE ( 'NONE', #1002, #354, #764, .T. ) ;
#1013 = AXIS2_PLACEMENT_3D ( 'NONE', #286, #660, #103 ) ;
#1014 = ORIENTED_EDGE ( 'NONE', *, *, #338, .T. ) ;
#1015 = DIRECTION ( 'NONE',  ( 0.0000000000000000000, 0.0000000000000000000, 1.000000000000000000 ) ) ;
#1016 = ORIENTED_EDGE ( 'NONE', *, *, #141, .F. ) ;
#1017 = CARTESIAN_POINT ( 'NONE',  ( -0.8000000000000000444, 0.9000000000000000222, -0.4000000000000000222 ) ) ;
#1018 = EDGE_LOOP ( 'NONE', ( #529, #595, #895, #569 ) ) ;
#1019 = CARTESIAN_POINT ( 'NONE',  ( -0.7500000000000000000, 0.0000000000000000000, -0.4000000000000000222 ) ) ;
#1020 = CARTESIAN_POINT ( 'NONE',  ( -0.7500000000000000000, 0.9000000000000000222, 0.3499999999999999778 ) ) ;
#1021 = DIRECTION ( 'NONE',  ( 0.0000000000000000000, 0.0000000000000000000, 1.000000000000000000 ) ) ;
#1022 = EDGE_CURVE ( 'NONE', #918, #942, #964, .T. ) ;
#1023 = PLANE ( 'NONE',  #497 ) ;
#1024 = FACE_OUTER_BOUND ( 'NONE', #1005, .T. ) ;
#1025 = VECTOR ( 'NONE', #925, 1000.000000000000000 ) ;
#1026 = LINE ( 'NONE', #1087, #196 ) ;
#1027 = DIRECTION ( 'NONE',  ( 0.0000000000000000000, 0.0000000000000000000, -1.000000000000000000 ) ) ;
#1028 = EDGE_CURVE ( 'NONE', #833, #1050, #311, .T. ) ;
#1029 = ORIENTED_EDGE ( 'NONE', *, *, #1063, .T. ) ;
#1030 = CARTESIAN_POINT ( 'NONE',  ( 0.7500000000000000000, 0.9000000000000000222, -0.4000000000000000222 ) ) ;
#1031 = AXIS2_PLACEMENT_3D ( 'NONE', #593, #1129, #313 ) ;
#1032 =( LENGTH_UNIT ( ) NAMED_UNIT ( * ) SI_UNIT ( .MILLI., .METRE. ) );
#1033 = ORIENTED_EDGE ( 'NONE', *, *, #299, .T. ) ;
#1034 = ORIENTED_EDGE ( 'NONE', *, *, #935, .T. ) ;
#1035 = CARTESIAN_POINT ( 'NONE',  ( -0.5000000000000000000, 0.05000000000000000278, 0.4000000000000000222 ) ) ;
#1036 = CIRCLE ( 'NONE', #848, 0.05000000000000002359 ) ;
#1037 = AXIS2_PLACEMENT_3D ( 'NONE', #727, #170, #470 ) ;
#1038 = VECTOR ( 'NONE', #543, 1000.000000000000000 ) ;
#1039 = CYLINDRICAL_SURFACE ( 'NONE', #1095, 0.05000000000000002359 ) ;
#1040 = DIRECTION ( 'NONE',  ( 0.0000000000000000000, -1.000000000000000000, 0.0000000000000000000 ) ) ;
#1041 = AXIS2_PLACEMENT_3D ( 'NONE', #36, #318, #55 ) ;
#1042 = VECTOR ( 'NONE', #100, 1000.000000000000000 ) ;
#1043 = CARTESIAN_POINT ( 'NONE',  ( -0.7500000000000000000, 0.05000000000000000278, -0.3499999999999999778 ) ) ;
#1044 = DIRECTION ( 'NONE',  ( 0.0000000000000000000, 0.0000000000000000000, -1.000000000000000000 ) ) ;
#1045 = ORIENTED_EDGE ( 'NONE', *, *, #520, .F. ) ;
#1046 = MECHANICAL_DESIGN_GEOMETRIC_PRESENTATION_REPRESENTATION (  '', ( #202 ), #544 ) ;
#1047 = DIRECTION ( 'NONE',  ( 1.000000000000000000, 0.0000000000000000000, 0.0000000000000000000 ) ) ;
#1048 = ORIENTED_EDGE ( 'NONE', *, *, #1012, .F. ) ;
#1049 = DIRECTION ( 'NONE',  ( 1.000000000000000000, 0.0000000000000000000, 0.0000000000000000000 ) ) ;
#1050 = VERTEX_POINT ( 'NONE', #223 ) ;
#1051 = DIRECTION ( 'NONE',  ( 0.0000000000000000000, 0.0000000000000000000, -1.000000000000000000 ) ) ;
#1052 = ADVANCED_FACE ( 'NONE', ( #154 ), #587, .T. ) ;
#1053 = CARTESIAN_POINT ( 'NONE',  ( 0.7500000000000000000, 0.05000000000000000278, 0.3499999999999999778 ) ) ;
#1054 = VECTOR ( 'NONE', #897, 1000.000000000000000 ) ;
#1055 = DIRECTION ( 'NONE',  ( 0.0000000000000000000, 0.0000000000000000000, 1.000000000000000000 ) ) ;
#1056 = VECTOR ( 'NONE', #439, 1000.000000000000000 ) ;
#1057 = CARTESIAN_POINT ( 'NONE',  ( 0.8000000000000000444, 0.9000000000000000222, -0.3499999999999999778 ) ) ;
#1058 =( GEOMETRIC_REPRESENTATION_CONTEXT ( 3 ) GLOBAL_UNCERTAINTY_ASSIGNED_CONTEXT ( ( #137 ) ) GLOBAL_UNIT_ASSIGNED_CONTEXT ( ( #711, #257, #349 ) ) REPRESENTATION_CONTEXT ( 'NONE', 'WORKASPACE' ) );
#1059 = DIRECTION ( 'NONE',  ( 2.168404344971007685E-15, -1.000000000000000000, 0.0000000000000000000 ) ) ;
#1060 = PLANE ( 'NONE',  #871 ) ;
#1061 = ADVANCED_BREP_SHAPE_REPRESENTATION ( 'CAPC1608X95N EIA 0603(1)', ( #830, #381 ), #86 ) ;
#1062 = EDGE_LOOP ( 'NONE', ( #469, #657, #12, #279 ) ) ;
#1063 = EDGE_CURVE ( 'NONE', #809, #833, #502, .T. ) ;
#1064 =( LENGTH_UNIT ( ) NAMED_UNIT ( * ) SI_UNIT ( .MILLI., .METRE. ) );
#1065 = VERTEX_POINT ( 'NONE', #947 ) ;
#1066 = ADVANCED_FACE ( 'NONE', ( #1082 ), #815, .T. ) ;
#1067 = EDGE_LOOP ( 'NONE', ( #846, #1096, #731, #60 ) ) ;
#1068 = CARTESIAN_POINT ( 'NONE',  ( -0.8000000000000000444, 0.05000000000000000278, 0.4000000000000000222 ) ) ;
#1069 = FILL_AREA_STYLE ('',( #892 ) ) ;
#1070 = CARTESIAN_POINT ( 'NONE',  ( -0.5000000000000000000, 0.9499999999999999556, 0.4000000000000000222 ) ) ;
#1071 = EDGE_CURVE ( 'NONE', #44, #918, #109, .T. ) ;
#1072 = LINE ( 'NONE', #523, #984 ) ;
#1073 = CARTESIAN_POINT ( 'NONE',  ( 0.5000000000000000000, 0.9499999999999999556, 0.4000000000000000222 ) ) ;
#1074 = CARTESIAN_POINT ( 'NONE',  ( 0.5000000000000000000, 0.9499999999999999556, -0.3499999999999999778 ) ) ;
#1075 = LINE ( 'NONE', #256, #264 ) ;
#1076 = DIRECTION ( 'NONE',  ( 0.0000000000000000000, 1.000000000000000000, 0.0000000000000000000 ) ) ;
#1077 = FILL_AREA_STYLE_COLOUR ( '', #17 ) ;
#1078 = EDGE_CURVE ( 'NONE', #47, #164, #534, .T. ) ;
#1079 = ORIENTED_EDGE ( 'NONE', *, *, #16, .T. ) ;
#1080 = AXIS2_PLACEMENT_3D ( 'NONE', #118, #584, #1112 ) ;
#1081 = CARTESIAN_POINT ( 'NONE',  ( 0.7500000000000000000, 0.0000000000000000000, 0.3499999999999999778 ) ) ;
#1082 = FACE_OUTER_BOUND ( 'NONE', #148, .T. ) ;
#1083 = CARTESIAN_POINT ( 'NONE',  ( 0.5000000000000000000, 0.9499999999999999556, -0.4000000000000000222 ) ) ;
#1084 = VECTOR ( 'NONE', #836, 1000.000000000000000 ) ;
#1085 = AXIS2_PLACEMENT_3D ( 'NONE', #156, #619, #614 ) ;
#1086 = LINE ( 'NONE', #490, #1148 ) ;
#1087 = CARTESIAN_POINT ( 'NONE',  ( -0.8000000000000000444, 0.9000000000000000222, -0.4000000000000000222 ) ) ;
#1088 = ORIENTED_EDGE ( 'NONE', *, *, #1063, .F. ) ;
#1089 = EDGE_CURVE ( 'NONE', #860, #164, #1036, .T. ) ;
#1090 = ORIENTED_EDGE ( 'NONE', *, *, #985, .F. ) ;
#1091 = CARTESIAN_POINT ( 'NONE',  ( 0.8000000000000000444, 0.9000000000000000222, -0.3499999999999999778 ) ) ;
#1092 = AXIS2_PLACEMENT_3D ( 'NONE', #682, #46, #688 ) ;
#1093 = SURFACE_STYLE_FILL_AREA ( #406 ) ;
#1094 = FACE_OUTER_BOUND ( 'NONE', #560, .T. ) ;
#1095 = AXIS2_PLACEMENT_3D ( 'NONE', #863, #316, #131 ) ;
#1096 = ORIENTED_EDGE ( 'NONE', *, *, #1078, .T. ) ;
#1097 = AXIS2_PLACEMENT_3D ( 'NONE', #1158, #71, #1059 ) ;
#1098 = ORIENTED_EDGE ( 'NONE', *, *, #967, .T. ) ;
#1099 = DIRECTION ( 'NONE',  ( 0.0000000000000000000, 0.0000000000000000000, -1.000000000000000000 ) ) ;
#1100 = DIRECTION ( 'NONE',  ( -1.000000000000000000, 0.0000000000000000000, 0.0000000000000000000 ) ) ;
#1101 = DIRECTION ( 'NONE',  ( -1.000000000000000000, 0.0000000000000000000, 0.0000000000000000000 ) ) ;
#1102 = FACE_OUTER_BOUND ( 'NONE', #130, .T. ) ;
#1103 = DIRECTION ( 'NONE',  ( 1.000000000000000000, 0.0000000000000000000, 0.0000000000000000000 ) ) ;
#1104 = CIRCLE ( 'NONE', #7, 0.05000000000000002359 ) ;
#1105 = EDGE_CURVE ( 'NONE', #862, #930, #745, .T. ) ;
#1106 = CARTESIAN_POINT ( 'NONE',  ( -0.8000000000000000444, 0.9499999999999999556, -0.4000000000000000222 ) ) ;
#1107 = ORIENTED_EDGE ( 'NONE', *, *, #790, .T. ) ;
#1108 = FILL_AREA_STYLE_COLOUR ( '', #66 ) ;
#1109 = FILL_AREA_STYLE_COLOUR ( '', #210 ) ;
#1110 = EDGE_CURVE ( 'NONE', #862, #397, #576, .T. ) ;
#1111 = VECTOR ( 'NONE', #876, 1000.000000000000000 ) ;
#1112 = DIRECTION ( 'NONE',  ( 0.0000000000000000000, 0.0000000000000000000, 1.000000000000000000 ) ) ;
#1113 = PRESENTATION_STYLE_ASSIGNMENT (( #953 ) ) ;
#1114 = SURFACE_SIDE_STYLE ('',( #522 ) ) ;
#1115 = PRESENTATION_STYLE_ASSIGNMENT (( #844 ) ) ;
#1116 = VECTOR ( 'NONE', #738, 1000.000000000000000 ) ;
#1117 = DIRECTION ( 'NONE',  ( 0.0000000000000000000, 0.0000000000000000000, -1.000000000000000000 ) ) ;
#1118 = AXIS2_PLACEMENT_3D ( 'NONE', #62, #887, #143 ) ;
#1119 = CARTESIAN_POINT ( 'NONE',  ( 0.7500000000000000000, 0.05000000000000000278, -0.3499999999999999778 ) ) ;
#1120 = CARTESIAN_POINT ( 'NONE',  ( -0.5000000000000000000, 0.9499999999999999556, -0.3499999999999999778 ) ) ;
#1121 = VERTEX_POINT ( 'NONE', #432 ) ;
#1122 = AXIS2_PLACEMENT_3D ( 'NONE', #145, #525, #435 ) ;
#1123 = EDGE_LOOP ( 'NONE', ( #413, #1178, #487 ) ) ;
#1124 =( NAMED_UNIT ( * ) PLANE_ANGLE_UNIT ( ) SI_UNIT ( $, .RADIAN. ) );
#1125 = ORIENTED_EDGE ( 'NONE', *, *, #1137, .T. ) ;
#1126 = EDGE_LOOP ( 'NONE', ( #126, #829, #117, #1034 ) ) ;
#1127 = DIRECTION ( 'NONE',  ( 1.000000000000000000, 0.0000000000000000000, 0.0000000000000000000 ) ) ;
#1128 = EDGE_CURVE ( 'NONE', #514, #354, #360, .T. ) ;
#1129 = DIRECTION ( 'NONE',  ( 0.0000000000000000000, 1.000000000000000000, 0.0000000000000000000 ) ) ;
#1130 = CARTESIAN_POINT ( 'NONE',  ( -0.5000000000000000000, 0.9000000000000000222, 0.4000000000000000222 ) ) ;
#1131 = CYLINDRICAL_SURFACE ( 'NONE', #1181, 0.05000000000000002359 ) ;
#1132 =( GEOMETRIC_REPRESENTATION_CONTEXT ( 3 ) GLOBAL_UNCERTAINTY_ASSIGNED_CONTEXT ( ( #340 ) ) GLOBAL_UNIT_ASSIGNED_CONTEXT ( ( #1032, #754, #936 ) ) REPRESENTATION_CONTEXT ( 'NONE', 'WORKASPACE' ) );
#1133 = PLANE ( 'NONE',  #640 ) ;
#1134 = LINE ( 'NONE', #975, #185 ) ;
#1135 = VECTOR ( 'NONE', #32, 1000.000000000000000 ) ;
#1136 = ORIENTED_EDGE ( 'NONE', *, *, #321, .F. ) ;
#1137 = EDGE_CURVE ( 'NONE', #268, #28, #94, .T. ) ;
#1138 =( NAMED_UNIT ( * ) PLANE_ANGLE_UNIT ( ) SI_UNIT ( $, .RADIAN. ) );
#1139 = PLANE ( 'NONE',  #574 ) ;
#1140 = VERTEX_POINT ( 'NONE', #803 ) ;
#1141 = ADVANCED_FACE ( 'NONE', ( #345 ), #1150, .F. ) ;
#1142 = ORIENTED_EDGE ( 'NONE', *, *, #110, .T. ) ;
#1143 = CARTESIAN_POINT ( 'NONE',  ( 0.8000000000000000444, 0.9499999999999999556, 0.3499999999999999778 ) ) ;
#1144 = EDGE_CURVE ( 'NONE', #930, #47, #275, .T. ) ;
#1145 = ADVANCED_FACE ( 'NONE', ( #207 ), #260, .T. ) ;
#1146 = CYLINDRICAL_SURFACE ( 'NONE', #911, 0.05000000000000002359 ) ;
#1147 = SURFACE_SIDE_STYLE ('',( #627 ) ) ;
#1148 = VECTOR ( 'NONE', #850, 1000.000000000000000 ) ;
#1149 = CIRCLE ( 'NONE', #323, 0.05000000000000002359 ) ;
#1150 = PLANE ( 'NONE',  #1156 ) ;
#1151 = PLANE ( 'NONE',  #880 ) ;
#1152 = DIRECTION ( 'NONE',  ( -2.168404344971007685E-15, 1.000000000000000000, 0.0000000000000000000 ) ) ;
#1153 = VERTEX_POINT ( 'NONE', #716 ) ;
#1154 = AXIS2_PLACEMENT_3D ( 'NONE', #48, #43, #138 ) ;
#1155 = ORIENTED_EDGE ( 'NONE', *, *, #940, .T. ) ;
#1156 = AXIS2_PLACEMENT_3D ( 'NONE', #65, #426, #980 ) ;
#1157 = ORIENTED_EDGE ( 'NONE', *, *, #808, .T. ) ;
#1158 = CARTESIAN_POINT ( 'NONE',  ( -0.7500000000000000000, 0.9000000000000000222, 0.3499999999999999778 ) ) ;
#1159 = DIRECTION ( 'NONE',  ( 0.0000000000000000000, 1.000000000000000000, 0.0000000000000000000 ) ) ;
#1160 = PLANE ( 'NONE',  #539 ) ;
#1161 = LINE ( 'NONE', #1143, #923 ) ;
#1162 = DIRECTION ( 'NONE',  ( 0.0000000000000000000, 0.0000000000000000000, -1.000000000000000000 ) ) ;
#1163 = CIRCLE ( 'NONE', #1037, 0.05000000000000002359 ) ;
#1164 = DIRECTION ( 'NONE',  ( 0.0000000000000000000, 0.0000000000000000000, 1.000000000000000000 ) ) ;
#1165 = PRESENTATION_STYLE_ASSIGNMENT (( #319 ) ) ;
#1166 = DIRECTION ( 'NONE',  ( 1.000000000000000000, 0.0000000000000000000, 0.0000000000000000000 ) ) ;
#1167 = ORIENTED_EDGE ( 'NONE', *, *, #1110, .T. ) ;
#1168 = ORIENTED_EDGE ( 'NONE', *, *, #921, .T. ) ;
#1169 = EDGE_CURVE ( 'NONE', #942, #164, #463, .T. ) ;
#1170 = DIRECTION ( 'NONE',  ( 0.0000000000000000000, -1.000000000000000000, 0.0000000000000000000 ) ) ;
#1171 = DIRECTION ( 'NONE',  ( 0.0000000000000000000, 0.0000000000000000000, 1.000000000000000000 ) ) ;
#1172 = SURFACE_STYLE_FILL_AREA ( #589 ) ;
#1173 = CARTESIAN_POINT ( 'NONE',  ( 0.8000000000000000444, 0.9000000000000000222, 0.3499999999999999778 ) ) ;
#1174 = LINE ( 'NONE', #811, #96 ) ;
#1175 = LINE ( 'NONE', #1083, #350 ) ;
#1176 = ADVANCED_FACE ( 'NONE', ( #519 ), #982, .T. ) ;
#1177 = ORIENTED_EDGE ( 'NONE', *, *, #460, .T. ) ;
#1178 = ORIENTED_EDGE ( 'NONE', *, *, #1007, .T. ) ;
#1179 = AXIS2_PLACEMENT_3D ( 'NONE', #408, #518, #433 ) ;
#1180 = ORIENTED_EDGE ( 'NONE', *, *, #1137, .F. ) ;
#1181 = AXIS2_PLACEMENT_3D ( 'NONE', #1057, #353, #707 ) ;
#1182 = DIRECTION ( 'NONE',  ( 0.0000000000000000000, 0.0000000000000000000, -1.000000000000000000 ) ) ;
ENDSEC;
END-ISO-10303-21;
