ISO-10303-21;
HEADER;
/* Generated by software containing ST-Developer
 * from STEP Tools, Inc. (www.steptools.com) 
 */

FILE_DESCRIPTION(
/* description */ ('Alibre Inc.'),
/* implementation_level */ '2;1');

FILE_NAME(
/* name */ 'export-A8CB9E3C-E605-4892-B050-DD55C452154A',
/* time_stamp */ '2022-08-21T10:51:41-07:00',
/* author */ (''),
/* organization */ (''),
/* preprocessor_version */ 'ST-DEVELOPER v17',
/* originating_system */ 'Alibre',
/* authorisation */ '');

FILE_SCHEMA (('CONFIG_CONTROL_DESIGN'));
ENDSEC;

DATA;
#10=MECHANICAL_CONTEXT('detailed design',#18,'mechanical');
#11=PRODUCT_RELATED_PRODUCT_CATEGORY('detail','',(#98));
#12=CC_DESIGN_SECURITY_CLASSIFICATION(#14,(#97));
#13=SECURITY_CLASSIFICATION_LEVEL('unclassified');
#14=SECURITY_CLASSIFICATION('name','Security for version',#13);
#15=SHAPE_DEFINITION_REPRESENTATION(#16,#229);
#16=PRODUCT_DEFINITION_SHAPE('','DefinitionDesc',#96);
#17=APPLICATION_PROTOCOL_DEFINITION('AP definition status',
'config_control_design',1994,#18);
#18=APPLICATION_CONTEXT(
'control the configuration of three dimensional design');
#19=DESIGN_CONTEXT('detailed design',#18,'design');
#20=PERSON_AND_ORGANIZATION_ROLE('creator');
#21=PERSON_AND_ORGANIZATION_ROLE('classification_officer');
#22=PERSON_AND_ORGANIZATION_ROLE('creator');
#23=PERSON_AND_ORGANIZATION_ROLE('design_supplier');
#24=PERSON_AND_ORGANIZATION_ROLE('design_owner');
#25=CC_DESIGN_PERSON_AND_ORGANIZATION_ASSIGNMENT(#57,#20,(#96));
#26=CC_DESIGN_PERSON_AND_ORGANIZATION_ASSIGNMENT(#60,#21,(#14));
#27=CC_DESIGN_PERSON_AND_ORGANIZATION_ASSIGNMENT(#61,#22,(#97));
#28=CC_DESIGN_PERSON_AND_ORGANIZATION_ASSIGNMENT(#62,#23,(#97));
#29=CC_DESIGN_PERSON_AND_ORGANIZATION_ASSIGNMENT(#63,#24,(#98));
#30=DATE_TIME_ROLE('creation_date');
#31=DATE_TIME_ROLE('classification_date');
#32=CC_DESIGN_DATE_AND_TIME_ASSIGNMENT(#86,#30,(#96));
#33=CC_DESIGN_DATE_AND_TIME_ASSIGNMENT(#89,#31,(#14));
#34=CC_DESIGN_APPROVAL(#93,(#96));
#35=CC_DESIGN_APPROVAL(#94,(#97));
#36=CC_DESIGN_APPROVAL(#95,(#14));
#37=APPROVAL_PERSON_ORGANIZATION(#56,#93,#64);
#38=APPROVAL_PERSON_ORGANIZATION(#58,#94,#65);
#39=APPROVAL_PERSON_ORGANIZATION(#59,#95,#66);
#40=ORGANIZATION('DEFINITION_APPROVEDBY_ORG_ID',
'DEFINITION_APPROVEDBY_ORG_NAME','DEFINITION_APPROVEDBY_ORG_DESCR');
#41=ORGANIZATION('DEF_CREATOR_ORG_ID','DEF_CREATOR_ORG_NAME',
'DEF_CREATOR_ORG_DESCR');
#42=ORGANIZATION('APPROVEDBY_ORG_ID','APPROVEDBY_ORG_NAME',
'APPROVEDBY_ORG_DESCR');
#43=ORGANIZATION('SECURITY_APPROVEDBY_ORG_ID',
'SECURITY_APPROVEDBY_ORG_NAME','SECURITY_APPROVEDBY_ORG_DESCR');
#44=ORGANIZATION('CLASSOFFICER_ORG_ID','CLASSOFFICER_ORG_NAME',
'CLASSOFFICER_ORG_DESCR');
#45=ORGANIZATION('CREATOR_ORG_ID','CREATOR_ORG_NAME',
'CREATOR_ORG_DESCR');
#46=ORGANIZATION('SUPPLIER_ORG_ID','SUPPLIER_ORG_NAME',
'SUPPLIER_ORG_DESCR');
#47=ORGANIZATION('OWNER_ORG_ID','OWNER_ORG_NAME','OWNER_ORG_DESCR');
#48=PERSON('DEFINITION_approverID','DEFINITION_APPROVEDBY_LASTNAME',
'DEFINITION_APPROVEDBY_FIRSTNAME',$,$,$);
#49=PERSON('DEF_createrID','DEF_CREATOR_LASTNAME',
'DEF_CREATOR_FIRSTNAME',$,$,$);
#50=PERSON('approverID','APPROVEDBY_LASTNAME','APPROVEDBY_FIRSTNAME',$,
$,$);
#51=PERSON('SECURITY_approverID','SECURITY_LASTNAME',
'SECURITY_APPROVEDBY_FIRSTNAME',$,$,$);
#52=PERSON('classifierID','CLASSOFFICER_LASTNAME',
'CLASSOFFICER_FIRSTNAME',$,$,$);
#53=PERSON('createrID','CREATOR_LASTNAME','CREATOR_FIRSTNAME',$,$,$);
#54=PERSON('supplierID','SUPPLIER_LASTNAME','SUPPLIER_FIRSTNAME',$,$,$);
#55=PERSON('ownerID','OWNER_LASTNAME','OWNER_FIRSTNAME',$,$,$);
#56=PERSON_AND_ORGANIZATION(#48,#40);
#57=PERSON_AND_ORGANIZATION(#49,#41);
#58=PERSON_AND_ORGANIZATION(#50,#42);
#59=PERSON_AND_ORGANIZATION(#51,#43);
#60=PERSON_AND_ORGANIZATION(#52,#44);
#61=PERSON_AND_ORGANIZATION(#53,#45);
#62=PERSON_AND_ORGANIZATION(#54,#46);
#63=PERSON_AND_ORGANIZATION(#55,#47);
#64=APPROVAL_ROLE('definition_approval');
#65=APPROVAL_ROLE('version_approval');
#66=APPROVAL_ROLE('security_approval');
#67=APPROVAL_DATE_TIME(#85,#93);
#68=APPROVAL_DATE_TIME(#87,#94);
#69=APPROVAL_DATE_TIME(#88,#95);
#70=COORDINATED_UNIVERSAL_TIME_OFFSET(7,0,.BEHIND.);
#71=COORDINATED_UNIVERSAL_TIME_OFFSET(7,0,.BEHIND.);
#72=COORDINATED_UNIVERSAL_TIME_OFFSET(7,0,.BEHIND.);
#73=COORDINATED_UNIVERSAL_TIME_OFFSET(7,0,.BEHIND.);
#74=COORDINATED_UNIVERSAL_TIME_OFFSET(7,0,.BEHIND.);
#75=LOCAL_TIME(10,45,20.,#70);
#76=LOCAL_TIME(10,45,20.,#71);
#77=LOCAL_TIME(10,45,20.,#72);
#78=LOCAL_TIME(10,45,20.,#73);
#79=LOCAL_TIME(10,45,20.,#74);
#80=CALENDAR_DATE(2022,21,8);
#81=CALENDAR_DATE(2022,21,8);
#82=CALENDAR_DATE(2022,21,8);
#83=CALENDAR_DATE(2022,21,8);
#84=CALENDAR_DATE(2022,21,8);
#85=DATE_AND_TIME(#80,#75);
#86=DATE_AND_TIME(#81,#76);
#87=DATE_AND_TIME(#82,#77);
#88=DATE_AND_TIME(#83,#78);
#89=DATE_AND_TIME(#84,#79);
#90=APPROVAL_STATUS('not_yet_approved');
#91=APPROVAL_STATUS('not_yet_approved');
#92=APPROVAL_STATUS('not_yet_approved');
#93=APPROVAL(#90,'defintion approval');
#94=APPROVAL(#91,'version approval');
#95=APPROVAL(#92,'security approval');
#96=PRODUCT_DEFINITION('DefinitionID','DefinitionDesc',#97,#19);
#97=PRODUCT_DEFINITION_FORMATION_WITH_SPECIFIED_SOURCE(
'PRODUCT_VERSION_ID','PRODUCT_VERSION_DESCR',#98,.NOT_KNOWN.);
#98=PRODUCT('','Hold Wire','',(#10));
#99=(
LENGTH_UNIT()
NAMED_UNIT(*)
SI_UNIT(.CENTI.,.METRE.)
);
#100=(
NAMED_UNIT(*)
PLANE_ANGLE_UNIT()
SI_UNIT($,.RADIAN.)
);
#101=(
NAMED_UNIT(*)
SI_UNIT($,.STERADIAN.)
SOLID_ANGLE_UNIT()
);
#102=UNCERTAINTY_MEASURE_WITH_UNIT(LENGTH_MEASURE(1.E-6),#99,
'DISTANCE_ACCURACY_VALUE',
'Maximum model space distance between geometric entities at asserted c
onnectivities');
#103=(
GEOMETRIC_REPRESENTATION_CONTEXT(3)
GLOBAL_UNCERTAINTY_ASSIGNED_CONTEXT((#102))
GLOBAL_UNIT_ASSIGNED_CONTEXT((#101,#100,#99))
REPRESENTATION_CONTEXT('ID1','3D')
);
#104=PLANE('',#176);
#105=PLANE('',#180);
#106=TOROIDAL_SURFACE('',#171,0.648800086066266,0.0354999999999999);
#107=VERTEX_POINT('',#206);
#108=VERTEX_POINT('',#208);
#109=VERTEX_POINT('',#211);
#110=VERTEX_POINT('',#214);
#111=VERTEX_POINT('',#216);
#112=VERTEX_POINT('',#221);
#113=CIRCLE('',#169,0.0354999999999999);
#114=CIRCLE('',#170,0.0354999999999999);
#115=CIRCLE('',#172,0.0354999999999999);
#116=CIRCLE('',#174,0.0354999999999999);
#117=CIRCLE('',#175,0.0354999999999999);
#118=CIRCLE('',#179,0.0354999999999999);
#119=EDGE_CURVE('',#107,#107,#113,.T.);
#120=EDGE_CURVE('',#108,#108,#114,.T.);
#121=EDGE_CURVE('',#109,#109,#115,.T.);
#122=EDGE_CURVE('',#110,#110,#116,.T.);
#123=EDGE_CURVE('',#111,#111,#117,.T.);
#124=EDGE_CURVE('',#112,#112,#118,.T.);
#125=ORIENTED_EDGE('',*,*,#119,.T.);
#126=ORIENTED_EDGE('',*,*,#120,.F.);
#127=ORIENTED_EDGE('',*,*,#120,.T.);
#128=ORIENTED_EDGE('',*,*,#121,.F.);
#129=ORIENTED_EDGE('',*,*,#122,.T.);
#130=ORIENTED_EDGE('',*,*,#123,.T.);
#131=ORIENTED_EDGE('',*,*,#123,.F.);
#132=ORIENTED_EDGE('',*,*,#121,.T.);
#133=ORIENTED_EDGE('',*,*,#122,.F.);
#134=ORIENTED_EDGE('',*,*,#124,.T.);
#135=ORIENTED_EDGE('',*,*,#119,.F.);
#136=ORIENTED_EDGE('',*,*,#124,.F.);
#137=EDGE_LOOP('',(#125));
#138=EDGE_LOOP('',(#126));
#139=EDGE_LOOP('',(#127));
#140=EDGE_LOOP('',(#128));
#141=EDGE_LOOP('',(#129));
#142=EDGE_LOOP('',(#130));
#143=EDGE_LOOP('',(#131));
#144=EDGE_LOOP('',(#132));
#145=EDGE_LOOP('',(#133));
#146=EDGE_LOOP('',(#134));
#147=EDGE_LOOP('',(#135));
#148=EDGE_LOOP('',(#136));
#149=FACE_BOUND('',#137,.T.);
#150=FACE_BOUND('',#138,.T.);
#151=FACE_BOUND('',#139,.T.);
#152=FACE_BOUND('',#140,.T.);
#153=FACE_BOUND('',#141,.T.);
#154=FACE_BOUND('',#142,.T.);
#155=FACE_BOUND('',#143,.T.);
#156=FACE_BOUND('',#144,.T.);
#157=FACE_BOUND('',#145,.T.);
#158=FACE_BOUND('',#146,.T.);
#159=FACE_BOUND('',#147,.T.);
#160=FACE_BOUND('',#148,.T.);
#161=ADVANCED_FACE('',(#149,#150),#223,.T.);
#162=ADVANCED_FACE('',(#151,#152),#106,.T.);
#163=ADVANCED_FACE('',(#153,#154),#224,.T.);
#164=ADVANCED_FACE('',(#155),#104,.F.);
#165=ADVANCED_FACE('',(#156,#157),#225,.T.);
#166=ADVANCED_FACE('',(#158,#159),#226,.T.);
#167=ADVANCED_FACE('',(#160),#105,.T.);
#168=AXIS2_PLACEMENT_3D('',#204,#181,#182);
#169=AXIS2_PLACEMENT_3D('',#205,#183,#184);
#170=AXIS2_PLACEMENT_3D('',#207,#185,#186);
#171=AXIS2_PLACEMENT_3D('',#209,#187,$);
#172=AXIS2_PLACEMENT_3D('',#210,#188,#189);
#173=AXIS2_PLACEMENT_3D('',#212,#190,#191);
#174=AXIS2_PLACEMENT_3D('',#213,#192,#193);
#175=AXIS2_PLACEMENT_3D('',#215,#194,#195);
#176=AXIS2_PLACEMENT_3D('',#217,#196,$);
#177=AXIS2_PLACEMENT_3D('',#218,#197,#198);
#178=AXIS2_PLACEMENT_3D('',#219,#199,#200);
#179=AXIS2_PLACEMENT_3D('',#220,#201,#202);
#180=AXIS2_PLACEMENT_3D('',#222,#203,$);
#181=DIRECTION('',(0.,-0.999989203891735,-0.00464673003016392));
#182=DIRECTION('',(0.0354999999999999,0.,0.));
#183=DIRECTION('',(0.,0.999989203891735,0.00464673003016326));
#184=DIRECTION('',(0.0354999999999999,0.,0.));
#185=DIRECTION('',(0.,0.999989203891735,0.00464673003016326));
#186=DIRECTION('',(0.0354999999999999,0.,0.));
#187=DIRECTION('',(1.,0.,0.));
#188=DIRECTION('',(0.,-0.999999733466637,-0.000730114138888818));
#189=DIRECTION('',(0.0354999999999999,0.,0.));
#190=DIRECTION('',(0.,0.999989203891735,0.00464673003016393));
#191=DIRECTION('',(0.0354999999999999,0.,0.));
#192=DIRECTION('',(0.,-0.999989203891735,-0.00464673003016393));
#193=DIRECTION('',(0.0354999999999999,0.,0.));
#194=DIRECTION('',(0.,0.999989203891735,0.00464673003016393));
#195=DIRECTION('',(0.0354999999999999,0.,0.));
#196=DIRECTION('',(0.,0.999989203891735,0.00464673003016393));
#197=DIRECTION('',(0.,0.999999733466637,0.000730114138888818));
#198=DIRECTION('',(0.0354999999999999,0.,0.));
#199=DIRECTION('',(0.,-0.999999733466637,-0.000730114138888856));
#200=DIRECTION('',(0.0354999999999999,0.,0.));
#201=DIRECTION('',(0.,0.999999733466637,0.000730114138888184));
#202=DIRECTION('',(0.0354999999999999,0.,0.));
#203=DIRECTION('',(0.,-0.999999733466637,-0.000730114138888184));
#204=CARTESIAN_POINT('',(2.5,0.621985201156503,0.648793081550295));
#205=CARTESIAN_POINT('',(2.5,2.88093262602596E-5,0.645902986905149));
#206=CARTESIAN_POINT('',(2.5355,2.88093262601485E-5,0.64590298690515));
#207=CARTESIAN_POINT('',(2.5,0.621985201156503,0.648793081550295));
#208=CARTESIAN_POINT('',(2.5355,0.621985201156503,0.648793081550295));
#209=CARTESIAN_POINT('',(2.5,0.625,0.));
#210=CARTESIAN_POINT('',(2.5,0.625473698116149,-0.648799913139397));
#211=CARTESIAN_POINT('',(2.5355,0.625473698116149,-0.648799913139397));
#212=CARTESIAN_POINT('',(2.5,-0.20002880932626,-0.650186005078499));
#213=CARTESIAN_POINT('',(2.5,-2.88093262603706E-5,-0.649256649039038));
#214=CARTESIAN_POINT('',(2.5355,-2.88093262603706E-5,-0.649256649039038));
#215=CARTESIAN_POINT('',(2.5,-0.20002880932626,-0.650186005078499));
#216=CARTESIAN_POINT('',(2.5355,-0.20002880932626,-0.650186005078499));
#217=CARTESIAN_POINT('',(2.5,-0.20002880932626,-0.650186005078499));
#218=CARTESIAN_POINT('',(2.5,-4.52664482297749E-6,-0.64925658375658));
#219=CARTESIAN_POINT('',(2.5,4.52664482297749E-6,0.645902921622691));
#220=CARTESIAN_POINT('',(2.5,-0.199995473355177,0.645756898755994));
#221=CARTESIAN_POINT('',(2.5355,-0.199995473355177,0.645756898755994));
#222=CARTESIAN_POINT('',(2.5,-0.199995473355177,0.645756898755994));
#223=CYLINDRICAL_SURFACE('',#168,0.0354999999999999);
#224=CYLINDRICAL_SURFACE('',#173,0.0354999999999999);
#225=CYLINDRICAL_SURFACE('',#177,0.0354999999999999);
#226=CYLINDRICAL_SURFACE('',#178,0.0354999999999999);
#227=CLOSED_SHELL('',(#161,#162,#163,#164,#165,#166,#167));
#228=MANIFOLD_SOLID_BREP('',#227);
#229=ADVANCED_BREP_SHAPE_REPRESENTATION('',(#228),#103);
ENDSEC;
END-ISO-10303-21;
