ISO-10303-21;
HEADER;
/* Generated by software containing ST-Developer
 * from STEP Tools, Inc. (www.steptools.com) 
 */

FILE_DESCRIPTION(
/* description */ ('',
'CAx-IF Rec.Pracs.---Representation and Presentation of Product Manufa
cturing Information (PMI)---3.8---2014-02-18'),
/* implementation_level */ '2;1');

FILE_NAME(
/* name */ 
'Z:\\Stefano\\Lavori\\030_Blues_Notecarrier_XI\\NuoviPN\\Maxwell BCAP0
010 P300 X12\\MAXWELL_BCAP0010_P300_X12.stp',
/* time_stamp */ '2025-07-09T13:26:45+02:00',
/* author */ ('ste'),
/* organization */ (''),
/* preprocessor_version */ 'ST-DEVELOPER v16.13',
/* originating_system */ 'Autodesk Inventor 2018',
/* authorisation */ '');

FILE_SCHEMA (('AP242_MANAGED_MODEL_BASED_3D_ENGINEERING_MIM_LF { 1 0 10303 442 1 1 4 }'));
ENDSEC;

DATA;
#10=MECHANICAL_DESIGN_AND_DRAUGHTING_RELATIONSHIP('','Isometric',#32,#33);
#11=MECHANICAL_DESIGN_AND_DRAUGHTING_RELATIONSHIP('','Front',#34,#33);
#12=MECHANICAL_DESIGN_AND_DRAUGHTING_RELATIONSHIP('','Top',#35,#33);
#13=MECHANICAL_DESIGN_AND_DRAUGHTING_RELATIONSHIP('','Right',#36,#33);
#14=MAPPED_ITEM('',#23,#1130);
#15=MAPPED_ITEM('',#24,#1131);
#16=MAPPED_ITEM('',#25,#1132);
#17=MAPPED_ITEM('',#26,#1133);
#18=MAPPED_ITEM('',#27,#1134);
#19=MAPPED_ITEM('',#28,#1135);
#20=MAPPED_ITEM('',#29,#1136);
#21=MAPPED_ITEM('',#30,#1137);
#22=MAPPED_ITEM('',#31,#1138);
#23=REPRESENTATION_MAP(#1130,#55);
#24=REPRESENTATION_MAP(#1131,#1855);
#25=REPRESENTATION_MAP(#1132,#1855);
#26=REPRESENTATION_MAP(#1133,#55);
#27=REPRESENTATION_MAP(#1134,#1855);
#28=REPRESENTATION_MAP(#1135,#55);
#29=REPRESENTATION_MAP(#1136,#1855);
#30=REPRESENTATION_MAP(#1137,#55);
#31=REPRESENTATION_MAP(#1138,#1855);
#32=DRAUGHTING_MODEL('Isometric',(#14,#15,#42),#1847);
#33=DRAUGHTING_MODEL('',(#16,#1132),#1847);
#34=DRAUGHTING_MODEL('Front',(#17,#18,#43),#1847);
#35=DRAUGHTING_MODEL('Top',(#19,#20,#44),#1847);
#36=DRAUGHTING_MODEL('Right',(#21,#22,#45),#1847);
#37=MECHANICAL_DESIGN_GEOMETRIC_PRESENTATION_REPRESENTATION('',(#941,#942,
#946,#947,#949,#950,#943,#948,#944,#945,#938,#932,#934,#933,#940,#939,#936,
#935,#937,#955,#956,#957,#958,#959,#960,#951,#952,#953,#954),#1848);
#38=APPLIED_GROUP_ASSIGNMENT(#40,(#929,#930));
#39=APPLIED_GROUP_ASSIGNMENT(#41,(#931));
#40=GROUP('T\X2\011B\X0\leso1',$);
#41=GROUP('ExtrusionSrf1',$);
#42=CAMERA_MODEL_D3_MULTI_CLIPPING('Isometric',#1114,#46,(#866,#867));
#43=CAMERA_MODEL_D3_MULTI_CLIPPING('Front',#1118,#47,(#868,#869));
#44=CAMERA_MODEL_D3_MULTI_CLIPPING('Top',#1122,#48,(#870,#871));
#45=CAMERA_MODEL_D3_MULTI_CLIPPING('Right',#1126,#49,(#872,#873));
#46=VIEW_VOLUME(.PARALLEL.,#1818,16.9875424688562,0.,.F.,0.,.F.,.F.,#50);
#47=VIEW_VOLUME(.PARALLEL.,#1823,117.693146607172,0.,.F.,0.,.F.,.F.,#51);
#48=VIEW_VOLUME(.PARALLEL.,#1828,117.693146607172,0.,.F.,0.,.F.,.F.,#52);
#49=VIEW_VOLUME(.PARALLEL.,#1833,117.693146607172,0.,.F.,0.,.F.,.F.,#53);
#50=PLANAR_BOX('view window',0.,0.,#1115);
#51=PLANAR_BOX('view window',0.,0.,#1119);
#52=PLANAR_BOX('view window',0.,0.,#1123);
#53=PLANAR_BOX('view window',0.,0.,#1127);
#54=SHAPE_REPRESENTATION_RELATIONSHIP('SRR','None',#1855,#55);
#55=GEOMETRICALLY_BOUNDED_WIREFRAME_SHAPE_REPRESENTATION('',(#56),#1847);
#56=GEOMETRIC_CURVE_SET('Sketch4',(#962,#963,#964,#965,#966,#967));
#57=B_SPLINE_CURVE_WITH_KNOTS('',3,(#1622,#1623,#1624,#1625,#1626,#1627,
#1628,#1629,#1630,#1631),.UNSPECIFIED.,.F.,.F.,(4,2,2,2,4),(0.,0.0199495989195707,
0.0405143144232306,0.0619484425026842,0.0736743805553247),.UNSPECIFIED.);
#58=B_SPLINE_CURVE_WITH_KNOTS('',3,(#1634,#1635,#1636,#1637,#1638,#1639,
#1640,#1641,#1642,#1643),.UNSPECIFIED.,.F.,.F.,(4,2,2,2,4),(0.265250761215137,
0.276976699267778,0.298410827347232,0.318975542850891,0.338925141770462),
 .UNSPECIFIED.);
#59=B_SPLINE_CURVE_WITH_KNOTS('',3,(#1652,#1653,#1654,#1655,#1656,#1657,
#1658,#1659,#1660,#1661),.UNSPECIFIED.,.F.,.F.,(4,2,2,2,4),(0.266230193330091,
0.277481434238635,0.298954191138096,0.319556151129386,0.339542139636762),
 .UNSPECIFIED.);
#60=B_SPLINE_CURVE_WITH_KNOTS('',3,(#1664,#1665,#1666,#1667,#1668,#1669,
#1670,#1671,#1672,#1673),.UNSPECIFIED.,.F.,.F.,(4,2,2,2,4),(0.,0.0199859885073763,
0.0405879484986663,0.0620607053981268,0.073311946306671),.UNSPECIFIED.);
#61=TOROIDAL_SURFACE('',#1024,4.44999999999999,0.55);
#62=TOROIDAL_SURFACE('',#1029,4.44999999999999,0.551);
#63=TOROIDAL_SURFACE('',#1038,1.2,0.4);
#64=TOROIDAL_SURFACE('',#1044,1.2,0.4);
#65=TOROIDAL_SURFACE('',#1047,4.75,0.251);
#66=TOROIDAL_SURFACE('',#1054,4.5,0.501);
#67=TOROIDAL_SURFACE('',#1058,5.4,0.665666666666667);
#68=TOROIDAL_SURFACE('',#1062,4.49999999999999,0.501);
#69=TOROIDAL_SURFACE('',#1077,4.75,0.25);
#70=TOROIDAL_SURFACE('',#1081,4.5,0.5);
#71=TOROIDAL_SURFACE('',#1085,5.4,0.666666666666667);
#72=TOROIDAL_SURFACE('',#1089,4.49999999999999,0.5);
#73=TOROIDAL_SURFACE('',#1093,4.49999999999999,0.5);
#74=CYLINDRICAL_SURFACE('',#1010,3.83333333333332);
#75=CYLINDRICAL_SURFACE('',#1035,0.4);
#76=CYLINDRICAL_SURFACE('',#1041,0.4);
#77=CYLINDRICAL_SURFACE('',#1052,5.001);
#78=CYLINDRICAL_SURFACE('',#1074,5.);
#79=CYLINDRICAL_SURFACE('',#1099,0.4);
#80=CYLINDRICAL_SURFACE('',#1101,0.4);
#81=CYLINDRICAL_SURFACE('',#1103,4.28571428571429);
#82=CYLINDRICAL_SURFACE('',#1106,5.);
#83=CYLINDRICAL_SURFACE('',#1109,5.);
#84=ELLIPSE('',#999,5.42115198909684,3.83333333333332);
#85=ELLIPSE('',#1001,5.42115198909684,3.83333333333332);
#86=ELLIPSE('',#1003,5.42115198909684,3.83333333333332);
#87=ELLIPSE('',#1005,5.42115198909684,3.83333333333332);
#88=ELLIPSE('',#1007,5.42115198909684,3.83333333333332);
#89=ELLIPSE('',#1009,5.42115198909684,3.83333333333332);
#90=ELLIPSE('',#1016,5.42115198909684,3.83333333333332);
#91=ELLIPSE('',#1018,5.42115198909684,3.83333333333332);
#92=ELLIPSE('',#1048,0.268028898002036,0.252111763214384);
#93=ELLIPSE('',#1050,0.268028898001967,0.252111763214334);
#94=ELLIPSE('',#1055,0.529946837719287,0.500446564513001);
#95=ELLIPSE('',#1056,0.529946837716789,0.500446564511667);
#96=ELLIPSE('',#1059,0.721081458665076,0.670328170724755);
#97=ELLIPSE('',#1060,0.721081458665082,0.670328170724759);
#98=ELLIPSE('',#1065,0.529946837719496,0.500446564513136);
#99=ELLIPSE('',#1066,0.529946837719237,0.500446564512992);
#100=ELLIPSE('',#1078,0.267003343191719,0.251130969555191);
#101=ELLIPSE('',#1079,0.267003343191666,0.251130969555152);
#102=ELLIPSE('',#1082,0.528904881046165,0.499448768893817);
#103=ELLIPSE('',#1084,0.528904881047546,0.499448768894567);
#104=ELLIPSE('',#1086,0.722207648896214,0.671345217016177);
#105=ELLIPSE('',#1088,0.722207648896095,0.671345217016127);
#106=ELLIPSE('',#1094,0.528904881048757,0.499448768895223);
#107=ELLIPSE('',#1096,0.528904881048528,0.499448768895109);
#108=LINE('',#1510,#160);
#109=LINE('',#1512,#161);
#110=LINE('',#1514,#162);
#111=LINE('',#1515,#163);
#112=LINE('',#1518,#164);
#113=LINE('',#1520,#165);
#114=LINE('',#1521,#166);
#115=LINE('',#1525,#167);
#116=LINE('',#1527,#168);
#117=LINE('',#1529,#169);
#118=LINE('',#1530,#170);
#119=LINE('',#1533,#171);
#120=LINE('',#1535,#172);
#121=LINE('',#1536,#173);
#122=LINE('',#1540,#174);
#123=LINE('',#1542,#175);
#124=LINE('',#1544,#176);
#125=LINE('',#1545,#177);
#126=LINE('',#1548,#178);
#127=LINE('',#1550,#179);
#128=LINE('',#1551,#180);
#129=LINE('',#1555,#181);
#130=LINE('',#1557,#182);
#131=LINE('',#1559,#183);
#132=LINE('',#1560,#184);
#133=LINE('',#1563,#185);
#134=LINE('',#1565,#186);
#135=LINE('',#1566,#187);
#136=LINE('',#1570,#188);
#137=LINE('',#1572,#189);
#138=LINE('',#1576,#190);
#139=LINE('',#1580,#191);
#140=LINE('',#1582,#192);
#141=LINE('',#1586,#193);
#142=LINE('',#1590,#194);
#143=LINE('',#1592,#195);
#144=LINE('',#1596,#196);
#145=LINE('',#1612,#197);
#146=LINE('',#1613,#198);
#147=LINE('',#1615,#199);
#148=LINE('',#1648,#200);
#149=LINE('',#1649,#201);
#150=LINE('',#1707,#202);
#151=LINE('',#1709,#203);
#152=LINE('',#1739,#204);
#153=LINE('',#1742,#205);
#154=LINE('',#1745,#206);
#155=LINE('',#1748,#207);
#156=LINE('',#1752,#208);
#157=LINE('',#1756,#209);
#158=LINE('',#1803,#210);
#159=LINE('',#1807,#211);
#160=VECTOR('',#1149,10.);
#161=VECTOR('',#1150,10.);
#162=VECTOR('',#1151,10.);
#163=VECTOR('',#1152,10.);
#164=VECTOR('',#1155,10.);
#165=VECTOR('',#1156,10.);
#166=VECTOR('',#1157,10.);
#167=VECTOR('',#1160,10.);
#168=VECTOR('',#1161,10.);
#169=VECTOR('',#1162,10.);
#170=VECTOR('',#1163,10.);
#171=VECTOR('',#1166,10.);
#172=VECTOR('',#1167,10.);
#173=VECTOR('',#1168,10.);
#174=VECTOR('',#1171,10.);
#175=VECTOR('',#1172,10.);
#176=VECTOR('',#1173,10.);
#177=VECTOR('',#1174,10.);
#178=VECTOR('',#1177,10.);
#179=VECTOR('',#1178,10.);
#180=VECTOR('',#1179,10.);
#181=VECTOR('',#1182,10.);
#182=VECTOR('',#1183,10.);
#183=VECTOR('',#1184,10.);
#184=VECTOR('',#1185,10.);
#185=VECTOR('',#1188,10.);
#186=VECTOR('',#1189,10.);
#187=VECTOR('',#1190,10.);
#188=VECTOR('',#1193,10.);
#189=VECTOR('',#1196,10.);
#190=VECTOR('',#1201,10.);
#191=VECTOR('',#1204,10.);
#192=VECTOR('',#1207,10.);
#193=VECTOR('',#1212,10.);
#194=VECTOR('',#1215,10.);
#195=VECTOR('',#1218,10.);
#196=VECTOR('',#1223,10.);
#197=VECTOR('',#1248,10.);
#198=VECTOR('',#1249,10.);
#199=VECTOR('',#1252,10.);
#200=VECTOR('',#1265,10.);
#201=VECTOR('',#1266,10.);
#202=VECTOR('',#1315,10.);
#203=VECTOR('',#1316,10.);
#204=VECTOR('',#1353,10.);
#205=VECTOR('',#1356,10.);
#206=VECTOR('',#1359,10.);
#207=VECTOR('',#1362,10.);
#208=VECTOR('',#1365,10.);
#209=VECTOR('',#1368,10.);
#210=VECTOR('',#1431,10.);
#211=VECTOR('',#1434,10.);
#212=FACE_BOUND('',#279,.T.);
#213=FACE_BOUND('',#295,.T.);
#214=FACE_BOUND('',#300,.T.);
#215=FACE_BOUND('',#308,.T.);
#216=FACE_BOUND('',#310,.T.);
#217=FACE_BOUND('',#313,.T.);
#218=FACE_BOUND('',#315,.T.);
#219=FACE_BOUND('',#326,.T.);
#220=FACE_BOUND('',#332,.T.);
#221=FACE_BOUND('',#334,.T.);
#222=FACE_BOUND('',#336,.T.);
#223=FACE_BOUND('',#338,.T.);
#224=FACE_BOUND('',#340,.T.);
#225=FACE_BOUND('',#341,.T.);
#226=FACE_OUTER_BOUND('',#278,.T.);
#227=FACE_OUTER_BOUND('',#280,.T.);
#228=FACE_OUTER_BOUND('',#281,.T.);
#229=FACE_OUTER_BOUND('',#282,.T.);
#230=FACE_OUTER_BOUND('',#283,.T.);
#231=FACE_OUTER_BOUND('',#284,.T.);
#232=FACE_OUTER_BOUND('',#285,.T.);
#233=FACE_OUTER_BOUND('',#286,.T.);
#234=FACE_OUTER_BOUND('',#287,.T.);
#235=FACE_OUTER_BOUND('',#288,.T.);
#236=FACE_OUTER_BOUND('',#289,.T.);
#237=FACE_OUTER_BOUND('',#290,.T.);
#238=FACE_OUTER_BOUND('',#291,.T.);
#239=FACE_OUTER_BOUND('',#292,.T.);
#240=FACE_OUTER_BOUND('',#293,.T.);
#241=FACE_OUTER_BOUND('',#294,.T.);
#242=FACE_OUTER_BOUND('',#296,.T.);
#243=FACE_OUTER_BOUND('',#297,.T.);
#244=FACE_OUTER_BOUND('',#298,.T.);
#245=FACE_OUTER_BOUND('',#299,.T.);
#246=FACE_OUTER_BOUND('',#301,.T.);
#247=FACE_OUTER_BOUND('',#302,.T.);
#248=FACE_OUTER_BOUND('',#303,.T.);
#249=FACE_OUTER_BOUND('',#304,.T.);
#250=FACE_OUTER_BOUND('',#305,.T.);
#251=FACE_OUTER_BOUND('',#306,.T.);
#252=FACE_OUTER_BOUND('',#307,.T.);
#253=FACE_OUTER_BOUND('',#309,.T.);
#254=FACE_OUTER_BOUND('',#311,.T.);
#255=FACE_OUTER_BOUND('',#312,.T.);
#256=FACE_OUTER_BOUND('',#314,.T.);
#257=FACE_OUTER_BOUND('',#316,.T.);
#258=FACE_OUTER_BOUND('',#317,.T.);
#259=FACE_OUTER_BOUND('',#318,.T.);
#260=FACE_OUTER_BOUND('',#319,.T.);
#261=FACE_OUTER_BOUND('',#320,.T.);
#262=FACE_OUTER_BOUND('',#321,.T.);
#263=FACE_OUTER_BOUND('',#322,.T.);
#264=FACE_OUTER_BOUND('',#323,.T.);
#265=FACE_OUTER_BOUND('',#324,.T.);
#266=FACE_OUTER_BOUND('',#325,.T.);
#267=FACE_OUTER_BOUND('',#327,.T.);
#268=FACE_OUTER_BOUND('',#328,.T.);
#269=FACE_OUTER_BOUND('',#329,.T.);
#270=FACE_OUTER_BOUND('',#330,.T.);
#271=FACE_OUTER_BOUND('',#331,.T.);
#272=FACE_OUTER_BOUND('',#333,.T.);
#273=FACE_OUTER_BOUND('',#335,.T.);
#274=FACE_OUTER_BOUND('',#337,.T.);
#275=FACE_OUTER_BOUND('',#339,.T.);
#276=FACE_OUTER_BOUND('',#342,.T.);
#277=FACE_OUTER_BOUND('',#343,.T.);
#278=EDGE_LOOP('',(#621));
#279=EDGE_LOOP('',(#622));
#280=EDGE_LOOP('',(#623,#624,#625,#626));
#281=EDGE_LOOP('',(#627,#628,#629,#630));
#282=EDGE_LOOP('',(#631,#632,#633,#634));
#283=EDGE_LOOP('',(#635,#636,#637,#638));
#284=EDGE_LOOP('',(#639,#640,#641,#642));
#285=EDGE_LOOP('',(#643,#644,#645,#646));
#286=EDGE_LOOP('',(#647,#648,#649,#650));
#287=EDGE_LOOP('',(#651,#652,#653,#654));
#288=EDGE_LOOP('',(#655,#656,#657,#658));
#289=EDGE_LOOP('',(#659,#660,#661,#662));
#290=EDGE_LOOP('',(#663,#664,#665,#666));
#291=EDGE_LOOP('',(#667,#668,#669,#670));
#292=EDGE_LOOP('',(#671,#672,#673,#674));
#293=EDGE_LOOP('',(#675,#676,#677,#678));
#294=EDGE_LOOP('',(#679));
#295=EDGE_LOOP('',(#680,#681,#682,#683,#684,#685,#686,#687,#688,#689,#690,
#691,#692,#693,#694,#695,#696,#697,#698,#699,#700,#701,#702,#703));
#296=EDGE_LOOP('',(#704,#705,#706,#707,#708,#709,#710,#711,#712,#713,#714,
#715));
#297=EDGE_LOOP('',(#716,#717,#718,#719));
#298=EDGE_LOOP('',(#720,#721,#722,#723));
#299=EDGE_LOOP('',(#724));
#300=EDGE_LOOP('',(#725,#726,#727,#728));
#301=EDGE_LOOP('',(#729,#730,#731,#732));
#302=EDGE_LOOP('',(#733,#734,#735,#736));
#303=EDGE_LOOP('',(#737,#738,#739));
#304=EDGE_LOOP('',(#740,#741,#742));
#305=EDGE_LOOP('',(#743,#744,#745));
#306=EDGE_LOOP('',(#746,#747,#748));
#307=EDGE_LOOP('',(#749));
#308=EDGE_LOOP('',(#750));
#309=EDGE_LOOP('',(#751));
#310=EDGE_LOOP('',(#752));
#311=EDGE_LOOP('',(#753));
#312=EDGE_LOOP('',(#754));
#313=EDGE_LOOP('',(#755));
#314=EDGE_LOOP('',(#756));
#315=EDGE_LOOP('',(#757));
#316=EDGE_LOOP('',(#758));
#317=EDGE_LOOP('',(#759,#760,#761,#762));
#318=EDGE_LOOP('',(#763,#764,#765,#766));
#319=EDGE_LOOP('',(#767,#768,#769,#770));
#320=EDGE_LOOP('',(#771,#772,#773,#774));
#321=EDGE_LOOP('',(#775,#776,#777,#778,#779,#780,#781,#782));
#322=EDGE_LOOP('',(#783,#784,#785,#786));
#323=EDGE_LOOP('',(#787,#788,#789,#790));
#324=EDGE_LOOP('',(#791,#792,#793,#794));
#325=EDGE_LOOP('',(#795,#796,#797,#798));
#326=EDGE_LOOP('',(#799));
#327=EDGE_LOOP('',(#800,#801,#802,#803));
#328=EDGE_LOOP('',(#804,#805,#806,#807));
#329=EDGE_LOOP('',(#808,#809,#810,#811));
#330=EDGE_LOOP('',(#812,#813,#814,#815));
#331=EDGE_LOOP('',(#816));
#332=EDGE_LOOP('',(#817));
#333=EDGE_LOOP('',(#818));
#334=EDGE_LOOP('',(#819));
#335=EDGE_LOOP('',(#820));
#336=EDGE_LOOP('',(#821));
#337=EDGE_LOOP('',(#822));
#338=EDGE_LOOP('',(#823));
#339=EDGE_LOOP('',(#824));
#340=EDGE_LOOP('',(#825));
#341=EDGE_LOOP('',(#826));
#342=EDGE_LOOP('',(#827,#828,#829,#830));
#343=EDGE_LOOP('',(#831,#832,#833,#834,#835,#836));
#344=CIRCLE('',#988,4.44999999999999);
#345=CIRCLE('',#989,3.83333333333332);
#346=CIRCLE('',#1011,3.83333333333332);
#347=CIRCLE('',#1012,3.83333333333332);
#348=CIRCLE('',#1013,3.83333333333332);
#349=CIRCLE('',#1014,3.83333333333332);
#350=CIRCLE('',#1015,3.83333333333332);
#351=CIRCLE('',#1017,3.83333333333332);
#352=CIRCLE('',#1019,3.83333333333332);
#353=CIRCLE('',#1020,3.83333333333332);
#354=CIRCLE('',#1025,4.99999999999999);
#355=CIRCLE('',#1026,4.5544030650891);
#356=CIRCLE('',#1028,4.55954907576059);
#357=CIRCLE('',#1030,5.00099999999999);
#358=CIRCLE('',#1036,0.4);
#359=CIRCLE('',#1037,0.4);
#360=CIRCLE('',#1039,0.4);
#361=CIRCLE('',#1042,0.4);
#362=CIRCLE('',#1043,0.4);
#363=CIRCLE('',#1045,0.4);
#364=CIRCLE('',#1049,4.8234914961067);
#365=CIRCLE('',#1051,5.001);
#366=CIRCLE('',#1053,5.001);
#367=CIRCLE('',#1057,4.88648571428571);
#368=CIRCLE('',#1061,4.88648571428571);
#369=CIRCLE('',#1063,0.498094151809618);
#370=CIRCLE('',#1064,5.00099999999999);
#371=CIRCLE('',#1067,5.00099999999999);
#372=CIRCLE('',#1068,0.498094151809614);
#373=CIRCLE('',#1069,4.9808367405918);
#374=CIRCLE('',#1071,4.97979471766886);
#375=CIRCLE('',#1073,4.82);
#376=CIRCLE('',#1075,5.);
#377=CIRCLE('',#1076,5.);
#378=CIRCLE('',#1080,4.75);
#379=CIRCLE('',#1083,4.88571428571429);
#380=CIRCLE('',#1087,4.88571428571428);
#381=CIRCLE('',#1090,0.497099628299422);
#382=CIRCLE('',#1091,0.497099628299447);
#383=CIRCLE('',#1092,4.99999999999999);
#384=CIRCLE('',#1095,4.99999999999999);
#385=CIRCLE('',#1098,4.28571428571429);
#386=CIRCLE('',#1100,0.4);
#387=CIRCLE('',#1102,0.4);
#388=CIRCLE('',#1104,4.28571428571429);
#389=CIRCLE('',#1107,5.);
#390=CIRCLE('',#1108,5.);
#391=CIRCLE('',#1110,5.);
#392=CIRCLE('',#1111,5.);
#393=CIRCLE('',#1112,5.);
#394=CIRCLE('',#1113,5.);
#395=VERTEX_POINT('',#1503);
#396=VERTEX_POINT('',#1505);
#397=VERTEX_POINT('',#1508);
#398=VERTEX_POINT('',#1509);
#399=VERTEX_POINT('',#1511);
#400=VERTEX_POINT('',#1513);
#401=VERTEX_POINT('',#1517);
#402=VERTEX_POINT('',#1519);
#403=VERTEX_POINT('',#1523);
#404=VERTEX_POINT('',#1524);
#405=VERTEX_POINT('',#1526);
#406=VERTEX_POINT('',#1528);
#407=VERTEX_POINT('',#1532);
#408=VERTEX_POINT('',#1534);
#409=VERTEX_POINT('',#1538);
#410=VERTEX_POINT('',#1539);
#411=VERTEX_POINT('',#1541);
#412=VERTEX_POINT('',#1543);
#413=VERTEX_POINT('',#1547);
#414=VERTEX_POINT('',#1549);
#415=VERTEX_POINT('',#1553);
#416=VERTEX_POINT('',#1554);
#417=VERTEX_POINT('',#1556);
#418=VERTEX_POINT('',#1558);
#419=VERTEX_POINT('',#1562);
#420=VERTEX_POINT('',#1564);
#421=VERTEX_POINT('',#1568);
#422=VERTEX_POINT('',#1569);
#423=VERTEX_POINT('',#1574);
#424=VERTEX_POINT('',#1578);
#425=VERTEX_POINT('',#1579);
#426=VERTEX_POINT('',#1584);
#427=VERTEX_POINT('',#1588);
#428=VERTEX_POINT('',#1589);
#429=VERTEX_POINT('',#1594);
#430=VERTEX_POINT('',#1602);
#431=VERTEX_POINT('',#1606);
#432=VERTEX_POINT('',#1611);
#433=VERTEX_POINT('',#1618);
#434=VERTEX_POINT('',#1619);
#435=VERTEX_POINT('',#1621);
#436=VERTEX_POINT('',#1632);
#437=VERTEX_POINT('',#1645);
#438=VERTEX_POINT('',#1646);
#439=VERTEX_POINT('',#1651);
#440=VERTEX_POINT('',#1662);
#441=VERTEX_POINT('',#1679);
#442=VERTEX_POINT('',#1681);
#443=VERTEX_POINT('',#1684);
#444=VERTEX_POINT('',#1688);
#445=VERTEX_POINT('',#1690);
#446=VERTEX_POINT('',#1693);
#447=VERTEX_POINT('',#1697);
#448=VERTEX_POINT('',#1698);
#449=VERTEX_POINT('',#1700);
#450=VERTEX_POINT('',#1702);
#451=VERTEX_POINT('',#1706);
#452=VERTEX_POINT('',#1708);
#453=VERTEX_POINT('',#1712);
#454=VERTEX_POINT('',#1714);
#455=VERTEX_POINT('',#1718);
#456=VERTEX_POINT('',#1720);
#457=VERTEX_POINT('',#1724);
#458=VERTEX_POINT('',#1725);
#459=VERTEX_POINT('',#1727);
#460=VERTEX_POINT('',#1730);
#461=VERTEX_POINT('',#1732);
#462=VERTEX_POINT('',#1734);
#463=VERTEX_POINT('',#1738);
#464=VERTEX_POINT('',#1740);
#465=VERTEX_POINT('',#1744);
#466=VERTEX_POINT('',#1746);
#467=VERTEX_POINT('',#1750);
#468=VERTEX_POINT('',#1751);
#469=VERTEX_POINT('',#1753);
#470=VERTEX_POINT('',#1755);
#471=VERTEX_POINT('',#1761);
#472=VERTEX_POINT('',#1764);
#473=VERTEX_POINT('',#1766);
#474=VERTEX_POINT('',#1770);
#475=VERTEX_POINT('',#1772);
#476=VERTEX_POINT('',#1776);
#477=VERTEX_POINT('',#1778);
#478=VERTEX_POINT('',#1782);
#479=VERTEX_POINT('',#1784);
#480=VERTEX_POINT('',#1788);
#481=VERTEX_POINT('',#1791);
#482=VERTEX_POINT('',#1794);
#483=VERTEX_POINT('',#1797);
#484=VERTEX_POINT('',#1801);
#485=VERTEX_POINT('',#1802);
#486=VERTEX_POINT('',#1804);
#487=VERTEX_POINT('',#1806);
#488=VERTEX_POINT('',#1810);
#489=VERTEX_POINT('',#1813);
#490=EDGE_CURVE('',#395,#395,#344,.T.);
#491=EDGE_CURVE('',#396,#396,#345,.T.);
#492=EDGE_CURVE('',#397,#398,#108,.T.);
#493=EDGE_CURVE('',#399,#397,#109,.T.);
#494=EDGE_CURVE('',#400,#399,#110,.T.);
#495=EDGE_CURVE('',#398,#400,#111,.T.);
#496=EDGE_CURVE('',#401,#397,#112,.T.);
#497=EDGE_CURVE('',#402,#401,#113,.T.);
#498=EDGE_CURVE('',#399,#402,#114,.T.);
#499=EDGE_CURVE('',#403,#404,#115,.T.);
#500=EDGE_CURVE('',#405,#403,#116,.T.);
#501=EDGE_CURVE('',#406,#405,#117,.T.);
#502=EDGE_CURVE('',#404,#406,#118,.T.);
#503=EDGE_CURVE('',#407,#403,#119,.T.);
#504=EDGE_CURVE('',#408,#407,#120,.T.);
#505=EDGE_CURVE('',#405,#408,#121,.T.);
#506=EDGE_CURVE('',#409,#410,#122,.T.);
#507=EDGE_CURVE('',#411,#409,#123,.T.);
#508=EDGE_CURVE('',#412,#411,#124,.T.);
#509=EDGE_CURVE('',#410,#412,#125,.T.);
#510=EDGE_CURVE('',#413,#409,#126,.T.);
#511=EDGE_CURVE('',#414,#413,#127,.T.);
#512=EDGE_CURVE('',#411,#414,#128,.T.);
#513=EDGE_CURVE('',#415,#416,#129,.T.);
#514=EDGE_CURVE('',#417,#415,#130,.T.);
#515=EDGE_CURVE('',#418,#417,#131,.T.);
#516=EDGE_CURVE('',#416,#418,#132,.T.);
#517=EDGE_CURVE('',#419,#415,#133,.T.);
#518=EDGE_CURVE('',#420,#419,#134,.T.);
#519=EDGE_CURVE('',#417,#420,#135,.T.);
#520=EDGE_CURVE('',#421,#422,#136,.T.);
#521=EDGE_CURVE('',#419,#422,#84,.T.);
#522=EDGE_CURVE('',#421,#415,#137,.T.);
#523=EDGE_CURVE('',#423,#416,#85,.T.);
#524=EDGE_CURVE('',#423,#421,#138,.T.);
#525=EDGE_CURVE('',#424,#425,#139,.T.);
#526=EDGE_CURVE('',#401,#425,#86,.T.);
#527=EDGE_CURVE('',#424,#397,#140,.T.);
#528=EDGE_CURVE('',#426,#398,#87,.T.);
#529=EDGE_CURVE('',#426,#424,#141,.T.);
#530=EDGE_CURVE('',#427,#428,#142,.T.);
#531=EDGE_CURVE('',#407,#428,#88,.T.);
#532=EDGE_CURVE('',#427,#403,#143,.T.);
#533=EDGE_CURVE('',#429,#404,#89,.T.);
#534=EDGE_CURVE('',#429,#427,#144,.T.);
#535=EDGE_CURVE('',#422,#426,#346,.T.);
#536=EDGE_CURVE('',#400,#402,#347,.T.);
#537=EDGE_CURVE('',#425,#429,#348,.T.);
#538=EDGE_CURVE('',#406,#408,#349,.T.);
#539=EDGE_CURVE('',#428,#430,#350,.T.);
#540=EDGE_CURVE('',#430,#410,#90,.T.);
#541=EDGE_CURVE('',#412,#414,#351,.T.);
#542=EDGE_CURVE('',#413,#431,#91,.T.);
#543=EDGE_CURVE('',#431,#423,#352,.T.);
#544=EDGE_CURVE('',#418,#420,#353,.T.);
#545=EDGE_CURVE('',#432,#431,#145,.T.);
#546=EDGE_CURVE('',#430,#432,#146,.T.);
#547=EDGE_CURVE('',#432,#409,#147,.T.);
#548=EDGE_CURVE('',#433,#434,#354,.T.);
#549=EDGE_CURVE('',#433,#435,#57,.T.);
#550=EDGE_CURVE('',#435,#436,#355,.T.);
#551=EDGE_CURVE('',#436,#434,#58,.T.);
#552=EDGE_CURVE('',#437,#438,#356,.T.);
#553=EDGE_CURVE('',#437,#436,#148,.T.);
#554=EDGE_CURVE('',#438,#435,#149,.T.);
#555=EDGE_CURVE('',#438,#439,#59,.T.);
#556=EDGE_CURVE('',#440,#439,#357,.T.);
#557=EDGE_CURVE('',#440,#437,#60,.T.);
#558=EDGE_CURVE('',#441,#441,#358,.T.);
#559=EDGE_CURVE('',#442,#442,#359,.T.);
#560=EDGE_CURVE('',#443,#443,#360,.T.);
#561=EDGE_CURVE('',#444,#444,#361,.T.);
#562=EDGE_CURVE('',#445,#445,#362,.T.);
#563=EDGE_CURVE('',#446,#446,#363,.T.);
#564=EDGE_CURVE('',#447,#448,#92,.T.);
#565=EDGE_CURVE('',#448,#449,#364,.T.);
#566=EDGE_CURVE('',#449,#450,#93,.T.);
#567=EDGE_CURVE('',#450,#447,#365,.T.);
#568=EDGE_CURVE('',#451,#447,#150,.T.);
#569=EDGE_CURVE('',#450,#452,#151,.T.);
#570=EDGE_CURVE('',#451,#452,#366,.T.);
#571=EDGE_CURVE('',#453,#451,#94,.T.);
#572=EDGE_CURVE('',#452,#454,#95,.T.);
#573=EDGE_CURVE('',#454,#453,#367,.T.);
#574=EDGE_CURVE('',#455,#453,#96,.T.);
#575=EDGE_CURVE('',#454,#456,#97,.T.);
#576=EDGE_CURVE('',#455,#456,#368,.T.);
#577=EDGE_CURVE('',#457,#458,#369,.T.);
#578=EDGE_CURVE('',#458,#459,#370,.T.);
#579=EDGE_CURVE('',#459,#455,#98,.T.);
#580=EDGE_CURVE('',#456,#460,#99,.T.);
#581=EDGE_CURVE('',#460,#461,#371,.T.);
#582=EDGE_CURVE('',#461,#462,#372,.T.);
#583=EDGE_CURVE('',#462,#457,#373,.T.);
#584=EDGE_CURVE('',#462,#463,#152,.T.);
#585=EDGE_CURVE('',#464,#463,#374,.T.);
#586=EDGE_CURVE('',#457,#464,#153,.T.);
#587=EDGE_CURVE('',#448,#465,#154,.T.);
#588=EDGE_CURVE('',#466,#465,#375,.T.);
#589=EDGE_CURVE('',#449,#466,#155,.T.);
#590=EDGE_CURVE('',#467,#468,#156,.T.);
#591=EDGE_CURVE('',#469,#468,#376,.T.);
#592=EDGE_CURVE('',#469,#470,#157,.T.);
#593=EDGE_CURVE('',#467,#470,#377,.T.);
#594=EDGE_CURVE('',#470,#466,#100,.T.);
#595=EDGE_CURVE('',#465,#467,#101,.T.);
#596=EDGE_CURVE('',#471,#471,#378,.T.);
#597=EDGE_CURVE('',#468,#472,#102,.T.);
#598=EDGE_CURVE('',#472,#473,#379,.T.);
#599=EDGE_CURVE('',#473,#469,#103,.T.);
#600=EDGE_CURVE('',#472,#474,#104,.T.);
#601=EDGE_CURVE('',#475,#474,#380,.T.);
#602=EDGE_CURVE('',#475,#473,#105,.T.);
#603=EDGE_CURVE('',#476,#464,#381,.T.);
#604=EDGE_CURVE('',#463,#477,#382,.T.);
#605=EDGE_CURVE('',#477,#476,#383,.T.);
#606=EDGE_CURVE('',#474,#478,#106,.T.);
#607=EDGE_CURVE('',#478,#479,#384,.T.);
#608=EDGE_CURVE('',#479,#475,#107,.T.);
#609=EDGE_CURVE('',#480,#480,#385,.T.);
#610=EDGE_CURVE('',#481,#481,#386,.T.);
#611=EDGE_CURVE('',#482,#482,#387,.T.);
#612=EDGE_CURVE('',#483,#483,#388,.T.);
#613=EDGE_CURVE('',#484,#485,#158,.T.);
#614=EDGE_CURVE('',#485,#486,#389,.T.);
#615=EDGE_CURVE('',#486,#487,#159,.T.);
#616=EDGE_CURVE('',#487,#484,#390,.T.);
#617=EDGE_CURVE('',#484,#488,#391,.T.);
#618=EDGE_CURVE('',#488,#487,#392,.T.);
#619=EDGE_CURVE('',#486,#489,#393,.T.);
#620=EDGE_CURVE('',#489,#485,#394,.T.);
#621=ORIENTED_EDGE('',*,*,#490,.F.);
#622=ORIENTED_EDGE('',*,*,#491,.T.);
#623=ORIENTED_EDGE('',*,*,#492,.F.);
#624=ORIENTED_EDGE('',*,*,#493,.F.);
#625=ORIENTED_EDGE('',*,*,#494,.F.);
#626=ORIENTED_EDGE('',*,*,#495,.F.);
#627=ORIENTED_EDGE('',*,*,#496,.F.);
#628=ORIENTED_EDGE('',*,*,#497,.F.);
#629=ORIENTED_EDGE('',*,*,#498,.F.);
#630=ORIENTED_EDGE('',*,*,#493,.T.);
#631=ORIENTED_EDGE('',*,*,#499,.F.);
#632=ORIENTED_EDGE('',*,*,#500,.F.);
#633=ORIENTED_EDGE('',*,*,#501,.F.);
#634=ORIENTED_EDGE('',*,*,#502,.F.);
#635=ORIENTED_EDGE('',*,*,#503,.F.);
#636=ORIENTED_EDGE('',*,*,#504,.F.);
#637=ORIENTED_EDGE('',*,*,#505,.F.);
#638=ORIENTED_EDGE('',*,*,#500,.T.);
#639=ORIENTED_EDGE('',*,*,#506,.F.);
#640=ORIENTED_EDGE('',*,*,#507,.F.);
#641=ORIENTED_EDGE('',*,*,#508,.F.);
#642=ORIENTED_EDGE('',*,*,#509,.F.);
#643=ORIENTED_EDGE('',*,*,#510,.F.);
#644=ORIENTED_EDGE('',*,*,#511,.F.);
#645=ORIENTED_EDGE('',*,*,#512,.F.);
#646=ORIENTED_EDGE('',*,*,#507,.T.);
#647=ORIENTED_EDGE('',*,*,#513,.F.);
#648=ORIENTED_EDGE('',*,*,#514,.F.);
#649=ORIENTED_EDGE('',*,*,#515,.F.);
#650=ORIENTED_EDGE('',*,*,#516,.F.);
#651=ORIENTED_EDGE('',*,*,#517,.F.);
#652=ORIENTED_EDGE('',*,*,#518,.F.);
#653=ORIENTED_EDGE('',*,*,#519,.F.);
#654=ORIENTED_EDGE('',*,*,#514,.T.);
#655=ORIENTED_EDGE('',*,*,#520,.T.);
#656=ORIENTED_EDGE('',*,*,#521,.F.);
#657=ORIENTED_EDGE('',*,*,#517,.T.);
#658=ORIENTED_EDGE('',*,*,#522,.F.);
#659=ORIENTED_EDGE('',*,*,#513,.T.);
#660=ORIENTED_EDGE('',*,*,#523,.F.);
#661=ORIENTED_EDGE('',*,*,#524,.T.);
#662=ORIENTED_EDGE('',*,*,#522,.T.);
#663=ORIENTED_EDGE('',*,*,#525,.T.);
#664=ORIENTED_EDGE('',*,*,#526,.F.);
#665=ORIENTED_EDGE('',*,*,#496,.T.);
#666=ORIENTED_EDGE('',*,*,#527,.F.);
#667=ORIENTED_EDGE('',*,*,#492,.T.);
#668=ORIENTED_EDGE('',*,*,#528,.F.);
#669=ORIENTED_EDGE('',*,*,#529,.T.);
#670=ORIENTED_EDGE('',*,*,#527,.T.);
#671=ORIENTED_EDGE('',*,*,#530,.T.);
#672=ORIENTED_EDGE('',*,*,#531,.F.);
#673=ORIENTED_EDGE('',*,*,#503,.T.);
#674=ORIENTED_EDGE('',*,*,#532,.F.);
#675=ORIENTED_EDGE('',*,*,#499,.T.);
#676=ORIENTED_EDGE('',*,*,#533,.F.);
#677=ORIENTED_EDGE('',*,*,#534,.T.);
#678=ORIENTED_EDGE('',*,*,#532,.T.);
#679=ORIENTED_EDGE('',*,*,#491,.F.);
#680=ORIENTED_EDGE('',*,*,#535,.T.);
#681=ORIENTED_EDGE('',*,*,#528,.T.);
#682=ORIENTED_EDGE('',*,*,#495,.T.);
#683=ORIENTED_EDGE('',*,*,#536,.T.);
#684=ORIENTED_EDGE('',*,*,#497,.T.);
#685=ORIENTED_EDGE('',*,*,#526,.T.);
#686=ORIENTED_EDGE('',*,*,#537,.T.);
#687=ORIENTED_EDGE('',*,*,#533,.T.);
#688=ORIENTED_EDGE('',*,*,#502,.T.);
#689=ORIENTED_EDGE('',*,*,#538,.T.);
#690=ORIENTED_EDGE('',*,*,#504,.T.);
#691=ORIENTED_EDGE('',*,*,#531,.T.);
#692=ORIENTED_EDGE('',*,*,#539,.T.);
#693=ORIENTED_EDGE('',*,*,#540,.T.);
#694=ORIENTED_EDGE('',*,*,#509,.T.);
#695=ORIENTED_EDGE('',*,*,#541,.T.);
#696=ORIENTED_EDGE('',*,*,#511,.T.);
#697=ORIENTED_EDGE('',*,*,#542,.T.);
#698=ORIENTED_EDGE('',*,*,#543,.T.);
#699=ORIENTED_EDGE('',*,*,#523,.T.);
#700=ORIENTED_EDGE('',*,*,#516,.T.);
#701=ORIENTED_EDGE('',*,*,#544,.T.);
#702=ORIENTED_EDGE('',*,*,#518,.T.);
#703=ORIENTED_EDGE('',*,*,#521,.T.);
#704=ORIENTED_EDGE('',*,*,#545,.F.);
#705=ORIENTED_EDGE('',*,*,#546,.F.);
#706=ORIENTED_EDGE('',*,*,#539,.F.);
#707=ORIENTED_EDGE('',*,*,#530,.F.);
#708=ORIENTED_EDGE('',*,*,#534,.F.);
#709=ORIENTED_EDGE('',*,*,#537,.F.);
#710=ORIENTED_EDGE('',*,*,#525,.F.);
#711=ORIENTED_EDGE('',*,*,#529,.F.);
#712=ORIENTED_EDGE('',*,*,#535,.F.);
#713=ORIENTED_EDGE('',*,*,#520,.F.);
#714=ORIENTED_EDGE('',*,*,#524,.F.);
#715=ORIENTED_EDGE('',*,*,#543,.F.);
#716=ORIENTED_EDGE('',*,*,#545,.T.);
#717=ORIENTED_EDGE('',*,*,#542,.F.);
#718=ORIENTED_EDGE('',*,*,#510,.T.);
#719=ORIENTED_EDGE('',*,*,#547,.F.);
#720=ORIENTED_EDGE('',*,*,#506,.T.);
#721=ORIENTED_EDGE('',*,*,#540,.F.);
#722=ORIENTED_EDGE('',*,*,#546,.T.);
#723=ORIENTED_EDGE('',*,*,#547,.T.);
#724=ORIENTED_EDGE('',*,*,#490,.T.);
#725=ORIENTED_EDGE('',*,*,#548,.F.);
#726=ORIENTED_EDGE('',*,*,#549,.T.);
#727=ORIENTED_EDGE('',*,*,#550,.T.);
#728=ORIENTED_EDGE('',*,*,#551,.T.);
#729=ORIENTED_EDGE('',*,*,#552,.F.);
#730=ORIENTED_EDGE('',*,*,#553,.T.);
#731=ORIENTED_EDGE('',*,*,#550,.F.);
#732=ORIENTED_EDGE('',*,*,#554,.F.);
#733=ORIENTED_EDGE('',*,*,#555,.T.);
#734=ORIENTED_EDGE('',*,*,#556,.F.);
#735=ORIENTED_EDGE('',*,*,#557,.T.);
#736=ORIENTED_EDGE('',*,*,#552,.T.);
#737=ORIENTED_EDGE('',*,*,#498,.T.);
#738=ORIENTED_EDGE('',*,*,#536,.F.);
#739=ORIENTED_EDGE('',*,*,#494,.T.);
#740=ORIENTED_EDGE('',*,*,#544,.F.);
#741=ORIENTED_EDGE('',*,*,#515,.T.);
#742=ORIENTED_EDGE('',*,*,#519,.T.);
#743=ORIENTED_EDGE('',*,*,#505,.T.);
#744=ORIENTED_EDGE('',*,*,#538,.F.);
#745=ORIENTED_EDGE('',*,*,#501,.T.);
#746=ORIENTED_EDGE('',*,*,#541,.F.);
#747=ORIENTED_EDGE('',*,*,#508,.T.);
#748=ORIENTED_EDGE('',*,*,#512,.T.);
#749=ORIENTED_EDGE('',*,*,#558,.T.);
#750=ORIENTED_EDGE('',*,*,#559,.F.);
#751=ORIENTED_EDGE('',*,*,#560,.T.);
#752=ORIENTED_EDGE('',*,*,#558,.F.);
#753=ORIENTED_EDGE('',*,*,#559,.T.);
#754=ORIENTED_EDGE('',*,*,#561,.T.);
#755=ORIENTED_EDGE('',*,*,#562,.F.);
#756=ORIENTED_EDGE('',*,*,#563,.T.);
#757=ORIENTED_EDGE('',*,*,#561,.F.);
#758=ORIENTED_EDGE('',*,*,#562,.T.);
#759=ORIENTED_EDGE('',*,*,#564,.T.);
#760=ORIENTED_EDGE('',*,*,#565,.T.);
#761=ORIENTED_EDGE('',*,*,#566,.T.);
#762=ORIENTED_EDGE('',*,*,#567,.T.);
#763=ORIENTED_EDGE('',*,*,#568,.T.);
#764=ORIENTED_EDGE('',*,*,#567,.F.);
#765=ORIENTED_EDGE('',*,*,#569,.T.);
#766=ORIENTED_EDGE('',*,*,#570,.F.);
#767=ORIENTED_EDGE('',*,*,#571,.T.);
#768=ORIENTED_EDGE('',*,*,#570,.T.);
#769=ORIENTED_EDGE('',*,*,#572,.T.);
#770=ORIENTED_EDGE('',*,*,#573,.T.);
#771=ORIENTED_EDGE('',*,*,#574,.T.);
#772=ORIENTED_EDGE('',*,*,#573,.F.);
#773=ORIENTED_EDGE('',*,*,#575,.T.);
#774=ORIENTED_EDGE('',*,*,#576,.F.);
#775=ORIENTED_EDGE('',*,*,#577,.T.);
#776=ORIENTED_EDGE('',*,*,#578,.T.);
#777=ORIENTED_EDGE('',*,*,#579,.T.);
#778=ORIENTED_EDGE('',*,*,#576,.T.);
#779=ORIENTED_EDGE('',*,*,#580,.T.);
#780=ORIENTED_EDGE('',*,*,#581,.T.);
#781=ORIENTED_EDGE('',*,*,#582,.T.);
#782=ORIENTED_EDGE('',*,*,#583,.T.);
#783=ORIENTED_EDGE('',*,*,#583,.F.);
#784=ORIENTED_EDGE('',*,*,#584,.T.);
#785=ORIENTED_EDGE('',*,*,#585,.F.);
#786=ORIENTED_EDGE('',*,*,#586,.F.);
#787=ORIENTED_EDGE('',*,*,#565,.F.);
#788=ORIENTED_EDGE('',*,*,#587,.T.);
#789=ORIENTED_EDGE('',*,*,#588,.F.);
#790=ORIENTED_EDGE('',*,*,#589,.F.);
#791=ORIENTED_EDGE('',*,*,#590,.T.);
#792=ORIENTED_EDGE('',*,*,#591,.F.);
#793=ORIENTED_EDGE('',*,*,#592,.T.);
#794=ORIENTED_EDGE('',*,*,#593,.F.);
#795=ORIENTED_EDGE('',*,*,#593,.T.);
#796=ORIENTED_EDGE('',*,*,#594,.T.);
#797=ORIENTED_EDGE('',*,*,#588,.T.);
#798=ORIENTED_EDGE('',*,*,#595,.T.);
#799=ORIENTED_EDGE('',*,*,#596,.T.);
#800=ORIENTED_EDGE('',*,*,#597,.T.);
#801=ORIENTED_EDGE('',*,*,#598,.T.);
#802=ORIENTED_EDGE('',*,*,#599,.T.);
#803=ORIENTED_EDGE('',*,*,#591,.T.);
#804=ORIENTED_EDGE('',*,*,#600,.T.);
#805=ORIENTED_EDGE('',*,*,#601,.F.);
#806=ORIENTED_EDGE('',*,*,#602,.T.);
#807=ORIENTED_EDGE('',*,*,#598,.F.);
#808=ORIENTED_EDGE('',*,*,#603,.T.);
#809=ORIENTED_EDGE('',*,*,#585,.T.);
#810=ORIENTED_EDGE('',*,*,#604,.T.);
#811=ORIENTED_EDGE('',*,*,#605,.T.);
#812=ORIENTED_EDGE('',*,*,#606,.T.);
#813=ORIENTED_EDGE('',*,*,#607,.T.);
#814=ORIENTED_EDGE('',*,*,#608,.T.);
#815=ORIENTED_EDGE('',*,*,#601,.T.);
#816=ORIENTED_EDGE('',*,*,#596,.F.);
#817=ORIENTED_EDGE('',*,*,#609,.F.);
#818=ORIENTED_EDGE('',*,*,#610,.F.);
#819=ORIENTED_EDGE('',*,*,#560,.F.);
#820=ORIENTED_EDGE('',*,*,#611,.F.);
#821=ORIENTED_EDGE('',*,*,#563,.F.);
#822=ORIENTED_EDGE('',*,*,#612,.F.);
#823=ORIENTED_EDGE('',*,*,#609,.T.);
#824=ORIENTED_EDGE('',*,*,#612,.T.);
#825=ORIENTED_EDGE('',*,*,#610,.T.);
#826=ORIENTED_EDGE('',*,*,#611,.T.);
#827=ORIENTED_EDGE('',*,*,#613,.T.);
#828=ORIENTED_EDGE('',*,*,#614,.T.);
#829=ORIENTED_EDGE('',*,*,#615,.T.);
#830=ORIENTED_EDGE('',*,*,#616,.T.);
#831=ORIENTED_EDGE('',*,*,#613,.F.);
#832=ORIENTED_EDGE('',*,*,#617,.T.);
#833=ORIENTED_EDGE('',*,*,#618,.T.);
#834=ORIENTED_EDGE('',*,*,#615,.F.);
#835=ORIENTED_EDGE('',*,*,#619,.T.);
#836=ORIENTED_EDGE('',*,*,#620,.T.);
#837=PLANE('',#987);
#838=PLANE('',#990);
#839=PLANE('',#991);
#840=PLANE('',#992);
#841=PLANE('',#993);
#842=PLANE('',#994);
#843=PLANE('',#995);
#844=PLANE('',#996);
#845=PLANE('',#997);
#846=PLANE('',#998);
#847=PLANE('',#1000);
#848=PLANE('',#1002);
#849=PLANE('',#1004);
#850=PLANE('',#1006);
#851=PLANE('',#1008);
#852=PLANE('',#1021);
#853=PLANE('',#1022);
#854=PLANE('',#1023);
#855=PLANE('',#1027);
#856=PLANE('',#1031);
#857=PLANE('',#1032);
#858=PLANE('',#1033);
#859=PLANE('',#1034);
#860=PLANE('',#1040);
#861=PLANE('',#1046);
#862=PLANE('',#1070);
#863=PLANE('',#1072);
#864=PLANE('',#1097);
#865=PLANE('',#1105);
#866=PLANE('Near clipping plane',#1116);
#867=PLANE('Far clipping plane',#1117);
#868=PLANE('Near clipping plane',#1120);
#869=PLANE('Far clipping plane',#1121);
#870=PLANE('Near clipping plane',#1124);
#871=PLANE('Far clipping plane',#1125);
#872=PLANE('Near clipping plane',#1128);
#873=PLANE('Far clipping plane',#1129);
#874=ADVANCED_FACE('',(#226,#212),#837,.T.);
#875=ADVANCED_FACE('',(#227),#838,.F.);
#876=ADVANCED_FACE('',(#228),#839,.F.);
#877=ADVANCED_FACE('',(#229),#840,.F.);
#878=ADVANCED_FACE('',(#230),#841,.F.);
#879=ADVANCED_FACE('',(#231),#842,.F.);
#880=ADVANCED_FACE('',(#232),#843,.F.);
#881=ADVANCED_FACE('',(#233),#844,.F.);
#882=ADVANCED_FACE('',(#234),#845,.F.);
#883=ADVANCED_FACE('',(#235),#846,.T.);
#884=ADVANCED_FACE('',(#236),#847,.T.);
#885=ADVANCED_FACE('',(#237),#848,.T.);
#886=ADVANCED_FACE('',(#238),#849,.T.);
#887=ADVANCED_FACE('',(#239),#850,.T.);
#888=ADVANCED_FACE('',(#240),#851,.T.);
#889=ADVANCED_FACE('',(#241,#213),#74,.F.);
#890=ADVANCED_FACE('',(#242),#852,.T.);
#891=ADVANCED_FACE('',(#243),#853,.T.);
#892=ADVANCED_FACE('',(#244),#854,.T.);
#893=ADVANCED_FACE('',(#245,#214),#61,.T.);
#894=ADVANCED_FACE('',(#246),#855,.T.);
#895=ADVANCED_FACE('',(#247),#62,.T.);
#896=ADVANCED_FACE('',(#248),#856,.T.);
#897=ADVANCED_FACE('',(#249),#857,.T.);
#898=ADVANCED_FACE('',(#250),#858,.T.);
#899=ADVANCED_FACE('',(#251),#859,.T.);
#900=ADVANCED_FACE('',(#252,#215),#75,.T.);
#901=ADVANCED_FACE('',(#253,#216),#63,.T.);
#902=ADVANCED_FACE('',(#254),#860,.T.);
#903=ADVANCED_FACE('',(#255,#217),#76,.T.);
#904=ADVANCED_FACE('',(#256,#218),#64,.T.);
#905=ADVANCED_FACE('',(#257),#861,.T.);
#906=ADVANCED_FACE('',(#258),#65,.T.);
#907=ADVANCED_FACE('',(#259),#77,.T.);
#908=ADVANCED_FACE('',(#260),#66,.T.);
#909=ADVANCED_FACE('',(#261),#67,.F.);
#910=ADVANCED_FACE('',(#262),#68,.T.);
#911=ADVANCED_FACE('',(#263),#862,.F.);
#912=ADVANCED_FACE('',(#264),#863,.T.);
#913=ADVANCED_FACE('',(#265),#78,.T.);
#914=ADVANCED_FACE('',(#266,#219),#69,.T.);
#915=ADVANCED_FACE('',(#267),#70,.T.);
#916=ADVANCED_FACE('',(#268),#71,.F.);
#917=ADVANCED_FACE('',(#269),#72,.T.);
#918=ADVANCED_FACE('',(#270),#73,.T.);
#919=ADVANCED_FACE('',(#271,#220),#864,.T.);
#920=ADVANCED_FACE('',(#272,#221),#79,.T.);
#921=ADVANCED_FACE('',(#273,#222),#80,.T.);
#922=ADVANCED_FACE('',(#274,#223),#81,.F.);
#923=ADVANCED_FACE('',(#275,#224,#225),#865,.T.);
#924=ADVANCED_FACE('',(#276),#82,.F.);
#925=ADVANCED_FACE('',(#277),#83,.F.);
#926=OPEN_SHELL('',(#874,#875,#876,#877,#878,#879,#880,#881,#882,#883,#884,
#885,#886,#887,#888,#889,#890,#891,#892,#893,#894,#895,#896,#897,#898,#899));
#927=OPEN_SHELL('',(#900,#901,#902,#903,#904,#905,#906,#907,#908,#909,#910,
#911,#912,#913,#914,#915,#916,#917,#918,#919,#920,#921,#922,#923));
#928=OPEN_SHELL('',(#924,#925));
#929=SHELL_BASED_SURFACE_MODEL('Solid1',(#926));
#930=SHELL_BASED_SURFACE_MODEL('Solid1',(#927));
#931=SHELL_BASED_SURFACE_MODEL('Srf1',(#928));
#932=STYLED_ITEM('',(#1872),#963);
#933=STYLED_ITEM('',(#1872),#965);
#934=STYLED_ITEM('',(#1871),#966);
#935=STYLED_ITEM('',(#1871),#967);
#936=STYLED_ITEM('',(#1866),#874);
#937=STYLED_ITEM('',(#1867),#889);
#938=STYLED_ITEM('',(#1866),#893);
#939=STYLED_ITEM('',(#1868),#894);
#940=STYLED_ITEM('',(#1866),#895);
#941=STYLED_ITEM('',(#1866),#906);
#942=STYLED_ITEM('',(#1866),#907);
#943=STYLED_ITEM('',(#1866),#908);
#944=STYLED_ITEM('',(#1866),#909);
#945=STYLED_ITEM('',(#1866),#910);
#946=STYLED_ITEM('',(#1868),#911);
#947=STYLED_ITEM('',(#1868),#912);
#948=STYLED_ITEM('',(#1866),#913);
#949=STYLED_ITEM('',(#1866),#914);
#950=STYLED_ITEM('',(#1866),#915);
#951=STYLED_ITEM('',(#1866),#916);
#952=STYLED_ITEM('',(#1866),#917);
#953=STYLED_ITEM('',(#1866),#918);
#954=STYLED_ITEM('',(#1866),#919);
#955=STYLED_ITEM('',(#1867),#922);
#956=STYLED_ITEM('',(#1869),#923);
#957=STYLED_ITEM('',(#1865),#929);
#958=STYLED_ITEM('',(#1865),#930);
#959=STYLED_ITEM('',(#1870),#924);
#960=STYLED_ITEM('',(#1866),#925);
#961=STYLED_ITEM('',(#1873),#16);
#962=POLYLINE('',(#1490,#1491));
#963=POLYLINE('',(#1492,#1493));
#964=POLYLINE('',(#1494,#1495));
#965=POLYLINE('',(#1496,#1497));
#966=POLYLINE('',(#1498,#1499));
#967=POLYLINE('',(#1500,#1501));
#968=DERIVED_UNIT_ELEMENT(#970,0.);
#969=DERIVED_UNIT_ELEMENT(#1850,0.);
#970=(
MASS_UNIT()
NAMED_UNIT(*)
SI_UNIT($,.GRAM.)
);
#971=DERIVED_UNIT((#968,#969));
#972=MEASURE_REPRESENTATION_ITEM('density measure',
POSITIVE_RATIO_MEASURE(1.),#971);
#973=PROPERTY_DEFINITION_REPRESENTATION(#978,#975);
#974=PROPERTY_DEFINITION_REPRESENTATION(#979,#976);
#975=REPRESENTATION('material name',(#977),#1847);
#976=REPRESENTATION('density',(#972),#1847);
#977=DESCRIPTIVE_REPRESENTATION_ITEM('V\X2\0161\X0\eobecn\X\E9',
'V\X2\0161\X0\eobecn\X\E9');
#978=PROPERTY_DEFINITION('material property','material name',#1857);
#979=PROPERTY_DEFINITION('material property','density of part',#1857);
#980=DATE_TIME_ROLE('creation_date');
#981=APPLIED_DATE_AND_TIME_ASSIGNMENT(#982,#980,(#1857));
#982=DATE_AND_TIME(#983,#984);
#983=CALENDAR_DATE(2021,20,6);
#984=LOCAL_TIME(20,46,25.,#985);
#985=COORDINATED_UNIVERSAL_TIME_OFFSET(0,0,.BEHIND.);
#986=AXIS2_PLACEMENT_3D('placement',#1489,#1139,#1140);
#987=AXIS2_PLACEMENT_3D('',#1502,#1141,#1142);
#988=AXIS2_PLACEMENT_3D('',#1504,#1143,#1144);
#989=AXIS2_PLACEMENT_3D('',#1506,#1145,#1146);
#990=AXIS2_PLACEMENT_3D('',#1507,#1147,#1148);
#991=AXIS2_PLACEMENT_3D('',#1516,#1153,#1154);
#992=AXIS2_PLACEMENT_3D('',#1522,#1158,#1159);
#993=AXIS2_PLACEMENT_3D('',#1531,#1164,#1165);
#994=AXIS2_PLACEMENT_3D('',#1537,#1169,#1170);
#995=AXIS2_PLACEMENT_3D('',#1546,#1175,#1176);
#996=AXIS2_PLACEMENT_3D('',#1552,#1180,#1181);
#997=AXIS2_PLACEMENT_3D('',#1561,#1186,#1187);
#998=AXIS2_PLACEMENT_3D('',#1567,#1191,#1192);
#999=AXIS2_PLACEMENT_3D('',#1571,#1194,#1195);
#1000=AXIS2_PLACEMENT_3D('',#1573,#1197,#1198);
#1001=AXIS2_PLACEMENT_3D('',#1575,#1199,#1200);
#1002=AXIS2_PLACEMENT_3D('',#1577,#1202,#1203);
#1003=AXIS2_PLACEMENT_3D('',#1581,#1205,#1206);
#1004=AXIS2_PLACEMENT_3D('',#1583,#1208,#1209);
#1005=AXIS2_PLACEMENT_3D('',#1585,#1210,#1211);
#1006=AXIS2_PLACEMENT_3D('',#1587,#1213,#1214);
#1007=AXIS2_PLACEMENT_3D('',#1591,#1216,#1217);
#1008=AXIS2_PLACEMENT_3D('',#1593,#1219,#1220);
#1009=AXIS2_PLACEMENT_3D('',#1595,#1221,#1222);
#1010=AXIS2_PLACEMENT_3D('',#1597,#1224,#1225);
#1011=AXIS2_PLACEMENT_3D('',#1598,#1226,#1227);
#1012=AXIS2_PLACEMENT_3D('',#1599,#1228,#1229);
#1013=AXIS2_PLACEMENT_3D('',#1600,#1230,#1231);
#1014=AXIS2_PLACEMENT_3D('',#1601,#1232,#1233);
#1015=AXIS2_PLACEMENT_3D('',#1603,#1234,#1235);
#1016=AXIS2_PLACEMENT_3D('',#1604,#1236,#1237);
#1017=AXIS2_PLACEMENT_3D('',#1605,#1238,#1239);
#1018=AXIS2_PLACEMENT_3D('',#1607,#1240,#1241);
#1019=AXIS2_PLACEMENT_3D('',#1608,#1242,#1243);
#1020=AXIS2_PLACEMENT_3D('',#1609,#1244,#1245);
#1021=AXIS2_PLACEMENT_3D('',#1610,#1246,#1247);
#1022=AXIS2_PLACEMENT_3D('',#1614,#1250,#1251);
#1023=AXIS2_PLACEMENT_3D('',#1616,#1253,#1254);
#1024=AXIS2_PLACEMENT_3D('',#1617,#1255,#1256);
#1025=AXIS2_PLACEMENT_3D('',#1620,#1257,#1258);
#1026=AXIS2_PLACEMENT_3D('',#1633,#1259,#1260);
#1027=AXIS2_PLACEMENT_3D('',#1644,#1261,#1262);
#1028=AXIS2_PLACEMENT_3D('',#1647,#1263,#1264);
#1029=AXIS2_PLACEMENT_3D('',#1650,#1267,#1268);
#1030=AXIS2_PLACEMENT_3D('',#1663,#1269,#1270);
#1031=AXIS2_PLACEMENT_3D('',#1674,#1271,#1272);
#1032=AXIS2_PLACEMENT_3D('',#1675,#1273,#1274);
#1033=AXIS2_PLACEMENT_3D('',#1676,#1275,#1276);
#1034=AXIS2_PLACEMENT_3D('',#1677,#1277,#1278);
#1035=AXIS2_PLACEMENT_3D('',#1678,#1279,#1280);
#1036=AXIS2_PLACEMENT_3D('',#1680,#1281,#1282);
#1037=AXIS2_PLACEMENT_3D('',#1682,#1283,#1284);
#1038=AXIS2_PLACEMENT_3D('',#1683,#1285,#1286);
#1039=AXIS2_PLACEMENT_3D('',#1685,#1287,#1288);
#1040=AXIS2_PLACEMENT_3D('',#1686,#1289,#1290);
#1041=AXIS2_PLACEMENT_3D('',#1687,#1291,#1292);
#1042=AXIS2_PLACEMENT_3D('',#1689,#1293,#1294);
#1043=AXIS2_PLACEMENT_3D('',#1691,#1295,#1296);
#1044=AXIS2_PLACEMENT_3D('',#1692,#1297,#1298);
#1045=AXIS2_PLACEMENT_3D('',#1694,#1299,#1300);
#1046=AXIS2_PLACEMENT_3D('',#1695,#1301,#1302);
#1047=AXIS2_PLACEMENT_3D('',#1696,#1303,#1304);
#1048=AXIS2_PLACEMENT_3D('',#1699,#1305,#1306);
#1049=AXIS2_PLACEMENT_3D('',#1701,#1307,#1308);
#1050=AXIS2_PLACEMENT_3D('',#1703,#1309,#1310);
#1051=AXIS2_PLACEMENT_3D('',#1704,#1311,#1312);
#1052=AXIS2_PLACEMENT_3D('',#1705,#1313,#1314);
#1053=AXIS2_PLACEMENT_3D('',#1710,#1317,#1318);
#1054=AXIS2_PLACEMENT_3D('',#1711,#1319,#1320);
#1055=AXIS2_PLACEMENT_3D('',#1713,#1321,#1322);
#1056=AXIS2_PLACEMENT_3D('',#1715,#1323,#1324);
#1057=AXIS2_PLACEMENT_3D('',#1716,#1325,#1326);
#1058=AXIS2_PLACEMENT_3D('',#1717,#1327,#1328);
#1059=AXIS2_PLACEMENT_3D('',#1719,#1329,#1330);
#1060=AXIS2_PLACEMENT_3D('',#1721,#1331,#1332);
#1061=AXIS2_PLACEMENT_3D('',#1722,#1333,#1334);
#1062=AXIS2_PLACEMENT_3D('',#1723,#1335,#1336);
#1063=AXIS2_PLACEMENT_3D('',#1726,#1337,#1338);
#1064=AXIS2_PLACEMENT_3D('',#1728,#1339,#1340);
#1065=AXIS2_PLACEMENT_3D('',#1729,#1341,#1342);
#1066=AXIS2_PLACEMENT_3D('',#1731,#1343,#1344);
#1067=AXIS2_PLACEMENT_3D('',#1733,#1345,#1346);
#1068=AXIS2_PLACEMENT_3D('',#1735,#1347,#1348);
#1069=AXIS2_PLACEMENT_3D('',#1736,#1349,#1350);
#1070=AXIS2_PLACEMENT_3D('',#1737,#1351,#1352);
#1071=AXIS2_PLACEMENT_3D('',#1741,#1354,#1355);
#1072=AXIS2_PLACEMENT_3D('',#1743,#1357,#1358);
#1073=AXIS2_PLACEMENT_3D('',#1747,#1360,#1361);
#1074=AXIS2_PLACEMENT_3D('',#1749,#1363,#1364);
#1075=AXIS2_PLACEMENT_3D('',#1754,#1366,#1367);
#1076=AXIS2_PLACEMENT_3D('',#1757,#1369,#1370);
#1077=AXIS2_PLACEMENT_3D('',#1758,#1371,#1372);
#1078=AXIS2_PLACEMENT_3D('',#1759,#1373,#1374);
#1079=AXIS2_PLACEMENT_3D('',#1760,#1375,#1376);
#1080=AXIS2_PLACEMENT_3D('',#1762,#1377,#1378);
#1081=AXIS2_PLACEMENT_3D('',#1763,#1379,#1380);
#1082=AXIS2_PLACEMENT_3D('',#1765,#1381,#1382);
#1083=AXIS2_PLACEMENT_3D('',#1767,#1383,#1384);
#1084=AXIS2_PLACEMENT_3D('',#1768,#1385,#1386);
#1085=AXIS2_PLACEMENT_3D('',#1769,#1387,#1388);
#1086=AXIS2_PLACEMENT_3D('',#1771,#1389,#1390);
#1087=AXIS2_PLACEMENT_3D('',#1773,#1391,#1392);
#1088=AXIS2_PLACEMENT_3D('',#1774,#1393,#1394);
#1089=AXIS2_PLACEMENT_3D('',#1775,#1395,#1396);
#1090=AXIS2_PLACEMENT_3D('',#1777,#1397,#1398);
#1091=AXIS2_PLACEMENT_3D('',#1779,#1399,#1400);
#1092=AXIS2_PLACEMENT_3D('',#1780,#1401,#1402);
#1093=AXIS2_PLACEMENT_3D('',#1781,#1403,#1404);
#1094=AXIS2_PLACEMENT_3D('',#1783,#1405,#1406);
#1095=AXIS2_PLACEMENT_3D('',#1785,#1407,#1408);
#1096=AXIS2_PLACEMENT_3D('',#1786,#1409,#1410);
#1097=AXIS2_PLACEMENT_3D('',#1787,#1411,#1412);
#1098=AXIS2_PLACEMENT_3D('',#1789,#1413,#1414);
#1099=AXIS2_PLACEMENT_3D('',#1790,#1415,#1416);
#1100=AXIS2_PLACEMENT_3D('',#1792,#1417,#1418);
#1101=AXIS2_PLACEMENT_3D('',#1793,#1419,#1420);
#1102=AXIS2_PLACEMENT_3D('',#1795,#1421,#1422);
#1103=AXIS2_PLACEMENT_3D('',#1796,#1423,#1424);
#1104=AXIS2_PLACEMENT_3D('',#1798,#1425,#1426);
#1105=AXIS2_PLACEMENT_3D('',#1799,#1427,#1428);
#1106=AXIS2_PLACEMENT_3D('',#1800,#1429,#1430);
#1107=AXIS2_PLACEMENT_3D('',#1805,#1432,#1433);
#1108=AXIS2_PLACEMENT_3D('',#1808,#1435,#1436);
#1109=AXIS2_PLACEMENT_3D('',#1809,#1437,#1438);
#1110=AXIS2_PLACEMENT_3D('',#1811,#1439,#1440);
#1111=AXIS2_PLACEMENT_3D('',#1812,#1441,#1442);
#1112=AXIS2_PLACEMENT_3D('',#1814,#1443,#1444);
#1113=AXIS2_PLACEMENT_3D('',#1815,#1445,#1446);
#1114=AXIS2_PLACEMENT_3D('view reference',#1816,#1447,#1448);
#1115=AXIS2_PLACEMENT_3D('view window',#1817,#1449,#1450);
#1116=AXIS2_PLACEMENT_3D('Near clipping plane',#1819,#1451,$);
#1117=AXIS2_PLACEMENT_3D('Far clipping plane',#1820,#1452,$);
#1118=AXIS2_PLACEMENT_3D('view reference',#1821,#1453,#1454);
#1119=AXIS2_PLACEMENT_3D('view window',#1822,#1455,#1456);
#1120=AXIS2_PLACEMENT_3D('Near clipping plane',#1824,#1457,$);
#1121=AXIS2_PLACEMENT_3D('Far clipping plane',#1825,#1458,$);
#1122=AXIS2_PLACEMENT_3D('view reference',#1826,#1459,#1460);
#1123=AXIS2_PLACEMENT_3D('view window',#1827,#1461,#1462);
#1124=AXIS2_PLACEMENT_3D('Near clipping plane',#1829,#1463,$);
#1125=AXIS2_PLACEMENT_3D('Far clipping plane',#1830,#1464,$);
#1126=AXIS2_PLACEMENT_3D('view reference',#1831,#1465,#1466);
#1127=AXIS2_PLACEMENT_3D('view window',#1832,#1467,#1468);
#1128=AXIS2_PLACEMENT_3D('Near clipping plane',#1834,#1469,$);
#1129=AXIS2_PLACEMENT_3D('Far clipping plane',#1835,#1470,$);
#1130=AXIS2_PLACEMENT_3D('',#1836,#1471,#1472);
#1131=AXIS2_PLACEMENT_3D('',#1837,#1473,#1474);
#1132=AXIS2_PLACEMENT_3D('',#1838,#1475,#1476);
#1133=AXIS2_PLACEMENT_3D('',#1839,#1477,#1478);
#1134=AXIS2_PLACEMENT_3D('',#1840,#1479,#1480);
#1135=AXIS2_PLACEMENT_3D('',#1841,#1481,#1482);
#1136=AXIS2_PLACEMENT_3D('',#1842,#1483,#1484);
#1137=AXIS2_PLACEMENT_3D('',#1843,#1485,#1486);
#1138=AXIS2_PLACEMENT_3D('',#1844,#1487,#1488);
#1139=DIRECTION('axis',(0.,0.,1.));
#1140=DIRECTION('refdir',(1.,0.,0.));
#1141=DIRECTION('center_axis',(0.,1.,0.));
#1142=DIRECTION('ref_axis',(0.,0.,1.));
#1143=DIRECTION('center_axis',(0.,-1.,0.));
#1144=DIRECTION('ref_axis',(1.,0.,0.));
#1145=DIRECTION('center_axis',(0.,-1.,0.));
#1146=DIRECTION('ref_axis',(1.,0.,0.));
#1147=DIRECTION('center_axis',(0.,0.,-1.));
#1148=DIRECTION('ref_axis',(1.,0.,0.));
#1149=DIRECTION('',(-1.,0.,0.));
#1150=DIRECTION('',(0.,-1.,0.));
#1151=DIRECTION('',(1.,0.,-3.77073076623002E-17));
#1152=DIRECTION('',(0.,1.,0.));
#1153=DIRECTION('center_axis',(-1.,0.,3.07724860086321E-16));
#1154=DIRECTION('ref_axis',(-3.07724860086321E-16,0.,-1.));
#1155=DIRECTION('',(3.07724860086321E-16,0.,1.));
#1156=DIRECTION('',(0.,-1.,0.));
#1157=DIRECTION('',(-1.88536538311501E-16,0.,-1.));
#1158=DIRECTION('center_axis',(1.,0.,-1.83277306374941E-16));
#1159=DIRECTION('ref_axis',(1.83277306374941E-16,0.,1.));
#1160=DIRECTION('',(-1.83277306374941E-16,0.,-1.));
#1161=DIRECTION('',(0.,-1.,0.));
#1162=DIRECTION('',(3.39365768960702E-16,0.,1.));
#1163=DIRECTION('',(0.,1.,0.));
#1164=DIRECTION('center_axis',(0.,0.,-1.));
#1165=DIRECTION('ref_axis',(1.,0.,0.));
#1166=DIRECTION('',(-1.,0.,0.));
#1167=DIRECTION('',(0.,-1.,0.));
#1168=DIRECTION('',(1.,0.,3.77073076623002E-17));
#1169=DIRECTION('center_axis',(0.,0.,1.));
#1170=DIRECTION('ref_axis',(-1.,0.,0.));
#1171=DIRECTION('',(1.,0.,0.));
#1172=DIRECTION('',(0.,-1.,0.));
#1173=DIRECTION('',(-1.,0.,3.77073076623002E-17));
#1174=DIRECTION('',(0.,1.,0.));
#1175=DIRECTION('center_axis',(1.,0.,-1.83277306374941E-16));
#1176=DIRECTION('ref_axis',(1.83277306374941E-16,0.,1.));
#1177=DIRECTION('',(-1.83277306374941E-16,0.,-1.));
#1178=DIRECTION('',(0.,-1.,0.));
#1179=DIRECTION('',(3.77073076623002E-17,0.,1.));
#1180=DIRECTION('center_axis',(-1.,0.,3.07724860086321E-16));
#1181=DIRECTION('ref_axis',(-3.07724860086321E-16,0.,-1.));
#1182=DIRECTION('',(3.07724860086321E-16,0.,1.));
#1183=DIRECTION('',(0.,-1.,0.));
#1184=DIRECTION('',(-4.90194999609903E-16,0.,-1.));
#1185=DIRECTION('',(0.,1.,0.));
#1186=DIRECTION('center_axis',(0.,0.,1.));
#1187=DIRECTION('ref_axis',(-1.,0.,0.));
#1188=DIRECTION('',(1.,0.,0.));
#1189=DIRECTION('',(0.,-1.,0.));
#1190=DIRECTION('',(-1.,0.,-3.77073076623002E-17));
#1191=DIRECTION('center_axis',(0.,0.70710678118655,-0.707106781186545));
#1192=DIRECTION('ref_axis',(-1.,0.,0.));
#1193=DIRECTION('',(-1.,0.,0.));
#1194=DIRECTION('center_axis',(0.,-0.70710678118655,0.707106781186545));
#1195=DIRECTION('ref_axis',(0.,0.707106781186545,0.70710678118655));
#1196=DIRECTION('',(-0.577350269189627,0.577350269189623,0.577350269189627));
#1197=DIRECTION('center_axis',(0.707106781186545,0.70710678118655,-2.17594335306719E-16));
#1198=DIRECTION('ref_axis',(-3.07724860086321E-16,-4.19082355898663E-31,
-1.));
#1199=DIRECTION('center_axis',(-0.707106781186545,-0.70710678118655,2.17594335306719E-16));
#1200=DIRECTION('ref_axis',(0.70710678118655,-0.707106781186545,0.));
#1201=DIRECTION('',(-3.07724860086321E-16,0.,-1.));
#1202=DIRECTION('center_axis',(0.707106781186545,0.70710678118655,-2.17594335306719E-16));
#1203=DIRECTION('ref_axis',(-3.07724860086321E-16,-4.19082355898663E-31,
-1.));
#1204=DIRECTION('',(-3.07724860086321E-16,0.,-1.));
#1205=DIRECTION('center_axis',(-0.707106781186545,-0.70710678118655,2.17594335306719E-16));
#1206=DIRECTION('ref_axis',(0.70710678118655,-0.707106781186545,0.));
#1207=DIRECTION('',(-0.577350269189627,0.577350269189623,-0.577350269189627));
#1208=DIRECTION('center_axis',(0.,0.70710678118655,0.707106781186545));
#1209=DIRECTION('ref_axis',(1.,0.,0.));
#1210=DIRECTION('center_axis',(0.,-0.70710678118655,-0.707106781186545));
#1211=DIRECTION('ref_axis',(0.,-0.707106781186545,0.70710678118655));
#1212=DIRECTION('',(1.,0.,0.));
#1213=DIRECTION('center_axis',(0.,0.70710678118655,0.707106781186545));
#1214=DIRECTION('ref_axis',(1.,0.,0.));
#1215=DIRECTION('',(1.,0.,0.));
#1216=DIRECTION('center_axis',(0.,-0.70710678118655,-0.707106781186545));
#1217=DIRECTION('ref_axis',(0.,-0.707106781186545,0.70710678118655));
#1218=DIRECTION('',(0.577350269189627,0.577350269189623,-0.577350269189627));
#1219=DIRECTION('center_axis',(-0.707106781186545,0.70710678118655,1.29596626175325E-16));
#1220=DIRECTION('ref_axis',(1.83277306374941E-16,-1.4791141972894E-31,1.));
#1221=DIRECTION('center_axis',(0.707106781186545,-0.70710678118655,-1.29596626175325E-16));
#1222=DIRECTION('ref_axis',(0.70710678118655,0.707106781186545,0.));
#1223=DIRECTION('',(1.83277306374941E-16,0.,1.));
#1224=DIRECTION('center_axis',(0.,-1.,0.));
#1225=DIRECTION('ref_axis',(1.,0.,0.));
#1226=DIRECTION('center_axis',(0.,-1.,0.));
#1227=DIRECTION('ref_axis',(1.,0.,0.));
#1228=DIRECTION('center_axis',(0.,-1.,0.));
#1229=DIRECTION('ref_axis',(1.,0.,0.));
#1230=DIRECTION('center_axis',(0.,-1.,0.));
#1231=DIRECTION('ref_axis',(1.,0.,0.));
#1232=DIRECTION('center_axis',(0.,-1.,0.));
#1233=DIRECTION('ref_axis',(1.,0.,0.));
#1234=DIRECTION('center_axis',(0.,-1.,0.));
#1235=DIRECTION('ref_axis',(1.,0.,0.));
#1236=DIRECTION('center_axis',(0.,-0.70710678118655,0.707106781186545));
#1237=DIRECTION('ref_axis',(0.,0.707106781186545,0.70710678118655));
#1238=DIRECTION('center_axis',(0.,-1.,0.));
#1239=DIRECTION('ref_axis',(1.,0.,0.));
#1240=DIRECTION('center_axis',(0.707106781186546,-0.70710678118655,-1.29596626175325E-16));
#1241=DIRECTION('ref_axis',(0.70710678118655,0.707106781186546,0.));
#1242=DIRECTION('center_axis',(0.,-1.,0.));
#1243=DIRECTION('ref_axis',(1.,0.,0.));
#1244=DIRECTION('center_axis',(0.,-1.,0.));
#1245=DIRECTION('ref_axis',(1.,0.,0.));
#1246=DIRECTION('center_axis',(0.,1.,0.));
#1247=DIRECTION('ref_axis',(0.,0.,1.));
#1248=DIRECTION('',(1.83277306374941E-16,0.,1.));
#1249=DIRECTION('',(-1.,0.,0.));
#1250=DIRECTION('center_axis',(-0.707106781186546,0.70710678118655,1.29596626175325E-16));
#1251=DIRECTION('ref_axis',(1.83277306374941E-16,1.23259516440783E-32,1.));
#1252=DIRECTION('',(0.577350269189627,0.577350269189623,0.577350269189627));
#1253=DIRECTION('center_axis',(0.,0.70710678118655,-0.707106781186545));
#1254=DIRECTION('ref_axis',(-1.,0.,0.));
#1255=DIRECTION('center_axis',(0.,-1.,0.));
#1256=DIRECTION('ref_axis',(0.,0.,-1.));
#1257=DIRECTION('center_axis',(0.,-1.,0.));
#1258=DIRECTION('ref_axis',(1.,0.,0.));
#1259=DIRECTION('center_axis',(0.,1.,0.));
#1260=DIRECTION('ref_axis',(0.,0.,-1.));
#1261=DIRECTION('center_axis',(0.,1.,0.));
#1262=DIRECTION('ref_axis',(0.,0.,1.));
#1263=DIRECTION('center_axis',(0.,-1.,0.));
#1264=DIRECTION('ref_axis',(0.,0.,-1.));
#1265=DIRECTION('',(1.,0.,0.));
#1266=DIRECTION('',(1.,0.,0.));
#1267=DIRECTION('center_axis',(0.,-1.,0.));
#1268=DIRECTION('ref_axis',(0.,0.,-1.));
#1269=DIRECTION('center_axis',(0.,-1.,0.));
#1270=DIRECTION('ref_axis',(1.,0.,0.));
#1271=DIRECTION('center_axis',(0.,1.,0.));
#1272=DIRECTION('ref_axis',(0.,0.,1.));
#1273=DIRECTION('center_axis',(0.,1.,0.));
#1274=DIRECTION('ref_axis',(0.,0.,1.));
#1275=DIRECTION('center_axis',(0.,1.,0.));
#1276=DIRECTION('ref_axis',(0.,0.,1.));
#1277=DIRECTION('center_axis',(0.,1.,0.));
#1278=DIRECTION('ref_axis',(0.,0.,1.));
#1279=DIRECTION('center_axis',(0.,1.50030138462859E-16,-1.));
#1280=DIRECTION('ref_axis',(1.,0.,0.));
#1281=DIRECTION('center_axis',(0.,-6.12323399573676E-17,-1.));
#1282=DIRECTION('ref_axis',(1.,0.,0.));
#1283=DIRECTION('center_axis',(0.,-6.12323399573676E-17,-1.));
#1284=DIRECTION('ref_axis',(1.,0.,0.));
#1285=DIRECTION('center_axis',(1.,0.,0.));
#1286=DIRECTION('ref_axis',(0.,0.,-1.));
#1287=DIRECTION('center_axis',(0.,-1.,0.));
#1288=DIRECTION('ref_axis',(1.,0.,0.));
#1289=DIRECTION('center_axis',(0.,-6.12323399573676E-17,-1.));
#1290=DIRECTION('ref_axis',(0.,1.,-6.12323399573676E-17));
#1291=DIRECTION('center_axis',(0.,1.50030138462859E-16,-1.));
#1292=DIRECTION('ref_axis',(1.,0.,0.));
#1293=DIRECTION('center_axis',(0.,-6.12323399573676E-17,-1.));
#1294=DIRECTION('ref_axis',(1.,0.,0.));
#1295=DIRECTION('center_axis',(0.,-6.12323399573676E-17,-1.));
#1296=DIRECTION('ref_axis',(1.,0.,0.));
#1297=DIRECTION('center_axis',(1.,0.,0.));
#1298=DIRECTION('ref_axis',(0.,0.,-1.));
#1299=DIRECTION('center_axis',(0.,-1.,0.));
#1300=DIRECTION('ref_axis',(1.,0.,0.));
#1301=DIRECTION('center_axis',(0.,-6.12323399573676E-17,-1.));
#1302=DIRECTION('ref_axis',(0.,1.,-6.12323399573676E-17));
#1303=DIRECTION('center_axis',(0.,-1.,0.));
#1304=DIRECTION('ref_axis',(0.,0.,-1.));
#1305=DIRECTION('center_axis',(0.,0.,1.));
#1306=DIRECTION('ref_axis',(0.999332911824465,0.0365202867518194,0.));
#1307=DIRECTION('center_axis',(0.,1.,0.));
#1308=DIRECTION('ref_axis',(0.,0.,-1.));
#1309=DIRECTION('center_axis',(0.,0.,-1.));
#1310=DIRECTION('ref_axis',(0.999332911824515,0.0365202867504544,0.));
#1311=DIRECTION('center_axis',(0.,-1.,0.));
#1312=DIRECTION('ref_axis',(-1.,0.,1.22464679914735E-16));
#1313=DIRECTION('center_axis',(0.,-1.,0.));
#1314=DIRECTION('ref_axis',(-1.,0.,-1.22464679914735E-16));
#1315=DIRECTION('',(0.,-1.,0.));
#1316=DIRECTION('',(0.,1.,0.));
#1317=DIRECTION('center_axis',(0.,1.,0.));
#1318=DIRECTION('ref_axis',(-1.,0.,1.22464679914735E-16));
#1319=DIRECTION('center_axis',(0.,-1.,0.));
#1320=DIRECTION('ref_axis',(0.,0.,-1.));
#1321=DIRECTION('center_axis',(0.,0.,1.));
#1322=DIRECTION('ref_axis',(0.99985925043898,-0.016777345189307,0.));
#1323=DIRECTION('center_axis',(0.,0.,-1.));
#1324=DIRECTION('ref_axis',(0.999859250439209,-0.0167773451756814,0.));
#1325=DIRECTION('center_axis',(0.,-1.,0.));
#1326=DIRECTION('ref_axis',(-1.,0.,1.22464679914735E-16));
#1327=DIRECTION('center_axis',(0.,-1.,0.));
#1328=DIRECTION('ref_axis',(0.,0.,-1.));
#1329=DIRECTION('center_axis',(0.,0.,-1.));
#1330=DIRECTION('ref_axis',(1.,1.24938730259253E-13,0.));
#1331=DIRECTION('center_axis',(0.,0.,1.));
#1332=DIRECTION('ref_axis',(1.,-8.52252114228702E-14,0.));
#1333=DIRECTION('center_axis',(0.,1.,0.));
#1334=DIRECTION('ref_axis',(-1.,0.,1.22464679914735E-16));
#1335=DIRECTION('center_axis',(0.,-1.,0.));
#1336=DIRECTION('ref_axis',(0.,0.,-1.));
#1337=DIRECTION('center_axis',(0.,0.,-1.));
#1338=DIRECTION('ref_axis',(-0.999999999718238,-2.37386519201445E-5,0.));
#1339=DIRECTION('center_axis',(0.,-1.,0.));
#1340=DIRECTION('ref_axis',(-1.,0.,1.22464679914735E-16));
#1341=DIRECTION('center_axis',(0.,0.,1.));
#1342=DIRECTION('ref_axis',(0.999859250438949,0.0167773451911479,0.));
#1343=DIRECTION('center_axis',(0.,0.,-1.));
#1344=DIRECTION('ref_axis',(0.999859250438977,0.0167773451895009,0.));
#1345=DIRECTION('center_axis',(0.,-1.,0.));
#1346=DIRECTION('ref_axis',(-1.,0.,1.22464679914735E-16));
#1347=DIRECTION('center_axis',(0.,0.,1.));
#1348=DIRECTION('ref_axis',(-0.959266032506401,-0.282504298868934,0.));
#1349=DIRECTION('center_axis',(0.,-1.,1.2490009027033E-16));
#1350=DIRECTION('ref_axis',(0.,-1.2490009027033E-16,-1.));
#1351=DIRECTION('center_axis',(0.,-1.,2.4980018054066E-16));
#1352=DIRECTION('ref_axis',(0.,-2.4980018054066E-16,-1.));
#1353=DIRECTION('',(1.,0.,0.));
#1354=DIRECTION('center_axis',(0.,1.,-1.2490009027033E-16));
#1355=DIRECTION('ref_axis',(0.,-1.2490009027033E-16,-1.));
#1356=DIRECTION('',(1.,0.,0.));
#1357=DIRECTION('center_axis',(0.,-1.,0.));
#1358=DIRECTION('ref_axis',(0.,0.,-1.));
#1359=DIRECTION('',(1.,0.,0.));
#1360=DIRECTION('center_axis',(0.,-1.,0.));
#1361=DIRECTION('ref_axis',(0.,0.,-1.));
#1362=DIRECTION('',(1.,0.,0.));
#1363=DIRECTION('center_axis',(0.,-1.,0.));
#1364=DIRECTION('ref_axis',(1.,0.,0.));
#1365=DIRECTION('',(0.,1.,0.));
#1366=DIRECTION('center_axis',(0.,1.,0.));
#1367=DIRECTION('ref_axis',(-1.,0.,1.22464679914735E-16));
#1368=DIRECTION('',(0.,-1.,0.));
#1369=DIRECTION('center_axis',(0.,-1.,0.));
#1370=DIRECTION('ref_axis',(-1.,0.,1.22464679914735E-16));
#1371=DIRECTION('center_axis',(0.,-1.,0.));
#1372=DIRECTION('ref_axis',(0.,0.,-1.));
#1373=DIRECTION('center_axis',(0.,0.,1.));
#1374=DIRECTION('ref_axis',(0.999311571525708,0.0370996363165472,0.));
#1375=DIRECTION('center_axis',(0.,0.,-1.));
#1376=DIRECTION('ref_axis',(0.999311571525748,0.0370996363154705,0.));
#1377=DIRECTION('center_axis',(0.,1.,0.));
#1378=DIRECTION('ref_axis',(-1.,0.,1.22464679914735E-16));
#1379=DIRECTION('center_axis',(0.,-1.,0.));
#1380=DIRECTION('ref_axis',(1.,0.,-6.12323399573677E-17));
#1381=DIRECTION('center_axis',(0.,0.,-1.));
#1382=DIRECTION('ref_axis',(0.999859730114162,-0.0167487341621554,0.));
#1383=DIRECTION('center_axis',(0.,-1.,0.));
#1384=DIRECTION('ref_axis',(-1.,0.,1.22464679914735E-16));
#1385=DIRECTION('center_axis',(0.,0.,1.));
#1386=DIRECTION('ref_axis',(0.999859730114029,-0.0167487341700847,0.));
#1387=DIRECTION('center_axis',(0.,-1.,0.));
#1388=DIRECTION('ref_axis',(1.,0.,-6.12323399573677E-17));
#1389=DIRECTION('center_axis',(0.,0.,1.));
#1390=DIRECTION('ref_axis',(1.,-1.50435880534282E-13,0.));
#1391=DIRECTION('center_axis',(0.,1.,0.));
#1392=DIRECTION('ref_axis',(-1.,0.,1.22464679914735E-16));
#1393=DIRECTION('center_axis',(0.,0.,-1.));
#1394=DIRECTION('ref_axis',(1.,-3.96466997095086E-14,0.));
#1395=DIRECTION('center_axis',(0.,-1.,0.));
#1396=DIRECTION('ref_axis',(0.,0.,-1.));
#1397=DIRECTION('center_axis',(0.,0.,1.));
#1398=DIRECTION('ref_axis',(-0.95909936811618,-0.283069606420654,0.));
#1399=DIRECTION('center_axis',(0.,0.,-1.));
#1400=DIRECTION('ref_axis',(-0.999999999714375,-2.39008236897146E-5,0.));
#1401=DIRECTION('center_axis',(0.,-1.,0.));
#1402=DIRECTION('ref_axis',(-1.,0.,1.22464679914735E-16));
#1403=DIRECTION('center_axis',(0.,-1.,0.));
#1404=DIRECTION('ref_axis',(1.,0.,1.60812264967664E-16));
#1405=DIRECTION('center_axis',(0.,0.,-1.));
#1406=DIRECTION('ref_axis',(0.999859730113915,0.0167487341768872,0.));
#1407=DIRECTION('center_axis',(0.,-1.,0.));
#1408=DIRECTION('ref_axis',(-1.,0.,1.22464679914735E-16));
#1409=DIRECTION('center_axis',(0.,0.,1.));
#1410=DIRECTION('ref_axis',(0.99985973011393,0.0167487341760493,0.));
#1411=DIRECTION('center_axis',(0.,-1.,0.));
#1412=DIRECTION('ref_axis',(0.,0.,-1.));
#1413=DIRECTION('center_axis',(0.,-1.,0.));
#1414=DIRECTION('ref_axis',(1.,0.,0.));
#1415=DIRECTION('center_axis',(0.,-1.,0.));
#1416=DIRECTION('ref_axis',(1.,0.,0.));
#1417=DIRECTION('center_axis',(0.,1.,0.));
#1418=DIRECTION('ref_axis',(1.,0.,0.));
#1419=DIRECTION('center_axis',(0.,-1.,0.));
#1420=DIRECTION('ref_axis',(1.,0.,0.));
#1421=DIRECTION('center_axis',(0.,1.,0.));
#1422=DIRECTION('ref_axis',(1.,0.,0.));
#1423=DIRECTION('center_axis',(0.,-1.,0.));
#1424=DIRECTION('ref_axis',(1.,0.,0.));
#1425=DIRECTION('center_axis',(0.,-1.,0.));
#1426=DIRECTION('ref_axis',(1.,0.,0.));
#1427=DIRECTION('center_axis',(0.,-1.,0.));
#1428=DIRECTION('ref_axis',(0.,0.,-1.));
#1429=DIRECTION('center_axis',(0.,-1.,0.));
#1430=DIRECTION('ref_axis',(-1.,0.,0.));
#1431=DIRECTION('',(0.,-1.,-1.21449556556611E-16));
#1432=DIRECTION('center_axis',(0.,-1.,0.));
#1433=DIRECTION('ref_axis',(-1.,0.,0.));
#1434=DIRECTION('',(0.,1.,1.21449556556611E-16));
#1435=DIRECTION('center_axis',(0.,1.,0.));
#1436=DIRECTION('ref_axis',(-1.,0.,0.));
#1437=DIRECTION('center_axis',(0.,-1.,0.));
#1438=DIRECTION('ref_axis',(-1.,0.,0.));
#1439=DIRECTION('center_axis',(0.,1.,0.));
#1440=DIRECTION('ref_axis',(-1.,0.,0.));
#1441=DIRECTION('center_axis',(0.,1.,0.));
#1442=DIRECTION('ref_axis',(-1.,0.,0.));
#1443=DIRECTION('center_axis',(0.,-1.,0.));
#1444=DIRECTION('ref_axis',(-1.,0.,0.));
#1445=DIRECTION('center_axis',(0.,-1.,0.));
#1446=DIRECTION('ref_axis',(-1.,0.,0.));
#1447=DIRECTION('center_axis',(0.577350269189626,-0.577350269189626,0.577350269189626));
#1448=DIRECTION('ref_axis',(0.707106781186548,0.707106781186548,0.));
#1449=DIRECTION('center_axis',(0.577350269189626,-0.577350269189626,0.577350269189626));
#1450=DIRECTION('ref_axis',(0.707106781186548,0.707106781186548,0.));
#1451=DIRECTION('center_axis',(-0.577350269189626,0.577350269189626,-0.577350269189626));
#1452=DIRECTION('center_axis',(-0.577350269189626,0.577350269189626,-0.577350269189626));
#1453=DIRECTION('center_axis',(2.22044604925031E-16,0.,1.));
#1454=DIRECTION('ref_axis',(1.,0.,-2.22044604925031E-16));
#1455=DIRECTION('center_axis',(2.22044604925031E-16,0.,1.));
#1456=DIRECTION('ref_axis',(1.,0.,-2.22044604925031E-16));
#1457=DIRECTION('center_axis',(-2.22044604925031E-16,0.,-1.));
#1458=DIRECTION('center_axis',(-2.22044604925031E-16,0.,-1.));
#1459=DIRECTION('center_axis',(0.,1.,0.));
#1460=DIRECTION('ref_axis',(1.,0.,0.));
#1461=DIRECTION('center_axis',(0.,1.,0.));
#1462=DIRECTION('ref_axis',(1.,0.,0.));
#1463=DIRECTION('center_axis',(0.,-1.,0.));
#1464=DIRECTION('center_axis',(0.,-1.,0.));
#1465=DIRECTION('center_axis',(1.,0.,0.));
#1466=DIRECTION('ref_axis',(0.,0.,-1.));
#1467=DIRECTION('center_axis',(1.,0.,0.));
#1468=DIRECTION('ref_axis',(0.,0.,-1.));
#1469=DIRECTION('center_axis',(-1.,0.,0.));
#1470=DIRECTION('center_axis',(-1.,0.,0.));
#1471=DIRECTION('center_axis',(0.,0.,1.));
#1472=DIRECTION('ref_axis',(1.,0.,0.));
#1473=DIRECTION('center_axis',(0.,0.,1.));
#1474=DIRECTION('ref_axis',(1.,0.,0.));
#1475=DIRECTION('center_axis',(0.,0.,1.));
#1476=DIRECTION('ref_axis',(1.,0.,0.));
#1477=DIRECTION('center_axis',(0.,0.,1.));
#1478=DIRECTION('ref_axis',(1.,0.,0.));
#1479=DIRECTION('center_axis',(0.,0.,1.));
#1480=DIRECTION('ref_axis',(1.,0.,0.));
#1481=DIRECTION('center_axis',(0.,0.,1.));
#1482=DIRECTION('ref_axis',(1.,0.,0.));
#1483=DIRECTION('center_axis',(0.,0.,1.));
#1484=DIRECTION('ref_axis',(1.,0.,0.));
#1485=DIRECTION('center_axis',(0.,0.,1.));
#1486=DIRECTION('ref_axis',(1.,0.,0.));
#1487=DIRECTION('center_axis',(0.,0.,1.));
#1488=DIRECTION('ref_axis',(1.,0.,0.));
#1489=CARTESIAN_POINT('',(0.,0.,0.));
#1490=CARTESIAN_POINT('polyline point',(5.,29.45,1.30140118715024));
#1491=CARTESIAN_POINT('polyline point',(5.,2.0257,1.30140118715024));
#1492=CARTESIAN_POINT('polyline point',(5.,2.0257,1.30140118715024));
#1493=CARTESIAN_POINT('polyline point',(5.,2.0257,-1.19986940375355));
#1494=CARTESIAN_POINT('polyline point',(5.,2.0257,-1.19986940375355));
#1495=CARTESIAN_POINT('polyline point',(5.,29.45,-1.19986940375355));
#1496=CARTESIAN_POINT('polyline point',(5.,29.45,-1.19986940375355));
#1497=CARTESIAN_POINT('polyline point',(5.,29.45,1.30140118715024));
#1498=CARTESIAN_POINT('polyline point',(5.,29.45,7.72));
#1499=CARTESIAN_POINT('polyline point',(5.,29.45,-11.32));
#1500=CARTESIAN_POINT('polyline point',(5.,2.0257,4.999));
#1501=CARTESIAN_POINT('polyline point',(5.,2.0257,-5.001));
#1502=CARTESIAN_POINT('Origin',(4.44999999999999,30.,0.));
#1503=CARTESIAN_POINT('',(-5.44967825620571E-16,30.,4.44999999999999));
#1504=CARTESIAN_POINT('Origin',(0.,30.,0.));
#1505=CARTESIAN_POINT('',(-3.83333333333332,30.,-4.69447939673151E-16));
#1506=CARTESIAN_POINT('Origin',(0.,30.,0.));
#1507=CARTESIAN_POINT('Origin',(-3.83039742643559,29.9,-0.15));
#1508=CARTESIAN_POINT('',(-0.15,29.899,-0.15));
#1509=CARTESIAN_POINT('',(-3.83039742643559,29.899,-0.15));
#1510=CARTESIAN_POINT('',(-1.91519871321779,29.899,-0.15));
#1511=CARTESIAN_POINT('',(-0.15,29.9001,-0.15));
#1512=CARTESIAN_POINT('',(-0.15,29.9,-0.15));
#1513=CARTESIAN_POINT('',(-3.83039742643559,29.9001,-0.15));
#1514=CARTESIAN_POINT('',(-3.83039742643559,29.9001,-0.15));
#1515=CARTESIAN_POINT('',(-3.83039742643559,29.95,-0.15));
#1516=CARTESIAN_POINT('Origin',(-0.15,29.9,-0.15));
#1517=CARTESIAN_POINT('',(-0.150000000000001,29.899,-3.83039742643559));
#1518=CARTESIAN_POINT('',(-0.15,29.899,-0.0750000000000001));
#1519=CARTESIAN_POINT('',(-0.150000000000001,29.9001,-3.83039742643559));
#1520=CARTESIAN_POINT('',(-0.150000000000001,29.9,-3.83039742643559));
#1521=CARTESIAN_POINT('',(-0.15,29.9001,-0.15));
#1522=CARTESIAN_POINT('Origin',(0.149999999999999,29.9,-3.83039742643559));
#1523=CARTESIAN_POINT('',(0.15,29.899,-0.15));
#1524=CARTESIAN_POINT('',(0.149999999999999,29.899,-3.83039742643559));
#1525=CARTESIAN_POINT('',(0.149999999999999,29.899,-1.91519871321779));
#1526=CARTESIAN_POINT('',(0.15,29.9001,-0.15));
#1527=CARTESIAN_POINT('',(0.15,29.9,-0.15));
#1528=CARTESIAN_POINT('',(0.149999999999999,29.9001,-3.83039742643559));
#1529=CARTESIAN_POINT('',(0.149999999999999,29.9001,-3.83039742643559));
#1530=CARTESIAN_POINT('',(0.149999999999999,29.95,-3.83039742643559));
#1531=CARTESIAN_POINT('Origin',(0.15,29.9,-0.15));
#1532=CARTESIAN_POINT('',(3.83039742643559,29.899,-0.15));
#1533=CARTESIAN_POINT('',(0.0750000000000001,29.899,-0.15));
#1534=CARTESIAN_POINT('',(3.83039742643559,29.9001,-0.15));
#1535=CARTESIAN_POINT('',(3.83039742643559,29.9,-0.15));
#1536=CARTESIAN_POINT('',(0.15,29.9001,-0.15));
#1537=CARTESIAN_POINT('Origin',(3.83039742643559,29.9,0.15));
#1538=CARTESIAN_POINT('',(0.15,29.899,0.15));
#1539=CARTESIAN_POINT('',(3.83039742643559,29.899,0.15));
#1540=CARTESIAN_POINT('',(1.91519871321779,29.899,0.15));
#1541=CARTESIAN_POINT('',(0.15,29.9001,0.15));
#1542=CARTESIAN_POINT('',(0.15,29.9,0.15));
#1543=CARTESIAN_POINT('',(3.83039742643559,29.9001,0.15));
#1544=CARTESIAN_POINT('',(3.83039742643559,29.9001,0.15));
#1545=CARTESIAN_POINT('',(3.83039742643559,29.95,0.15));
#1546=CARTESIAN_POINT('Origin',(0.15,29.9,0.15));
#1547=CARTESIAN_POINT('',(0.15,29.899,3.83039742643559));
#1548=CARTESIAN_POINT('',(0.15,29.899,0.0750000000000001));
#1549=CARTESIAN_POINT('',(0.15,29.9001,3.83039742643559));
#1550=CARTESIAN_POINT('',(0.15,29.9,3.83039742643559));
#1551=CARTESIAN_POINT('',(0.15,29.9001,0.15));
#1552=CARTESIAN_POINT('Origin',(-0.149999999999999,29.9,3.83039742643559));
#1553=CARTESIAN_POINT('',(-0.15,29.899,0.15));
#1554=CARTESIAN_POINT('',(-0.149999999999999,29.899,3.83039742643559));
#1555=CARTESIAN_POINT('',(-0.149999999999999,29.899,1.91519871321779));
#1556=CARTESIAN_POINT('',(-0.15,29.9001,0.15));
#1557=CARTESIAN_POINT('',(-0.15,29.9,0.15));
#1558=CARTESIAN_POINT('',(-0.149999999999998,29.9001,3.83039742643559));
#1559=CARTESIAN_POINT('',(-0.149999999999998,29.9001,3.83039742643559));
#1560=CARTESIAN_POINT('',(-0.149999999999998,29.95,3.83039742643559));
#1561=CARTESIAN_POINT('Origin',(-0.15,29.9,0.15));
#1562=CARTESIAN_POINT('',(-3.83039742643559,29.899,0.15));
#1563=CARTESIAN_POINT('',(-0.0750000000000001,29.899,0.15));
#1564=CARTESIAN_POINT('',(-3.83039742643559,29.9001,0.15));
#1565=CARTESIAN_POINT('',(-3.83039742643559,29.9,0.15));
#1566=CARTESIAN_POINT('',(-0.15,29.9001,0.15));
#1567=CARTESIAN_POINT('Origin',(-0.0750000000000001,29.8245,0.0755));
#1568=CARTESIAN_POINT('',(-0.000999999999999768,29.75,0.000999999999999994));
#1569=CARTESIAN_POINT('',(-3.83333320289854,29.75,0.000999999999999994));
#1570=CARTESIAN_POINT('',(-0.0750000000000001,29.75,0.000999999999999994));
#1571=CARTESIAN_POINT('Origin',(0.,29.749,0.));
#1572=CARTESIAN_POINT('',(-0.000999999999999768,29.75,0.000999999999999994));
#1573=CARTESIAN_POINT('Origin',(-0.0754999999999992,29.8245,1.91519871321779));
#1574=CARTESIAN_POINT('',(-0.000999999999998588,29.75,3.83333320289854));
#1575=CARTESIAN_POINT('Origin',(0.,29.749,0.));
#1576=CARTESIAN_POINT('',(-0.000999999999999178,29.75,1.91519871321779));
#1577=CARTESIAN_POINT('Origin',(-0.0754999999999998,29.8245,-0.0750000000000001));
#1578=CARTESIAN_POINT('',(-0.000999999999999757,29.75,-0.000999999999999994));
#1579=CARTESIAN_POINT('',(-0.00100000000000094,29.75,-3.83333320289854));
#1580=CARTESIAN_POINT('',(-0.00099999999999978,29.75,-0.0750000000000001));
#1581=CARTESIAN_POINT('Origin',(0.,29.749,0.));
#1582=CARTESIAN_POINT('',(-0.000999999999999757,29.75,-0.000999999999999994));
#1583=CARTESIAN_POINT('Origin',(-1.91519871321779,29.8245,-0.0755));
#1584=CARTESIAN_POINT('',(-3.83333320289854,29.75,-0.000999999999999994));
#1585=CARTESIAN_POINT('Origin',(0.,29.749,0.));
#1586=CARTESIAN_POINT('',(-1.91519871321779,29.75,-0.000999999999999994));
#1587=CARTESIAN_POINT('Origin',(0.0750000000000001,29.8245,-0.0755));
#1588=CARTESIAN_POINT('',(0.000999999999999742,29.75,-0.000999999999999994));
#1589=CARTESIAN_POINT('',(3.83333320289854,29.75,-0.000999999999999994));
#1590=CARTESIAN_POINT('',(0.0750000000000001,29.75,-0.000999999999999994));
#1591=CARTESIAN_POINT('Origin',(0.,29.749,0.));
#1592=CARTESIAN_POINT('',(0.000999999999999742,29.75,-0.000999999999999994));
#1593=CARTESIAN_POINT('Origin',(0.0754999999999994,29.8245,-1.91519871321779));
#1594=CARTESIAN_POINT('',(0.000999999999999039,29.75,-3.83333320289854));
#1595=CARTESIAN_POINT('Origin',(0.,29.749,0.));
#1596=CARTESIAN_POINT('',(0.000999999999999391,29.75,-1.91519871321779));
#1597=CARTESIAN_POINT('Origin',(0.,29.95,0.));
#1598=CARTESIAN_POINT('Origin',(0.,29.75,0.));
#1599=CARTESIAN_POINT('Origin',(0.,29.9001,0.));
#1600=CARTESIAN_POINT('Origin',(0.,29.75,0.));
#1601=CARTESIAN_POINT('Origin',(0.,29.9001,0.));
#1602=CARTESIAN_POINT('',(3.83333320289854,29.75,0.000999999999999994));
#1603=CARTESIAN_POINT('Origin',(0.,29.75,0.));
#1604=CARTESIAN_POINT('Origin',(0.,29.749,0.));
#1605=CARTESIAN_POINT('Origin',(0.,29.9001,0.));
#1606=CARTESIAN_POINT('',(0.00100000000000046,29.75,3.83333320289854));
#1607=CARTESIAN_POINT('Origin',(0.,29.749,0.));
#1608=CARTESIAN_POINT('Origin',(0.,29.75,0.));
#1609=CARTESIAN_POINT('Origin',(0.,29.9001,0.));
#1610=CARTESIAN_POINT('Origin',(0.,29.75,0.));
#1611=CARTESIAN_POINT('',(0.000999999999999758,29.75,0.000999999999999994));
#1612=CARTESIAN_POINT('',(0.000999999999999772,29.75,0.0750000000000001));
#1613=CARTESIAN_POINT('',(1.91519871321779,29.75,0.000999999999999994));
#1614=CARTESIAN_POINT('Origin',(0.0754999999999998,29.8245,0.0750000000000001));
#1615=CARTESIAN_POINT('',(0.000999999999999758,29.75,0.000999999999999994));
#1616=CARTESIAN_POINT('Origin',(1.91519871321779,29.8245,0.0755));
#1617=CARTESIAN_POINT('Origin',(0.,29.45,0.));
#1618=CARTESIAN_POINT('',(-4.71404520791031,29.45,-1.66666666666667));
#1619=CARTESIAN_POINT('',(-4.71404520791031,29.45,1.66666666666667));
#1620=CARTESIAN_POINT('Origin',(0.,29.45,0.));
#1621=CARTESIAN_POINT('',(-4.23849141812452,29.99,-1.66666666666667));
#1622=CARTESIAN_POINT('Ctrl Pts',(-4.71404520791031,29.45,-1.66666666666667));
#1623=CARTESIAN_POINT('Ctrl Pts',(-4.71404520791031,29.5164986630652,-1.66666666666667));
#1624=CARTESIAN_POINT('Ctrl Pts',(-4.69784337167626,29.5946349827602,-1.66666666666667));
#1625=CARTESIAN_POINT('Ctrl Pts',(-4.64467266410402,29.7187750694118,-1.66666666666667));
#1626=CARTESIAN_POINT('Ctrl Pts',(-4.59756840204736,29.7862117721488,-1.66666666666667));
#1627=CARTESIAN_POINT('Ctrl Pts',(-4.49677154903025,29.8833658513956,-1.66666666666667));
#1628=CARTESIAN_POINT('Ctrl Pts',(-4.42444073052875,29.9293984728647,-1.66666666666667));
#1629=CARTESIAN_POINT('Ctrl Pts',(-4.32176464863696,29.9703287638139,-1.66666666666667));
#1630=CARTESIAN_POINT('Ctrl Pts',(-4.28045475966823,29.9824496097702,-1.66666666666667));
#1631=CARTESIAN_POINT('Ctrl Pts',(-4.23849141812452,29.99,-1.66666666666667));
#1632=CARTESIAN_POINT('',(-4.23849141812452,29.99,1.66666666666667));
#1633=CARTESIAN_POINT('Origin',(0.,29.99,0.));
#1634=CARTESIAN_POINT('Ctrl Pts',(-4.23849141812452,29.99,1.66666666666667));
#1635=CARTESIAN_POINT('Ctrl Pts',(-4.28045475966823,29.9824496097702,1.66666666666667));
#1636=CARTESIAN_POINT('Ctrl Pts',(-4.32176464863696,29.9703287638139,1.66666666666667));
#1637=CARTESIAN_POINT('Ctrl Pts',(-4.42444073052875,29.9293984728647,1.66666666666667));
#1638=CARTESIAN_POINT('Ctrl Pts',(-4.49677154903025,29.8833658513956,1.66666666666667));
#1639=CARTESIAN_POINT('Ctrl Pts',(-4.59756840204736,29.7862117721488,1.66666666666667));
#1640=CARTESIAN_POINT('Ctrl Pts',(-4.64467266410402,29.7187750694118,1.66666666666667));
#1641=CARTESIAN_POINT('Ctrl Pts',(-4.69784337167626,29.5946349827602,1.66666666666667));
#1642=CARTESIAN_POINT('Ctrl Pts',(-4.71404520791031,29.5164986630652,1.66666666666667));
#1643=CARTESIAN_POINT('Ctrl Pts',(-4.71404520791031,29.45,1.66666666666667));
#1644=CARTESIAN_POINT('Origin',(-38.3019894300626,29.99,1.66666666666667));
#1645=CARTESIAN_POINT('',(-4.24402049906589,29.99,1.66666666666667));
#1646=CARTESIAN_POINT('',(-4.24402049906589,29.99,-1.66666666666667));
#1647=CARTESIAN_POINT('Origin',(0.,29.99,0.));
#1648=CARTESIAN_POINT('',(-38.3019894300626,29.99,1.66666666666667));
#1649=CARTESIAN_POINT('',(-38.3019894300626,29.99,-1.66666666666667));
#1650=CARTESIAN_POINT('Origin',(0.,29.45,0.));
#1651=CARTESIAN_POINT('',(-4.71510585482681,29.45,-1.66666666666667));
#1652=CARTESIAN_POINT('Ctrl Pts',(-4.24402049906589,29.99,-1.66666666666667));
#1653=CARTESIAN_POINT('Ctrl Pts',(-4.2842281403025,29.9824075990889,-1.66666666666667));
#1654=CARTESIAN_POINT('Ctrl Pts',(-4.3236543305372,29.9706628746163,-1.66666666666667));
#1655=CARTESIAN_POINT('Ctrl Pts',(-4.42498004262463,29.9302704882551,-1.66666666666667));
#1656=CARTESIAN_POINT('Ctrl Pts',(-4.49744093301777,29.8841544608325,-1.66666666666667));
#1657=CARTESIAN_POINT('Ctrl Pts',(-4.598419187487,29.7868241473731,-1.66666666666667));
#1658=CARTESIAN_POINT('Ctrl Pts',(-4.64560815324624,29.7192648874727,-1.66666666666667));
#1659=CARTESIAN_POINT('Ctrl Pts',(-4.69887479045898,29.5948988754252,-1.66666666666667));
#1660=CARTESIAN_POINT('Ctrl Pts',(-4.71510585482682,29.5166199616913,-1.66666666666667));
#1661=CARTESIAN_POINT('Ctrl Pts',(-4.71510585482682,29.45,-1.66666666666667));
#1662=CARTESIAN_POINT('',(-4.71510585482681,29.45,1.66666666666667));
#1663=CARTESIAN_POINT('Origin',(0.,29.45,0.));
#1664=CARTESIAN_POINT('Ctrl Pts',(-4.71510585482682,29.45,1.66666666666667));
#1665=CARTESIAN_POINT('Ctrl Pts',(-4.71510585482682,29.5166199616913,1.66666666666667));
#1666=CARTESIAN_POINT('Ctrl Pts',(-4.69887479045898,29.5948988754252,1.66666666666667));
#1667=CARTESIAN_POINT('Ctrl Pts',(-4.64560815324624,29.7192648874727,1.66666666666667));
#1668=CARTESIAN_POINT('Ctrl Pts',(-4.598419187487,29.7868241473731,1.66666666666667));
#1669=CARTESIAN_POINT('Ctrl Pts',(-4.49744093301777,29.8841544608325,1.66666666666667));
#1670=CARTESIAN_POINT('Ctrl Pts',(-4.42498004262463,29.9302704882551,1.66666666666667));
#1671=CARTESIAN_POINT('Ctrl Pts',(-4.3236543305372,29.9706628746163,1.66666666666667));
#1672=CARTESIAN_POINT('Ctrl Pts',(-4.2842281403025,29.9824075990889,1.66666666666667));
#1673=CARTESIAN_POINT('Ctrl Pts',(-4.24402049906589,29.99,1.66666666666667));
#1674=CARTESIAN_POINT('Origin',(-1.99019871321779,29.9001,-1.99019871321779));
#1675=CARTESIAN_POINT('Origin',(-1.99019871321779,29.9001,1.99019871321779));
#1676=CARTESIAN_POINT('Origin',(1.99019871321779,29.9001,-1.99019871321779));
#1677=CARTESIAN_POINT('Origin',(1.99019871321779,29.9001,1.99019871321779));
#1678=CARTESIAN_POINT('Origin',(2.5,-5.5,-1.2));
#1679=CARTESIAN_POINT('',(2.5,-5.1,-1.2));
#1680=CARTESIAN_POINT('Origin',(2.5,-5.5,-1.2));
#1681=CARTESIAN_POINT('',(2.1,-5.5,-8.59999999999999));
#1682=CARTESIAN_POINT('Origin',(2.5,-5.5,-8.59999999999999));
#1683=CARTESIAN_POINT('Origin',(2.5,-4.3,-1.2));
#1684=CARTESIAN_POINT('',(2.1,-4.3,-6.04097384278472E-16));
#1685=CARTESIAN_POINT('Origin',(2.5,-4.3,-5.55111512312578E-16));
#1686=CARTESIAN_POINT('Origin',(2.5,-1.35,-8.59999999999999));
#1687=CARTESIAN_POINT('Origin',(-2.5,-5.5,-1.2));
#1688=CARTESIAN_POINT('',(-2.5,-5.1,-1.2));
#1689=CARTESIAN_POINT('Origin',(-2.5,-5.5,-1.2));
#1690=CARTESIAN_POINT('',(-2.9,-5.5,-8.59999999999999));
#1691=CARTESIAN_POINT('Origin',(-2.5,-5.5,-8.59999999999999));
#1692=CARTESIAN_POINT('Origin',(-2.5,-4.3,-1.2));
#1693=CARTESIAN_POINT('',(-2.9,-4.3,-6.04097384278472E-16));
#1694=CARTESIAN_POINT('Origin',(-2.5,-4.3,-5.55111512312578E-16));
#1695=CARTESIAN_POINT('Origin',(-2.5,-1.35,-8.59999999999999));
#1696=CARTESIAN_POINT('Origin',(0.,0.25,0.));
#1697=CARTESIAN_POINT('',(-4.71510585482683,0.249999999999999,-1.66666666666667));
#1698=CARTESIAN_POINT('',(-4.52639950018067,0.010000000000001,-1.66666666666667));
#1699=CARTESIAN_POINT('Origin',(-4.44709756112148,0.25117453039567,-1.66666666666667));
#1700=CARTESIAN_POINT('',(-4.52639950018067,0.010000000000001,1.66666666666667));
#1701=CARTESIAN_POINT('Origin',(0.,0.010000000000001,0.));
#1702=CARTESIAN_POINT('',(-4.71510585482683,0.25,1.66666666666667));
#1703=CARTESIAN_POINT('Origin',(-4.44709756112155,0.251174530395621,1.66666666666667));
#1704=CARTESIAN_POINT('Origin',(0.,0.25,0.));
#1705=CARTESIAN_POINT('Origin',(0.,0.375000000000001,0.));
#1706=CARTESIAN_POINT('',(-4.71510585482683,0.540964751622663,-1.66666666666667));
#1707=CARTESIAN_POINT('',(-4.71510585482683,0.375000000000001,-1.66666666666667));
#1708=CARTESIAN_POINT('',(-4.71510585482683,0.540964751622665,1.66666666666667));
#1709=CARTESIAN_POINT('',(-4.71510585482683,0.375000000000001,1.66666666666667));
#1710=CARTESIAN_POINT('Origin',(0.,0.540964751622665,0.));
#1711=CARTESIAN_POINT('Origin',(0.,0.540964751622665,0.));
#1712=CARTESIAN_POINT('',(-4.59346980594633,0.859759031140133,-1.66666666666667));
#1713=CARTESIAN_POINT('Origin',(-4.18516708990921,0.539990928538231,-1.66666666666667));
#1714=CARTESIAN_POINT('',(-4.59346980594633,0.859759031140134,1.66666666666667));
#1715=CARTESIAN_POINT('Origin',(-4.1851670899117,0.53999092853907,1.66666666666667));
#1716=CARTESIAN_POINT('Origin',(0.,0.859759031140134,0.));
#1717=CARTESIAN_POINT('Origin',(0.,1.28333333333334,0.));
#1718=CARTESIAN_POINT('',(-4.59346980594632,1.70690763552654,-1.66666666666667));
#1719=CARTESIAN_POINT('Origin',(-5.15234926069796,1.28333333333333,-1.66666666666667));
#1720=CARTESIAN_POINT('',(-4.59346980594632,1.70690763552654,1.66666666666667));
#1721=CARTESIAN_POINT('Origin',(-5.15234926069796,1.28333333333335,1.66666666666667));
#1722=CARTESIAN_POINT('Origin',(0.,1.70690763552654,0.));
#1723=CARTESIAN_POINT('Origin',(0.,2.025701915044,0.));
#1724=CARTESIAN_POINT('',(-4.94975682848365,1.885,-0.555555555555556));
#1725=CARTESIAN_POINT('',(-4.97004617933187,2.025701915044,-0.555555555555556));
#1726=CARTESIAN_POINT('Origin',(-4.47195202766259,2.02571373912769,-0.555555555555556));
#1727=CARTESIAN_POINT('',(-4.71510585482682,2.025701915044,-1.66666666666667));
#1728=CARTESIAN_POINT('Origin',(0.,2.025701915044,0.));
#1729=CARTESIAN_POINT('Origin',(-4.18516708990899,2.02667573812855,-1.66666666666667));
#1730=CARTESIAN_POINT('',(-4.71510585482682,2.025701915044,1.66666666666667));
#1731=CARTESIAN_POINT('Origin',(-4.18516708990925,2.02667573812845,1.66666666666667));
#1732=CARTESIAN_POINT('',(-4.97004617933187,2.025701915044,0.555555555555556));
#1733=CARTESIAN_POINT('Origin',(0.,2.025701915044,0.));
#1734=CARTESIAN_POINT('',(-4.94975682848365,1.885,0.555555555555556));
#1735=CARTESIAN_POINT('Origin',(-4.47195202766259,2.02571373912769,0.555555555555556));
#1736=CARTESIAN_POINT('Origin',(0.,1.885,1.75736818902039E-17));
#1737=CARTESIAN_POINT('Origin',(-38.3019894300626,1.885,-0.555555555555556));
#1738=CARTESIAN_POINT('',(-4.94870826123485,1.885,0.555555555555556));
#1739=CARTESIAN_POINT('',(-38.3019894300626,1.885,0.555555555555556));
#1740=CARTESIAN_POINT('',(-4.94870826123485,1.885,-0.555555555555556));
#1741=CARTESIAN_POINT('Origin',(0.,1.885,1.75736818902039E-17));
#1742=CARTESIAN_POINT('',(-38.3019894300626,1.885,-0.555555555555556));
#1743=CARTESIAN_POINT('Origin',(-38.3019894300626,0.010000000000001,-1.66666666666667));
#1744=CARTESIAN_POINT('',(-4.52267865564449,0.010000000000001,-1.66666666666667));
#1745=CARTESIAN_POINT('',(-38.3019894300626,0.010000000000001,-1.66666666666667));
#1746=CARTESIAN_POINT('',(-4.52267865564449,0.010000000000001,1.66666666666667));
#1747=CARTESIAN_POINT('Origin',(0.,0.010000000000001,0.));
#1748=CARTESIAN_POINT('',(-38.3019894300626,0.010000000000001,1.66666666666667));
#1749=CARTESIAN_POINT('Origin',(0.,0.375000000000001,0.));
#1750=CARTESIAN_POINT('',(-4.71404520791032,0.249999999999999,-1.66666666666667));
#1751=CARTESIAN_POINT('',(-4.71404520791032,0.540964751622663,-1.66666666666667));
#1752=CARTESIAN_POINT('',(-4.71404520791032,0.375000000000001,-1.66666666666667));
#1753=CARTESIAN_POINT('',(-4.71404520791032,0.540964751622665,1.66666666666667));
#1754=CARTESIAN_POINT('Origin',(0.,0.540964751622665,0.));
#1755=CARTESIAN_POINT('',(-4.71404520791032,0.25,1.66666666666667));
#1756=CARTESIAN_POINT('',(-4.71404520791032,0.375000000000001,1.66666666666667));
#1757=CARTESIAN_POINT('Origin',(0.,0.25,0.));
#1758=CARTESIAN_POINT('Origin',(0.,0.25,0.));
#1759=CARTESIAN_POINT('Origin',(-4.44706306769946,0.251190721534562,1.66666666666667));
#1760=CARTESIAN_POINT('Origin',(-4.44706306769951,0.251190721534524,-1.66666666666667));
#1761=CARTESIAN_POINT('',(-5.81707229594993E-16,0.,4.75));
#1762=CARTESIAN_POINT('Origin',(0.,0.,0.));
#1763=CARTESIAN_POINT('Origin',(0.,0.540964751622665,0.));
#1764=CARTESIAN_POINT('',(-4.59264915967406,0.859122715212952,-1.66666666666667));
#1765=CARTESIAN_POINT('Origin',(-4.18514836000381,0.539994057333396,-1.66666666666667));
#1766=CARTESIAN_POINT('',(-4.59264915967406,0.859122715212953,1.66666666666667));
#1767=CARTESIAN_POINT('Origin',(0.,0.859122715212953,0.));
#1768=CARTESIAN_POINT('Origin',(-4.18514836000243,0.539994057332908,1.66666666666667));
#1769=CARTESIAN_POINT('Origin',(0.,1.28333333333334,0.));
#1770=CARTESIAN_POINT('',(-4.59264915967406,1.70754395145372,-1.66666666666667));
#1771=CARTESIAN_POINT('Origin',(-5.15240704245252,1.28333333333335,-1.66666666666667));
#1772=CARTESIAN_POINT('',(-4.59264915967406,1.70754395145372,1.66666666666667));
#1773=CARTESIAN_POINT('Origin',(0.,1.70754395145372,0.));
#1774=CARTESIAN_POINT('Origin',(-5.1524070424524,1.28333333333334,1.66666666666667));
#1775=CARTESIAN_POINT('Origin',(0.,2.025701915044,0.));
#1776=CARTESIAN_POINT('',(-4.96903994999953,2.025701915044,-0.555555555555556));
#1777=CARTESIAN_POINT('Origin',(-4.47194032184209,2.02571379613457,-0.555555555555556));
#1778=CARTESIAN_POINT('',(-4.96903994999953,2.025701915044,0.555555555555556));
#1779=CARTESIAN_POINT('Origin',(-4.47194032184206,2.02571379613457,0.555555555555556));
#1780=CARTESIAN_POINT('Origin',(0.,2.025701915044,0.));
#1781=CARTESIAN_POINT('Origin',(0.,2.025701915044,0.));
#1782=CARTESIAN_POINT('',(-4.71404520791031,2.025701915044,-1.66666666666667));
#1783=CARTESIAN_POINT('Origin',(-4.18514836000122,2.02667260933418,-1.66666666666667));
#1784=CARTESIAN_POINT('',(-4.71404520791031,2.025701915044,1.66666666666667));
#1785=CARTESIAN_POINT('Origin',(0.,2.025701915044,0.));
#1786=CARTESIAN_POINT('Origin',(-4.18514836000145,2.02667260933413,1.66666666666667));
#1787=CARTESIAN_POINT('Origin',(4.28571428571429,0.,0.));
#1788=CARTESIAN_POINT('',(-4.28571428571429,0.,-5.24848628206009E-16));
#1789=CARTESIAN_POINT('Origin',(0.,0.,0.));
#1790=CARTESIAN_POINT('Origin',(2.5,-4.05,-5.55111512312578E-16));
#1791=CARTESIAN_POINT('',(2.1,0.1,4.89858719658941E-17));
#1792=CARTESIAN_POINT('Origin',(2.5,0.1,0.));
#1793=CARTESIAN_POINT('Origin',(-2.5,-4.05,-5.55111512312578E-16));
#1794=CARTESIAN_POINT('',(-2.9,0.1,4.89858719658941E-17));
#1795=CARTESIAN_POINT('Origin',(-2.5,0.1,0.));
#1796=CARTESIAN_POINT('Origin',(0.,0.05,0.));
#1797=CARTESIAN_POINT('',(-4.28571428571429,0.1,-5.24848628206009E-16));
#1798=CARTESIAN_POINT('Origin',(0.,0.1,0.));
#1799=CARTESIAN_POINT('Origin',(0.,0.1,0.));
#1800=CARTESIAN_POINT('Origin',(0.00099999999999989,29.45,-0.000999999999999994));
#1801=CARTESIAN_POINT('',(4.85514381253209,29.45,-1.19986940375355));
#1802=CARTESIAN_POINT('',(4.85514381253209,2.0257,-1.19986940375355));
#1803=CARTESIAN_POINT('',(4.85514381253209,29.45,-1.19986940375355));
#1804=CARTESIAN_POINT('',(4.8283958971385,2.0257,1.30140118715024));
#1805=CARTESIAN_POINT('Origin',(0.00099999999999989,2.0257,-0.000999999999999994));
#1806=CARTESIAN_POINT('',(4.8283958971385,29.45,1.30140118715024));
#1807=CARTESIAN_POINT('',(4.8283958971385,2.0257,1.30140118715024));
#1808=CARTESIAN_POINT('Origin',(0.00099999999999989,29.45,-0.000999999999999994));
#1809=CARTESIAN_POINT('Origin',(0.00099999999999989,29.45,-0.000999999999999994));
#1810=CARTESIAN_POINT('',(-4.999,29.45,-0.000999999999999994));
#1811=CARTESIAN_POINT('Origin',(0.00099999999999989,29.45,-0.000999999999999994));
#1812=CARTESIAN_POINT('Origin',(0.00099999999999989,29.45,-0.000999999999999994));
#1813=CARTESIAN_POINT('',(-4.999,2.0257,-0.000999999999999994));
#1814=CARTESIAN_POINT('Origin',(0.00099999999999989,2.0257,-0.000999999999999994));
#1815=CARTESIAN_POINT('Origin',(0.00099999999999989,2.0257,-0.000999999999999994));
#1816=CARTESIAN_POINT('Origin',(9.23041194807469,-9.23041194807469,9.23041194807469));
#1817=CARTESIAN_POINT('Origin',(9.23041194807469,-9.23041194807469,9.23041194807469));
#1818=CARTESIAN_POINT('',(9.80776221726431,-9.80776221726431,9.80776221726431));
#1819=CARTESIAN_POINT('Origin',(9.80776221726431,-9.80776221726431,9.80776221726431));
#1820=CARTESIAN_POINT('Origin',(-9.80776221726431,9.80776221726431,-9.80776221726431));
#1821=CARTESIAN_POINT('Origin',(2.59110836358482E-14,0.,116.693146607172));
#1822=CARTESIAN_POINT('Origin',(2.59110836358482E-14,0.,116.693146607172));
#1823=CARTESIAN_POINT('',(2.61331282407732E-14,0.,117.693146607172));
#1824=CARTESIAN_POINT('Origin',(2.61331282407732E-14,0.,117.693146607172));
#1825=CARTESIAN_POINT('Origin',(-2.61331282407732E-14,0.,-117.693146607172));
#1826=CARTESIAN_POINT('Origin',(0.,116.693146607172,0.));
#1827=CARTESIAN_POINT('Origin',(0.,116.693146607172,0.));
#1828=CARTESIAN_POINT('',(0.,117.693146607172,0.));
#1829=CARTESIAN_POINT('Origin',(0.,117.693146607172,0.));
#1830=CARTESIAN_POINT('Origin',(0.,-117.693146607172,0.));
#1831=CARTESIAN_POINT('Origin',(116.693146607172,0.,0.));
#1832=CARTESIAN_POINT('Origin',(116.693146607172,0.,0.));
#1833=CARTESIAN_POINT('',(117.693146607172,0.,0.));
#1834=CARTESIAN_POINT('Origin',(117.693146607172,0.,0.));
#1835=CARTESIAN_POINT('Origin',(-117.693146607172,0.,0.));
#1836=CARTESIAN_POINT('Origin',(0.,0.,0.));
#1837=CARTESIAN_POINT('Origin',(0.,0.,0.));
#1838=CARTESIAN_POINT('Origin',(0.,0.,0.));
#1839=CARTESIAN_POINT('Origin',(0.,0.,0.));
#1840=CARTESIAN_POINT('Origin',(0.,0.,0.));
#1841=CARTESIAN_POINT('Origin',(0.,0.,0.));
#1842=CARTESIAN_POINT('Origin',(0.,0.,0.));
#1843=CARTESIAN_POINT('Origin',(0.,0.,0.));
#1844=CARTESIAN_POINT('Origin',(0.,0.,0.));
#1845=UNCERTAINTY_MEASURE_WITH_UNIT(LENGTH_MEASURE(0.01),#1849,
'DISTANCE_ACCURACY_VALUE',
'Maximum model space distance between geometric entities at asserted c
onnectivities');
#1846=UNCERTAINTY_MEASURE_WITH_UNIT(LENGTH_MEASURE(0.01),#1849,
'DISTANCE_ACCURACY_VALUE',
'Maximum model space distance between geometric entities at asserted c
onnectivities');
#1847=(
GEOMETRIC_REPRESENTATION_CONTEXT(3)
GLOBAL_UNCERTAINTY_ASSIGNED_CONTEXT((#1845))
GLOBAL_UNIT_ASSIGNED_CONTEXT((#1849,#1852,#1851))
REPRESENTATION_CONTEXT('','3D')
);
#1848=(
GEOMETRIC_REPRESENTATION_CONTEXT(3)
GLOBAL_UNCERTAINTY_ASSIGNED_CONTEXT((#1846))
GLOBAL_UNIT_ASSIGNED_CONTEXT((#1849,#1852,#1851))
REPRESENTATION_CONTEXT('','3D')
);
#1849=(
LENGTH_UNIT()
NAMED_UNIT(*)
SI_UNIT(.MILLI.,.METRE.)
);
#1850=(
LENGTH_UNIT()
NAMED_UNIT(*)
SI_UNIT(.CENTI.,.METRE.)
);
#1851=(
NAMED_UNIT(*)
SI_UNIT($,.STERADIAN.)
SOLID_ANGLE_UNIT()
);
#1852=(
NAMED_UNIT(*)
PLANE_ANGLE_UNIT()
SI_UNIT($,.RADIAN.)
);
#1853=SHAPE_DEFINITION_REPRESENTATION(#1854,#1855);
#1854=PRODUCT_DEFINITION_SHAPE('',$,#1857);
#1855=SHAPE_REPRESENTATION('',(#986,#929,#930,#931),#1847);
#1856=PRODUCT_DEFINITION_CONTEXT('part definition',#1861,'design');
#1857=PRODUCT_DEFINITION('MAXWELL_BCAP0010_P300_X12_V3',
'MAXWELL_BCAP0010_P300_X12_V3',#1858,#1856);
#1858=PRODUCT_DEFINITION_FORMATION('',$,#1863);
#1859=PRODUCT_RELATED_PRODUCT_CATEGORY('MAXWELL_BCAP0010_P300_X12_V3',
'MAXWELL_BCAP0010_P300_X12_V3',(#1863));
#1860=APPLICATION_PROTOCOL_DEFINITION('international standard',
'ap242_managed_model_based_3d_engineering',2011,#1861);
#1861=APPLICATION_CONTEXT('Managed model based 3d engineering');
#1862=PRODUCT_CONTEXT('part definition',#1861,'mechanical');
#1863=PRODUCT('MAXWELL_BCAP0010_P300_X12_V3',
'MAXWELL_BCAP0010_P300_X12_V3',$,(#1862));
#1864=PRESENTATION_STYLE_ASSIGNMENT((#1874));
#1865=PRESENTATION_STYLE_ASSIGNMENT((#1875));
#1866=PRESENTATION_STYLE_ASSIGNMENT((#1876));
#1867=PRESENTATION_STYLE_ASSIGNMENT((#1877));
#1868=PRESENTATION_STYLE_ASSIGNMENT((#1878));
#1869=PRESENTATION_STYLE_ASSIGNMENT((#1879));
#1870=PRESENTATION_STYLE_ASSIGNMENT((#1880));
#1871=PRESENTATION_STYLE_ASSIGNMENT((#1881));
#1872=PRESENTATION_STYLE_ASSIGNMENT((#1882));
#1873=PRESENTATION_STYLE_ASSIGNMENT(($));
#1874=SURFACE_STYLE_USAGE(.BOTH.,#1883);
#1875=SURFACE_STYLE_USAGE(.BOTH.,#1884);
#1876=SURFACE_STYLE_USAGE(.BOTH.,#1885);
#1877=SURFACE_STYLE_USAGE(.BOTH.,#1886);
#1878=SURFACE_STYLE_USAGE(.BOTH.,#1887);
#1879=SURFACE_STYLE_USAGE(.BOTH.,#1888);
#1880=SURFACE_STYLE_USAGE(.BOTH.,#1889);
#1881=SURFACE_STYLE_USAGE(.BOTH.,#1890);
#1882=SURFACE_STYLE_USAGE(.BOTH.,#1891);
#1883=SURFACE_SIDE_STYLE('',(#1892));
#1884=SURFACE_SIDE_STYLE('',(#1893));
#1885=SURFACE_SIDE_STYLE('',(#1894));
#1886=SURFACE_SIDE_STYLE('',(#1895));
#1887=SURFACE_SIDE_STYLE('',(#1896));
#1888=SURFACE_SIDE_STYLE('',(#1897));
#1889=SURFACE_SIDE_STYLE('',(#1898));
#1890=SURFACE_SIDE_STYLE('',(#1899));
#1891=SURFACE_SIDE_STYLE('',(#1900));
#1892=SURFACE_STYLE_FILL_AREA(#1901);
#1893=SURFACE_STYLE_FILL_AREA(#1902);
#1894=SURFACE_STYLE_FILL_AREA(#1903);
#1895=SURFACE_STYLE_FILL_AREA(#1904);
#1896=SURFACE_STYLE_FILL_AREA(#1905);
#1897=SURFACE_STYLE_FILL_AREA(#1906);
#1898=SURFACE_STYLE_FILL_AREA(#1907);
#1899=SURFACE_STYLE_FILL_AREA(#1908);
#1900=SURFACE_STYLE_FILL_AREA(#1909);
#1901=FILL_AREA_STYLE('',(#1910));
#1902=FILL_AREA_STYLE('',(#1911));
#1903=FILL_AREA_STYLE('',(#1912));
#1904=FILL_AREA_STYLE('',(#1913));
#1905=FILL_AREA_STYLE('',(#1914));
#1906=FILL_AREA_STYLE('',(#1915));
#1907=FILL_AREA_STYLE('',(#1916));
#1908=FILL_AREA_STYLE('',(#1917));
#1909=FILL_AREA_STYLE('',(#1918));
#1910=FILL_AREA_STYLE_COLOUR('',#1919);
#1911=FILL_AREA_STYLE_COLOUR('',#1920);
#1912=FILL_AREA_STYLE_COLOUR('',#1921);
#1913=FILL_AREA_STYLE_COLOUR('',#1922);
#1914=FILL_AREA_STYLE_COLOUR('',#1923);
#1915=FILL_AREA_STYLE_COLOUR('',#1924);
#1916=FILL_AREA_STYLE_COLOUR('',#1925);
#1917=FILL_AREA_STYLE_COLOUR('',#1926);
#1918=FILL_AREA_STYLE_COLOUR('',#1927);
#1919=COLOUR_RGB('',0.749019607843137,0.749019607843137,0.749019607843137);
#1920=COLOUR_RGB('',0.647058823529412,0.67843137254902,0.694117647058824);
#1921=COLOUR_RGB('',0.0941176470588235,0.145098039215686,0.972549019607843);
#1922=COLOUR_RGB('',0.282352941176471,0.27843137254902,0.23921568627451);
#1923=COLOUR_RGB('',1.,0.862745098039216,0.250980392156863);
#1924=COLOUR_RGB('',0.164705882352941,0.164705882352941,0.164705882352941);
#1925=COLOUR_RGB('',0.96078431372549,0.96078431372549,0.96078431372549);
#1926=COLOUR_RGB('',1.,1.,0.);
#1927=COLOUR_RGB('',0.2,0.,0.498039215686275);
ENDSEC;
END-ISO-10303-21;
