ISO-10303-21;
HEADER;
FILE_DESCRIPTION (( 'STEP AP214' ),
    '1' );
FILE_NAME ('User Library-CR1608-0603.STEP',
    '2018-11-16T07:45:15',
    ( '' ),
    ( '' ),
    'SwSTEP 2.0',
    'SolidWorks 2018',
    '' );
FILE_SCHEMA (( 'AUTOMOTIVE_DESIGN' ));
ENDSEC;

DATA;
#1 = FACE_OUTER_BOUND ( 'NONE', #941, .T. ) ;
#2 = DIRECTION ( 'NONE',  ( -1.535953077687797291E-16, -1.355252715606880789E-16, -1.000000000000000000 ) ) ;
#3 = FILL_AREA_STYLE ('',( #66 ) ) ;
#4 = LINE ( 'NONE', #1135, #1041 ) ;
#5 = CARTESIAN_POINT ( 'NONE',  ( 1.301560977094069926, 0.4500000000000039524, -0.3999999999999999112 ) ) ;
#6 = ORIENTED_EDGE ( 'NONE', *, *, #392, .F. ) ;
#7 = EDGE_CURVE ( 'NONE', #699, #386, #546, .T. ) ;
#8 = CARTESIAN_POINT ( 'NONE',  ( 0.4999999999999998890, 0.4500000000000000666, -0.2999999999999997113 ) ) ;
#9 = DIRECTION ( 'NONE',  ( -2.168404344971008079E-15, 1.000000000000000000, 0.0000000000000000000 ) ) ;
#10 =( NAMED_UNIT ( * ) SI_UNIT ( $, .STERADIAN. ) SOLID_ANGLE_UNIT ( ) );
#11 = CARTESIAN_POINT ( 'NONE',  ( 0.7500000000000001110, 0.4000000000000000222, -0.4000000000000001332 ) ) ;
#12 = CARTESIAN_POINT ( 'NONE',  ( 0.7999999999999999334, -1.626303258728256651E-16, -0.4000000000000003553 ) ) ;
#13 = AXIS2_PLACEMENT_3D ( 'NONE', #978, #135, #1079 ) ;
#14 = CARTESIAN_POINT ( 'NONE',  ( -0.7500000000000000000, 0.05000000000000018319, -0.4000000000000001887 ) ) ;
#15 = EDGE_CURVE ( 'NONE', #810, #1137, #36, .T. ) ;
#16 = DIRECTION ( 'NONE',  ( -2.168404344971003346E-15, -1.000000000000000000, 6.269303204385517027E-31 ) ) ;
#17 = DIRECTION ( 'NONE',  ( -0.0000000000000000000, 1.000000000000000000, -0.0000000000000000000 ) ) ;
#18 = CARTESIAN_POINT ( 'NONE',  ( 0.7500000000000002220, 0.4000000000000000222, 0.3999999999999999112 ) ) ;
#19 = VECTOR ( 'NONE', #17, 1000.000000000000000 ) ;
#20 = EDGE_LOOP ( 'NONE', ( #430, #119, #1146, #415 ) ) ;
#21 = ORIENTED_EDGE ( 'NONE', *, *, #116, .T. ) ;
#22 = DIRECTION ( 'NONE',  ( -1.355252715606881036E-16, -1.355252715606880789E-16, -1.000000000000000000 ) ) ;
#23 = EDGE_LOOP ( 'NONE', ( #373, #156, #169, #480 ) ) ;
#24 = EDGE_CURVE ( 'NONE', #795, #939, #513, .T. ) ;
#25 = ORIENTED_EDGE ( 'NONE', *, *, #440, .T. ) ;
#26 = ORIENTED_EDGE ( 'NONE', *, *, #1056, .F. ) ;
#27 = DIRECTION ( 'NONE',  ( -1.000000000000000000, -2.168404344971003346E-15, -1.355252715606880296E-16 ) ) ;
#28 = ADVANCED_FACE ( 'NONE', ( #472 ), #412, .F. ) ;
#29 = CARTESIAN_POINT ( 'NONE',  ( 0.4999999999999995559, 0.4000000000000021871, -0.4000000000000000222 ) ) ;
#30 = CARTESIAN_POINT ( 'NONE',  ( 1.301560977094069704, 0.4500000000000039524, 0.4000000000000002998 ) ) ;
#31 = DIRECTION ( 'NONE',  ( -0.0000000000000000000, 0.0000000000000000000, 1.000000000000000000 ) ) ;
#32 = VECTOR ( 'NONE', #1148, 1000.000000000000000 ) ;
#33 = PRESENTATION_STYLE_ASSIGNMENT (( #361 ) ) ;
#34 = DIRECTION ( 'NONE',  ( -2.891205793294678326E-16, 0.0000000000000000000, -1.000000000000000000 ) ) ;
#35 = ADVANCED_FACE ( 'NONE', ( #789 ), #1054, .F. ) ;
#36 = LINE ( 'NONE', #12, #141 ) ;
#37 = COLOUR_RGB ( '',0.8980392156862745390, 0.9176470588235293713, 0.9294117647058823817 ) ;
#38 = ORIENTED_EDGE ( 'NONE', *, *, #1066, .F. ) ;
#39 = CARTESIAN_POINT ( 'NONE',  ( 0.7499999999999998890, 0.3999999999999999667, 0.3999999999999997446 ) ) ;
#40 = CARTESIAN_POINT ( 'NONE',  ( -0.4999999999999996669, 0.4500000000000000666, -0.3000000000000002665 ) ) ;
#41 = EDGE_CURVE ( 'NONE', #930, #1122, #543, .T. ) ;
#42 = MECHANICAL_DESIGN_GEOMETRIC_PRESENTATION_REPRESENTATION (  '', ( #1057 ), #552 ) ;
#43 = LINE ( 'NONE', #846, #572 ) ;
#44 = ADVANCED_FACE ( 'NONE', ( #904 ), #521, .F. ) ;
#45 = VECTOR ( 'NONE', #322, 1000.000000000000000 ) ;
#46 =( NAMED_UNIT ( * ) PLANE_ANGLE_UNIT ( ) SI_UNIT ( $, .RADIAN. ) );
#47 = CARTESIAN_POINT ( 'NONE',  ( 0.4999999999999997780, 0.4000000000000000222, -0.4000000000000003553 ) ) ;
#48 = CARTESIAN_POINT ( 'NONE',  ( -0.6799999999999996048, 0.4000000000000000222, -0.4000000000000002998 ) ) ;
#49 =( NAMED_UNIT ( * ) SI_UNIT ( $, .STERADIAN. ) SOLID_ANGLE_UNIT ( ) );
#50 = CARTESIAN_POINT ( 'NONE',  ( -0.4999999999999997780, 0.4500000000000000666, -0.4000000000000001887 ) ) ;
#51 = EDGE_CURVE ( 'NONE', #953, #836, #626, .T. ) ;
#52 = LINE ( 'NONE', #205, #1190 ) ;
#53 = VERTEX_POINT ( 'NONE', #1181 ) ;
#54 = VECTOR ( 'NONE', #680, 1000.000000000000000 ) ;
#55 =( LENGTH_UNIT ( ) NAMED_UNIT ( * ) SI_UNIT ( .MILLI., .METRE. ) );
#56 = DIRECTION ( 'NONE',  ( 1.355252715606880296E-16, -1.355252715606880296E-16, 1.000000000000000000 ) ) ;
#57 = CARTESIAN_POINT ( 'NONE',  ( 1.301560977094069926, 0.4500000000000039524, -0.3999999999999999112 ) ) ;
#58 = VERTEX_POINT ( 'NONE', #856 ) ;
#59 = CLOSED_SHELL ( 'NONE', ( #1086, #686, #1185, #323, #783, #414 ) ) ;
#60 = ORIENTED_EDGE ( 'NONE', *, *, #282, .T. ) ;
#61 = AXIS2_PLACEMENT_3D ( 'NONE', #471, #742, #371 ) ;
#62 = VERTEX_POINT ( 'NONE', #438 ) ;
#63 = CARTESIAN_POINT ( 'NONE',  ( 0.4999999999999996669, 0.4500000000000056732, -0.4000000000000000222 ) ) ;
#64 =( LENGTH_UNIT ( ) NAMED_UNIT ( * ) SI_UNIT ( .MILLI., .METRE. ) );
#65 = LINE ( 'NONE', #1208, #121 ) ;
#66 = FILL_AREA_STYLE_COLOUR ( '', #873 ) ;
#67 = DIRECTION ( 'NONE',  ( 0.0000000000000000000, 1.000000000000000000, 1.084202172485501673E-15 ) ) ;
#68 = CARTESIAN_POINT ( 'NONE',  ( 0.4999999999999998890, -0.001000000000000186937, -0.2999999999999997113 ) ) ;
#69 = LINE ( 'NONE', #1119, #377 ) ;
#70 = VECTOR ( 'NONE', #197, 1000.000000000000000 ) ;
#71 = PRESENTATION_STYLE_ASSIGNMENT (( #688 ) ) ;
#72 = EDGE_LOOP ( 'NONE', ( #988, #936, #428, #192 ) ) ;
#73 = LINE ( 'NONE', #122, #985 ) ;
#74 = EDGE_LOOP ( 'NONE', ( #1080, #890, #631, #644 ) ) ;
#75 = DIRECTION ( 'NONE',  ( 1.242314989306307082E-16, 1.000000000000000000, -3.591788294179211222E-32 ) ) ;
#76 = FACE_OUTER_BOUND ( 'NONE', #734, .T. ) ;
#77 = CARTESIAN_POINT ( 'NONE',  ( 0.7500000000000001110, 0.4000000000000000222, -0.4000000000000001332 ) ) ;
#78 = EDGE_CURVE ( 'NONE', #324, #62, #579, .T. ) ;
#79 = VECTOR ( 'NONE', #442, 1000.000000000000000 ) ;
#80 = CARTESIAN_POINT ( 'NONE',  ( 0.7999999999999999334, -1.626303258728256651E-16, -0.4000000000000003553 ) ) ;
#81 = CARTESIAN_POINT ( 'NONE',  ( -1.576560977094070060, 0.4500000000000000666, 0.4000000000000000222 ) ) ;
#82 = DIRECTION ( 'NONE',  ( 1.000000000000000000, 0.0000000000000000000, 6.023345402697248937E-16 ) ) ;
#83 = LINE ( 'NONE', #797, #462 ) ;
#84 = DIRECTION ( 'NONE',  ( 0.0000000000000000000, -1.355252715606880543E-16, -1.000000000000000000 ) ) ;
#85 = ORIENTED_EDGE ( 'NONE', *, *, #465, .F. ) ;
#86 = EDGE_CURVE ( 'NONE', #1167, #534, #608, .T. ) ;
#87 = ORIENTED_EDGE ( 'NONE', *, *, #1130, .T. ) ;
#88 = EDGE_LOOP ( 'NONE', ( #1222, #476, #555, #372 ) ) ;
#89 = PLANE ( 'NONE',  #940 ) ;
#90 = ORIENTED_EDGE ( 'NONE', *, *, #129, .T. ) ;
#91 = EDGE_CURVE ( 'NONE', #448, #953, #378, .T. ) ;
#92 = CARTESIAN_POINT ( 'NONE',  ( 0.4999999999999997780, 0.4000000000000021871, 0.4000000000000001887 ) ) ;
#93 = CARTESIAN_POINT ( 'NONE',  ( 0.5000000000000000000, 0.4500000000000000666, 0.3999999999999998557 ) ) ;
#94 = PRESENTATION_STYLE_ASSIGNMENT (( #1143 ) ) ;
#95 = LINE ( 'NONE', #1012, #445 ) ;
#96 = ORIENTED_EDGE ( 'NONE', *, *, #282, .F. ) ;
#97 = DIRECTION ( 'NONE',  ( 0.0000000000000000000, 0.0000000000000000000, -1.000000000000000000 ) ) ;
#98 = ORIENTED_EDGE ( 'NONE', *, *, #794, .F. ) ;
#99 = VERTEX_POINT ( 'NONE', #1081 ) ;
#100 = ORIENTED_EDGE ( 'NONE', *, *, #929, .F. ) ;
#101 = VECTOR ( 'NONE', #488, 1000.000000000000000 ) ;
#102 = CARTESIAN_POINT ( 'NONE',  ( 0.4999999999999998890, 0.3999999999999999112, 0.3000000000000000444 ) ) ;
#103 = DIRECTION ( 'NONE',  ( 1.000000000000000000, 0.0000000000000000000, 1.355252715606880296E-16 ) ) ;
#104 = VECTOR ( 'NONE', #888, 1000.000000000000000 ) ;
#105 = EDGE_CURVE ( 'NONE', #912, #986, #1174, .T. ) ;
#106 = CARTESIAN_POINT ( 'NONE',  ( -0.6799999999999998268, 0.3999999999999999667, 0.4000000000000000222 ) ) ;
#107 = CARTESIAN_POINT ( 'NONE',  ( -0.4999999999999998890, 0.4000000000000000222, 0.4000000000000000222 ) ) ;
#108 = DIRECTION ( 'NONE',  ( -0.0000000000000000000, -0.0000000000000000000, 1.000000000000000000 ) ) ;
#109 = CARTESIAN_POINT ( 'NONE',  ( 0.6799999999999998268, -0.001000000000000186937, 0.4000000000000000222 ) ) ;
#110 = DIRECTION ( 'NONE',  ( -1.000000000000000000, 0.0000000000000000000, 2.891205793294678326E-16 ) ) ;
#111 = FACE_OUTER_BOUND ( 'NONE', #274, .T. ) ;
#112 = UNCERTAINTY_MEASURE_WITH_UNIT (LENGTH_MEASURE( 1.000000000000000082E-05 ), #603, 'distance_accuracy_value', 'NONE');
#113 = ORIENTED_EDGE ( 'NONE', *, *, #255, .T. ) ;
#114 = CARTESIAN_POINT ( 'NONE',  ( 1.576560977094069615, 0.4500000000000000666, -0.4000000000000006328 ) ) ;
#115 = EDGE_LOOP ( 'NONE', ( #682, #998, #60, #98 ) ) ;
#116 = EDGE_CURVE ( 'NONE', #272, #1152, #1105, .T. ) ;
#117 = CARTESIAN_POINT ( 'NONE',  ( 0.6799999999999998268, 0.3999999999999999112, 0.3000000000000000444 ) ) ;
#118 = CARTESIAN_POINT ( 'NONE',  ( 0.8000000000000003775, -1.355252715606880543E-16, 0.3999999999999997446 ) ) ;
#119 = ORIENTED_EDGE ( 'NONE', *, *, #1090, .F. ) ;
#120 = ORIENTED_EDGE ( 'NONE', *, *, #728, .T. ) ;
#121 = VECTOR ( 'NONE', #1029, 1000.000000000000000 ) ;
#122 = CARTESIAN_POINT ( 'NONE',  ( 0.4999999999999997780, 0.04999999999999989175, -0.4000000000000004108 ) ) ;
#123 = PRODUCT_DEFINITION_CONTEXT ( 'detailed design', #694, 'design' ) ;
#124 = VECTOR ( 'NONE', #760, 1000.000000000000000 ) ;
#125 = LINE ( 'NONE', #1112, #1145 ) ;
#126 = ORIENTED_EDGE ( 'NONE', *, *, #723, .T. ) ;
#127 = DIRECTION ( 'NONE',  ( -1.000000000000000000, 0.0000000000000000000, -1.355252715606880296E-16 ) ) ;
#128 = ORIENTED_EDGE ( 'NONE', *, *, #895, .F. ) ;
#129 = EDGE_CURVE ( 'NONE', #1017, #475, #638, .T. ) ;
#130 = ADVANCED_FACE ( 'NONE', ( #593 ), #136, .F. ) ;
#131 = ORIENTED_EDGE ( 'NONE', *, *, #1173, .T. ) ;
#132 = DIRECTION ( 'NONE',  ( 2.409338161078898687E-16, -1.000000000000000000, -6.965892449317258658E-32 ) ) ;
#133 = LINE ( 'NONE', #1053, #325 ) ;
#134 = LINE ( 'NONE', #447, #1114 ) ;
#135 = DIRECTION ( 'NONE',  ( -2.891205793294678326E-16, 1.084202172485501673E-15, -1.000000000000000000 ) ) ;
#136 = PLANE ( 'NONE',  #317 ) ;
#137 = DIRECTION ( 'NONE',  ( 1.000000000000000000, 1.242314989306307082E-16, 0.0000000000000000000 ) ) ;
#138 = EDGE_CURVE ( 'NONE', #1219, #699, #83, .T. ) ;
#139 = LINE ( 'NONE', #976, #332 ) ;
#140 = CARTESIAN_POINT ( 'NONE',  ( -0.4999999999999997780, 0.4500000000000000666, -0.4000000000000001887 ) ) ;
#141 = VECTOR ( 'NONE', #396, 1000.000000000000000 ) ;
#142 = VERTEX_POINT ( 'NONE', #784 ) ;
#143 = AXIS2_PLACEMENT_3D ( 'NONE', #366, #736, #84 ) ;
#144 =( NAMED_UNIT ( * ) SI_UNIT ( $, .STERADIAN. ) SOLID_ANGLE_UNIT ( ) );
#145 = EDGE_CURVE ( 'NONE', #652, #648, #139, .T. ) ;
#146 = ORIENTED_EDGE ( 'NONE', *, *, #512, .T. ) ;
#147 = LINE ( 'NONE', #660, #684 ) ;
#148 = CARTESIAN_POINT ( 'NONE',  ( -0.7999999999999999334, 0.4500000000000000666, -0.4000000000000001332 ) ) ;
#149 =( GEOMETRIC_REPRESENTATION_CONTEXT ( 3 ) GLOBAL_UNCERTAINTY_ASSIGNED_CONTEXT ( ( #1156 ) ) GLOBAL_UNIT_ASSIGNED_CONTEXT ( ( #55, #424, #49 ) ) REPRESENTATION_CONTEXT ( 'NONE', 'WORKASPACE' ) );
#150 = CARTESIAN_POINT ( 'NONE',  ( 0.6799999999999998268, -0.001000000000000186937, -0.2999999999999996003 ) ) ;
#151 = EDGE_CURVE ( 'NONE', #62, #759, #1132, .T. ) ;
#152 = ADVANCED_FACE ( 'NONE', ( #111 ), #987, .F. ) ;
#153 = FACE_OUTER_BOUND ( 'NONE', #115, .T. ) ;
#154 = ORIENTED_EDGE ( 'NONE', *, *, #172, .T. ) ;
#155 = ORIENTED_EDGE ( 'NONE', *, *, #539, .T. ) ;
#156 = ORIENTED_EDGE ( 'NONE', *, *, #933, .T. ) ;
#157 = CARTESIAN_POINT ( 'NONE',  ( 0.8000000000000001554, -1.626303258728256651E-16, 0.3999999999999998002 ) ) ;
#158 = EDGE_CURVE ( 'NONE', #911, #338, #831, .T. ) ;
#159 = CARTESIAN_POINT ( 'NONE',  ( -0.5000000000000000000, 0.4500000000000000666, 0.4000000000000000222 ) ) ;
#160 = FACE_OUTER_BOUND ( 'NONE', #20, .T. ) ;
#161 = VECTOR ( 'NONE', #710, 1000.000000000000000 ) ;
#162 =( NAMED_UNIT ( * ) PLANE_ANGLE_UNIT ( ) SI_UNIT ( $, .RADIAN. ) );
#163 = CARTESIAN_POINT ( 'NONE',  ( -0.4999999999999997780, 0.4500000000000000666, -0.3000000000000003220 ) ) ;
#164 = VECTOR ( 'NONE', #883, 1000.000000000000000 ) ;
#165 = CARTESIAN_POINT ( 'NONE',  ( -0.7499999999999997780, 0.05000000000000000278, -0.4000000000000001332 ) ) ;
#166 = EDGE_CURVE ( 'NONE', #58, #566, #352, .T. ) ;
#167 = LINE ( 'NONE', #1189, #1159 ) ;
#168 = ORIENTED_EDGE ( 'NONE', *, *, #1184, .F. ) ;
#169 = ORIENTED_EDGE ( 'NONE', *, *, #1026, .F. ) ;
#170 = EDGE_LOOP ( 'NONE', ( #367, #718, #906, #120, #87, #498, #772, #899 ) ) ;
#171 = ORIENTED_EDGE ( 'NONE', *, *, #1110, .F. ) ;
#172 = EDGE_CURVE ( 'NONE', #939, #953, #661, .T. ) ;
#173 = FACE_OUTER_BOUND ( 'NONE', #219, .T. ) ;
#174 = PLANE ( 'NONE',  #849 ) ;
#175 = AXIS2_PLACEMENT_3D ( 'NONE', #938, #376, #1038 ) ;
#176 = DIRECTION ( 'NONE',  ( -1.000000000000000000, 0.0000000000000000000, 0.0000000000000000000 ) ) ;
#177 = VECTOR ( 'NONE', #878, 1000.000000000000000 ) ;
#178 = ORIENTED_EDGE ( 'NONE', *, *, #975, .F. ) ;
#179 = ORIENTED_EDGE ( 'NONE', *, *, #1210, .F. ) ;
#180 = DIRECTION ( 'NONE',  ( -2.409338161078898687E-16, -1.000000000000000000, 0.0000000000000000000 ) ) ;
#181 = PLANE ( 'NONE',  #649 ) ;
#182 = ORIENTED_EDGE ( 'NONE', *, *, #478, .F. ) ;
#183 = ORIENTED_EDGE ( 'NONE', *, *, #870, .T. ) ;
#184 = LINE ( 'NONE', #50, #915 ) ;
#185 = EDGE_CURVE ( 'NONE', #809, #865, #395, .T. ) ;
#186 = AXIS2_PLACEMENT_3D ( 'NONE', #1115, #548, #1213 ) ;
#187 = CARTESIAN_POINT ( 'NONE',  ( -0.6799999999999996048, 0.4000000000000000222, -0.4000000000000001887 ) ) ;
#188 = SURFACE_STYLE_FILL_AREA ( #3 ) ;
#189 = CARTESIAN_POINT ( 'NONE',  ( -0.7500000000000001110, 0.04999999999999985706, -0.4000000000000002442 ) ) ;
#190 = VECTOR ( 'NONE', #321, 1000.000000000000000 ) ;
#191 = EDGE_CURVE ( 'NONE', #475, #338, #167, .T. ) ;
#192 = ORIENTED_EDGE ( 'NONE', *, *, #255, .F. ) ;
#193 = PLANE ( 'NONE',  #1157 ) ;
#194 = CARTESIAN_POINT ( 'NONE',  ( 0.7499999999999998890, 0.05000000000000018319, -0.4000000000000004108 ) ) ;
#195 = UNCERTAINTY_MEASURE_WITH_UNIT (LENGTH_MEASURE( 1.000000000000000082E-05 ), #944, 'distance_accuracy_value', 'NONE');
#196 = EDGE_LOOP ( 'NONE', ( #1123, #774, #453, #320 ) ) ;
#197 = DIRECTION ( 'NONE',  ( -1.000000000000000000, 0.0000000000000000000, 1.084202172485504434E-16 ) ) ;
#198 = DIRECTION ( 'NONE',  ( -1.000000000000000000, 0.0000000000000000000, 1.355252715606880543E-16 ) ) ;
#199 = ORIENTED_EDGE ( 'NONE', *, *, #556, .F. ) ;
#200 = DIRECTION ( 'NONE',  ( 0.0000000000000000000, 0.0000000000000000000, -1.000000000000000000 ) ) ;
#201 = DIRECTION ( 'NONE',  ( 2.891205793294678326E-16, -1.355252715606880296E-16, 1.000000000000000000 ) ) ;
#202 = AXIS2_PLACEMENT_3D ( 'NONE', #1049, #769, #961 ) ;
#203 = DIRECTION ( 'NONE',  ( 1.355252715606880543E-16, 0.0000000000000000000, 1.000000000000000000 ) ) ;
#204 = EDGE_CURVE ( 'NONE', #676, #318, #564, .T. ) ;
#205 = CARTESIAN_POINT ( 'NONE',  ( -1.576560977094069838, 0.4500000000000000666, -0.4000000000000001887 ) ) ;
#206 = DIRECTION ( 'NONE',  ( -1.000000000000000000, 0.0000000000000000000, 0.0000000000000000000 ) ) ;
#207 = CARTESIAN_POINT ( 'NONE',  ( 0.7499999999999998890, 0.4000000000000000777, -0.4000000000000004108 ) ) ;
#208 = LINE ( 'NONE', #811, #675 ) ;
#209 = PRODUCT_DEFINITION ( 'UNKNOWN', '', #275, #123 ) ;
#210 = CLOSED_SHELL ( 'NONE', ( #882, #1007, #538, #523, #609, #225, #337, #717, #1177, #1082, #1172, #897, #1073, #622 ) ) ;
#211 = DIRECTION ( 'NONE',  ( 1.000000000000000000, 1.242314989306307082E-16, 0.0000000000000000000 ) ) ;
#212 = VECTOR ( 'NONE', #777, 1000.000000000000000 ) ;
#213 = ORIENTED_EDGE ( 'NONE', *, *, #24, .T. ) ;
#214 = EDGE_CURVE ( 'NONE', #384, #676, #95, .T. ) ;
#215 = EDGE_LOOP ( 'NONE', ( #1034, #251, #1149, #664 ) ) ;
#216 = ORIENTED_EDGE ( 'NONE', *, *, #51, .T. ) ;
#217 = CARTESIAN_POINT ( 'NONE',  ( -0.7499999999999997780, 0.05000000000000000278, 0.4000000000000000222 ) ) ;
#218 = EDGE_LOOP ( 'NONE', ( #1161, #745, #369, #450 ) ) ;
#219 = EDGE_LOOP ( 'NONE', ( #353, #1091, #1199, #155 ) ) ;
#220 = LINE ( 'NONE', #640, #901 ) ;
#221 = DIRECTION ( 'NONE',  ( 2.409338161078898687E-16, -1.000000000000000000, -6.965892449317258658E-32 ) ) ;
#222 = LINE ( 'NONE', #1204, #687 ) ;
#223 = DIRECTION ( 'NONE',  ( -0.0000000000000000000, -1.000000000000000000, -0.0000000000000000000 ) ) ;
#224 = CARTESIAN_POINT ( 'NONE',  ( -0.7500000000000000000, 0.4000000000000000222, -0.4000000000000002998 ) ) ;
#225 = ADVANCED_FACE ( 'NONE', ( #229 ), #908, .F. ) ;
#226 = EDGE_CURVE ( 'NONE', #475, #809, #857, .T. ) ;
#227 = CARTESIAN_POINT ( 'NONE',  ( -0.7999999999999999334, 0.4500000000000000666, 0.4000000000000000222 ) ) ;
#228 = LINE ( 'NONE', #1163, #1205 ) ;
#229 = FACE_OUTER_BOUND ( 'NONE', #170, .T. ) ;
#230 = STYLED_ITEM ( 'NONE', ( #71 ), #330 ) ;
#231 = ORIENTED_EDGE ( 'NONE', *, *, #1056, .T. ) ;
#232 = LINE ( 'NONE', #1069, #1076 ) ;
#233 = DIRECTION ( 'NONE',  ( 0.0000000000000000000, 0.0000000000000000000, -1.000000000000000000 ) ) ;
#234 = ORIENTED_EDGE ( 'NONE', *, *, #15, .T. ) ;
#235 = EDGE_CURVE ( 'NONE', #566, #648, #125, .T. ) ;
#236 = FILL_AREA_STYLE ('',( #1186 ) ) ;
#237 = ORIENTED_EDGE ( 'NONE', *, *, #692, .F. ) ;
#238 = CARTESIAN_POINT ( 'NONE',  ( -0.4999999999999997780, 0.3999999999999999112, 0.3000000000000000444 ) ) ;
#239 = LINE ( 'NONE', #751, #959 ) ;
#240 = CARTESIAN_POINT ( 'NONE',  ( -0.4999999999999998890, 0.3999999999999999112, 0.3000000000000000444 ) ) ;
#241 = CARTESIAN_POINT ( 'NONE',  ( 0.6799999999999998268, 0.4500000000000000666, 0.4000000000000000222 ) ) ;
#242 = EDGE_CURVE ( 'NONE', #1137, #504, #1072, .T. ) ;
#243 = ADVANCED_FACE ( 'NONE', ( #153 ), #525, .F. ) ;
#244 = DIRECTION ( 'NONE',  ( -1.000000000000000000, -2.168404344971003346E-15, -1.355252715606880296E-16 ) ) ;
#245 = CARTESIAN_POINT ( 'NONE',  ( 0.7500000000000002220, 0.05000000000000000278, 0.4000000000000000222 ) ) ;
#246 = ORIENTED_EDGE ( 'NONE', *, *, #242, .T. ) ;
#247 = ORIENTED_EDGE ( 'NONE', *, *, #485, .T. ) ;
#248 = VERTEX_POINT ( 'NONE', #257 ) ;
#249 = ADVANCED_FACE ( 'NONE', ( #950 ), #623, .F. ) ;
#250 = EDGE_LOOP ( 'NONE', ( #862, #597, #490, #966, #397, #737, #199, #128 ) ) ;
#251 = ORIENTED_EDGE ( 'NONE', *, *, #151, .T. ) ;
#252 = PLANE ( 'NONE',  #61 ) ;
#253 = DIRECTION ( 'NONE',  ( 2.168404344971003346E-15, 1.000000000000000000, 2.938735877055710888E-31 ) ) ;
#254 = CARTESIAN_POINT ( 'NONE',  ( -0.6799999999999998268, -0.001000000000000186937, 0.4000000000000000222 ) ) ;
#255 = EDGE_CURVE ( 'NONE', #58, #248, #365, .T. ) ;
#256 = EDGE_CURVE ( 'NONE', #758, #911, #1042, .T. ) ;
#257 = CARTESIAN_POINT ( 'NONE',  ( 0.4999999999999998890, 0.4500000000000000666, -0.2999999999999997113 ) ) ;
#258 = DIRECTION ( 'NONE',  ( -0.0000000000000000000, -0.0000000000000000000, 1.000000000000000000 ) ) ;
#259 = EDGE_LOOP ( 'NONE', ( #1004, #400, #340, #844 ) ) ;
#260 = VECTOR ( 'NONE', #1154, 1000.000000000000000 ) ;
#261 = ORIENTED_EDGE ( 'NONE', *, *, #545, .T. ) ;
#262 = CARTESIAN_POINT ( 'NONE',  ( 0.6799999999999998268, -0.001000000000000186937, 0.3000000000000000444 ) ) ;
#263 = EDGE_CURVE ( 'NONE', #720, #832, #1121, .T. ) ;
#264 = CARTESIAN_POINT ( 'NONE',  ( 0.5000000000000000000, 0.4500000000000056732, 0.4000000000000001887 ) ) ;
#265 = VECTOR ( 'NONE', #924, 1000.000000000000000 ) ;
#266 = MANIFOLD_SOLID_BREP ( 'Extruir3', #59 ) ;
#267 = CARTESIAN_POINT ( 'NONE',  ( -0.7499999999999997780, 0.4000000000000000222, 0.4000000000000001332 ) ) ;
#268 = LINE ( 'NONE', #262, #19 ) ;
#269 = VERTEX_POINT ( 'NONE', #148 ) ;
#270 = COLOUR_RGB ( '',0.7960784313725489669, 0.8235294117647058432, 0.9372549019607843146 ) ;
#271 = VECTOR ( 'NONE', #969, 1000.000000000000000 ) ;
#272 = VERTEX_POINT ( 'NONE', #818 ) ;
#273 = CARTESIAN_POINT ( 'NONE',  ( -0.8000000000000000444, -1.626303258728256651E-16, -0.4000000000000001332 ) ) ;
#274 = EDGE_LOOP ( 'NONE', ( #582, #113, #1062, #306 ) ) ;
#275 = PRODUCT_DEFINITION_FORMATION_WITH_SPECIFIED_SOURCE ( 'ANY', '', #560, .NOT_KNOWN. ) ;
#276 = EDGE_LOOP ( 'NONE', ( #747, #288, #1108, #1003 ) ) ;
#277 = EDGE_CURVE ( 'NONE', #795, #534, #461, .T. ) ;
#278 = LINE ( 'NONE', #756, #881 ) ;
#279 = PLANE ( 'NONE',  #1071 ) ;
#280 = PLANE ( 'NONE',  #711 ) ;
#281 =( GEOMETRIC_REPRESENTATION_CONTEXT ( 3 ) GLOBAL_UNCERTAINTY_ASSIGNED_CONTEXT ( ( #990 ) ) GLOBAL_UNIT_ASSIGNED_CONTEXT ( ( #64, #902, #144 ) ) REPRESENTATION_CONTEXT ( 'NONE', 'WORKASPACE' ) );
#282 = EDGE_CURVE ( 'NONE', #318, #1152, #208, .T. ) ;
#283 = LINE ( 'NONE', #494, #32 ) ;
#284 = DIRECTION ( 'NONE',  ( 0.0000000000000000000, 0.0000000000000000000, -1.000000000000000000 ) ) ;
#285 = DIRECTION ( 'NONE',  ( -2.710505431213760592E-16, -0.0000000000000000000, 1.000000000000000000 ) ) ;
#286 = VECTOR ( 'NONE', #1171, 1000.000000000000000 ) ;
#287 = VECTOR ( 'NONE', #956, 1000.000000000000000 ) ;
#288 = ORIENTED_EDGE ( 'NONE', *, *, #782, .F. ) ;
#289 = CARTESIAN_POINT ( 'NONE',  ( -0.6799999999999996048, 0.4000000000000000222, -0.3000000000000003775 ) ) ;
#290 = PLANE ( 'NONE',  #469 ) ;
#291 = PLANE ( 'NONE',  #584 ) ;
#292 = FACE_OUTER_BOUND ( 'NONE', #1113, .T. ) ;
#293 = LINE ( 'NONE', #522, #362 ) ;
#294 = AXIS2_PLACEMENT_3D ( 'NONE', #5, #636, #103 ) ;
#295 = DIRECTION ( 'NONE',  ( -0.0000000000000000000, 1.000000000000000000, -0.0000000000000000000 ) ) ;
#296 = PLANE ( 'NONE',  #401 ) ;
#297 = CARTESIAN_POINT ( 'NONE',  ( -0.8000000000000002665, -1.355252715606880543E-16, 0.3999999999999999667 ) ) ;
#298 = CARTESIAN_POINT ( 'NONE',  ( -0.8000000000000000444, -1.626303258728256651E-16, -0.4000000000000001332 ) ) ;
#299 = LINE ( 'NONE', #39, #770 ) ;
#300 = EDGE_CURVE ( 'NONE', #676, #58, #443, .T. ) ;
#301 = VERTEX_POINT ( 'NONE', #1187 ) ;
#302 = CARTESIAN_POINT ( 'NONE',  ( 0.8000000000000001554, -1.626303258728256651E-16, 0.3999999999999998002 ) ) ;
#303 = ORIENTED_EDGE ( 'NONE', *, *, #665, .F. ) ;
#304 = EDGE_LOOP ( 'NONE', ( #213, #154, #216, #653 ) ) ;
#305 = MANIFOLD_SOLID_BREP ( 'Extruir5[1]', #210 ) ;
#306 = ORIENTED_EDGE ( 'NONE', *, *, #204, .F. ) ;
#307 = ORIENTED_EDGE ( 'NONE', *, *, #1192, .T. ) ;
#308 = AXIS2_PLACEMENT_3D ( 'NONE', #781, #434, #510 ) ;
#309 = PLANE ( 'NONE',  #980 ) ;
#310 = FACE_OUTER_BOUND ( 'NONE', #1021, .T. ) ;
#311 = CARTESIAN_POINT ( 'NONE',  ( -0.4999999999999996669, 0.4000000000000000222, -0.3000000000000002665 ) ) ;
#312 = ADVANCED_FACE ( 'NONE', ( #819 ), #571, .F. ) ;
#313 = AXIS2_PLACEMENT_3D ( 'NONE', #892, #884, #335 ) ;
#314 = VECTOR ( 'NONE', #544, 1000.000000000000000 ) ;
#315 = PLANE ( 'NONE',  #444 ) ;
#316 = ORIENTED_EDGE ( 'NONE', *, *, #829, .T. ) ;
#317 = AXIS2_PLACEMENT_3D ( 'NONE', #30, #683, #127 ) ;
#318 = VERTEX_POINT ( 'NONE', #726 ) ;
#319 = CARTESIAN_POINT ( 'NONE',  ( 0.4999999999999997780, 0.05000000000000032196, -0.4000000000000003553 ) ) ;
#320 = ORIENTED_EDGE ( 'NONE', *, *, #995, .F. ) ;
#321 = DIRECTION ( 'NONE',  ( 1.355252715606880296E-16, 0.0000000000000000000, -1.000000000000000000 ) ) ;
#322 = DIRECTION ( 'NONE',  ( 0.0000000000000000000, 0.0000000000000000000, 1.000000000000000000 ) ) ;
#323 = ADVANCED_FACE ( 'NONE', ( #526 ), #290, .F. ) ;
#324 = VERTEX_POINT ( 'NONE', #532 ) ;
#325 = VECTOR ( 'NONE', #380, 1000.000000000000000 ) ;
#326 = LINE ( 'NONE', #48, #1203 ) ;
#327 = EDGE_CURVE ( 'NONE', #907, #1221, #979, .T. ) ;
#328 = APPLICATION_CONTEXT ( 'automotive_design' ) ;
#329 = DIRECTION ( 'NONE',  ( 1.000000000000000000, -0.0000000000000000000, 6.023345402697248937E-16 ) ) ;
#330 = ADVANCED_BREP_SHAPE_REPRESENTATION ( 'User Library-CR1608-0603', ( #266, #704, #305, #1188, #313 ), #149 ) ;
#331 = DIRECTION ( 'NONE',  ( -1.000000000000000000, -2.409338161078898687E-16, 1.535953077687797784E-16 ) ) ;
#332 = VECTOR ( 'NONE', #417, 1000.000000000000000 ) ;
#333 = ORIENTED_EDGE ( 'NONE', *, *, #256, .F. ) ;
#334 = PRESENTATION_STYLE_ASSIGNMENT (( #491 ) ) ;
#335 = DIRECTION ( 'NONE',  ( 1.000000000000000000, 0.0000000000000000000, 0.0000000000000000000 ) ) ;
#336 = CARTESIAN_POINT ( 'NONE',  ( 0.6799999999999998268, 0.4000000000000000222, -0.2999999999999996003 ) ) ;
#337 = ADVANCED_FACE ( 'NONE', ( #592 ), #280, .F. ) ;
#338 = VERTEX_POINT ( 'NONE', #842 ) ;
#339 = VERTEX_POINT ( 'NONE', #1040 ) ;
#340 = ORIENTED_EDGE ( 'NONE', *, *, #995, .T. ) ;
#341 = ORIENTED_EDGE ( 'NONE', *, *, #429, .F. ) ;
#342 = DIRECTION ( 'NONE',  ( 4.336808689942018525E-15, -0.0000000000000000000, -1.000000000000000000 ) ) ;
#343 = DIRECTION ( 'NONE',  ( -1.000000000000000000, -2.168404344971003346E-15, 0.0000000000000000000 ) ) ;
#344 = VECTOR ( 'NONE', #1139, 1000.000000000000000 ) ;
#345 = LINE ( 'NONE', #57, #455 ) ;
#346 = ADVANCED_FACE ( 'NONE', ( #1131 ), #181, .F. ) ;
#347 = DIRECTION ( 'NONE',  ( -0.0000000000000000000, 1.000000000000000000, -0.0000000000000000000 ) ) ;
#348 = EDGE_CURVE ( 'NONE', #1223, #836, #4, .T. ) ;
#349 = DIRECTION ( 'NONE',  ( 0.0000000000000000000, 0.0000000000000000000, 1.000000000000000000 ) ) ;
#350 = VECTOR ( 'NONE', #451, 1000.000000000000000 ) ;
#351 = DIRECTION ( 'NONE',  ( -1.000000000000000000, 0.0000000000000000000, 1.445602896647339163E-16 ) ) ;
#352 = LINE ( 'NONE', #47, #410 ) ;
#353 = ORIENTED_EDGE ( 'NONE', *, *, #813, .T. ) ;
#354 = AXIS2_PLACEMENT_3D ( 'NONE', #916, #452, #351 ) ;
#355 = ORIENTED_EDGE ( 'NONE', *, *, #277, .T. ) ;
#356 = DIRECTION ( 'NONE',  ( -4.336808689942018525E-15, -1.355252715606880296E-16, 1.000000000000000000 ) ) ;
#357 = EDGE_CURVE ( 'NONE', #615, #758, #69, .T. ) ;
#358 = SURFACE_STYLE_USAGE ( .BOTH. , #722 ) ;
#359 = VERTEX_POINT ( 'NONE', #853 ) ;
#360 = FACE_OUTER_BOUND ( 'NONE', #23, .T. ) ;
#361 = SURFACE_STYLE_USAGE ( .BOTH. , #446 ) ;
#362 = VECTOR ( 'NONE', #519, 1000.000000000000000 ) ;
#363 = DIRECTION ( 'NONE',  ( -1.000000000000000000, 0.0000000000000000000, -0.0000000000000000000 ) ) ;
#364 = DIRECTION ( 'NONE',  ( -2.168404344971003346E-15, -1.000000000000000000, 6.269303204385517027E-31 ) ) ;
#365 = LINE ( 'NONE', #68, #1206 ) ;
#366 = CARTESIAN_POINT ( 'NONE',  ( -0.7500000000000001110, 0.04999999999999985706, -0.4000000000000002442 ) ) ;
#367 = ORIENTED_EDGE ( 'NONE', *, *, #465, .T. ) ;
#368 = ORIENTED_EDGE ( 'NONE', *, *, #577, .T. ) ;
#369 = ORIENTED_EDGE ( 'NONE', *, *, #826, .F. ) ;
#370 = EDGE_CURVE ( 'NONE', #1030, #1031, #486, .T. ) ;
#371 = DIRECTION ( 'NONE',  ( 2.409338161078898687E-16, -1.000000000000000000, -6.965892449317258658E-32 ) ) ;
#372 = ORIENTED_EDGE ( 'NONE', *, *, #191, .F. ) ;
#373 = ORIENTED_EDGE ( 'NONE', *, *, #692, .T. ) ;
#374 = LINE ( 'NONE', #1198, #1127 ) ;
#375 = CARTESIAN_POINT ( 'NONE',  ( 0.5000000000000000000, 0.05000000000000000278, 0.3999999999999997446 ) ) ;
#376 = DIRECTION ( 'NONE',  ( -0.0000000000000000000, 0.0000000000000000000, -1.000000000000000000 ) ) ;
#377 = VECTOR ( 'NONE', #285, 1000.000000000000000 ) ;
#378 = LINE ( 'NONE', #705, #922 ) ;
#379 = ORIENTED_EDGE ( 'NONE', *, *, #145, .T. ) ;
#380 = DIRECTION ( 'NONE',  ( -1.000000000000000000, -2.168404344971003346E-15, -1.355252715606880296E-16 ) ) ;
#381 = DIRECTION ( 'NONE',  ( 1.000000000000000000, 0.0000000000000000000, -1.084202172485504434E-16 ) ) ;
#382 = VERTEX_POINT ( 'NONE', #757 ) ;
#383 = ORIENTED_EDGE ( 'NONE', *, *, #1216, .T. ) ;
#384 = VERTEX_POINT ( 'NONE', #390 ) ;
#385 = AXIS2_PLACEMENT_3D ( 'NONE', #767, #662, #201 ) ;
#386 = VERTEX_POINT ( 'NONE', #735 ) ;
#387 = LINE ( 'NONE', #852, #991 ) ;
#388 = CARTESIAN_POINT ( 'NONE',  ( -1.576560977094070060, 0.4000000000000000222, -0.4000000000000001887 ) ) ;
#389 = LINE ( 'NONE', #635, #79 ) ;
#390 = CARTESIAN_POINT ( 'NONE',  ( 0.6800000000000002709, 0.4000000000000000777, -0.3999999999999995781 ) ) ;
#391 = FILL_AREA_STYLE_COLOUR ( '', #37 ) ;
#392 = EDGE_CURVE ( 'NONE', #301, #504, #935, .T. ) ;
#393 = DIRECTION ( 'NONE',  ( -1.242314989306307082E-16, 1.000000000000000000, 0.0000000000000000000 ) ) ;
#394 = DIRECTION ( 'NONE',  ( -2.891205793294678326E-16, 0.0000000000000000000, -1.000000000000000000 ) ) ;
#395 = LINE ( 'NONE', #689, #875 ) ;
#396 = DIRECTION ( 'NONE',  ( -1.000000000000000000, 1.242314989306307082E-16, 2.891205793294678326E-16 ) ) ;
#397 = ORIENTED_EDGE ( 'NONE', *, *, #1090, .T. ) ;
#398 =( NAMED_UNIT ( * ) PLANE_ANGLE_UNIT ( ) SI_UNIT ( $, .RADIAN. ) );
#399 = FACE_OUTER_BOUND ( 'NONE', #530, .T. ) ;
#400 = ORIENTED_EDGE ( 'NONE', *, *, #577, .F. ) ;
#401 = AXIS2_PLACEMENT_3D ( 'NONE', #854, #27, #406 ) ;
#402 = ORIENTED_EDGE ( 'NONE', *, *, #409, .T. ) ;
#403 = LINE ( 'NONE', #533, #1036 ) ;
#404 = DIRECTION ( 'NONE',  ( 2.409338161078898687E-16, -1.000000000000000000, -6.965892449317258658E-32 ) ) ;
#405 = FACE_OUTER_BOUND ( 'NONE', #779, .T. ) ;
#406 = DIRECTION ( 'NONE',  ( 2.168404344971003346E-15, -1.000000000000000000, 0.0000000000000000000 ) ) ;
#407 = MECHANICAL_DESIGN_GEOMETRIC_PRESENTATION_REPRESENTATION (  '', ( #524 ), #456 ) ;
#408 = PLANE ( 'NONE',  #1179 ) ;
#409 = EDGE_CURVE ( 'NONE', #1195, #1137, #840, .T. ) ;
#410 = VECTOR ( 'NONE', #422, 1000.000000000000000 ) ;
#411 = ORIENTED_EDGE ( 'NONE', *, *, #86, .F. ) ;
#412 = PLANE ( 'NONE',  #385 ) ;
#413 = DIRECTION ( 'NONE',  ( -0.0000000000000000000, 1.000000000000000000, -0.0000000000000000000 ) ) ;
#414 = ADVANCED_FACE ( 'NONE', ( #740 ), #1050, .F. ) ;
#415 = ORIENTED_EDGE ( 'NONE', *, *, #1151, .T. ) ;
#416 = ORIENTED_EDGE ( 'NONE', *, *, #263, .F. ) ;
#417 = DIRECTION ( 'NONE',  ( -1.000000000000000000, -0.0000000000000000000, -0.0000000000000000000 ) ) ;
#418 = DIRECTION ( 'NONE',  ( 2.409338161078898687E-16, 1.000000000000000000, 0.0000000000000000000 ) ) ;
#419 = EDGE_CURVE ( 'NONE', #493, #1200, #693, .T. ) ;
#420 = LINE ( 'NONE', #785, #161 ) ;
#421 = APPLICATION_PROTOCOL_DEFINITION ( 'draft international standard', 'automotive_design', 1998, #328 ) ;
#422 = DIRECTION ( 'NONE',  ( 1.535953077687798030E-16, -1.355252715606880296E-16, 1.000000000000000000 ) ) ;
#423 = DIRECTION ( 'NONE',  ( -2.409338161078898687E-16, 1.000000000000000000, 6.965892449317258658E-32 ) ) ;
#424 =( NAMED_UNIT ( * ) PLANE_ANGLE_UNIT ( ) SI_UNIT ( $, .RADIAN. ) );
#425 = DIRECTION ( 'NONE',  ( -1.000000000000000000, 0.0000000000000000000, 2.891205793294678326E-16 ) ) ;
#426 = VECTOR ( 'NONE', #1176, 1000.000000000000000 ) ;
#427 = ADVANCED_FACE ( 'NONE', ( #541 ), #872, .T. ) ;
#428 = ORIENTED_EDGE ( 'NONE', *, *, #929, .T. ) ;
#429 = EDGE_CURVE ( 'NONE', #833, #1195, #283, .T. ) ;
#430 = ORIENTED_EDGE ( 'NONE', *, *, #850, .F. ) ;
#431 = ORIENTED_EDGE ( 'NONE', *, *, #639, .F. ) ;
#432 = APPLICATION_PROTOCOL_DEFINITION ( 'draft international standard', 'automotive_design', 1998, #694 ) ;
#433 = DIRECTION ( 'NONE',  ( -2.891205793294678326E-16, -1.355252715606880543E-16, -1.000000000000000000 ) ) ;
#434 = DIRECTION ( 'NONE',  ( -1.000000000000000000, 2.409338161078898687E-16, 0.0000000000000000000 ) ) ;
#435 = ORIENTED_EDGE ( 'NONE', *, *, #86, .T. ) ;
#436 = FACE_OUTER_BOUND ( 'NONE', #1002, .T. ) ;
#437 =( NAMED_UNIT ( * ) SI_UNIT ( $, .STERADIAN. ) SOLID_ANGLE_UNIT ( ) );
#438 = CARTESIAN_POINT ( 'NONE',  ( 0.6799999999999998268, 0.3999999999999999112, 0.3999999999999998002 ) ) ;
#439 = DIRECTION ( 'NONE',  ( 0.0000000000000000000, 1.084202172485501673E-15, -1.000000000000000000 ) ) ;
#440 = EDGE_CURVE ( 'NONE', #339, #1195, #1218, .T. ) ;
#441 = CARTESIAN_POINT ( 'NONE',  ( 0.4999999999999998890, 0.4000000000000000222, -0.2999999999999997113 ) ) ;
#442 = DIRECTION ( 'NONE',  ( -0.0000000000000000000, -1.000000000000000000, -0.0000000000000000000 ) ) ;
#443 = LINE ( 'NONE', #441, #350 ) ;
#444 = AXIS2_PLACEMENT_3D ( 'NONE', #982, #599, #34 ) ;
#445 = VECTOR ( 'NONE', #356, 1000.000000000000000 ) ;
#446 = SURFACE_SIDE_STYLE ('',( #981 ) ) ;
#447 = CARTESIAN_POINT ( 'NONE',  ( -1.576560977094070060, 0.4500000000000000666, 0.4000000000000000222 ) ) ;
#448 = VERTEX_POINT ( 'NONE', #861 ) ;
#449 = ORIENTED_EDGE ( 'NONE', *, *, #459, .F. ) ;
#450 = ORIENTED_EDGE ( 'NONE', *, *, #782, .T. ) ;
#451 = DIRECTION ( 'NONE',  ( -1.000000000000000000, 1.208146971678462185E-31, -6.023345402697248937E-16 ) ) ;
#452 = DIRECTION ( 'NONE',  ( -1.445602896647339163E-16, 0.0000000000000000000, -1.000000000000000000 ) ) ;
#453 = ORIENTED_EDGE ( 'NONE', *, *, #478, .T. ) ;
#454 = FACE_OUTER_BOUND ( 'NONE', #304, .T. ) ;
#455 = VECTOR ( 'NONE', #630, 1000.000000000000000 ) ;
#456 =( GEOMETRIC_REPRESENTATION_CONTEXT ( 3 ) GLOBAL_UNCERTAINTY_ASSIGNED_CONTEXT ( ( #764 ) ) GLOBAL_UNIT_ASSIGNED_CONTEXT ( ( #1144, #398, #10 ) ) REPRESENTATION_CONTEXT ( 'NONE', 'WORKASPACE' ) );
#457 = CARTESIAN_POINT ( 'NONE',  ( 0.4999999999999997780, 0.2250000000000001443, -0.4000000000000003553 ) ) ;
#458 = CARTESIAN_POINT ( 'NONE',  ( 0.7500000000000001110, 0.4000000000000000222, -0.4000000000000001332 ) ) ;
#459 = EDGE_CURVE ( 'NONE', #99, #384, #228, .T. ) ;
#460 = CARTESIAN_POINT ( 'NONE',  ( -1.576560977094069838, 0.4500000000000000666, -0.4000000000000001887 ) ) ;
#461 = LINE ( 'NONE', #618, #470 ) ;
#462 = VECTOR ( 'NONE', #223, 1000.000000000000000 ) ;
#463 = ORIENTED_EDGE ( 'NONE', *, *, #348, .F. ) ;
#464 = ORIENTED_EDGE ( 'NONE', *, *, #497, .T. ) ;
#465 = EDGE_CURVE ( 'NONE', #269, #448, #52, .T. ) ;
#466 = CARTESIAN_POINT ( 'NONE',  ( -0.4999999999999998890, -1.253608761936364502E-16, -0.4000000000000000222 ) ) ;
#467 = ORIENTED_EDGE ( 'NONE', *, *, #895, .T. ) ;
#468 = CARTESIAN_POINT ( 'NONE',  ( -0.4999999999999996669, -0.001000000000000186937, -0.3000000000000002665 ) ) ;
#469 = AXIS2_PLACEMENT_3D ( 'NONE', #77, #1023, #381 ) ;
#470 = VECTOR ( 'NONE', #56, 1000.000000000000000 ) ;
#471 = CARTESIAN_POINT ( 'NONE',  ( 0.8000000000000000444, 0.4500000000000000666, 0.3999999999999998002 ) ) ;
#472 = FACE_OUTER_BOUND ( 'NONE', #1046, .T. ) ;
#473 = SURFACE_STYLE_FILL_AREA ( #236 ) ;
#474 = FACE_OUTER_BOUND ( 'NONE', #276, .T. ) ;
#475 = VERTEX_POINT ( 'NONE', #29 ) ;
#476 = ORIENTED_EDGE ( 'NONE', *, *, #673, .T. ) ;
#477 = ORIENTED_EDGE ( 'NONE', *, *, #983, .T. ) ;
#478 = EDGE_CURVE ( 'NONE', #99, #301, #965, .T. ) ;
#479 = PLANE ( 'NONE',  #202 ) ;
#480 = ORIENTED_EDGE ( 'NONE', *, *, #539, .F. ) ;
#481 = LINE ( 'NONE', #264, #780 ) ;
#482 = FACE_OUTER_BOUND ( 'NONE', #877, .T. ) ;
#483 = CARTESIAN_POINT ( 'NONE',  ( -0.4999999999999998890, 0.02500000000000007772, -1.084202172485504434E-16 ) ) ;
#484 = CARTESIAN_POINT ( 'NONE',  ( -0.4999999999999998890, 0.2250000000000001443, -0.4000000000000001887 ) ) ;
#485 = EDGE_CURVE ( 'NONE', #272, #810, #1028, .T. ) ;
#486 = LINE ( 'NONE', #388, #124 ) ;
#487 = ORIENTED_EDGE ( 'NONE', *, *, #665, .T. ) ;
#488 = DIRECTION ( 'NONE',  ( -0.0000000000000000000, -1.000000000000000000, -0.0000000000000000000 ) ) ;
#489 =( NAMED_UNIT ( * ) SI_UNIT ( $, .STERADIAN. ) SOLID_ANGLE_UNIT ( ) );
#490 = ORIENTED_EDGE ( 'NONE', *, *, #701, .F. ) ;
#491 = SURFACE_STYLE_USAGE ( .BOTH. , #1052 ) ;
#492 = EDGE_CURVE ( 'NONE', #324, #53, #299, .T. ) ;
#493 = VERTEX_POINT ( 'NONE', #788 ) ;
#494 = CARTESIAN_POINT ( 'NONE',  ( 0.5000000000000000000, 0.2250000000000001443, 0.3999999999999995781 ) ) ;
#495 = FACE_OUTER_BOUND ( 'NONE', #72, .T. ) ;
#496 = DIRECTION ( 'NONE',  ( 2.891205793294678326E-16, 0.0000000000000000000, 1.000000000000000000 ) ) ;
#497 = EDGE_CURVE ( 'NONE', #744, #339, #729, .T. ) ;
#498 = ORIENTED_EDGE ( 'NONE', *, *, #327, .F. ) ;
#499 = DIRECTION ( 'NONE',  ( 1.355252715606880049E-16, -1.355252715606880296E-16, 1.000000000000000000 ) ) ;
#500 = ORIENTED_EDGE ( 'NONE', *, *, #829, .F. ) ;
#501 = ORIENTED_EDGE ( 'NONE', *, *, #191, .T. ) ;
#502 = AXIS2_PLACEMENT_3D ( 'NONE', #224, #879, #418 ) ;
#503 = DIRECTION ( 'NONE',  ( 2.891205793294678326E-16, 0.0000000000000000000, 1.000000000000000000 ) ) ;
#504 = VERTEX_POINT ( 'NONE', #319 ) ;
#505 = ORIENTED_EDGE ( 'NONE', *, *, #723, .F. ) ;
#506 = LINE ( 'NONE', #165, #669 ) ;
#507 = DIRECTION ( 'NONE',  ( -1.000000000000000000, 1.242314989306307082E-16, 2.891205793294678326E-16 ) ) ;
#508 = CARTESIAN_POINT ( 'NONE',  ( -0.6799999999999998268, -0.001000000000000186937, 0.4000000000000000222 ) ) ;
#509 = DIRECTION ( 'NONE',  ( 0.0000000000000000000, 0.0000000000000000000, 1.000000000000000000 ) ) ;
#510 = DIRECTION ( 'NONE',  ( -2.409338161078898687E-16, -1.000000000000000000, 0.0000000000000000000 ) ) ;
#511 = ADVANCED_FACE ( 'NONE', ( #984 ), #1074, .F. ) ;
#512 = EDGE_CURVE ( 'NONE', #1097, #652, #268, .T. ) ;
#513 = LINE ( 'NONE', #311, #1016 ) ;
#514 = CARTESIAN_POINT ( 'NONE',  ( 0.6799999999999998268, -0.001000000000000186937, 0.4000000000000000222 ) ) ;
#515 = CARTESIAN_POINT ( 'NONE',  ( -1.576560977094070060, 0.4000000000000000222, -0.4000000000000001887 ) ) ;
#516 = ORIENTED_EDGE ( 'NONE', *, *, #158, .F. ) ;
#517 = ORIENTED_EDGE ( 'NONE', *, *, #728, .F. ) ;
#518 = DIRECTION ( 'NONE',  ( 1.000000000000000000, 0.0000000000000000000, 6.023345402697248937E-16 ) ) ;
#519 = DIRECTION ( 'NONE',  ( -2.891205793294678326E-16, 0.0000000000000000000, -1.000000000000000000 ) ) ;
#520 = EDGE_CURVE ( 'NONE', #720, #269, #1088, .T. ) ;
#521 = PLANE ( 'NONE',  #1020 ) ;
#522 = CARTESIAN_POINT ( 'NONE',  ( 0.8000000000000000444, 0.4500000000000000666, 0.3999999999999998002 ) ) ;
#523 = ADVANCED_FACE ( 'NONE', ( #405 ), #803, .T. ) ;
#524 = STYLED_ITEM ( 'NONE', ( #334 ), #1188 ) ;
#525 = PLANE ( 'NONE',  #996 ) ;
#526 = FACE_OUTER_BOUND ( 'NONE', #1111, .T. ) ;
#527 = CARTESIAN_POINT ( 'NONE',  ( 0.8000000000000000444, 0.4500000000000000111, 0.3999999999999998002 ) ) ;
#528 = ORIENTED_EDGE ( 'NONE', *, *, #370, .T. ) ;
#529 = PRESENTATION_LAYER_ASSIGNMENT (  '', '', ( #1057 ) ) ;
#530 = EDGE_LOOP ( 'NONE', ( #463, #179, #585, #754 ) ) ;
#531 = ORIENTED_EDGE ( 'NONE', *, *, #813, .F. ) ;
#532 = CARTESIAN_POINT ( 'NONE',  ( 0.7499999999999998890, 0.3999999999999999667, 0.3999999999999997446 ) ) ;
#533 = CARTESIAN_POINT ( 'NONE',  ( -0.6799999999999998268, 0.3999999999999999112, 0.4000000000000000777 ) ) ;
#534 = VERTEX_POINT ( 'NONE', #238 ) ;
#535 = LINE ( 'NONE', #458, #645 ) ;
#536 =( LENGTH_UNIT ( ) NAMED_UNIT ( * ) SI_UNIT ( .MILLI., .METRE. ) );
#537 = DIRECTION ( 'NONE',  ( -2.409338161078898687E-16, -1.000000000000000000, 0.0000000000000000000 ) ) ;
#538 = ADVANCED_FACE ( 'NONE', ( #310 ), #886, .T. ) ;
#539 = EDGE_CURVE ( 'NONE', #1122, #702, #725, .T. ) ;
#540 = FILL_AREA_STYLE_COLOUR ( '', #800 ) ;
#541 = FACE_OUTER_BOUND ( 'NONE', #1075, .T. ) ;
#542 = MECHANICAL_DESIGN_GEOMETRIC_PRESENTATION_REPRESENTATION (  '', ( #708 ), #281 ) ;
#543 = LINE ( 'NONE', #863, #70 ) ;
#544 = DIRECTION ( 'NONE',  ( -2.409338161078898687E-16, -1.000000000000000000, 0.0000000000000000000 ) ) ;
#545 = EDGE_CURVE ( 'NONE', #1221, #493, #1083, .T. ) ;
#546 = LINE ( 'NONE', #217, #287 ) ;
#547 = ORIENTED_EDGE ( 'NONE', *, *, #235, .F. ) ;
#548 = DIRECTION ( 'NONE',  ( -0.0000000000000000000, 1.000000000000000000, 0.0000000000000000000 ) ) ;
#549 = DIRECTION ( 'NONE',  ( -0.0000000000000000000, 1.000000000000000000, -0.0000000000000000000 ) ) ;
#550 = LINE ( 'NONE', #752, #601 ) ;
#551 = CARTESIAN_POINT ( 'NONE',  ( 0.5000000000000000000, 0.4500000000000022315, 0.4000000000000002998 ) ) ;
#552 =( GEOMETRIC_REPRESENTATION_CONTEXT ( 3 ) GLOBAL_UNCERTAINTY_ASSIGNED_CONTEXT ( ( #896 ) ) GLOBAL_UNIT_ASSIGNED_CONTEXT ( ( #536, #162, #1197 ) ) REPRESENTATION_CONTEXT ( 'NONE', 'WORKASPACE' ) );
#553 = VECTOR ( 'NONE', #695, 1000.000000000000000 ) ;
#554 = ORIENTED_EDGE ( 'NONE', *, *, #226, .T. ) ;
#555 = ORIENTED_EDGE ( 'NONE', *, *, #158, .T. ) ;
#556 = EDGE_CURVE ( 'NONE', #651, #493, #1037, .T. ) ;
#557 = ORIENTED_EDGE ( 'NONE', *, *, #1109, .T. ) ;
#558 = ORIENTED_EDGE ( 'NONE', *, *, #24, .F. ) ;
#559 = ORIENTED_EDGE ( 'NONE', *, *, #794, .T. ) ;
#560 = PRODUCT ( 'User Library-CR1608-0603', 'User Library-CR1608-0603', '', ( #992 ) ) ;
#561 = DIRECTION ( 'NONE',  ( 0.0000000000000000000, 0.0000000000000000000, -1.000000000000000000 ) ) ;
#562 = VECTOR ( 'NONE', #394, 1000.000000000000000 ) ;
#563 = DIRECTION ( 'NONE',  ( 1.000000000000000000, 1.242314989306307082E-16, -0.0000000000000000000 ) ) ;
#564 = LINE ( 'NONE', #150, #1059 ) ;
#565 = MECHANICAL_DESIGN_GEOMETRIC_PRESENTATION_REPRESENTATION (  '', ( #230 ), #590 ) ;
#566 = VERTEX_POINT ( 'NONE', #1089 ) ;
#567 = FACE_OUTER_BOUND ( 'NONE', #858, .T. ) ;
#568 = ORIENTED_EDGE ( 'NONE', *, *, #166, .F. ) ;
#569 = EDGE_CURVE ( 'NONE', #744, #272, #293, .T. ) ;
#570 = DIRECTION ( 'NONE',  ( 1.000000000000000000, 0.0000000000000000000, 6.023345402697248937E-16 ) ) ;
#571 = PLANE ( 'NONE',  #294 ) ;
#572 = VECTOR ( 'NONE', #284, 1000.000000000000000 ) ;
#573 = FACE_OUTER_BOUND ( 'NONE', #610, .T. ) ;
#574 = DIRECTION ( 'NONE',  ( -1.000000000000000000, -1.242314989306307082E-16, 0.0000000000000000000 ) ) ;
#575 =( NAMED_UNIT ( * ) PLANE_ANGLE_UNIT ( ) SI_UNIT ( $, .RADIAN. ) );
#576 = FILL_AREA_STYLE ('',( #391 ) ) ;
#577 = EDGE_CURVE ( 'NONE', #53, #833, #1010, .T. ) ;
#578 = CARTESIAN_POINT ( 'NONE',  ( 0.5000000000000000000, -9.825582188149879003E-17, 0.3999999999999998002 ) ) ;
#579 = LINE ( 'NONE', #611, #696 ) ;
#580 = ORIENTED_EDGE ( 'NONE', *, *, #357, .F. ) ;
#581 = VECTOR ( 'NONE', #211, 1000.000000000000000 ) ;
#582 = ORIENTED_EDGE ( 'NONE', *, *, #300, .T. ) ;
#583 = DIRECTION ( 'NONE',  ( 2.168404344971003346E-15, -1.000000000000000000, 5.877471754111421775E-31 ) ) ;
#584 = AXIS2_PLACEMENT_3D ( 'NONE', #588, #198, #203 ) ;
#585 = ORIENTED_EDGE ( 'NONE', *, *, #277, .F. ) ;
#586 = ORIENTED_EDGE ( 'NONE', *, *, #151, .F. ) ;
#587 = LINE ( 'NONE', #254, #748 ) ;
#588 = CARTESIAN_POINT ( 'NONE',  ( 0.7500000000000001110, 0.4000000000000000222, -0.4000000000000001332 ) ) ;
#589 = FACE_OUTER_BOUND ( 'NONE', #88, .T. ) ;
#590 =( GEOMETRIC_REPRESENTATION_CONTEXT ( 3 ) GLOBAL_UNCERTAINTY_ASSIGNED_CONTEXT ( ( #112 ) ) GLOBAL_UNIT_ASSIGNED_CONTEXT ( ( #603, #46, #437 ) ) REPRESENTATION_CONTEXT ( 'NONE', 'WORKASPACE' ) );
#591 = CARTESIAN_POINT ( 'NONE',  ( -0.7500000000000000000, 0.05000000000000018319, -0.4000000000000001887 ) ) ;
#592 = FACE_OUTER_BOUND ( 'NONE', #926, .T. ) ;
#593 = FACE_OUTER_BOUND ( 'NONE', #845, .T. ) ;
#594 = CARTESIAN_POINT ( 'NONE',  ( -0.6799999999999998268, 0.4500000000000000666, 0.3000000000000000444 ) ) ;
#595 = ORIENTED_EDGE ( 'NONE', *, *, #556, .T. ) ;
#596 = ADVANCED_FACE ( 'NONE', ( #573 ), #315, .F. ) ;
#597 = ORIENTED_EDGE ( 'NONE', *, *, #765, .T. ) ;
#598 = CARTESIAN_POINT ( 'NONE',  ( -1.576560977094069838, 0.3999999999999999112, 0.3999999999999999667 ) ) ;
#599 = DIRECTION ( 'NONE',  ( 0.0000000000000000000, -1.000000000000000000, -0.0000000000000000000 ) ) ;
#600 = ORIENTED_EDGE ( 'NONE', *, *, #214, .F. ) ;
#601 = VECTOR ( 'NONE', #176, 1000.000000000000000 ) ;
#602 = PRESENTATION_STYLE_ASSIGNMENT (( #358 ) ) ;
#603 =( LENGTH_UNIT ( ) NAMED_UNIT ( * ) SI_UNIT ( .MILLI., .METRE. ) );
#604 = CARTESIAN_POINT ( 'NONE',  ( -0.7499999999999998890, 0.05000000000000025258, 0.3999999999999999667 ) ) ;
#605 = ADVANCED_FACE ( 'NONE', ( #1051 ), #1085, .T. ) ;
#606 = CARTESIAN_POINT ( 'NONE',  ( 0.7500000000000000000, 0.05000000000000025258, 0.3999999999999997446 ) ) ;
#607 = EDGE_CURVE ( 'NONE', #795, #836, #828, .T. ) ;
#608 = LINE ( 'NONE', #240, #787 ) ;
#609 = ADVANCED_FACE ( 'NONE', ( #482 ), #1182, .F. ) ;
#610 = EDGE_LOOP ( 'NONE', ( #824, #38, #1178, #1060, #21, #96, #925, #100 ) ) ;
#611 = CARTESIAN_POINT ( 'NONE',  ( 1.576560977094070060, 0.3999999999999999112, 0.3999999999999995226 ) ) ;
#612 = DIRECTION ( 'NONE',  ( 0.0000000000000000000, 1.355252715606880296E-16, -1.000000000000000000 ) ) ;
#613 = ORIENTED_EDGE ( 'NONE', *, *, #1109, .F. ) ;
#614 = PRODUCT_RELATED_PRODUCT_CATEGORY ( 'part', '', ( #560 ) ) ;
#615 = VERTEX_POINT ( 'NONE', #140 ) ;
#616 = SURFACE_SIDE_STYLE ('',( #473 ) ) ;
#617 = EDGE_LOOP ( 'NONE', ( #1133, #146, #379, #547 ) ) ;
#618 = CARTESIAN_POINT ( 'NONE',  ( -0.4999999999999998890, 0.4000000000000000222, -0.4000000000000001887 ) ) ;
#619 = CLOSED_SHELL ( 'NONE', ( #44, #249, #605, #792, #28, #1166, #596, #511, #815, #427, #152, #243, #1102, #801 ) ) ;
#620 = LINE ( 'NONE', #93, #344 ) ;
#621 = CARTESIAN_POINT ( 'NONE',  ( -1.576560977094069838, 0.3999999999999999112, 0.3999999999999999667 ) ) ;
#622 = ADVANCED_FACE ( 'NONE', ( #1 ), #697, .F. ) ;
#623 = PLANE ( 'NONE',  #775 ) ;
#624 = VECTOR ( 'NONE', #946, 1000.000000000000000 ) ;
#625 = DIRECTION ( 'NONE',  ( -0.0000000000000000000, -1.000000000000000000, -0.0000000000000000000 ) ) ;
#626 = LINE ( 'NONE', #40, #647 ) ;
#627 = SHAPE_DEFINITION_REPRESENTATION ( #1118, #330 ) ;
#628 = VERTEX_POINT ( 'NONE', #594 ) ;
#629 = ORIENTED_EDGE ( 'NONE', *, *, #1216, .F. ) ;
#630 = DIRECTION ( 'NONE',  ( -1.000000000000000000, -2.168404344971003346E-15, -1.355252715606880296E-16 ) ) ;
#631 = ORIENTED_EDGE ( 'NONE', *, *, #357, .T. ) ;
#632 = FACE_OUTER_BOUND ( 'NONE', #215, .T. ) ;
#633 = CARTESIAN_POINT ( 'NONE',  ( -0.5000000000000000000, 0.4500000000000000666, 0.4000000000000000222 ) ) ;
#634 = FACE_OUTER_BOUND ( 'NONE', #250, .T. ) ;
#635 = CARTESIAN_POINT ( 'NONE',  ( -0.7499999999999997780, 0.4000000000000000222, -0.3999999999999999667 ) ) ;
#636 = DIRECTION ( 'NONE',  ( -1.355252715606880296E-16, 0.0000000000000000000, 1.000000000000000000 ) ) ;
#637 = CARTESIAN_POINT ( 'NONE',  ( 0.4999999999999997780, 0.4500000000000022315, -0.4000000000000000222 ) ) ;
#638 = LINE ( 'NONE', #1164, #553 ) ;
#639 = EDGE_CURVE ( 'NONE', #939, #1031, #326, .T. ) ;
#640 = CARTESIAN_POINT ( 'NONE',  ( -0.6799999999999996048, -0.001000000000000186937, -0.4000000000000003553 ) ) ;
#641 = ORIENTED_EDGE ( 'NONE', *, *, #639, .T. ) ;
#642 = ORIENTED_EDGE ( 'NONE', *, *, #919, .T. ) ;
#643 = PLANE ( 'NONE',  #1099 ) ;
#644 = ORIENTED_EDGE ( 'NONE', *, *, #1047, .F. ) ;
#645 = VECTOR ( 'NONE', #1006, 1000.000000000000000 ) ;
#646 = DIRECTION ( 'NONE',  ( -2.168404344971003346E-15, -1.000000000000000000, -5.877471754111428782E-31 ) ) ;
#647 = VECTOR ( 'NONE', #329, 1000.000000000000000 ) ;
#648 = VERTEX_POINT ( 'NONE', #1077 ) ;
#649 = AXIS2_PLACEMENT_3D ( 'NONE', #107, #659, #9 ) ;
#650 = DIRECTION ( 'NONE',  ( 0.0000000000000000000, 0.0000000000000000000, 1.000000000000000000 ) ) ;
#651 = VERTEX_POINT ( 'NONE', #994 ) ;
#652 = VERTEX_POINT ( 'NONE', #685 ) ;
#653 = ORIENTED_EDGE ( 'NONE', *, *, #607, .F. ) ;
#654 = LINE ( 'NONE', #1018, #974 ) ;
#655 = CARTESIAN_POINT ( 'NONE',  ( -0.7500000000000000000, 0.4000000000000000777, -0.4000000000000001887 ) ) ;
#656 = AXIS2_PLACEMENT_3D ( 'NONE', #960, #1058, #16 ) ;
#657 = EDGE_CURVE ( 'NONE', #99, #324, #222, .T. ) ;
#658 = CARTESIAN_POINT ( 'NONE',  ( -0.7499999999999997780, 0.3999999999999999667, 0.3999999999999999667 ) ) ;
#659 = DIRECTION ( 'NONE',  ( 1.000000000000000000, 2.168404344971008079E-15, 1.355252715606880296E-16 ) ) ;
#660 = CARTESIAN_POINT ( 'NONE',  ( -0.8000000000000000444, -1.626303258728256651E-16, 0.4000000000000000222 ) ) ;
#661 = LINE ( 'NONE', #887, #426 ) ;
#662 = DIRECTION ( 'NONE',  ( 3.918314502740957448E-32, 1.000000000000000000, 1.355252715606880296E-16 ) ) ;
#663 = ORIENTED_EDGE ( 'NONE', *, *, #826, .T. ) ;
#664 = ORIENTED_EDGE ( 'NONE', *, *, #512, .F. ) ;
#665 = EDGE_CURVE ( 'NONE', #338, #615, #184, .T. ) ;
#666 = PLANE ( 'NONE',  #917 ) ;
#667 = CARTESIAN_POINT ( 'NONE',  ( -0.4999999999999998890, -0.001000000000000186937, 0.3000000000000000444 ) ) ;
#668 = ORIENTED_EDGE ( 'NONE', *, *, #15, .F. ) ;
#669 = VECTOR ( 'NONE', #1117, 1000.000000000000000 ) ;
#670 = DIRECTION ( 'NONE',  ( 1.000000000000000000, 0.0000000000000000000, 0.0000000000000000000 ) ) ;
#671 = DIRECTION ( 'NONE',  ( 1.242314989306307082E-16, 1.000000000000000000, -3.591788294179211222E-32 ) ) ;
#672 = DIRECTION ( 'NONE',  ( 2.891205793294678326E-16, 1.355252715606880543E-16, 1.000000000000000000 ) ) ;
#673 = EDGE_CURVE ( 'NONE', #1017, #911, #420, .T. ) ;
#674 = CARTESIAN_POINT ( 'NONE',  ( 0.6799999999999998268, 0.3999999999999999112, 0.4000000000000000777 ) ) ;
#675 = VECTOR ( 'NONE', #342, 1000.000000000000000 ) ;
#676 = VERTEX_POINT ( 'NONE', #336 ) ;
#677 = LINE ( 'NONE', #674, #271 ) ;
#678 = ORIENTED_EDGE ( 'NONE', *, *, #485, .F. ) ;
#679 = AXIS2_PLACEMENT_3D ( 'NONE', #1014, #817, #343 ) ;
#680 = DIRECTION ( 'NONE',  ( -1.000000000000000000, 0.0000000000000000000, 2.891205793294678326E-16 ) ) ;
#681 = ORIENTED_EDGE ( 'NONE', *, *, #497, .F. ) ;
#682 = ORIENTED_EDGE ( 'NONE', *, *, #214, .T. ) ;
#683 = DIRECTION ( 'NONE',  ( 1.355252715606880296E-16, 2.938735877055717456E-31, -1.000000000000000000 ) ) ;
#684 = VECTOR ( 'NONE', #650, 1000.000000000000000 ) ;
#685 = CARTESIAN_POINT ( 'NONE',  ( 0.6799999999999998268, 0.4500000000000000666, 0.3000000000000000444 ) ) ;
#686 = ADVANCED_FACE ( 'NONE', ( #1138 ), #1107, .F. ) ;
#687 = VECTOR ( 'NONE', #1103, 1000.000000000000000 ) ;
#688 = SURFACE_STYLE_USAGE ( .BOTH. , #616 ) ;
#689 = CARTESIAN_POINT ( 'NONE',  ( 0.5000000000000000000, 0.4500000000000022315, 0.4000000000000006328 ) ) ;
#690 = CARTESIAN_POINT ( 'NONE',  ( -0.4999999999999998890, 0.04999999999999989175, -0.4000000000000002442 ) ) ;
#691 = EDGE_CURVE ( 'NONE', #809, #615, #345, .T. ) ;
#692 = EDGE_CURVE ( 'NONE', #1122, #382, #389, .T. ) ;
#693 = LINE ( 'NONE', #1207, #921 ) ;
#694 = APPLICATION_CONTEXT ( 'automotive_design' ) ;
#695 = DIRECTION ( 'NONE',  ( -4.246458508901558376E-16, -1.214677495849693880E-30, -1.000000000000000000 ) ) ;
#696 = VECTOR ( 'NONE', #425, 1000.000000000000000 ) ;
#697 = PLANE ( 'NONE',  #1202 ) ;
#698 = ORIENTED_EDGE ( 'NONE', *, *, #1116, .F. ) ;
#699 = VERTEX_POINT ( 'NONE', #245 ) ;
#700 = DIRECTION ( 'NONE',  ( 0.0000000000000000000, -1.355252715606880296E-16, 1.000000000000000000 ) ) ;
#701 = EDGE_CURVE ( 'NONE', #720, #359, #134, .T. ) ;
#702 = VERTEX_POINT ( 'NONE', #900 ) ;
#703 = LINE ( 'NONE', #1025, #913 ) ;
#704 = MANIFOLD_SOLID_BREP ( 'Extruir4', #1008 ) ;
#705 = CARTESIAN_POINT ( 'NONE',  ( -0.6799999999999996048, 0.4500000000000000666, -0.4000000000000003553 ) ) ;
#706 = DIRECTION ( 'NONE',  ( -1.683650762896505363E-32, 1.355252715606880543E-16, 1.000000000000000000 ) ) ;
#707 = ADVANCED_FACE ( 'NONE', ( #589 ), #1095, .F. ) ;
#708 = STYLED_ITEM ( 'NONE', ( #602 ), #704 ) ;
#709 = DIRECTION ( 'NONE',  ( -0.0000000000000000000, 1.000000000000000000, -0.0000000000000000000 ) ) ;
#710 = DIRECTION ( 'NONE',  ( -1.000000000000000000, -2.168404344971003346E-15, -1.355252715606880296E-16 ) ) ;
#711 = AXIS2_PLACEMENT_3D ( 'NONE', #81, #847, #97 ) ;
#712 = VECTOR ( 'NONE', #221, 1000.000000000000000 ) ;
#713 = ORIENTED_EDGE ( 'NONE', *, *, #569, .F. ) ;
#714 = LINE ( 'NONE', #298, #581 ) ;
#715 = DIRECTION ( 'NONE',  ( 1.000000000000000000, -1.242314989306307082E-16, -2.891205793294678326E-16 ) ) ;
#716 = CARTESIAN_POINT ( 'NONE',  ( -0.7999999999999999334, 0.4500000000000000111, 0.4000000000000000222 ) ) ;
#717 = ADVANCED_FACE ( 'NONE', ( #634 ), #812, .F. ) ;
#718 = ORIENTED_EDGE ( 'NONE', *, *, #870, .F. ) ;
#719 = ORIENTED_EDGE ( 'NONE', *, *, #691, .F. ) ;
#720 = VERTEX_POINT ( 'NONE', #716 ) ;
#721 = DIRECTION ( 'NONE',  ( 1.000000000000000000, 0.0000000000000000000, -0.0000000000000000000 ) ) ;
#722 = SURFACE_SIDE_STYLE ('',( #851 ) ) ;
#723 = EDGE_CURVE ( 'NONE', #986, #1167, #403, .T. ) ;
#724 = VECTOR ( 'NONE', #258, 1000.000000000000000 ) ;
#725 = LINE ( 'NONE', #977, #45 ) ;
#726 = CARTESIAN_POINT ( 'NONE',  ( 0.6799999999999998268, 0.4500000000000000666, -0.2999999999999996003 ) ) ;
#727 = FILL_AREA_STYLE_COLOUR ( '', #1015 ) ;
#728 = EDGE_CURVE ( 'NONE', #1030, #1196, #1183, .T. ) ;
#729 = LINE ( 'NONE', #1170, #164 ) ;
#730 = DIRECTION ( 'NONE',  ( 1.000000000000000000, -2.168404344971003346E-15, -4.246458508901558376E-16 ) ) ;
#731 = VECTOR ( 'NONE', #253, 1000.000000000000000 ) ;
#732 = ORIENTED_EDGE ( 'NONE', *, *, #765, .F. ) ;
#733 = VECTOR ( 'NONE', #22, 1000.000000000000000 ) ;
#734 = EDGE_LOOP ( 'NONE', ( #435, #968, #231, #1126 ) ) ;
#735 = CARTESIAN_POINT ( 'NONE',  ( -0.7499999999999997780, 0.05000000000000000278, 0.4000000000000000222 ) ) ;
#736 = DIRECTION ( 'NONE',  ( 1.242314989306307082E-16, -1.000000000000000000, 1.355252715606880543E-16 ) ) ;
#737 = ORIENTED_EDGE ( 'NONE', *, *, #419, .F. ) ;
#738 = LINE ( 'NONE', #8, #1067 ) ;
#739 = CARTESIAN_POINT ( 'NONE',  ( -0.4999999999999998890, 0.4000000000000000222, 0.4000000000000000222 ) ) ;
#740 = FACE_OUTER_BOUND ( 'NONE', #218, .T. ) ;
#741 = EDGE_CURVE ( 'NONE', #1219, #930, #535, .T. ) ;
#742 = DIRECTION ( 'NONE',  ( 1.000000000000000000, 2.409338161078898687E-16, -2.891205793294678326E-16 ) ) ;
#743 = ORIENTED_EDGE ( 'NONE', *, *, #459, .T. ) ;
#744 = VERTEX_POINT ( 'NONE', #527 ) ;
#745 = ORIENTED_EDGE ( 'NONE', *, *, #933, .F. ) ;
#746 = DIRECTION ( 'NONE',  ( 1.000000000000000000, -3.918314502740957448E-32, 0.0000000000000000000 ) ) ;
#747 = ORIENTED_EDGE ( 'NONE', *, *, #138, .T. ) ;
#748 = VECTOR ( 'NONE', #347, 1000.000000000000000 ) ;
#749 = AXIS2_PLACEMENT_3D ( 'NONE', #515, #893, #700 ) ;
#750 = VECTOR ( 'NONE', #137, 1000.000000000000000 ) ;
#751 = CARTESIAN_POINT ( 'NONE',  ( -0.7999999999999999334, 0.4500000000000000666, -0.4000000000000001332 ) ) ;
#752 = CARTESIAN_POINT ( 'NONE',  ( -0.4999999999999998890, 0.4500000000000000666, 0.3000000000000000444 ) ) ;
#753 = DIRECTION ( 'NONE',  ( 1.355252715606880296E-16, 0.0000000000000000000, -1.000000000000000000 ) ) ;
#754 = ORIENTED_EDGE ( 'NONE', *, *, #607, .T. ) ;
#755 = EDGE_CURVE ( 'NONE', #930, #142, #374, .T. ) ;
#756 = CARTESIAN_POINT ( 'NONE',  ( -0.6799999999999998268, -0.001000000000000186937, 0.3000000000000000444 ) ) ;
#757 = CARTESIAN_POINT ( 'NONE',  ( -0.7499999999999997780, 0.05000000000000002359, -0.3999999999999999667 ) ) ;
#758 = VERTEX_POINT ( 'NONE', #159 ) ;
#759 = VERTEX_POINT ( 'NONE', #241 ) ;
#760 = DIRECTION ( 'NONE',  ( 1.000000000000000000, -0.0000000000000000000, -0.0000000000000000000 ) ) ;
#761 = CARTESIAN_POINT ( 'NONE',  ( 1.301560977094069704, 0.4500000000000039524, 0.4000000000000002998 ) ) ;
#762 = VECTOR ( 'NONE', #496, 1000.000000000000000 ) ;
#763 = DIRECTION ( 'NONE',  ( -1.000000000000000000, 0.0000000000000000000, 2.891205793294678326E-16 ) ) ;
#764 = UNCERTAINTY_MEASURE_WITH_UNIT (LENGTH_MEASURE( 1.000000000000000082E-05 ), #1144, 'distance_accuracy_value', 'NONE');
#765 = EDGE_CURVE ( 'NONE', #986, #359, #587, .T. ) ;
#766 = DIRECTION ( 'NONE',  ( 1.000000000000000000, 1.242314989306307082E-16, 0.0000000000000000000 ) ) ;
#767 = CARTESIAN_POINT ( 'NONE',  ( 1.576560977094069838, 0.4000000000000000222, -0.4000000000000006328 ) ) ;
#768 = CARTESIAN_POINT ( 'NONE',  ( -0.6799999999999998268, 0.3999999999999999112, 0.3000000000000000444 ) ) ;
#769 = DIRECTION ( 'NONE',  ( 1.000000000000000000, 0.0000000000000000000, 0.0000000000000000000 ) ) ;
#770 = VECTOR ( 'NONE', #132, 1000.000000000000000 ) ;
#771 = PRESENTATION_LAYER_ASSIGNMENT (  '', '', ( #708 ) ) ;
#772 = ORIENTED_EDGE ( 'NONE', *, *, #1151, .F. ) ;
#773 = EDGE_LOOP ( 'NONE', ( #303, #516, #333, #580 ) ) ;
#774 = ORIENTED_EDGE ( 'NONE', *, *, #657, .F. ) ;
#775 = AXIS2_PLACEMENT_3D ( 'NONE', #157, #1106, #715 ) ;
#776 = ORIENTED_EDGE ( 'NONE', *, *, #1184, .T. ) ;
#777 = DIRECTION ( 'NONE',  ( 1.000000000000000000, 1.242314989306307082E-16, 0.0000000000000000000 ) ) ;
#778 = ORIENTED_EDGE ( 'NONE', *, *, #327, .T. ) ;
#779 = EDGE_LOOP ( 'NONE', ( #1063, #642, #416, #1180 ) ) ;
#780 = VECTOR ( 'NONE', #646, 1000.000000000000000 ) ;
#781 = CARTESIAN_POINT ( 'NONE',  ( -0.7999999999999999334, 0.4500000000000000666, 0.4000000000000000222 ) ) ;
#782 = EDGE_CURVE ( 'NONE', #142, #699, #931, .T. ) ;
#783 = ADVANCED_FACE ( 'NONE', ( #173 ), #89, .F. ) ;
#784 = CARTESIAN_POINT ( 'NONE',  ( 0.7500000000000002220, 0.05000000000000000278, -0.4000000000000001332 ) ) ;
#785 = CARTESIAN_POINT ( 'NONE',  ( 1.301560977094069926, 0.4000000000000039080, 0.4000000000000002998 ) ) ;
#786 = VECTOR ( 'NONE', #1155, 1000.000000000000000 ) ;
#787 = VECTOR ( 'NONE', #993, 1000.000000000000000 ) ;
#788 = CARTESIAN_POINT ( 'NONE',  ( -0.4999999999999998890, 0.05000000000000000278, 0.3999999999999999112 ) ) ;
#789 = FACE_OUTER_BOUND ( 'NONE', #74, .T. ) ;
#790 = CARTESIAN_POINT ( 'NONE',  ( 0.7500000000000000000, 0.04999999999999985706, -0.4000000000000004663 ) ) ;
#791 = CARTESIAN_POINT ( 'NONE',  ( 0.7499999999999998890, 0.4000000000000000222, -0.4000000000000005218 ) ) ;
#792 = ADVANCED_FACE ( 'NONE', ( #436 ), #252, .T. ) ;
#793 = ORIENTED_EDGE ( 'NONE', *, *, #7, .F. ) ;
#794 = EDGE_CURVE ( 'NONE', #384, #1152, #65, .T. ) ;
#795 = VERTEX_POINT ( 'NONE', #1027 ) ;
#796 = ORIENTED_EDGE ( 'NONE', *, *, #116, .F. ) ;
#797 = CARTESIAN_POINT ( 'NONE',  ( 0.7500000000000002220, 0.4000000000000000222, 0.3999999999999999112 ) ) ;
#798 = LINE ( 'NONE', #302, #762 ) ;
#799 = DIRECTION ( 'NONE',  ( -1.000000000000000000, 0.0000000000000000000, -0.0000000000000000000 ) ) ;
#800 = COLOUR_RGB ( '',0.09803921568627450844, 0.09803921568627450844, 0.09803921568627450844 ) ;
#801 = ADVANCED_FACE ( 'NONE', ( #1224 ), #174, .F. ) ;
#802 = CARTESIAN_POINT ( 'NONE',  ( -0.4999999999999998890, 0.4000000000000000222, 0.4000000000000000222 ) ) ;
#803 = PLANE ( 'NONE',  #308 ) ;
#804 = STYLED_ITEM ( 'NONE', ( #94 ), #305 ) ;
#805 = DIRECTION ( 'NONE',  ( -1.242314989306306589E-16, -1.000000000000000000, 1.355252715606880789E-16 ) ) ;
#806 = VECTOR ( 'NONE', #233, 1000.000000000000000 ) ;
#807 = DIRECTION ( 'NONE',  ( 0.0000000000000000000, 1.355252715606880296E-16, -1.000000000000000000 ) ) ;
#808 = EDGE_LOOP ( 'NONE', ( #641, #183, #1019, #973 ) ) ;
#809 = VERTEX_POINT ( 'NONE', #637 ) ;
#810 = VERTEX_POINT ( 'NONE', #80 ) ;
#811 = CARTESIAN_POINT ( 'NONE',  ( 0.6800000000000002709, 0.4500000000000000666, -0.3999999999999995781 ) ) ;
#812 = PLANE ( 'NONE',  #874 ) ;
#813 = EDGE_CURVE ( 'NONE', #702, #1219, #654, .T. ) ;
#814 = ORIENTED_EDGE ( 'NONE', *, *, #429, .T. ) ;
#815 = ADVANCED_FACE ( 'NONE', ( #495 ), #643, .F. ) ;
#816 = DIRECTION ( 'NONE',  ( 1.000000000000000000, 0.0000000000000000000, 4.336808689942018525E-15 ) ) ;
#817 = DIRECTION ( 'NONE',  ( -2.168404344971003346E-15, 1.000000000000000000, -2.938735877055710888E-31 ) ) ;
#818 = CARTESIAN_POINT ( 'NONE',  ( 0.7999999999999998224, 0.4500000000000000666, -0.4000000000000003553 ) ) ;
#819 = FACE_OUTER_BOUND ( 'NONE', #821, .T. ) ;
#820 = VECTOR ( 'NONE', #1094, 1000.000000000000000 ) ;
#821 = EDGE_LOOP ( 'NONE', ( #1162, #501, #487, #719 ) ) ;
#822 = LINE ( 'NONE', #1055, #54 ) ;
#823 = ORIENTED_EDGE ( 'NONE', *, *, #1130, .F. ) ;
#824 = ORIENTED_EDGE ( 'NONE', *, *, #145, .F. ) ;
#825 = DIRECTION ( 'NONE',  ( 4.336808689942018525E-15, 0.0000000000000000000, -1.000000000000000000 ) ) ;
#826 = EDGE_CURVE ( 'NONE', #142, #382, #506, .T. ) ;
#827 = LINE ( 'NONE', #297, #1022 ) ;
#828 = LINE ( 'NONE', #1165, #1024 ) ;
#829 = EDGE_CURVE ( 'NONE', #865, #1017, #481, .T. ) ;
#830 = CARTESIAN_POINT ( 'NONE',  ( 0.5000000000000000000, 0.4500000000000000666, 0.3999999999999998557 ) ) ;
#831 = LINE ( 'NONE', #802, #190 ) ;
#832 = VERTEX_POINT ( 'NONE', #934 ) ;
#833 = VERTEX_POINT ( 'NONE', #375 ) ;
#834 = CARTESIAN_POINT ( 'NONE',  ( 0.7500000000000002220, 0.05000000000000000278, -0.4000000000000001332 ) ) ;
#835 = ORIENTED_EDGE ( 'NONE', *, *, #1047, .T. ) ;
#836 = VERTEX_POINT ( 'NONE', #163 ) ;
#837 = ORIENTED_EDGE ( 'NONE', *, *, #701, .T. ) ;
#838 = VECTOR ( 'NONE', #537, 1000.000000000000000 ) ;
#839 = DIRECTION ( 'NONE',  ( 1.000000000000000000, -0.0000000000000000000, -1.445602896647339163E-16 ) ) ;
#840 = LINE ( 'NONE', #955, #562 ) ;
#841 = AXIS2_PLACEMENT_3D ( 'NONE', #761, #583, #963 ) ;
#842 = CARTESIAN_POINT ( 'NONE',  ( -0.4999999999999997780, 0.4000000000000000222, -0.4000000000000001887 ) ) ;
#843 = VECTOR ( 'NONE', #75, 1000.000000000000000 ) ;
#844 = ORIENTED_EDGE ( 'NONE', *, *, #392, .T. ) ;
#845 = EDGE_LOOP ( 'NONE', ( #500, #835, #1033, #951 ) ) ;
#846 = CARTESIAN_POINT ( 'NONE',  ( 0.6799999999999998268, 0.4500000000000000666, 0.4000000000000000222 ) ) ;
#847 = DIRECTION ( 'NONE',  ( 0.0000000000000000000, -1.000000000000000000, -0.0000000000000000000 ) ) ;
#848 = LINE ( 'NONE', #1225, #101 ) ;
#849 = AXIS2_PLACEMENT_3D ( 'NONE', #1128, #561, #363 ) ;
#850 = EDGE_CURVE ( 'NONE', #1200, #907, #703, .T. ) ;
#851 = SURFACE_STYLE_FILL_AREA ( #1191 ) ;
#852 = CARTESIAN_POINT ( 'NONE',  ( 0.7500000000000000000, 0.04999999999999985706, -0.4000000000000004663 ) ) ;
#853 = CARTESIAN_POINT ( 'NONE',  ( -0.6799999999999998268, 0.4500000000000000666, 0.4000000000000000222 ) ) ;
#854 = CARTESIAN_POINT ( 'NONE',  ( -0.4999999999999998890, 0.4500000000000000666, 0.4000000000000000222 ) ) ;
#855 = DIRECTION ( 'NONE',  ( -0.0000000000000000000, -0.0000000000000000000, 1.000000000000000000 ) ) ;
#856 = CARTESIAN_POINT ( 'NONE',  ( 0.4999999999999997780, 0.4000000000000000222, -0.2999999999999997113 ) ) ;
#857 = LINE ( 'NONE', #63, #731 ) ;
#858 = EDGE_LOOP ( 'NONE', ( #743, #559, #796, #247, #234, #246, #6, #182 ) ) ;
#859 = AXIS2_PLACEMENT_3D ( 'NONE', #1084, #885, #518 ) ;
#860 = CARTESIAN_POINT ( 'NONE',  ( -0.7499999999999997780, 0.4000000000000000222, -0.3999999999999999667 ) ) ;
#861 = CARTESIAN_POINT ( 'NONE',  ( -0.6799999999999996048, 0.4500000000000000666, -0.4000000000000003553 ) ) ;
#862 = ORIENTED_EDGE ( 'NONE', *, *, #105, .T. ) ;
#863 = CARTESIAN_POINT ( 'NONE',  ( 0.7500000000000001110, 0.4000000000000000222, -0.4000000000000001332 ) ) ;
#864 = CARTESIAN_POINT ( 'NONE',  ( 0.4999999999999997780, -1.253608761936364502E-16, -0.4000000000000001887 ) ) ;
#865 = VERTEX_POINT ( 'NONE', #551 ) ;
#866 = PLANE ( 'NONE',  #656 ) ;
#867 = DIRECTION ( 'NONE',  ( 1.000000000000000000, -0.0000000000000000000, -0.0000000000000000000 ) ) ;
#868 = LINE ( 'NONE', #1124, #265 ) ;
#869 = CARTESIAN_POINT ( 'NONE',  ( -0.6799999999999996048, -0.001000000000000186937, -0.4000000000000003553 ) ) ;
#870 = EDGE_CURVE ( 'NONE', #1031, #448, #220, .T. ) ;
#871 = CARTESIAN_POINT ( 'NONE',  ( 0.6800000000000002709, 0.4500000000000000666, -0.3999999999999995781 ) ) ;
#872 = PLANE ( 'NONE',  #964 ) ;
#873 = COLOUR_RGB ( '',0.8980392156862745390, 0.9176470588235293713, 0.9294117647058823817 ) ;
#874 = AXIS2_PLACEMENT_3D ( 'NONE', #621, #439, #67 ) ;
#875 = VECTOR ( 'NONE', #1087, 1000.000000000000000 ) ;
#876 = VERTEX_POINT ( 'NONE', #273 ) ;
#877 = EDGE_LOOP ( 'NONE', ( #355, #411, #505, #1215, #629, #528, #431, #558 ) ) ;
#878 = DIRECTION ( 'NONE',  ( 1.000000000000000000, -0.0000000000000000000, -0.0000000000000000000 ) ) ;
#879 = DIRECTION ( 'NONE',  ( 1.000000000000000000, -2.409338161078898687E-16, -1.355252715606880543E-16 ) ) ;
#880 = ORIENTED_EDGE ( 'NONE', *, *, #138, .F. ) ;
#881 = VECTOR ( 'NONE', #295, 1000.000000000000000 ) ;
#882 = ADVANCED_FACE ( 'NONE', ( #942 ), #928, .F. ) ;
#883 = DIRECTION ( 'NONE',  ( 2.409338161078898687E-16, -1.000000000000000000, -6.965892449317258658E-32 ) ) ;
#884 = DIRECTION ( 'NONE',  ( 0.0000000000000000000, 0.0000000000000000000, 1.000000000000000000 ) ) ;
#885 = DIRECTION ( 'NONE',  ( -6.023345402697248937E-16, 0.0000000000000000000, 1.000000000000000000 ) ) ;
#886 = PLANE ( 'NONE',  #502 ) ;
#887 = CARTESIAN_POINT ( 'NONE',  ( -0.6799999999999996048, -0.001000000000000186937, -0.3000000000000003775 ) ) ;
#888 = DIRECTION ( 'NONE',  ( -1.000000000000000000, 1.242314989306307082E-16, 2.891205793294678326E-16 ) ) ;
#889 = VECTOR ( 'NONE', #1005, 1000.000000000000000 ) ;
#890 = ORIENTED_EDGE ( 'NONE', *, *, #691, .T. ) ;
#891 = VECTOR ( 'NONE', #499, 1000.000000000000000 ) ;
#892 = CARTESIAN_POINT ( 'NONE',  ( 0.0000000000000000000, 0.0000000000000000000, 0.0000000000000000000 ) ) ;
#893 = DIRECTION ( 'NONE',  ( 0.0000000000000000000, 1.000000000000000000, 1.355252715606880296E-16 ) ) ;
#894 = ORIENTED_EDGE ( 'NONE', *, *, #91, .F. ) ;
#895 = EDGE_CURVE ( 'NONE', #912, #651, #868, .T. ) ;
#896 = UNCERTAINTY_MEASURE_WITH_UNIT (LENGTH_MEASURE( 1.000000000000000082E-05 ), #536, 'distance_accuracy_value', 'NONE');
#897 = ADVANCED_FACE ( 'NONE', ( #454 ), #1120, .F. ) ;
#898 = ORIENTED_EDGE ( 'NONE', *, *, #657, .T. ) ;
#899 = ORIENTED_EDGE ( 'NONE', *, *, #1001, .F. ) ;
#900 = CARTESIAN_POINT ( 'NONE',  ( -0.7499999999999997780, 0.4000000000000000222, 0.4000000000000001332 ) ) ;
#901 = VECTOR ( 'NONE', #549, 1000.000000000000000 ) ;
#902 =( NAMED_UNIT ( * ) PLANE_ANGLE_UNIT ( ) SI_UNIT ( $, .RADIAN. ) );
#903 = CARTESIAN_POINT ( 'NONE',  ( -0.7500000000000000000, 0.4000000000000000777, -0.4000000000000001887 ) ) ;
#904 = FACE_OUTER_BOUND ( 'NONE', #259, .T. ) ;
#905 = PRESENTATION_LAYER_ASSIGNMENT (  '', '', ( #524 ) ) ;
#906 = ORIENTED_EDGE ( 'NONE', *, *, #370, .F. ) ;
#907 = VERTEX_POINT ( 'NONE', #466 ) ;
#908 = PLANE ( 'NONE',  #1141 ) ;
#909 = DIRECTION ( 'NONE',  ( -0.0000000000000000000, 1.000000000000000000, -0.0000000000000000000 ) ) ;
#910 = MECHANICAL_DESIGN_GEOMETRIC_PRESENTATION_REPRESENTATION (  '', ( #804 ), #1125 ) ;
#911 = VERTEX_POINT ( 'NONE', #739 ) ;
#912 = VERTEX_POINT ( 'NONE', #658 ) ;
#913 = VECTOR ( 'NONE', #1217, 1000.000000000000000 ) ;
#914 = FILL_AREA_STYLE ('',( #727 ) ) ;
#915 = VECTOR ( 'NONE', #909, 1000.000000000000000 ) ;
#916 = CARTESIAN_POINT ( 'NONE',  ( 0.7500000000000002220, 0.4000000000000000222, 0.3999999999999999112 ) ) ;
#917 = AXIS2_PLACEMENT_3D ( 'NONE', #109, #670, #200 ) ;
#918 = DIRECTION ( 'NONE',  ( -0.0000000000000000000, 1.000000000000000000, -0.0000000000000000000 ) ) ;
#919 = EDGE_CURVE ( 'NONE', #876, #832, #147, .T. ) ;
#920 = DIRECTION ( 'NONE',  ( 0.0000000000000000000, -0.0000000000000000000, -1.000000000000000000 ) ) ;
#921 = VECTOR ( 'NONE', #923, 1000.000000000000000 ) ;
#922 = VECTOR ( 'NONE', #509, 1000.000000000000000 ) ;
#923 = DIRECTION ( 'NONE',  ( 1.242314989306307082E-16, -1.000000000000000000, 1.084202172485501476E-15 ) ) ;
#924 = DIRECTION ( 'NONE',  ( -2.409338161078898687E-16, -1.000000000000000000, 0.0000000000000000000 ) ) ;
#925 = ORIENTED_EDGE ( 'NONE', *, *, #958, .F. ) ;
#926 = EDGE_LOOP ( 'NONE', ( #168, #26, #971, #957, #894, #85, #1209, #837 ) ) ;
#927 = ORIENTED_EDGE ( 'NONE', *, *, #41, .F. ) ;
#928 = PLANE ( 'NONE',  #143 ) ;
#929 = EDGE_CURVE ( 'NONE', #648, #248, #620, .T. ) ;
#930 = VERTEX_POINT ( 'NONE', #11 ) ;
#931 = LINE ( 'NONE', #834, #724 ) ;
#932 = DIRECTION ( 'NONE',  ( 0.0000000000000000000, -1.000000000000000000, 0.0000000000000000000 ) ) ;
#933 = EDGE_CURVE ( 'NONE', #382, #386, #1098, .T. ) ;
#934 = CARTESIAN_POINT ( 'NONE',  ( -0.8000000000000002665, -1.355252715606880543E-16, 0.3999999999999999667 ) ) ;
#935 = LINE ( 'NONE', #194, #947 ) ;
#936 = ORIENTED_EDGE ( 'NONE', *, *, #235, .T. ) ;
#937 = ORIENTED_EDGE ( 'NONE', *, *, #850, .T. ) ;
#938 = CARTESIAN_POINT ( 'NONE',  ( -0.4999999999999998890, -0.001000000000000186937, 0.3000000000000000444 ) ) ;
#939 = VERTEX_POINT ( 'NONE', #289 ) ;
#940 = AXIS2_PLACEMENT_3D ( 'NONE', #267, #932, #920 ) ;
#941 = EDGE_LOOP ( 'NONE', ( #126, #477, #776, #732 ) ) ;
#942 = FACE_OUTER_BOUND ( 'NONE', #1035, .T. ) ;
#943 = CARTESIAN_POINT ( 'NONE',  ( -0.8000000000000000444, -1.626303258728256651E-16, 0.4000000000000000222 ) ) ;
#944 =( LENGTH_UNIT ( ) NAMED_UNIT ( * ) SI_UNIT ( .MILLI., .METRE. ) );
#945 = DIRECTION ( 'NONE',  ( -1.242314989306307082E-16, 1.000000000000000000, 0.0000000000000000000 ) ) ;
#946 = DIRECTION ( 'NONE',  ( -1.242314989306307082E-16, 1.000000000000000000, 0.0000000000000000000 ) ) ;
#947 = VECTOR ( 'NONE', #949, 1000.000000000000000 ) ;
#948 = PLANE ( 'NONE',  #175 ) ;
#949 = DIRECTION ( 'NONE',  ( -1.000000000000000000, 1.242314989306307082E-16, 2.891205793294678326E-16 ) ) ;
#950 = FACE_OUTER_BOUND ( 'NONE', #972, .T. ) ;
#951 = ORIENTED_EDGE ( 'NONE', *, *, #673, .F. ) ;
#952 = SURFACE_STYLE_FILL_AREA ( #576 ) ;
#953 = VERTEX_POINT ( 'NONE', #1142 ) ;
#954 = CARTESIAN_POINT ( 'NONE',  ( -0.7499999999999997780, 0.05000000000000000278, -0.4000000000000001332 ) ) ;
#955 = CARTESIAN_POINT ( 'NONE',  ( 0.5000000000000000000, -1.253608761936364502E-16, 0.3999999999999998557 ) ) ;
#956 = DIRECTION ( 'NONE',  ( -1.000000000000000000, -0.0000000000000000000, -0.0000000000000000000 ) ) ;
#957 = ORIENTED_EDGE ( 'NONE', *, *, #51, .F. ) ;
#958 = EDGE_CURVE ( 'NONE', #248, #318, #738, .T. ) ;
#959 = VECTOR ( 'NONE', #180, 1000.000000000000000 ) ;
#960 = CARTESIAN_POINT ( 'NONE',  ( 0.5000000000000000000, 0.4500000000000000666, 0.3999999999999998557 ) ) ;
#961 = DIRECTION ( 'NONE',  ( 0.0000000000000000000, 0.0000000000000000000, -1.000000000000000000 ) ) ;
#962 = CARTESIAN_POINT ( 'NONE',  ( 0.7999999999999998224, 0.4500000000000000666, -0.4000000000000003553 ) ) ;
#963 = DIRECTION ( 'NONE',  ( 1.000000000000000000, 2.168404344971003346E-15, 0.0000000000000000000 ) ) ;
#964 = AXIS2_PLACEMENT_3D ( 'NONE', #1070, #507, #671 ) ;
#965 = LINE ( 'NONE', #207, #712 ) ;
#966 = ORIENTED_EDGE ( 'NONE', *, *, #263, .T. ) ;
#967 = LINE ( 'NONE', #189, #733 ) ;
#968 = ORIENTED_EDGE ( 'NONE', *, *, #1210, .T. ) ;
#969 = DIRECTION ( 'NONE',  ( 0.0000000000000000000, -1.355252715606880296E-16, 1.000000000000000000 ) ) ;
#970 = EDGE_LOOP ( 'NONE', ( #1175, #793, #880, #531 ) ) ;
#971 = ORIENTED_EDGE ( 'NONE', *, *, #348, .T. ) ;
#972 = EDGE_LOOP ( 'NONE', ( #402, #668, #557, #25 ) ) ;
#973 = ORIENTED_EDGE ( 'NONE', *, *, #172, .F. ) ;
#974 = VECTOR ( 'NONE', #839, 1000.000000000000000 ) ;
#975 = EDGE_CURVE ( 'NONE', #566, #1097, #1201, .T. ) ;
#976 = CARTESIAN_POINT ( 'NONE',  ( 0.4999999999999998890, 0.4500000000000000666, 0.3000000000000000444 ) ) ;
#977 = CARTESIAN_POINT ( 'NONE',  ( -0.7499999999999997780, 0.4000000000000000222, -0.3999999999999999667 ) ) ;
#978 = CARTESIAN_POINT ( 'NONE',  ( 1.576560977094070060, 0.3999999999999999112, 0.3999999999999995226 ) ) ;
#979 = LINE ( 'NONE', #484, #624 ) ;
#980 = AXIS2_PLACEMENT_3D ( 'NONE', #114, #503, #763 ) ;
#981 = SURFACE_STYLE_FILL_AREA ( #914 ) ;
#982 = CARTESIAN_POINT ( 'NONE',  ( 1.576560977094070282, 0.4500000000000000666, 0.3999999999999995781 ) ) ;
#983 = EDGE_CURVE ( 'NONE', #1167, #628, #278, .T. ) ;
#984 = FACE_OUTER_BOUND ( 'NONE', #1136, .T. ) ;
#985 = VECTOR ( 'NONE', #672, 1000.000000000000000 ) ;
#986 = VERTEX_POINT ( 'NONE', #106 ) ;
#987 = PLANE ( 'NONE',  #859 ) ;
#988 = ORIENTED_EDGE ( 'NONE', *, *, #166, .T. ) ;
#989 = ORIENTED_EDGE ( 'NONE', *, *, #185, .T. ) ;
#990 = UNCERTAINTY_MEASURE_WITH_UNIT (LENGTH_MEASURE( 1.000000000000000082E-05 ), #64, 'distance_accuracy_value', 'NONE');
#991 = VECTOR ( 'NONE', #2, 1000.000000000000000 ) ;
#992 = PRODUCT_CONTEXT ( 'NONE', #328, 'mechanical' ) ;
#993 = DIRECTION ( 'NONE',  ( 1.000000000000000000, 0.0000000000000000000, 0.0000000000000000000 ) ) ;
#994 = CARTESIAN_POINT ( 'NONE',  ( -0.7499999999999998890, 0.05000000000000025258, 0.3999999999999999667 ) ) ;
#995 = EDGE_CURVE ( 'NONE', #53, #301, #387, .T. ) ;
#996 = AXIS2_PLACEMENT_3D ( 'NONE', #999, #816, #825 ) ;
#997 = CARTESIAN_POINT ( 'NONE',  ( 1.576560977094069615, 0.4500000000000000666, -0.4000000000000006328 ) ) ;
#998 = ORIENTED_EDGE ( 'NONE', *, *, #204, .T. ) ;
#999 = CARTESIAN_POINT ( 'NONE',  ( 0.6800000000000002709, -0.001000000000000186937, -0.3999999999999995781 ) ) ;
#1000 = EDGE_LOOP ( 'NONE', ( #989, #316, #90, #554 ) ) ;
#1001 = EDGE_CURVE ( 'NONE', #269, #876, #239, .T. ) ;
#1002 = EDGE_LOOP ( 'NONE', ( #678, #713, #464, #613 ) ) ;
#1003 = ORIENTED_EDGE ( 'NONE', *, *, #741, .F. ) ;
#1004 = ORIENTED_EDGE ( 'NONE', *, *, #1116, .T. ) ;
#1005 = DIRECTION ( 'NONE',  ( 2.168404344971008079E-15, -1.000000000000000000, 0.0000000000000000000 ) ) ;
#1006 = DIRECTION ( 'NONE',  ( -1.355252715606880543E-16, -0.0000000000000000000, -1.000000000000000000 ) ) ;
#1007 = ADVANCED_FACE ( 'NONE', ( #160 ), #193, .F. ) ;
#1008 = CLOSED_SHELL ( 'NONE', ( #130, #707, #312, #35, #346, #1096 ) ) ;
#1009 = VECTOR ( 'NONE', #855, 1000.000000000000000 ) ;
#1010 = LINE ( 'NONE', #606, #104 ) ;
#1011 = AXIS2_PLACEMENT_3D ( 'NONE', #468, #1214, #82 ) ;
#1012 = CARTESIAN_POINT ( 'NONE',  ( 0.6800000000000002709, 0.4000000000000000222, -0.3999999999999995226 ) ) ;
#1013 = CARTESIAN_POINT ( 'NONE',  ( -0.7999999999999999334, 0.4500000000000000111, 0.4000000000000000222 ) ) ;
#1014 = CARTESIAN_POINT ( 'NONE',  ( 1.301560977094069926, 0.4000000000000039080, 0.4000000000000002998 ) ) ;
#1015 = COLOUR_RGB ( '',0.8431372549019607865, 0.8156862745098039102, 0.7529411764705882248 ) ;
#1016 = VECTOR ( 'NONE', #1153, 1000.000000000000000 ) ;
#1017 = VERTEX_POINT ( 'NONE', #92 ) ;
#1018 = CARTESIAN_POINT ( 'NONE',  ( 0.7500000000000002220, 0.4000000000000000222, 0.3999999999999999112 ) ) ;
#1019 = ORIENTED_EDGE ( 'NONE', *, *, #91, .T. ) ;
#1020 = AXIS2_PLACEMENT_3D ( 'NONE', #790, #805, #433 ) ;
#1021 = EDGE_LOOP ( 'NONE', ( #467, #131, #517, #383 ) ) ;
#1022 = VECTOR ( 'NONE', #766, 1000.000000000000000 ) ;
#1023 = DIRECTION ( 'NONE',  ( 1.084202172485504434E-16, -0.0000000000000000000, 1.000000000000000000 ) ) ;
#1024 = VECTOR ( 'NONE', #413, 1000.000000000000000 ) ;
#1025 = CARTESIAN_POINT ( 'NONE',  ( -0.4999999999999998890, -1.253608761936364502E-16, 0.4000000000000000222 ) ) ;
#1026 = EDGE_CURVE ( 'NONE', #702, #386, #848, .T. ) ;
#1027 = CARTESIAN_POINT ( 'NONE',  ( -0.4999999999999996669, 0.3999999999999999112, -0.3000000000000002665 ) ) ;
#1028 = LINE ( 'NONE', #962, #1104 ) ;
#1029 = DIRECTION ( 'NONE',  ( -0.0000000000000000000, 1.000000000000000000, -0.0000000000000000000 ) ) ;
#1030 = VERTEX_POINT ( 'NONE', #655 ) ;
#1031 = VERTEX_POINT ( 'NONE', #187 ) ;
#1032 = AXIS2_PLACEMENT_3D ( 'NONE', #791, #331, #423 ) ;
#1033 = ORIENTED_EDGE ( 'NONE', *, *, #256, .T. ) ;
#1034 = ORIENTED_EDGE ( 'NONE', *, *, #1110, .T. ) ;
#1035 = EDGE_LOOP ( 'NONE', ( #1212, #823, #1193, #595 ) ) ;
#1036 = VECTOR ( 'NONE', #807, 1000.000000000000000 ) ;
#1037 = LINE ( 'NONE', #604, #750 ) ;
#1038 = DIRECTION ( 'NONE',  ( -1.000000000000000000, 0.0000000000000000000, 0.0000000000000000000 ) ) ;
#1039 = PRESENTATION_LAYER_ASSIGNMENT (  '', '', ( #804 ) ) ;
#1040 = CARTESIAN_POINT ( 'NONE',  ( 0.8000000000000003775, -1.355252715606880543E-16, 0.3999999999999997446 ) ) ;
#1041 = VECTOR ( 'NONE', #753, 1000.000000000000000 ) ;
#1042 = LINE ( 'NONE', #633, #889 ) ;
#1043 = ORIENTED_EDGE ( 'NONE', *, *, #78, .T. ) ;
#1044 = ORIENTED_EDGE ( 'NONE', *, *, #300, .F. ) ;
#1045 = ORIENTED_EDGE ( 'NONE', *, *, #242, .F. ) ;
#1046 = EDGE_LOOP ( 'NONE', ( #1043, #171, #178, #568, #1044, #600, #449, #898 ) ) ;
#1047 = EDGE_CURVE ( 'NONE', #865, #758, #133, .T. ) ;
#1048 = FACE_OUTER_BOUND ( 'NONE', #1000, .T. ) ;
#1049 = CARTESIAN_POINT ( 'NONE',  ( -0.7499999999999997780, 0.4000000000000000222, -0.3999999999999999667 ) ) ;
#1050 = PLANE ( 'NONE',  #186 ) ;
#1051 = FACE_OUTER_BOUND ( 'NONE', #196, .T. ) ;
#1052 = SURFACE_SIDE_STYLE ('',( #952 ) ) ;
#1053 = CARTESIAN_POINT ( 'NONE',  ( 1.301560977094069704, 0.4500000000000039524, 0.4000000000000002998 ) ) ;
#1054 = PLANE ( 'NONE',  #841 ) ;
#1055 = CARTESIAN_POINT ( 'NONE',  ( 1.576560977094070282, 0.4500000000000000666, 0.3999999999999995781 ) ) ;
#1056 = EDGE_CURVE ( 'NONE', #1223, #628, #550, .T. ) ;
#1057 = STYLED_ITEM ( 'NONE', ( #33 ), #266 ) ;
#1058 = DIRECTION ( 'NONE',  ( 1.000000000000000000, -2.168404344971003346E-15, -4.246458508901558376E-16 ) ) ;
#1059 = VECTOR ( 'NONE', #709, 1000.000000000000000 ) ;
#1060 = ORIENTED_EDGE ( 'NONE', *, *, #569, .T. ) ;
#1061 = CARTESIAN_POINT ( 'NONE',  ( -0.4999999999999998890, -9.825582188149879003E-17, 0.3999999999999999667 ) ) ;
#1062 = ORIENTED_EDGE ( 'NONE', *, *, #958, .T. ) ;
#1063 = ORIENTED_EDGE ( 'NONE', *, *, #1001, .T. ) ;
#1064 = CARTESIAN_POINT ( 'NONE',  ( -0.4999999999999998890, 0.05000000000000032196, -0.4000000000000001887 ) ) ;
#1065 = ORIENTED_EDGE ( 'NONE', *, *, #419, .T. ) ;
#1066 = EDGE_CURVE ( 'NONE', #759, #652, #43, .T. ) ;
#1067 = VECTOR ( 'NONE', #570, 1000.000000000000000 ) ;
#1068 = VECTOR ( 'NONE', #706, 1000.000000000000000 ) ;
#1069 = CARTESIAN_POINT ( 'NONE',  ( -0.6799999999999998268, 0.4500000000000000666, 0.4000000000000000222 ) ) ;
#1070 = CARTESIAN_POINT ( 'NONE',  ( 0.4999999999999998890, 0.02500000000000007772, -2.529805069132843351E-16 ) ) ;
#1071 = AXIS2_PLACEMENT_3D ( 'NONE', #483, #563, #945 ) ;
#1072 = LINE ( 'NONE', #457, #843 ) ;
#1073 = ADVANCED_FACE ( 'NONE', ( #76 ), #948, .F. ) ;
#1074 = PLANE ( 'NONE',  #13 ) ;
#1075 = EDGE_LOOP ( 'NONE', ( #341, #698, #1045, #1134 ) ) ;
#1076 = VECTOR ( 'NONE', #108, 1000.000000000000000 ) ;
#1077 = CARTESIAN_POINT ( 'NONE',  ( 0.5000000000000000000, 0.4500000000000000666, 0.3000000000000000444 ) ) ;
#1078 = ORIENTED_EDGE ( 'NONE', *, *, #492, .T. ) ;
#1079 = DIRECTION ( 'NONE',  ( 3.134651602192758514E-31, 1.000000000000000000, 1.084202172485501673E-15 ) ) ;
#1080 = ORIENTED_EDGE ( 'NONE', *, *, #185, .F. ) ;
#1081 = CARTESIAN_POINT ( 'NONE',  ( 0.7499999999999998890, 0.4000000000000000777, -0.4000000000000004108 ) ) ;
#1082 = ADVANCED_FACE ( 'NONE', ( #292 ), #279, .T. ) ;
#1083 = LINE ( 'NONE', #690, #1068 ) ;
#1084 = CARTESIAN_POINT ( 'NONE',  ( 0.4999999999999998890, -0.001000000000000186937, -0.2999999999999997113 ) ) ;
#1085 = PLANE ( 'NONE',  #1032 ) ;
#1086 = ADVANCED_FACE ( 'NONE', ( #360 ), #479, .F. ) ;
#1087 = DIRECTION ( 'NONE',  ( 4.246458508901558376E-16, 1.508551083555264881E-30, 1.000000000000000000 ) ) ;
#1088 = LINE ( 'NONE', #227, #806 ) ;
#1089 = CARTESIAN_POINT ( 'NONE',  ( 0.4999999999999998890, 0.3999999999999999112, 0.3000000000000000444 ) ) ;
#1090 = EDGE_CURVE ( 'NONE', #832, #1200, #827, .T. ) ;
#1091 = ORIENTED_EDGE ( 'NONE', *, *, #741, .T. ) ;
#1092 = LINE ( 'NONE', #591, #212 ) ;
#1093 = ORIENTED_EDGE ( 'NONE', *, *, #755, .T. ) ;
#1094 = DIRECTION ( 'NONE',  ( -1.000000000000000000, 0.0000000000000000000, 2.891205793294678326E-16 ) ) ;
#1095 = PLANE ( 'NONE',  #679 ) ;
#1096 = ADVANCED_FACE ( 'NONE', ( #1048 ), #866, .T. ) ;
#1097 = VERTEX_POINT ( 'NONE', #117 ) ;
#1098 = LINE ( 'NONE', #954, #1009 ) ;
#1099 = AXIS2_PLACEMENT_3D ( 'NONE', #830, #730, #364 ) ;
#1100 = DIRECTION ( 'NONE',  ( -0.0000000000000000000, 1.000000000000000000, -0.0000000000000000000 ) ) ;
#1101 = DIRECTION ( 'NONE',  ( 1.000000000000000000, -0.0000000000000000000, -0.0000000000000000000 ) ) ;
#1102 = ADVANCED_FACE ( 'NONE', ( #632 ), #666, .F. ) ;
#1103 = DIRECTION ( 'NONE',  ( 1.535953077687798277E-16, -1.355252715606880296E-16, 1.000000000000000000 ) ) ;
#1104 = VECTOR ( 'NONE', #404, 1000.000000000000000 ) ;
#1105 = LINE ( 'NONE', #997, #820 ) ;
#1106 = DIRECTION ( 'NONE',  ( 1.242314989306307082E-16, 1.000000000000000000, -3.591788294179211222E-32 ) ) ;
#1107 = PLANE ( 'NONE',  #354 ) ;
#1108 = ORIENTED_EDGE ( 'NONE', *, *, #755, .F. ) ;
#1109 = EDGE_CURVE ( 'NONE', #810, #339, #798, .T. ) ;
#1110 = EDGE_CURVE ( 'NONE', #1097, #62, #677, .T. ) ;
#1111 = EDGE_LOOP ( 'NONE', ( #1093, #663, #237, #927 ) ) ;
#1112 = CARTESIAN_POINT ( 'NONE',  ( 0.4999999999999998890, -0.001000000000000186937, 0.3000000000000000444 ) ) ;
#1113 = EDGE_LOOP ( 'NONE', ( #1065, #937, #778, #261 ) ) ;
#1114 = VECTOR ( 'NONE', #1101, 1000.000000000000000 ) ;
#1115 = CARTESIAN_POINT ( 'NONE',  ( -0.7499999999999997780, 0.05000000000000000278, -0.4000000000000001332 ) ) ;
#1116 = EDGE_CURVE ( 'NONE', #504, #833, #73, .T. ) ;
#1117 = DIRECTION ( 'NONE',  ( -1.000000000000000000, -0.0000000000000000000, -0.0000000000000000000 ) ) ;
#1118 = PRODUCT_DEFINITION_SHAPE ( 'NONE', 'NONE',  #209 ) ;
#1119 = CARTESIAN_POINT ( 'NONE',  ( -0.5000000000000000000, 0.4500000000000000666, 0.4000000000000000222 ) ) ;
#1120 = PLANE ( 'NONE',  #1011 ) ;
#1121 = LINE ( 'NONE', #1013, #314 ) ;
#1122 = VERTEX_POINT ( 'NONE', #860 ) ;
#1123 = ORIENTED_EDGE ( 'NONE', *, *, #492, .F. ) ;
#1124 = CARTESIAN_POINT ( 'NONE',  ( -0.7499999999999997780, 0.3999999999999999667, 0.3999999999999999667 ) ) ;
#1125 =( GEOMETRIC_REPRESENTATION_CONTEXT ( 3 ) GLOBAL_UNCERTAINTY_ASSIGNED_CONTEXT ( ( #195 ) ) GLOBAL_UNIT_ASSIGNED_CONTEXT ( ( #944, #575, #489 ) ) REPRESENTATION_CONTEXT ( 'NONE', 'WORKASPACE' ) );
#1126 = ORIENTED_EDGE ( 'NONE', *, *, #983, .F. ) ;
#1127 = VECTOR ( 'NONE', #625, 1000.000000000000000 ) ;
#1128 = CARTESIAN_POINT ( 'NONE',  ( 0.4999999999999998890, -0.001000000000000186937, 0.3000000000000000444 ) ) ;
#1129 = PRESENTATION_LAYER_ASSIGNMENT (  '', '', ( #230 ) ) ;
#1130 = EDGE_CURVE ( 'NONE', #1196, #1221, #1092, .T. ) ;
#1131 = FACE_OUTER_BOUND ( 'NONE', #773, .T. ) ;
#1132 = LINE ( 'NONE', #514, #286 ) ;
#1133 = ORIENTED_EDGE ( 'NONE', *, *, #975, .T. ) ;
#1134 = ORIENTED_EDGE ( 'NONE', *, *, #409, .F. ) ;
#1135 = CARTESIAN_POINT ( 'NONE',  ( -0.4999999999999998890, 0.4500000000000000666, 0.4000000000000000222 ) ) ;
#1136 = EDGE_LOOP ( 'NONE', ( #307, #586, #1220, #1078, #368, #814, #1168, #681 ) ) ;
#1137 = VERTEX_POINT ( 'NONE', #864 ) ;
#1138 = FACE_OUTER_BOUND ( 'NONE', #970, .T. ) ;
#1139 = DIRECTION ( 'NONE',  ( -4.246458508901558376E-16, 0.0000000000000000000, -1.000000000000000000 ) ) ;
#1140 = SURFACE_SIDE_STYLE ('',( #188 ) ) ;
#1141 = AXIS2_PLACEMENT_3D ( 'NONE', #460, #349, #721 ) ;
#1142 = CARTESIAN_POINT ( 'NONE',  ( -0.6799999999999996048, 0.4500000000000000666, -0.3000000000000003775 ) ) ;
#1143 = SURFACE_STYLE_USAGE ( .BOTH. , #1140 ) ;
#1144 =( LENGTH_UNIT ( ) NAMED_UNIT ( * ) SI_UNIT ( .MILLI., .METRE. ) );
#1145 = VECTOR ( 'NONE', #1100, 1000.000000000000000 ) ;
#1146 = ORIENTED_EDGE ( 'NONE', *, *, #919, .F. ) ;
#1147 = LINE ( 'NONE', #667, #260 ) ;
#1148 = DIRECTION ( 'NONE',  ( -1.242314989306303877E-16, -1.000000000000000000, 1.084202172485501476E-15 ) ) ;
#1149 = ORIENTED_EDGE ( 'NONE', *, *, #1066, .T. ) ;
#1150 = CARTESIAN_POINT ( 'NONE',  ( -0.7500000000000000000, 0.4000000000000000222, -0.4000000000000002998 ) ) ;
#1151 = EDGE_CURVE ( 'NONE', #876, #907, #714, .T. ) ;
#1152 = VERTEX_POINT ( 'NONE', #871 ) ;
#1153 = DIRECTION ( 'NONE',  ( -1.000000000000000000, 8.163155214043664953E-32, -6.023345402697248937E-16 ) ) ;
#1154 = DIRECTION ( 'NONE',  ( -0.0000000000000000000, 1.000000000000000000, -0.0000000000000000000 ) ) ;
#1155 = DIRECTION ( 'NONE',  ( -1.000000000000000000, 1.242314989306307082E-16, 2.891205793294678326E-16 ) ) ;
#1156 = UNCERTAINTY_MEASURE_WITH_UNIT (LENGTH_MEASURE( 1.000000000000000082E-05 ), #55, 'distance_accuracy_value', 'NONE');
#1157 = AXIS2_PLACEMENT_3D ( 'NONE', #943, #393, #574 ) ;
#1158 = CARTESIAN_POINT ( 'NONE',  ( -0.4999999999999998890, 0.4500000000000000666, 0.3000000000000000444 ) ) ;
#1159 = VECTOR ( 'NONE', #244, 1000.000000000000000 ) ;
#1160 = DIRECTION ( 'NONE',  ( 0.0000000000000000000, 0.0000000000000000000, 1.000000000000000000 ) ) ;
#1161 = ORIENTED_EDGE ( 'NONE', *, *, #7, .T. ) ;
#1162 = ORIENTED_EDGE ( 'NONE', *, *, #226, .F. ) ;
#1163 = CARTESIAN_POINT ( 'NONE',  ( 1.576560977094069838, 0.4000000000000000222, -0.4000000000000006328 ) ) ;
#1164 = CARTESIAN_POINT ( 'NONE',  ( 0.4999999999999998890, 0.4000000000000021871, 0.4000000000000006328 ) ) ;
#1165 = CARTESIAN_POINT ( 'NONE',  ( -0.4999999999999996669, -0.001000000000000186937, -0.3000000000000002665 ) ) ;
#1166 = ADVANCED_FACE ( 'NONE', ( #567 ), #309, .F. ) ;
#1167 = VERTEX_POINT ( 'NONE', #768 ) ;
#1168 = ORIENTED_EDGE ( 'NONE', *, *, #440, .F. ) ;
#1169 = VECTOR ( 'NONE', #746, 1000.000000000000000 ) ;
#1170 = CARTESIAN_POINT ( 'NONE',  ( 0.8000000000000000444, 0.4500000000000000111, 0.3999999999999998002 ) ) ;
#1171 = DIRECTION ( 'NONE',  ( -0.0000000000000000000, 1.000000000000000000, -0.0000000000000000000 ) ) ;
#1172 = ADVANCED_FACE ( 'NONE', ( #1194 ), #408, .F. ) ;
#1173 = EDGE_CURVE ( 'NONE', #651, #1196, #967, .T. ) ;
#1174 = LINE ( 'NONE', #598, #177 ) ;
#1175 = ORIENTED_EDGE ( 'NONE', *, *, #1026, .T. ) ;
#1176 = DIRECTION ( 'NONE',  ( -0.0000000000000000000, 1.000000000000000000, -0.0000000000000000000 ) ) ;
#1177 = ADVANCED_FACE ( 'NONE', ( #399 ), #296, .F. ) ;
#1178 = ORIENTED_EDGE ( 'NONE', *, *, #1192, .F. ) ;
#1179 = AXIS2_PLACEMENT_3D ( 'NONE', #869, #206, #1160 ) ;
#1180 = ORIENTED_EDGE ( 'NONE', *, *, #520, .T. ) ;
#1181 = CARTESIAN_POINT ( 'NONE',  ( 0.7500000000000000000, 0.05000000000000025258, 0.3999999999999997446 ) ) ;
#1182 = PLANE ( 'NONE',  #749 ) ;
#1183 = LINE ( 'NONE', #903, #838 ) ;
#1184 = EDGE_CURVE ( 'NONE', #628, #359, #232, .T. ) ;
#1185 = ADVANCED_FACE ( 'NONE', ( #474 ), #291, .F. ) ;
#1186 = FILL_AREA_STYLE_COLOUR ( '', #270 ) ;
#1187 = CARTESIAN_POINT ( 'NONE',  ( 0.7499999999999998890, 0.05000000000000018319, -0.4000000000000004108 ) ) ;
#1188 = MANIFOLD_SOLID_BREP ( 'Extruir5[2]', #619 ) ;
#1189 = CARTESIAN_POINT ( 'NONE',  ( 1.301560977094069926, 0.4000000000000039080, -0.3999999999999999112 ) ) ;
#1190 = VECTOR ( 'NONE', #867, 1000.000000000000000 ) ;
#1191 = FILL_AREA_STYLE ('',( #540 ) ) ;
#1192 = EDGE_CURVE ( 'NONE', #744, #759, #822, .T. ) ;
#1193 = ORIENTED_EDGE ( 'NONE', *, *, #1173, .F. ) ;
#1194 = FACE_OUTER_BOUND ( 'NONE', #808, .T. ) ;
#1195 = VERTEX_POINT ( 'NONE', #578 ) ;
#1196 = VERTEX_POINT ( 'NONE', #14 ) ;
#1197 =( NAMED_UNIT ( * ) SI_UNIT ( $, .STERADIAN. ) SOLID_ANGLE_UNIT ( ) );
#1198 = CARTESIAN_POINT ( 'NONE',  ( 0.7500000000000001110, 0.4000000000000000222, -0.4000000000000001332 ) ) ;
#1199 = ORIENTED_EDGE ( 'NONE', *, *, #41, .T. ) ;
#1200 = VERTEX_POINT ( 'NONE', #1061 ) ;
#1201 = LINE ( 'NONE', #102, #1169 ) ;
#1202 = AXIS2_PLACEMENT_3D ( 'NONE', #508, #799, #31 ) ;
#1203 = VECTOR ( 'NONE', #612, 1000.000000000000000 ) ;
#1204 = CARTESIAN_POINT ( 'NONE',  ( 0.7499999999999998890, 0.4000000000000000222, -0.4000000000000005218 ) ) ;
#1205 = VECTOR ( 'NONE', #110, 1000.000000000000000 ) ;
#1206 = VECTOR ( 'NONE', #918, 1000.000000000000000 ) ;
#1207 = CARTESIAN_POINT ( 'NONE',  ( -0.4999999999999998890, 0.2250000000000001443, 0.3999999999999997446 ) ) ;
#1208 = CARTESIAN_POINT ( 'NONE',  ( 0.6800000000000002709, -0.001000000000000186937, -0.3999999999999995781 ) ) ;
#1209 = ORIENTED_EDGE ( 'NONE', *, *, #520, .F. ) ;
#1210 = EDGE_CURVE ( 'NONE', #534, #1223, #1147, .T. ) ;
#1211 = LINE ( 'NONE', #1150, #891 ) ;
#1212 = ORIENTED_EDGE ( 'NONE', *, *, #545, .F. ) ;
#1213 = DIRECTION ( 'NONE',  ( 0.0000000000000000000, -0.0000000000000000000, 1.000000000000000000 ) ) ;
#1214 = DIRECTION ( 'NONE',  ( -6.023345402697248937E-16, 0.0000000000000000000, 1.000000000000000000 ) ) ;
#1215 = ORIENTED_EDGE ( 'NONE', *, *, #105, .F. ) ;
#1216 = EDGE_CURVE ( 'NONE', #1030, #912, #1211, .T. ) ;
#1217 = DIRECTION ( 'NONE',  ( 0.0000000000000000000, 0.0000000000000000000, -1.000000000000000000 ) ) ;
#1218 = LINE ( 'NONE', #118, #786 ) ;
#1219 = VERTEX_POINT ( 'NONE', #18 ) ;
#1220 = ORIENTED_EDGE ( 'NONE', *, *, #78, .F. ) ;
#1221 = VERTEX_POINT ( 'NONE', #1064 ) ;
#1222 = ORIENTED_EDGE ( 'NONE', *, *, #129, .F. ) ;
#1223 = VERTEX_POINT ( 'NONE', #1158 ) ;
#1224 = FACE_OUTER_BOUND ( 'NONE', #617, .T. ) ;
#1225 = CARTESIAN_POINT ( 'NONE',  ( -0.7499999999999997780, 0.4000000000000000222, 0.4000000000000001332 ) ) ;
ENDSEC;
END-ISO-10303-21;
